<svg xmlns="http://www.w3.org/2000/svg" xmlns:xlink="http://www.w3.org/1999/xlink" viewBox="0 0 405.5 252.77"><defs><pattern id="Simple_planks" data-name="Simple planks" width="92" height="500" patternTransform="translate(-10817.83 11457.7) rotate(90) scale(0.05)" patternUnits="userSpaceOnUse" viewBox="0 0 92 500"><rect width="92" height="500" fill="none"/><rect width="86" height="500" fill="#8c6239"/><rect x="86" width="6" height="500" fill="#694a2b"/></pattern><linearGradient id="linear-gradient" x1="366.87" y1="-107.34" x2="366.87" y2="-144.86" gradientTransform="matrix(0, 0.57, -0.62, 0, 145.36, -75.19)" gradientUnits="userSpaceOnUse"><stop offset="0" stop-color="#fff"/><stop offset="1" stop-color="#a8a8a8"/></linearGradient><linearGradient id="linear-gradient-2" x1="64.88" y1="47.51" x2="64.88" y2="0" gradientTransform="matrix(1, 0, 0, 1, 0, 0)" xlink:href="#linear-gradient"/><linearGradient id="linear-gradient-3" x1="156.42" y1="47.51" x2="156.42" y2="0" gradientTransform="matrix(1, 0, 0, 1, 0, 0)" xlink:href="#linear-gradient"/><linearGradient id="linear-gradient-4" x1="248.06" y1="47.51" x2="248.06" y2="0" gradientTransform="matrix(1, 0, 0, 1, 0, 0)" xlink:href="#linear-gradient"/><linearGradient id="linear-gradient-5" x1="339.61" y1="47.51" x2="339.61" y2="0" gradientTransform="matrix(1, 0, 0, 1, 0, 0)" xlink:href="#linear-gradient"/><linearGradient id="linear-gradient-6" x1="92.91" y1="60.73" x2="92.91" y2="13.22" gradientTransform="matrix(1, 0, 0, 1, 0, 0)" xlink:href="#linear-gradient"/><linearGradient id="linear-gradient-7" x1="202.69" y1="60.73" x2="202.69" y2="13.22" gradientTransform="matrix(1, 0, 0, 1, 0, 0)" xlink:href="#linear-gradient"/><linearGradient id="linear-gradient-8" x1="312.59" y1="60.73" x2="312.59" y2="13.22" gradientTransform="matrix(1, 0, 0, 1, 0, 0)" xlink:href="#linear-gradient"/><pattern id="Simple_planks-3" data-name="Simple planks" width="92" height="500" patternTransform="translate(134.01 1115.09) rotate(90) scale(0.08)" patternUnits="userSpaceOnUse" viewBox="0 0 92 500"><rect width="92" height="500" fill="none"/><rect width="86" height="500" fill="#8c6239"/><rect x="86" width="6" height="500" fill="#694a2b"/></pattern></defs><title>aft sail</title><g id="Layer_2" data-name="Layer 2"><g id="Aft_sail" data-name="Aft sail"><g id="Rigging"><polygon points="180.78 44.01 180.59 42.49 92.64 51.72 92.83 53.23 180.78 44.01" fill="#261d0d"/><polygon points="185.01 48.28 184.43 46.62 95.84 73.08 96.42 74.74 185.01 48.28" fill="#261d0d"/><polygon points="172.75 43.77 171.26 44.15 173.28 50.86 174.78 50.47 172.75 43.77" fill="#261d0d"/><polygon points="168.03 44.51 166.53 44.89 168.85 52.59 170.35 52.21 168.03 44.51" fill="#261d0d"/><polygon points="162.38 44.75 160.88 45.13 163.46 53.68 164.96 53.3 162.38 44.75" fill="#261d0d"/><polygon points="157.69 45.42 156.19 45.8 158.87 54.66 160.37 54.27 157.69 45.42" fill="#261d0d"/><polygon points="152.3 45.98 150.81 46.36 153.86 56.49 155.36 56.11 152.3 45.98" fill="#261d0d"/><polygon points="146.25 46.91 144.71 47.3 148.04 58.35 149.59 57.95 146.25 46.91" fill="#261d0d"/><polygon points="140.27 47.37 138.8 47.74 142.51 60.04 143.98 59.66 140.27 47.37" fill="#261d0d"/><polygon points="134.07 47.81 132.54 48.2 136.67 61.88 138.2 61.49 134.07 47.81" fill="#261d0d"/><polygon points="128.04 48.27 126.51 48.66 131.13 63.97 132.66 63.58 128.04 48.27" fill="#261d0d"/><polygon points="121.74 49.3 120.22 49.69 124.98 65.49 126.51 65.1 121.74 49.3" fill="#261d0d"/><polygon points="185.46 45.3 185.18 44.13 96.16 62.34 96.44 63.52 185.46 45.3" fill="#261d0d"/><polygon points="115.17 49.68 113.64 50.07 118.76 67.03 120.29 66.64 115.17 49.68" fill="#261d0d"/><polygon points="108.2 50.81 106.68 51.2 112.03 68.95 113.56 68.56 108.2 50.81" fill="#261d0d"/><polygon points="100.96 51.8 99.43 52.19 105.15 71.14 106.68 70.75 100.96 51.8" fill="#261d0d"/><polygon points="94.77 52.79 93.25 53.18 98.98 72.17 100.5 71.78 94.77 52.79" fill="#261d0d"/><polygon points="223.63 43.76 223.82 42.24 306.48 50.93 306.29 52.45 223.63 43.76" fill="#261d0d"/><polygon points="219.39 48.03 219.98 46.37 302.58 71.1 302 72.76 219.39 48.03" fill="#261d0d"/><polygon points="231.65 43.52 233.15 43.9 231.13 50.61 229.63 50.22 231.65 43.52" fill="#261d0d"/><polygon points="236.38 44.26 237.88 44.64 235.56 52.34 234.06 51.96 236.38 44.26" fill="#261d0d"/><polygon points="242.03 44.5 243.53 44.88 240.95 53.43 239.45 53.05 242.03 44.5" fill="#261d0d"/><polygon points="246.72 45.17 248.21 45.55 245.54 54.41 244.04 54.02 246.72 45.17" fill="#261d0d"/><polygon points="252.11 45.73 253.6 46.12 250.55 56.24 249.05 55.86 252.11 45.73" fill="#261d0d"/><polygon points="258.16 46.66 259.7 47.05 256.37 58.1 254.82 57.7 258.16 46.66" fill="#261d0d"/><polygon points="264.14 47.12 265.61 47.49 261.9 59.79 260.43 59.41 264.14 47.12" fill="#261d0d"/><polygon points="270.34 47.56 271.87 47.95 267.74 61.63 266.21 61.24 270.34 47.56" fill="#261d0d"/><polygon points="276.37 48.02 277.9 48.41 273.28 63.72 271.75 63.33 276.37 48.02" fill="#261d0d"/><polygon points="282.67 49.05 284.19 49.44 279.43 65.24 277.9 64.85 282.67 49.05" fill="#261d0d"/><polygon points="218.95 45.05 219.24 43.88 308.25 62.1 307.97 63.27 218.95 45.05" fill="#261d0d"/><polygon points="289.24 49.43 290.77 49.82 285.65 66.78 284.12 66.39 289.24 49.43" fill="#261d0d"/><polygon points="296.21 50.56 297.73 50.96 292.38 68.7 290.85 68.31 296.21 50.56" fill="#261d0d"/><polygon points="303.45 51.55 304.98 51.94 299.26 70.89 297.73 70.5 303.45 51.55" fill="#261d0d"/><polygon points="97.56 74.35 93.55 75 88.93 52.19 92.94 51.54 97.56 74.35" fill="#261d0d"/><polygon points="301.97 72.7 305.99 73.35 310.39 51.6 306.37 50.96 301.97 72.7" fill="#261d0d"/></g><circle cx="201.21" cy="41.75" r="26.55" stroke="#754c24" stroke-miterlimit="10" stroke-width="4" fill="url(#Simple_planks)"/><rect x="303.09" y="-13.39" width="1.16" height="296.94" transform="translate(436.32 439.82) rotate(-137.5)"/><rect x="100.03" y="-11.26" width="1.16" height="294.49" transform="matrix(-0.74, 0.67, -0.67, -0.74, 266.29, 170.1)"/><ellipse cx="222.91" cy="132.77" rx="11.54" ry="98.94" transform="translate(-24.13 53.47) rotate(-12.98)" fill="url(#linear-gradient)"/><path d="M242.5,226.82,198.59,43.35c-.14-.59.78-.68,2.05-.18h0c1.27.49,2.42,1.37,2.57,2L247.12,228.6c.14.59-.78.68-2.05.18h0C243.79,228.29,242.64,227.41,242.5,226.82Z" fill="#603813"/><g id="Layer_24" data-name="Layer 24"><g id="Sail"><path d="M64.88,0C32.13,0,5.58,10.64,5.58,23.75H124.18C124.18,10.64,97.63,0,64.88,0Z" fill="url(#linear-gradient-2)"/><path d="M156.42,0c-32.75,0-59.3,10.64-59.3,23.75H215.73C215.73,10.64,189.18,0,156.42,0Z" fill="url(#linear-gradient-3)"/><path d="M248.06,0c-32.75,0-59.3,10.64-59.3,23.75H307.37C307.37,10.64,280.81,0,248.06,0Z" fill="url(#linear-gradient-4)"/><path d="M339.61,0c-32.75,0-59.3,10.64-59.3,23.75H398.91C398.91,10.64,372.36,0,339.61,0Z" fill="url(#linear-gradient-5)"/><rect x="293.09" y="8.13" width="1.21" height="15.63"/><rect x="202.11" y="8.13" width="1.21" height="15.63" fill="gray"/><rect x="109.91" y="8.13" width="1.21" height="15.63"/><rect y="21.73" width="405.5" height="5.11" rx="2.12" ry="2.12" fill="#603813"/></g><g id="Sail-2" data-name="Sail"><g id="Sail-3" data-name="Sail"><path d="M92.91,13.22C53.64,13.22,21.8,23.86,21.8,37H164C164,23.86,132.19,13.22,92.91,13.22Z" fill="url(#linear-gradient-6)"/><path d="M202.69,13.22c-39.28,0-71.12,10.64-71.12,23.75H273.81C273.81,23.86,242,13.22,202.69,13.22Z" fill="url(#linear-gradient-7)"/><path d="M312.59,13.22c-39.28,0-71.12,10.64-71.12,23.75H383.7C383.7,23.86,351.86,13.22,312.59,13.22Z" fill="url(#linear-gradient-8)"/><line x1="368.04" y1="36.98" x2="366.59" y2="36.98" fill="gray"/><line x1="366.59" y1="21.35" x2="368.04" y2="21.35" fill="gray"/><rect x="257.48" y="21.35" width="1.45" height="15.63"/><rect x="146.91" y="21.35" width="1.45" height="15.63"/></g><rect x="17.22" y="36.2" width="371.77" height="5.11" rx="2.12" ry="2.12" fill="#603813"/></g></g><circle cx="201.21" cy="41.75" r="13.81" stroke="#603813" stroke-miterlimit="10" stroke-width="4" fill="url(#Simple_planks-3)"/><circle cx="201.21" cy="41.75" r="6.02" fill="#42210b" stroke="#754c24" stroke-miterlimit="10" stroke-width="4"/><circle cx="201.21" cy="244.75" r="6.02" fill="#42210b" stroke="#754c24" stroke-miterlimit="10" stroke-width="4"/><g id="Layer_31" data-name="Layer 31"><rect x="19.15" y="36.11" width="1" height="5.11"/><rect x="401.34" y="21.73" width="1" height="5.11"/></g><rect x="384.09" y="36.2" width="1" height="5.11"/><rect x="200.49" y="37.6" width="1" height="7.9" transform="translate(88.25 -129.95) rotate(45)"/><rect x="200.98" y="37.64" width="1" height="7.9" transform="translate(23.69 145.1) rotate(-41.87)"/><rect x="392.8" y="18.81" width="1.16" height="24.67" transform="translate(137.24 -269.04) rotate(45)"/><rect x="11.17" y="20.54" width="1.17" height="21.81" transform="translate(42.81 44.2) rotate(132.82)"/><rect x="3.4" y="21.73" width="1" height="5.11"/><rect x="1.85" y="21.73" width="1" height="5.11"/><rect x="397.21" y="21.73" width="1" height="5.11"/><g id="Layer_32" data-name="Layer 32"><rect x="221.75" y="39.05" width="1.3" height="186.1" transform="translate(468.79 210.87) rotate(167.02)"/><rect x="243.11" y="220.63" width="1" height="4.1" transform="translate(381.6 -77.13) rotate(72.29)"/><rect x="243.59" y="222.58" width="1" height="4.1" transform="translate(383.8 -76.24) rotate(72.29)"/><rect x="242.7" y="218.71" width="1" height="4.1" transform="translate(379.5 -78.08) rotate(72.29)"/></g></g></g></svg>