<svg xmlns="http://www.w3.org/2000/svg" xmlns:xlink="http://www.w3.org/1999/xlink" viewBox="0 0 405.5 252.77"><defs><pattern id="38aacad5-edfc-4d29-b084-9e314138a828" data-name="Simple planks" width="92" height="500" patternTransform="translate(-10817.83 11457.7) rotate(90) scale(0.05)" patternUnits="userSpaceOnUse" viewBox="0 0 92 500"><rect width="92" height="500" fill="none"/><rect width="86" height="500" fill="#8c6239"/><rect x="86" width="6" height="500" fill="#694a2b"/></pattern><linearGradient id="9417bf70-2ecf-4fc0-a632-5839e15737f9" x1="366.87" y1="-107.34" x2="366.87" y2="-144.86" gradientTransform="matrix(0, 0.57, -0.62, 0, 145.36, -75.19)" gradientUnits="userSpaceOnUse"><stop offset="0" stop-color="#fff"/><stop offset="1" stop-color="#a8a8a8"/></linearGradient><linearGradient id="61c710e2-8a98-436e-a6a4-a04d72bfa961" x1="64.88" y1="47.51" x2="64.88" y2="0" gradientTransform="matrix(1, 0, 0, 1, 0, 0)" xlink:href="#9417bf70-2ecf-4fc0-a632-5839e15737f9"/><linearGradient id="607e8e2d-781c-4351-85f8-28d9772afdc8" x1="156.42" y1="47.51" x2="156.42" y2="0" gradientTransform="matrix(1, 0, 0, 1, 0, 0)" xlink:href="#9417bf70-2ecf-4fc0-a632-5839e15737f9"/><linearGradient id="101518f3-4a37-4ed4-9527-2bccf53905ba" x1="248.06" y1="47.51" x2="248.06" y2="0" gradientTransform="matrix(1, 0, 0, 1, 0, 0)" xlink:href="#9417bf70-2ecf-4fc0-a632-5839e15737f9"/><linearGradient id="d2400f31-affb-47dc-acdd-4a8e5a3db618" x1="339.61" y1="47.51" x2="339.61" y2="0" gradientTransform="matrix(1, 0, 0, 1, 0, 0)" xlink:href="#9417bf70-2ecf-4fc0-a632-5839e15737f9"/><linearGradient id="ddf87959-ffb7-4d77-bf39-af420138f776" x1="92.91" y1="60.73" x2="92.91" y2="13.22" gradientTransform="matrix(1, 0, 0, 1, 0, 0)" xlink:href="#9417bf70-2ecf-4fc0-a632-5839e15737f9"/><linearGradient id="f69c8558-aec1-4b24-a6f6-8189ab45256c" x1="202.69" y1="60.73" x2="202.69" y2="13.22" gradientTransform="matrix(1, 0, 0, 1, 0, 0)" xlink:href="#9417bf70-2ecf-4fc0-a632-5839e15737f9"/><linearGradient id="94ee3d36-7990-4dd8-80b0-5740b014052c" x1="312.59" y1="60.73" x2="312.59" y2="13.22" gradientTransform="matrix(1, 0, 0, 1, 0, 0)" xlink:href="#9417bf70-2ecf-4fc0-a632-5839e15737f9"/><pattern id="81c38091-2c88-4268-96ec-956b2dcb4a49" data-name="Simple planks" width="92" height="500" patternTransform="translate(134.01 1115.09) rotate(90) scale(0.08)" patternUnits="userSpaceOnUse" viewBox="0 0 92 500"><rect width="92" height="500" fill="none"/><rect width="86" height="500" fill="#8c6239"/><rect x="86" width="6" height="500" fill="#694a2b"/></pattern></defs><title>aft_mast</title><g id="897708d6-7bbc-4e90-a75a-0608c17b69d9" data-name="Layer 2"><g id="28427c3c-7724-4146-878e-da79973ff2be" data-name="Aft sail"><g id="b3e6b6f3-c4d9-4e16-bc28-544db39ff3dc" data-name="Layer 39"><polygon points="206.46 39.71 206.3 36.92 306.83 30.82 306.99 33.61 206.46 39.71" fill="#261d0d"/><polygon points="202.47 48.53 202.76 45.38 307.21 68.23 306.93 71.38 202.47 48.53" fill="#261d0d"/><polygon points="215.94 37.16 217.82 37.46 217.08 50.09 215.2 49.79 215.94 37.16" fill="#261d0d"/><polygon points="221.75 37.26 223.63 37.55 222.78 52.05 220.9 51.76 221.75 37.26" fill="#261d0d"/><polygon points="228.53 36.2 230.41 36.5 229.47 52.59 227.59 52.3 228.53 36.2" fill="#261d0d"/><polygon points="234.28 36.17 236.16 36.47 235.18 53.15 233.3 52.85 234.28 36.17" fill="#261d0d"/><polygon points="240.83 35.77 242.71 36.06 241.59 55.14 239.72 54.84 240.83 35.77" fill="#261d0d"/><polygon points="248.26 35.84 250.2 36.15 248.98 56.96 247.05 56.65 248.26 35.84" fill="#261d0d"/><polygon points="255.5 35.1 257.34 35.39 255.98 58.55 254.14 58.26 255.5 35.1" fill="#261d0d"/><polygon points="262.99 34.26 264.9 34.57 263.39 60.33 261.48 60.03 262.99 34.26" fill="#261d0d"/><polygon points="270.28 33.51 272.19 33.81 270.5 62.64 268.59 62.34 270.28 33.51" fill="#261d0d"/><polygon points="278.02 33.7 279.94 34.01 278.2 63.76 276.28 63.45 278.02 33.7" fill="#261d0d"/><polygon points="201.21 43.28 201.25 41.08 311.72 50.5 311.67 52.69 201.21 43.28" fill="#261d0d"/><polygon points="285.94 32.66 287.86 32.97 285.99 64.9 284.07 64.6 285.94 32.66" fill="#261d0d"/><polygon points="294.51 32.87 296.43 33.17 294.47 66.59 292.56 66.29 294.51 32.87" fill="#261d0d"/><polygon points="303.38 32.74 305.29 33.04 303.2 68.73 301.29 68.43 303.38 32.74" fill="#261d0d"/><polygon points="306.89 71.28 311.82 71.39 311.65 31.01 306.71 30.9 306.89 71.28" fill="#261d0d"/><polygon points="196.04 39.71 196.2 36.92 95.67 30.82 95.51 33.61 196.04 39.71" fill="#261d0d"/><polygon points="200.03 48.53 199.74 45.38 95.28 68.23 95.57 71.38 200.03 48.53" fill="#261d0d"/><polygon points="186.56 37.16 184.68 37.46 185.42 50.09 187.3 49.79 186.56 37.16" fill="#261d0d"/><polygon points="180.75 37.26 178.87 37.55 179.72 52.05 181.6 51.76 180.75 37.26" fill="#261d0d"/><polygon points="173.97 36.2 172.09 36.5 173.03 52.59 174.91 52.3 173.97 36.2" fill="#261d0d"/><polygon points="168.22 36.17 166.34 36.47 167.32 53.15 169.2 52.85 168.22 36.17" fill="#261d0d"/><polygon points="161.67 35.77 159.79 36.06 160.91 55.14 162.78 54.84 161.67 35.77" fill="#261d0d"/><polygon points="154.24 35.84 152.3 36.15 153.52 56.96 155.45 56.65 154.24 35.84" fill="#261d0d"/><polygon points="147 35.1 145.16 35.39 146.52 58.55 148.36 58.26 147 35.1" fill="#261d0d"/><polygon points="139.51 34.26 137.6 34.57 139.11 60.33 141.02 60.03 139.51 34.26" fill="#261d0d"/><polygon points="132.22 33.51 130.31 33.81 132 62.64 133.91 62.34 132.22 33.51" fill="#261d0d"/><polygon points="124.47 33.7 122.56 34.01 124.3 63.76 126.22 63.45 124.47 33.7" fill="#261d0d"/><polygon points="201.29 43.28 201.25 41.08 90.78 50.5 90.83 52.69 201.29 43.28" fill="#261d0d"/><polygon points="116.56 32.66 114.64 32.97 116.51 64.9 118.43 64.6 116.56 32.66" fill="#261d0d"/><polygon points="107.98 32.87 106.07 33.17 108.03 66.59 109.94 66.29 107.98 32.87" fill="#261d0d"/><polygon points="99.12 32.74 97.21 33.04 99.3 68.73 101.21 68.43 99.12 32.74" fill="#261d0d"/><polygon points="95.61 71.28 90.68 71.39 90.85 31.01 95.79 30.9 95.61 71.28" fill="#261d0d"/></g><circle cx="201.21" cy="41.75" r="26.55" stroke="#754c24" stroke-miterlimit="10" stroke-width="4" fill="url(#38aacad5-edfc-4d29-b084-9e314138a828)"/><rect x="303.09" y="-13.39" width="1.16" height="296.94" transform="translate(436.32 439.82) rotate(-137.5)"/><rect x="100.03" y="-11.26" width="1.16" height="294.49" transform="matrix(-0.74, 0.67, -0.67, -0.74, 266.29, 170.1)"/><ellipse cx="222.91" cy="132.77" rx="11.54" ry="98.94" transform="translate(-24.13 53.47) rotate(-12.98)" fill="url(#9417bf70-2ecf-4fc0-a632-5839e15737f9)"/><path d="M242.5,226.82,198.59,43.35c-.14-.59.78-.68,2.05-.18h0c1.27.49,2.42,1.37,2.57,2L247.12,228.6c.14.59-.78.68-2.05.18h0C243.79,228.29,242.64,227.41,242.5,226.82Z" fill="#603813"/><g id="3e2ef9bd-9ba8-4418-a701-723c7b83127a" data-name="Layer 24"><g id="16d1c97f-229f-4c60-9037-67c617db2eeb" data-name="Sail"><path d="M64.88,0C32.13,0,5.58,10.64,5.58,23.75H124.18C124.18,10.64,97.63,0,64.88,0Z" fill="url(#61c710e2-8a98-436e-a6a4-a04d72bfa961)"/><path d="M156.42,0c-32.75,0-59.3,10.64-59.3,23.75H215.73C215.73,10.64,189.18,0,156.42,0Z" fill="url(#607e8e2d-781c-4351-85f8-28d9772afdc8)"/><path d="M248.06,0c-32.75,0-59.3,10.64-59.3,23.75H307.37C307.37,10.64,280.81,0,248.06,0Z" fill="url(#101518f3-4a37-4ed4-9527-2bccf53905ba)"/><path d="M339.61,0c-32.75,0-59.3,10.64-59.3,23.75H398.91C398.91,10.64,372.36,0,339.61,0Z" fill="url(#d2400f31-affb-47dc-acdd-4a8e5a3db618)"/><rect x="293.09" y="8.13" width="1.21" height="15.63"/><rect x="202.11" y="8.13" width="1.21" height="15.63" fill="gray"/><rect x="109.91" y="8.13" width="1.21" height="15.63"/><rect y="21.73" width="405.5" height="5.11" rx="2.12" ry="2.12" fill="#603813"/></g><g id="f615eaad-78d6-4796-866e-069585c8d8cd" data-name="Sail"><g id="6014f668-9214-424c-acbc-da7cef0ee7bd" data-name="Sail"><path d="M92.91,13.22C53.64,13.22,21.8,23.86,21.8,37H164C164,23.86,132.19,13.22,92.91,13.22Z" fill="url(#ddf87959-ffb7-4d77-bf39-af420138f776)"/><path d="M202.69,13.22c-39.28,0-71.12,10.64-71.12,23.75H273.81C273.81,23.86,242,13.22,202.69,13.22Z" fill="url(#f69c8558-aec1-4b24-a6f6-8189ab45256c)"/><path d="M312.59,13.22c-39.28,0-71.12,10.64-71.12,23.75H383.7C383.7,23.86,351.86,13.22,312.59,13.22Z" fill="url(#94ee3d36-7990-4dd8-80b0-5740b014052c)"/><line x1="368.04" y1="36.98" x2="366.59" y2="36.98" fill="gray"/><line x1="366.59" y1="21.35" x2="368.04" y2="21.35" fill="gray"/><rect x="257.48" y="21.35" width="1.45" height="15.63"/><rect x="146.91" y="21.35" width="1.45" height="15.63"/></g><rect x="17.22" y="36.2" width="371.77" height="5.11" rx="2.12" ry="2.12" fill="#603813"/></g></g><circle cx="201.21" cy="41.75" r="13.81" stroke="#603813" stroke-miterlimit="10" stroke-width="4" fill="url(#81c38091-2c88-4268-96ec-956b2dcb4a49)"/><circle cx="201.21" cy="41.75" r="6.02" fill="#42210b" stroke="#754c24" stroke-miterlimit="10" stroke-width="4"/><circle cx="201.21" cy="244.75" r="6.02" fill="#42210b" stroke="#754c24" stroke-miterlimit="10" stroke-width="4"/><g id="317a7614-deca-4489-ab2a-a61b17a0f814" data-name="Layer 31"><rect x="19.15" y="36.11" width="1" height="5.11"/><rect x="401.34" y="21.73" width="1" height="5.11"/></g><rect x="384.09" y="36.2" width="1" height="5.11"/><rect x="200.49" y="37.6" width="1" height="7.9" transform="translate(88.25 -129.95) rotate(45)"/><rect x="200.98" y="37.64" width="1" height="7.9" transform="translate(23.69 145.1) rotate(-41.87)"/><rect x="392.8" y="18.81" width="1.16" height="24.67" transform="translate(137.24 -269.04) rotate(45)"/><rect x="11.17" y="20.54" width="1.17" height="21.81" transform="translate(42.81 44.2) rotate(132.82)"/><rect x="3.4" y="21.73" width="1" height="5.11"/><rect x="1.85" y="21.73" width="1" height="5.11"/><rect x="397.21" y="21.73" width="1" height="5.11"/><g id="c31019e1-3c14-4880-ba4b-0878b95e58db" data-name="Layer 32"><rect x="221.75" y="39.05" width="1.3" height="186.1" transform="translate(468.79 210.87) rotate(167.02)"/><rect x="243.11" y="220.63" width="1" height="4.1" transform="translate(381.6 -77.13) rotate(72.29)"/><rect x="243.59" y="222.58" width="1" height="4.1" transform="translate(383.8 -76.24) rotate(72.29)"/><rect x="242.7" y="218.71" width="1" height="4.1" transform="translate(379.5 -78.08) rotate(72.29)"/></g></g></g></svg>