<svg xmlns="http://www.w3.org/2000/svg" xmlns:xlink="http://www.w3.org/1999/xlink" viewBox="0 0 163.63 424.01"><defs><pattern id="126ad229-7139-4fb0-af77-3c5b01a1b90b" data-name="Simple planks" width="92" height="500" patternTransform="matrix(-0.04, 0.15, -0.15, -0.03, -6612.71, -11109.64)" patternUnits="userSpaceOnUse" viewBox="0 0 92 500"><rect width="92" height="500" fill="none"/><rect width="86" height="500" fill="#8c6239"/><rect x="86" width="6" height="500" fill="#694a2b"/></pattern></defs><title>aft_gaff</title><g id="7c660596-e9bf-4aa7-bc3c-084409f1a85e" data-name="Layer 2"><g id="f3a61ba4-438b-4236-9cdf-bb9f9cafe4e7" data-name="Gaff rigged"><g id="8cc98bd0-c6a7-495f-85e5-7b18a37f5a50" data-name="Aft gaff"><rect x="-112.22" y="222.54" width="401.61" height="10.34" rx="2.12" ry="2.12" transform="translate(-153.3 262.23) rotate(-76.87)" fill="#603813"/><polygon points="39.69 419.99 38.63 419.99 32.54 371.21 33.6 371.21 39.69 419.99"/><polygon points="124.48 48.53 125.77 48.8 112.33 82.03 111.04 81.76 124.48 48.53"/><path d="M33.68,371l-1.27.36h0S-5.64,235.7.72,146.69,39.19,45.5,39.19,45.5s11.32,28.83,34.7,35.74c24.35,7.6,39-.5,39-.5s-65,151.59-74.87,258.85c-3.25,35.26-4.81,32-4.81,32Z" fill="#999"/><polygon points="131.11 39.92 132.35 40.36 102.28 87.62 101.04 87.18 131.11 39.92"/><line x1="102.34" y1="31.62" x2="100.44" y2="21.71"/><polygon points="112.67 30.3 113.28 31.29 39.29 46.81 38.68 45.82 112.67 30.3"/><path d="M32.4,371.32h0S-4.29,238.86.83,149.38,39.19,45.5,39.19,45.5s5.73,29,26.68,34.73c21.83,6.42,37.1,6,37.1,6S41.34,231.49,38.06,339.6C37,375.22,32.4,371.32,32.4,371.32Z" fill="#d1d3d4"/><rect x="43.06" y="415.82" width="0.85" height="10.34" transform="translate(-376.37 367.67) rotate(-76.87)"/><rect x="43.76" y="412.81" width="0.85" height="10.34" transform="translate(-372.9 366.03) rotate(-76.87)"/><rect x="44.45" y="409.86" width="0.85" height="10.34" transform="translate(-369.5 364.43) rotate(-76.87)"/><polygon points="110.71 21.57 112.17 21.46 113.06 35.69 111.61 35.8 110.71 21.57"/><ellipse cx="136.61" cy="27.38" rx="25.39" ry="24.99" transform="translate(78.91 154.2) rotate(-76.87)" stroke="#603813" stroke-miterlimit="10" stroke-width="4" fill="url(#126ad229-7139-4fb0-af77-3c5b01a1b90b)"/><ellipse cx="136.61" cy="27.38" rx="11.07" ry="10.89" transform="translate(78.91 154.2) rotate(-76.87)" fill="#42210b" stroke="#754c24" stroke-miterlimit="10" stroke-width="3"/></g></g></g></svg>