<svg xmlns="http://www.w3.org/2000/svg" xmlns:xlink="http://www.w3.org/1999/xlink" viewBox="0 0 405.5 252.8"><defs><pattern id="a" width="92" height="500" patternTransform="translate(-10817.8 11457.7) rotate(90) scale(0.05)" patternUnits="userSpaceOnUse" viewBox="0 0 92 500"><rect width="92" height="500" style="fill:none"/><rect width="86" height="500" style="fill:#8c6239"/><rect x="86" width="6" height="500" style="fill:#694a2b"/></pattern><linearGradient id="b" x1="366.87" y1="-107.34" x2="366.87" y2="-144.86" gradientTransform="matrix(0, 0.57, -0.62, 0, 145.36, -75.19)" gradientUnits="userSpaceOnUse"><stop offset="0" stop-color="#fff"/><stop offset="1" stop-color="#a8a8a8"/></linearGradient><linearGradient id="c" x1="64.88" y1="47.51" x2="64.88" y2="0" gradientTransform="matrix(1, 0, 0, 1, 0, 0)" xlink:href="#b"/><linearGradient id="d" x1="156.42" y1="47.51" x2="156.42" y2="0" gradientTransform="matrix(1, 0, 0, 1, 0, 0)" xlink:href="#b"/><linearGradient id="e" x1="248.06" y1="47.51" x2="248.06" y2="0" gradientTransform="matrix(1, 0, 0, 1, 0, 0)" xlink:href="#b"/><linearGradient id="f" x1="339.61" y1="47.51" x2="339.61" y2="0" gradientTransform="matrix(1, 0, 0, 1, 0, 0)" xlink:href="#b"/><linearGradient id="g" x1="92.91" y1="60.73" x2="92.91" y2="13.22" gradientTransform="matrix(1, 0, 0, 1, 0, 0)" xlink:href="#b"/><linearGradient id="h" x1="202.69" y1="60.73" x2="202.69" y2="13.22" gradientTransform="matrix(1, 0, 0, 1, 0, 0)" xlink:href="#b"/><linearGradient id="i" x1="312.59" y1="60.73" x2="312.59" y2="13.22" gradientTransform="matrix(1, 0, 0, 1, 0, 0)" xlink:href="#b"/><pattern id="j" width="92" height="500" patternTransform="translate(134 1115.1) rotate(90) scale(0.08)" patternUnits="userSpaceOnUse" viewBox="0 0 92 500"><rect width="92" height="500" style="fill:none"/><rect width="86" height="500" style="fill:#8c6239"/><rect x="86" width="6" height="500" style="fill:#694a2b"/></pattern></defs><title>aft sail</title><polygon points="180.8 44 180.6 42.5 92.6 51.7 92.8 53.2 180.8 44" style="fill:#261d0d"/><polygon points="185 48.3 184.4 46.6 95.8 73.1 96.4 74.7 185 48.3" style="fill:#261d0d"/><polygon points="172.8 43.8 171.3 44.1 173.3 50.9 174.8 50.5 172.8 43.8" style="fill:#261d0d"/><polygon points="168 44.5 166.5 44.9 168.9 52.6 170.4 52.2 168 44.5" style="fill:#261d0d"/><polygon points="162.4 44.7 160.9 45.1 163.5 53.7 165 53.3 162.4 44.7" style="fill:#261d0d"/><polygon points="157.7 45.4 156.2 45.8 158.9 54.7 160.4 54.3 157.7 45.4" style="fill:#261d0d"/><polygon points="152.3 46 150.8 46.4 153.9 56.5 155.4 56.1 152.3 46" style="fill:#261d0d"/><polygon points="146.3 46.9 144.7 47.3 148 58.3 149.6 58 146.3 46.9" style="fill:#261d0d"/><polygon points="140.3 47.4 138.8 47.7 142.5 60 144 59.7 140.3 47.4" style="fill:#261d0d"/><polygon points="134.1 47.8 132.5 48.2 136.7 61.9 138.2 61.5 134.1 47.8" style="fill:#261d0d"/><polygon points="128 48.3 126.5 48.7 131.1 64 132.7 63.6 128 48.3" style="fill:#261d0d"/><polygon points="121.7 49.3 120.2 49.7 125 65.5 126.5 65.1 121.7 49.3" style="fill:#261d0d"/><polygon points="185.5 45.3 185.2 44.1 96.2 62.3 96.4 63.5 185.5 45.3" style="fill:#261d0d"/><polygon points="115.2 49.7 113.6 50.1 118.8 67 120.3 66.6 115.2 49.7" style="fill:#261d0d"/><polygon points="108.2 50.8 106.7 51.2 112 69 113.6 68.6 108.2 50.8" style="fill:#261d0d"/><polygon points="101 51.8 99.4 52.2 105.2 71.1 106.7 70.8 101 51.8" style="fill:#261d0d"/><polygon points="94.8 52.8 93.2 53.2 99 72.2 100.5 71.8 94.8 52.8" style="fill:#261d0d"/><polygon points="223.6 43.8 223.8 42.2 306.5 50.9 306.3 52.4 223.6 43.8" style="fill:#261d0d"/><polygon points="219.4 48 220 46.4 302.6 71.1 302 72.8 219.4 48" style="fill:#261d0d"/><polygon points="231.7 43.5 233.2 43.9 231.1 50.6 229.6 50.2 231.7 43.5" style="fill:#261d0d"/><polygon points="236.4 44.3 237.9 44.6 235.6 52.3 234.1 52 236.4 44.3" style="fill:#261d0d"/><polygon points="242 44.5 243.5 44.9 240.9 53.4 239.5 53 242 44.5" style="fill:#261d0d"/><polygon points="246.7 45.2 248.2 45.6 245.5 54.4 244 54 246.7 45.2" style="fill:#261d0d"/><polygon points="252.1 45.7 253.6 46.1 250.5 56.2 249.1 55.9 252.1 45.7" style="fill:#261d0d"/><polygon points="258.2 46.7 259.7 47.1 256.4 58.1 254.8 57.7 258.2 46.7" style="fill:#261d0d"/><polygon points="264.1 47.1 265.6 47.5 261.9 59.8 260.4 59.4 264.1 47.1" style="fill:#261d0d"/><polygon points="270.3 47.6 271.9 48 267.7 61.6 266.2 61.2 270.3 47.6" style="fill:#261d0d"/><polygon points="276.4 48 277.9 48.4 273.3 63.7 271.8 63.3 276.4 48" style="fill:#261d0d"/><polygon points="282.7 49 284.2 49.4 279.4 65.2 277.9 64.8 282.7 49" style="fill:#261d0d"/><polygon points="219 45.1 219.2 43.9 308.3 62.1 308 63.3 219 45.1" style="fill:#261d0d"/><polygon points="289.2 49.4 290.8 49.8 285.6 66.8 284.1 66.4 289.2 49.4" style="fill:#261d0d"/><polygon points="296.2 50.6 297.7 51 292.4 68.7 290.9 68.3 296.2 50.6" style="fill:#261d0d"/><polygon points="303.5 51.5 305 51.9 299.3 70.9 297.7 70.5 303.5 51.5" style="fill:#261d0d"/><polygon points="97.6 74.4 93.5 75 88.9 52.2 92.9 51.5 97.6 74.4" style="fill:#261d0d"/><polygon points="302 72.7 306 73.3 310.4 51.6 306.4 51 302 72.7" style="fill:#261d0d"/><circle cx="201.2" cy="41.7" r="26.5" style="stroke:#754c24;stroke-miterlimit:10;stroke-width:4px;fill:url(#a)"/><rect x="303.1" y="-13.4" width="1.2" height="296.94" transform="translate(436.3 439.8) rotate(-137.5)"/><rect x="100" y="-11.3" width="1.2" height="294.49" transform="matrix(-0.74, 0.67, -0.67, -0.74, 266.29, 170.1)"/><ellipse cx="222.9" cy="132.8" rx="11.5" ry="98.9" transform="translate(-24.1 53.5) rotate(-13)" style="fill:url(#b)"/><path d="M242.5,226.8,198.6,43.4c-.1-.6.8-.7,2.1-.2h0c1.3.5,2.4,1.4,2.6,2l43.9,183.5c.1.6-.8.7-2.1.2h0C243.8,228.3,242.6,227.4,242.5,226.8Z" style="fill:#603813"/><path d="M64.9,0C32.1,0,5.6,10.6,5.6,23.8H124.2C124.2,10.6,97.6,0,64.9,0Z" style="fill:url(#c)"/><path d="M156.4,0C123.7,0,97.1,10.6,97.1,23.8H215.7C215.7,10.6,189.2,0,156.4,0Z" style="fill:url(#d)"/><path d="M248.1,0c-32.8,0-59.3,10.6-59.3,23.8H307.4C307.4,10.6,280.8,0,248.1,0Z" style="fill:url(#e)"/><path d="M339.6,0c-32.8,0-59.3,10.6-59.3,23.8H398.9C398.9,10.6,372.4,0,339.6,0Z" style="fill:url(#f)"/><rect x="293.1" y="8.1" width="1.2" height="15.63"/><rect x="202.1" y="8.1" width="1.2" height="15.63" style="fill:gray"/><rect x="109.9" y="8.1" width="1.2" height="15.63"/><rect y="21.7" width="405.5" height="5.11" rx="2.1" ry="2.1" style="fill:#603813"/><path d="M92.9,13.2C53.6,13.2,21.8,23.9,21.8,37H164C164,23.9,132.2,13.2,92.9,13.2Z" style="fill:url(#g)"/><path d="M202.7,13.2c-39.3,0-71.1,10.6-71.1,23.8H273.8C273.8,23.9,242,13.2,202.7,13.2Z" style="fill:url(#h)"/><path d="M312.6,13.2c-39.3,0-71.1,10.6-71.1,23.8H383.7C383.7,23.9,351.9,13.2,312.6,13.2Z" style="fill:url(#i)"/><line x1="368" y1="37" x2="366.6" y2="37" style="fill:gray"/><line x1="366.6" y1="21.4" x2="368" y2="21.4" style="fill:gray"/><rect x="257.5" y="21.4" width="1.5" height="15.63"/><rect x="146.9" y="21.4" width="1.5" height="15.63"/><rect x="17.2" y="36.2" width="371.8" height="5.11" rx="2.1" ry="2.1" style="fill:#603813"/><circle cx="201.2" cy="41.7" r="13.8" style="stroke:#603813;stroke-miterlimit:10;stroke-width:4px;fill:url(#j)"/><circle cx="201.2" cy="41.7" r="6" style="fill:#42210b;stroke:#754c24;stroke-miterlimit:10;stroke-width:4px"/><circle cx="201.2" cy="244.7" r="6" style="fill:#42210b;stroke:#754c24;stroke-miterlimit:10;stroke-width:4px"/><rect x="19.2" y="36.1" width="1" height="5.11"/><rect x="401.3" y="21.7" width="1" height="5.11"/><rect x="384.1" y="36.2" width="1" height="5.11"/><rect x="200.5" y="37.6" width="1" height="7.9" transform="translate(88.2 -130) rotate(45)"/><rect x="201" y="37.6" width="1" height="7.9" transform="translate(23.7 145.1) rotate(-41.9)"/><rect x="392.8" y="18.8" width="1.2" height="24.67" transform="translate(137.2 -269) rotate(45)"/><rect x="11.2" y="20.5" width="1.2" height="21.81" transform="translate(42.8 44.2) rotate(132.8)"/><rect x="3.4" y="21.7" width="1" height="5.11"/><rect x="1.8" y="21.7" width="1" height="5.11"/><rect x="397.2" y="21.7" width="1" height="5.11"/><rect x="221.8" y="39.1" width="1.3" height="186.1" transform="translate(468.8 210.9) rotate(167)"/><rect x="243.1" y="220.6" width="1" height="4.1" transform="translate(381.6 -77.1) rotate(72.3)"/><rect x="243.6" y="222.6" width="1" height="4.1" transform="translate(383.8 -76.2) rotate(72.3)"/><rect x="242.7" y="218.7" width="1" height="4.1" transform="translate(379.5 -78.1) rotate(72.3)"/></svg>