<svg xmlns="http://www.w3.org/2000/svg" xmlns:xlink="http://www.w3.org/1999/xlink" viewBox="0 0 238.51 334"><defs><linearGradient id="linear-gradient" x1="48.56" y1="225.76" x2="48.56" y2="186.24" gradientUnits="userSpaceOnUse"><stop offset="0" stop-color="#fff"/><stop offset="1" stop-color="#a8a8a8"/></linearGradient><linearGradient id="linear-gradient-2" x1="118.99" y1="225.76" x2="118.99" y2="186.24" xlink:href="#linear-gradient"/><linearGradient id="linear-gradient-3" x1="189.49" y1="225.76" x2="189.49" y2="186.24" xlink:href="#linear-gradient"/></defs><title>bow</title><g id="Layer_2" data-name="Layer 2"><g id="bow"><path d="M144.51,327h-52V277a20,20,0,0,0,20-20h12a20,20,0,0,0,20,20Z" fill="#a67c52" stroke="#42210b" stroke-miterlimit="10" stroke-width="8"/><g id="Layer_22" data-name="Layer 22"><rect x="96.51" y="294" width="44" height="8" fill="#603813"/><rect x="96.51" y="286" width="44" height="8" fill="#8c6239"/></g><g id="Bowsail"><g id="Sail"><path d="M48.56,186.24c-25.2,0-45.62,8.85-45.62,19.76H94.18C94.18,195.09,73.75,186.24,48.56,186.24Z" fill="url(#linear-gradient)"/><path d="M119,186.24c-25.2,0-45.62,8.85-45.62,19.76h91.25C164.61,195.09,144.19,186.24,119,186.24Z" fill="url(#linear-gradient-2)"/><path d="M189.49,186.24c-25.2,0-45.62,8.85-45.62,19.76h91.25C235.12,195.09,214.69,186.24,189.49,186.24Z" fill="url(#linear-gradient-3)"/><line x1="225.07" y1="206" x2="224.13" y2="206" fill="gray"/><line x1="224.13" y1="193" x2="225.07" y2="193" fill="gray"/><rect x="154.13" y="193" width="0.93" height="13"/><rect x="83.2" y="193" width="0.93" height="13" fill="#261d0d"/></g><rect y="205.35" width="238.51" height="4.25" rx="2.12" ry="2.12" fill="#603813"/></g><rect x="110.51" y="127" width="16" height="207" rx="8" ry="8" fill="#42210b"/><path d="M119.51,207h-3a3,3,0,0,1-3-3V3a3,3,0,0,0,3-3h3a3,3,0,0,0,3,3V204A3,3,0,0,1,119.51,207Z" fill="#603813"/><rect x="111.22" y="204.69" width="16" height="2"/><rect x="111.22" y="201.69" width="16" height="2" transform="translate(-25.58 17.4) rotate(-7.54)"/><rect x="111.22" y="198.69" width="16" height="2" transform="matrix(1, 0.08, -0.08, 1, 16.25, -8.84)"/><rect x="110.51" y="134.27" width="15.99" height="2"/><rect x="111.23" y="131.89" width="14.51" height="2" transform="translate(-35.82 44.08) rotate(-18.36)"/><rect x="111.91" y="129.15" width="13.06" height="2" transform="translate(10.72 -9) rotate(4.56)"/><rect x="113.54" y="3.02" width="9.47" height="2" transform="translate(0.69 -9.39) rotate(4.56)"/><rect x="112.95" y="5.29" width="9.47" height="2" transform="translate(2.85 32.8) rotate(-16.06)"/><rect x="113.14" y="8.02" width="9.47" height="2"/><rect x="111.99" y="127.07" width="10.64" height="2" transform="translate(-19.9 21.59) rotate(-9.7)"/><rect x="113.51" y="125" width="9" height="2"/></g></g></svg>