<svg xmlns="http://www.w3.org/2000/svg" xmlns:xlink="http://www.w3.org/1999/xlink" viewBox="0 0 150.48 496.58"><defs><pattern id="ed9b24f8-3c2c-4655-a6b8-9b9b54f67977" data-name="Simple planks" width="92" height="500" patternTransform="matrix(0, 0.16, -0.15, 0, -8928.62, -9308.71)" patternUnits="userSpaceOnUse" viewBox="0 0 92 500"><rect width="92" height="500" fill="none"/><rect width="86" height="500" fill="#8c6239"/><rect x="86" width="6" height="500" fill="#694a2b"/></pattern></defs><title>fore_gaff</title><g id="9f4a499c-ac6c-4f62-aa22-9474b7fc8770" data-name="Layer 2"><g id="9112ba86-f840-41a3-a8ee-fff48c82ac7e" data-name="Gaff rigged"><g id="2e53bb93-b712-4f29-9724-02f87fa425de" data-name="Fore gaff"><rect x="-59.81" y="365.95" width="258.15" height="7.83" rx="2.12" ry="2.12" transform="translate(-306.93 361.44) rotate(-78.11)" fill="#603813"/><rect x="3.23" y="113.19" width="238.5" height="7.83" rx="2.12" ry="2.12" transform="translate(-17.35 212.83) rotate(-78.11)" fill="#603813"/><polygon points="40.09 494.02 39.3 494.01 32.79 462.35 33.59 462.36 40.09 494.02"/><polygon points="89.19 254.08 90.17 254.27 81.38 275.68 80.4 275.49 89.19 254.08"/><path d="M33.64,462.19l-.94.22h0S-1.24,374.19,0,316.57,25,251.35,25,251.35s9.64,18.78,27.49,23.47c18.6,5.14,29.32,0,29.32,0S38.9,372.5,35.7,441.91c-1.05,22.82-2.36,20.67-2.36,20.67Z" fill="#999"/><polygon points="93.83 248.56 94.78 248.85 74.04 279.21 73.09 278.91 93.83 248.56"/><polygon points="73.86 236.6 74.93 236.63 76.75 243.07 75.68 243.03 73.86 236.6"/><line x1="71.89" y1="242.92" x2="70.06" y2="236.48"/><polygon points="94.8 192.16 95.79 192 97.02 254.46 96.03 254.61 94.8 192.16"/><polygon points="79.6 242.16 80.09 242.81 25.09 252.2 24.6 251.55 79.6 242.16"/><path d="M32.69,462.41h0S-.1,376.25.23,318.32s24.74-67,24.74-67,5.44,18.81,21.42,22.74c16.66,4.36,28.12,4.2,28.12,4.2S33.91,371.89,35.7,441.91c.59,23.07-3,20.5-3,20.5Z" fill="#d1d3d4"/><path d="M127.64,10.1l-.6-.53h0S71.08,76.4,51.48,128.4s-5.22,67.23-5.22,67.23,13.66-13.37,28.22-11.2c15.27,2,21.2,10.42,21.2,10.42S99.49,92.22,121.9,29c7.37-20.79,5.66-19.33,5.66-19.33Z" fill="#999"/><polygon points="46.06 195.31 46.64 194.49 90.63 235.3 90.05 236.12 46.06 195.31"/><polygon points="90.7 185.07 91.67 184.82 99.52 248.38 98.55 248.64 90.7 185.07"/><rect x="134.89" y="-2.76" width="0.81" height="17.75" transform="translate(188.67 130.59) rotate(-115.8)"/><path d="M127,9.57h0S72.64,75,52.24,126.91s-6,68.72-6,68.72,10.64-14.89,23.58-12.71c13.59,2,21.82,6.26,21.82,6.26S95.66,91,121.9,29C130.55,8.55,127,9.57,127,9.57Z" fill="#d1d3d4"/><rect x="42.71" y="490.79" width="0.55" height="7.83" transform="translate(-449.96 434.84) rotate(-78.11)"/><rect x="43.12" y="488.84" width="0.55" height="7.83" transform="translate(-447.73 433.7) rotate(-78.11)"/><rect x="43.52" y="486.94" width="0.55" height="7.83" transform="translate(-445.55 432.58) rotate(-78.11)"/><polygon points="77.78 236.48 78.87 236.43 80.1 245.66 79.01 245.71 77.78 236.48"/><ellipse cx="96.53" cy="240.35" rx="24.99" ry="25.43" stroke="#603813" stroke-miterlimit="10" stroke-width="4" fill="url(#ed9b24f8-3c2c-4655-a6b8-9b9b54f67977)"/><ellipse cx="96.53" cy="240.35" rx="11.09" ry="10.89" transform="matrix(0.21, -0.98, 0.98, 0.21, -158.56, 285.3)" fill="#42210b" stroke="#754c24" stroke-miterlimit="10" stroke-width="3"/><rect x="146.11" y="-1" width="0.81" height="7.83" transform="translate(113.48 145.69) rotate(-78.11)"/><rect x="145.5" y="1.94" width="0.81" height="7.83" transform="translate(110.12 147.42) rotate(-78.11)"/><rect x="144.88" y="4.87" width="0.81" height="7.83" transform="translate(106.75 149.14) rotate(-78.11)"/></g></g></g></svg>