<svg xmlns="http://www.w3.org/2000/svg" xmlns:xlink="http://www.w3.org/1999/xlink" viewBox="0 0 400 279.5"><defs><linearGradient id="linear-gradient" x1="64" y1="247.76" x2="64" y2="208.24" gradientUnits="userSpaceOnUse"><stop offset="0" stop-color="#fff"/><stop offset="1" stop-color="#a8a8a8"/></linearGradient><linearGradient id="linear-gradient-2" x1="154.3" y1="247.76" x2="154.3" y2="208.24" xlink:href="#linear-gradient"/><linearGradient id="linear-gradient-3" x1="244.7" y1="247.76" x2="244.7" y2="208.24" xlink:href="#linear-gradient"/><linearGradient id="linear-gradient-4" x1="335" y1="247.76" x2="335" y2="208.24" xlink:href="#linear-gradient"/><pattern id="Simple_planks" data-name="Simple planks" width="92" height="500" patternTransform="translate(-10818.96 9732.56) rotate(90) scale(0.05)" patternUnits="userSpaceOnUse" viewBox="0 0 92 500"><rect width="92" height="500" fill="none"/><rect width="86" height="500" fill="#8c6239"/><rect x="86" width="6" height="500" fill="#694a2b"/></pattern><linearGradient id="linear-gradient-5" x1="-93.34" y1="-84.63" x2="-93.34" y2="-109.4" gradientTransform="translate(102.73 214.65) rotate(90)" xlink:href="#linear-gradient"/><linearGradient id="linear-gradient-6" x1="91.65" y1="258.76" x2="91.65" y2="219.24" xlink:href="#linear-gradient"/><linearGradient id="linear-gradient-7" x1="199.94" y1="258.76" x2="199.94" y2="219.24" xlink:href="#linear-gradient"/><linearGradient id="linear-gradient-8" x1="308.35" y1="258.76" x2="308.35" y2="219.24" xlink:href="#linear-gradient"/><pattern id="Simple_planks-3" data-name="Simple planks" width="92" height="500" patternTransform="translate(132.88 -564.42) rotate(90) scale(0.08)" patternUnits="userSpaceOnUse" viewBox="0 0 92 500"><rect width="92" height="500" fill="none"/><rect width="86" height="500" fill="#8c6239"/><rect x="86" width="6" height="500" fill="#694a2b"/></pattern></defs><title>foresail</title><g id="Layer_2" data-name="Layer 2"><g id="Foresail"><g id="Sail"><path d="M64,208.24c-32.31,0-58.5,8.85-58.5,19.76h117C122.5,217.09,96.31,208.24,64,208.24Z" fill="url(#linear-gradient)"/><path d="M154.3,208.24c-32.31,0-58.5,8.85-58.5,19.76h117C212.8,217.09,186.61,208.24,154.3,208.24Z" fill="url(#linear-gradient-2)"/><path d="M244.7,208.24c-32.31,0-58.5,8.85-58.5,19.76h117C303.2,217.09,277,208.24,244.7,208.24Z" fill="url(#linear-gradient-3)"/><path d="M335,208.24c-32.31,0-58.5,8.85-58.5,19.76h117C393.5,217.09,367.31,208.24,335,208.24Z" fill="url(#linear-gradient-4)"/><rect x="289.12" y="215" width="1.2" height="13"/><rect x="199.36" y="215" width="1.2" height="13" fill="gray"/><rect x="108.42" y="215" width="1.2" height="13"/><rect y="226.32" width="400" height="4.25" rx="2.12" ry="2.12" fill="#603813"/></g><g id="Rigging"><polygon points="182.91 242.47 182.74 240.66 104.11 251.68 104.28 253.49 182.91 242.47" fill="#261d0d"/><polygon points="186.7 247.57 186.18 245.58 106.97 277.2 107.49 279.19 186.7 247.57" fill="#261d0d"/><polygon points="175.74 242.18 174.4 242.64 176.21 250.65 177.55 250.19 175.74 242.18" fill="#261d0d"/><polygon points="171.51 243.07 170.17 243.53 172.25 252.73 173.59 252.27 171.51 243.07" fill="#261d0d"/><polygon points="166.46 243.35 165.12 243.81 167.43 254.03 168.77 253.57 166.46 243.35" fill="#261d0d"/><polygon points="162.27 244.15 160.93 244.61 163.32 255.19 164.66 254.73 162.27 244.15" fill="#261d0d"/><polygon points="157.45 244.82 156.11 245.28 158.84 257.39 160.18 256.93 157.45 244.82" fill="#261d0d"/><polygon points="152.04 245.93 150.66 246.4 153.64 259.6 155.02 259.13 152.04 245.93" fill="#261d0d"/><polygon points="146.69 246.48 145.38 246.93 148.7 261.62 150.01 261.17 146.69 246.48" fill="#261d0d"/><polygon points="141.15 247.01 139.78 247.48 143.47 263.82 144.84 263.36 141.15 247.01" fill="#261d0d"/><polygon points="135.76 247.56 134.39 248.03 138.52 266.32 139.89 265.85 135.76 247.56" fill="#261d0d"/><polygon points="130.13 248.79 128.76 249.26 133.03 268.13 134.39 267.66 130.13 248.79" fill="#261d0d"/><polygon points="187.09 244.01 186.84 242.61 107.25 264.38 107.5 265.78 187.09 244.01" fill="#261d0d"/><polygon points="124.25 249.25 122.89 249.72 127.46 269.98 128.83 269.51 124.25 249.25" fill="#261d0d"/><polygon points="118.02 250.6 116.66 251.07 121.45 272.27 122.81 271.8 118.02 250.6" fill="#261d0d"/><polygon points="111.55 251.78 110.18 252.25 115.3 274.89 116.66 274.42 111.55 251.78" fill="#261d0d"/><polygon points="106.01 252.96 104.65 253.43 109.77 276.12 111.14 275.65 106.01 252.96" fill="#261d0d"/><polygon points="221.23 242.17 221.4 240.36 295.3 250.74 295.13 252.55 221.23 242.17" fill="#261d0d"/><polygon points="217.44 247.27 217.96 245.29 291.82 274.84 291.29 276.82 217.44 247.27" fill="#261d0d"/><polygon points="228.4 241.88 229.74 242.34 227.93 250.35 226.59 249.9 228.4 241.88" fill="#261d0d"/><polygon points="232.63 242.77 233.96 243.23 231.89 252.43 230.55 251.97 232.63 242.77" fill="#261d0d"/><polygon points="237.68 243.06 239.01 243.52 236.71 253.73 235.37 253.27 237.68 243.06" fill="#261d0d"/><polygon points="241.87 243.86 243.21 244.31 240.81 254.9 239.48 254.44 241.87 243.86" fill="#261d0d"/><polygon points="246.69 244.53 248.03 244.99 245.29 257.09 243.95 256.63 246.69 244.53" fill="#261d0d"/><polygon points="252.1 245.63 253.48 246.11 250.49 259.31 249.12 258.83 252.1 245.63" fill="#261d0d"/><polygon points="257.45 246.19 258.76 246.63 255.44 261.32 254.13 260.88 257.45 246.19" fill="#261d0d"/><polygon points="262.99 246.71 264.36 247.18 260.66 263.53 259.3 263.06 262.99 246.71" fill="#261d0d"/><polygon points="268.38 247.26 269.74 247.73 265.61 266.02 264.25 265.55 268.38 247.26" fill="#261d0d"/><polygon points="274.01 248.49 275.37 248.96 271.11 267.83 269.75 267.37 274.01 248.49" fill="#261d0d"/><polygon points="217.04 243.72 217.29 242.31 296.88 264.08 296.63 265.48 217.04 243.72" fill="#261d0d"/><polygon points="279.89 248.95 281.25 249.42 276.68 269.68 275.31 269.21 279.89 248.95" fill="#261d0d"/><polygon points="286.12 250.3 287.48 250.77 282.69 271.97 281.33 271.5 286.12 250.3" fill="#261d0d"/><polygon points="292.59 251.48 293.96 251.95 288.84 274.59 287.48 274.12 292.59 251.48" fill="#261d0d"/><polygon points="108.51 278.73 104.92 279.5 100.79 252.24 104.38 251.47 108.51 278.73" fill="#261d0d"/><polygon points="291.27 276.75 294.86 277.53 298.79 251.54 295.2 250.77 291.27 276.75" fill="#261d0d"/></g><circle cx="200.71" cy="242.25" r="26.55" stroke="#754c24" stroke-miterlimit="10" stroke-width="4" fill="url(#Simple_planks)"/><ellipse cx="199.75" cy="121.31" rx="12.38" ry="106.31" fill="url(#linear-gradient-5)"/><g id="Layer_27" data-name="Layer 27"><rect x="197.75" width="1.5" height="221" transform="translate(397 221) rotate(180)"/></g><g id="Sail-2" data-name="Sail"><g id="Sail-3" data-name="Sail"><path d="M91.65,219.24c-38.74,0-70.15,8.85-70.15,19.76H161.8C161.8,228.09,130.4,219.24,91.65,219.24Z" fill="url(#linear-gradient-6)"/><path d="M199.94,219.24c-38.74,0-70.15,8.85-70.15,19.76H270.1C270.1,228.09,238.69,219.24,199.94,219.24Z" fill="url(#linear-gradient-7)"/><path d="M308.35,219.24c-38.74,0-70.15,8.85-70.15,19.76H378.5C378.5,228.09,347.09,219.24,308.35,219.24Z" fill="url(#linear-gradient-8)"/><line x1="363.05" y1="239" x2="361.61" y2="239" fill="gray"/><line x1="361.61" y1="226" x2="363.05" y2="226" fill="gray"/><rect x="253.98" y="226" width="1.44" height="13"/><rect x="144.92" y="226" width="1.44" height="13"/></g><rect x="16.99" y="238.35" width="366.73" height="4.25" rx="2.12" ry="2.12" fill="#603813"/></g><circle cx="200.71" cy="242.25" r="13.81" stroke="#603813" stroke-miterlimit="10" stroke-width="4" fill="url(#Simple_planks-3)"/><circle cx="200.71" cy="242.25" r="6.02" fill="#42210b" stroke="#754c24" stroke-miterlimit="10" stroke-width="3"/><rect x="199.88" y="237.63" width="1.55" height="9.02" transform="translate(229.99 -70.97) rotate(45)"/><rect x="200.52" y="237.56" width="1" height="8.97" transform="translate(-112.27 213.03) rotate(-45)"/><g id="Layer_34" data-name="Layer 34"><rect x="1.96" y="226.32" width="1" height="4.88"/><rect x="18.79" y="238.36" width="1" height="4.3"/><rect x="395.62" y="226.29" width="2.11" height="4.3"/><rect x="394.98" y="226.29" width="1" height="4.3"/><rect x="380.98" y="238.33" width="1" height="4.3"/></g></g></g></svg>