<svg xmlns="http://www.w3.org/2000/svg" xmlns:xlink="http://www.w3.org/1999/xlink" viewBox="0 0 400 274.42"><defs><linearGradient id="e86c7481-46e0-444d-909c-122f8cef0355" x1="64" y1="247.76" x2="64" y2="208.24" gradientUnits="userSpaceOnUse"><stop offset="0" stop-color="#fff"/><stop offset="1" stop-color="#a8a8a8"/></linearGradient><linearGradient id="1412ad02-5eb7-44e2-8417-0ab9b604522e" x1="154.3" y1="247.76" x2="154.3" y2="208.24" xlink:href="#e86c7481-46e0-444d-909c-122f8cef0355"/><linearGradient id="58d39bd9-ffe5-4eb5-af0b-a37f600655c4" x1="244.7" y1="247.76" x2="244.7" y2="208.24" xlink:href="#e86c7481-46e0-444d-909c-122f8cef0355"/><linearGradient id="0c51aa78-dcd6-45fb-a19f-053811ff6629" x1="335" y1="247.76" x2="335" y2="208.24" xlink:href="#e86c7481-46e0-444d-909c-122f8cef0355"/><pattern id="d47b8dab-c71a-4fee-9dd9-ca70c01d1296" data-name="Simple planks" width="92" height="500" patternTransform="translate(-10818.96 9732.56) rotate(90) scale(0.05)" patternUnits="userSpaceOnUse" viewBox="0 0 92 500"><rect width="92" height="500" fill="none"/><rect width="86" height="500" fill="#8c6239"/><rect x="86" width="6" height="500" fill="#694a2b"/></pattern><linearGradient id="99819be4-b53a-4681-b031-e185c34b0723" x1="-93.34" y1="-84.63" x2="-93.34" y2="-109.4" gradientTransform="translate(102.73 214.65) rotate(90)" xlink:href="#e86c7481-46e0-444d-909c-122f8cef0355"/><linearGradient id="f999d81e-7ef6-41c2-b4b3-790d86d8b2b1" x1="91.65" y1="258.76" x2="91.65" y2="219.24" xlink:href="#e86c7481-46e0-444d-909c-122f8cef0355"/><linearGradient id="0b2ba31b-a8ee-4be0-9149-af6bd0ca3178" x1="199.94" y1="258.76" x2="199.94" y2="219.24" xlink:href="#e86c7481-46e0-444d-909c-122f8cef0355"/><linearGradient id="b9fea250-b687-46ca-8178-696995bf32cf" x1="308.35" y1="258.76" x2="308.35" y2="219.24" xlink:href="#e86c7481-46e0-444d-909c-122f8cef0355"/><pattern id="9be2dfb3-c99f-47c7-ad38-ae6f9c7fa6ec" data-name="Simple planks" width="92" height="500" patternTransform="translate(132.88 -564.42) rotate(90) scale(0.08)" patternUnits="userSpaceOnUse" viewBox="0 0 92 500"><rect width="92" height="500" fill="none"/><rect width="86" height="500" fill="#8c6239"/><rect x="86" width="6" height="500" fill="#694a2b"/></pattern></defs><title>fore_mast</title><g id="7ed71885-8634-4b7c-9299-20021ee98c7f" data-name="Layer 2"><g id="25e44856-f4ce-41c8-85ed-d978b03f7377" data-name="Foresail"><g id="fed4be8c-6051-42f8-a622-71ef253c40c1" data-name="Layer 40"><polygon points="205.36 242.73 205.22 239.95 297.87 233.85 298.01 236.63 205.36 242.73" fill="#261d0d"/><polygon points="201.69 251.55 201.95 248.4 298.22 271.25 297.96 274.4 201.69 251.55" fill="#261d0d"/><polygon points="214.1 240.19 215.83 240.49 215.15 253.12 213.42 252.82 214.1 240.19" fill="#261d0d"/><polygon points="219.46 240.28 221.19 240.58 220.4 255.08 218.67 254.78 219.46 240.28" fill="#261d0d"/><polygon points="225.71 239.23 227.44 239.53 226.57 255.62 224.84 255.32 225.71 239.23" fill="#261d0d"/><polygon points="231 239.2 232.73 239.5 231.83 256.18 230.1 255.88 231 239.2" fill="#261d0d"/><polygon points="237.04 238.79 238.77 239.09 237.74 258.17 236.01 257.87 237.04 238.79" fill="#261d0d"/><polygon points="243.89 238.87 245.67 239.17 244.55 259.98 242.77 259.67 243.89 238.87" fill="#261d0d"/><polygon points="250.56 238.13 252.25 238.42 251 261.57 249.31 261.28 250.56 238.13" fill="#261d0d"/><polygon points="257.46 237.29 259.22 237.59 257.83 263.36 256.07 263.06 257.46 237.29" fill="#261d0d"/><polygon points="264.18 236.53 265.94 236.84 264.38 265.67 262.62 265.36 264.18 236.53" fill="#261d0d"/><polygon points="271.32 236.73 273.08 237.03 271.48 266.78 269.71 266.48 271.32 236.73" fill="#261d0d"/><polygon points="200.52 246.3 200.56 244.11 302.37 253.52 302.33 255.72 200.52 246.3" fill="#261d0d"/><polygon points="278.62 235.69 280.38 235.99 278.66 267.93 276.89 267.62 278.62 235.69" fill="#261d0d"/><polygon points="286.52 235.89 288.28 236.2 286.48 269.62 284.71 269.31 286.52 235.89" fill="#261d0d"/><polygon points="294.69 235.76 296.45 236.07 294.52 271.76 292.76 271.46 294.69 235.76" fill="#261d0d"/><polygon points="297.92 274.31 302.47 274.42 302.31 234.03 297.76 233.93 297.92 274.31" fill="#261d0d"/><polygon points="195.76 242.73 195.91 239.95 103.25 233.85 103.11 236.63 195.76 242.73" fill="#261d0d"/><polygon points="199.43 251.55 199.17 248.4 102.9 271.25 103.16 274.4 199.43 251.55" fill="#261d0d"/><polygon points="187.02 240.19 185.29 240.49 185.97 253.12 187.7 252.82 187.02 240.19" fill="#261d0d"/><polygon points="181.66 240.28 179.94 240.58 180.72 255.08 182.45 254.78 181.66 240.28" fill="#261d0d"/><polygon points="175.41 239.23 173.69 239.53 174.55 255.62 176.28 255.32 175.41 239.23" fill="#261d0d"/><polygon points="170.12 239.2 168.39 239.5 169.29 256.18 171.02 255.88 170.12 239.2" fill="#261d0d"/><polygon points="164.08 238.79 162.35 239.09 163.38 258.17 165.11 257.87 164.08 238.79" fill="#261d0d"/><polygon points="157.23 238.87 155.45 239.17 156.57 259.98 158.35 259.67 157.23 238.87" fill="#261d0d"/><polygon points="150.56 238.13 148.87 238.42 150.12 261.57 151.81 261.28 150.56 238.13" fill="#261d0d"/><polygon points="143.66 237.29 141.9 237.59 143.29 263.36 145.05 263.06 143.66 237.29" fill="#261d0d"/><polygon points="136.94 236.53 135.18 236.84 136.74 265.67 138.5 265.36 136.94 236.53" fill="#261d0d"/><polygon points="129.8 236.73 128.04 237.03 129.64 266.78 131.41 266.48 129.8 236.73" fill="#261d0d"/><polygon points="200.6 246.3 200.56 244.11 98.75 253.52 98.79 255.72 200.6 246.3" fill="#261d0d"/><polygon points="122.5 235.69 120.74 235.99 122.46 267.93 124.23 267.62 122.5 235.69" fill="#261d0d"/><polygon points="114.6 235.89 112.84 236.2 114.64 269.62 116.41 269.31 114.6 235.89" fill="#261d0d"/><polygon points="106.43 235.76 104.67 236.07 106.6 271.76 108.36 271.46 106.43 235.76" fill="#261d0d"/><polygon points="103.2 274.31 98.65 274.42 98.82 234.03 103.36 233.93 103.2 274.31" fill="#261d0d"/></g><g id="4b49375a-e5d2-497d-9d00-96534ba48438" data-name="Sail"><path d="M64,208.24c-32.31,0-58.5,8.85-58.5,19.76h117C122.5,217.09,96.31,208.24,64,208.24Z" fill="url(#e86c7481-46e0-444d-909c-122f8cef0355)"/><path d="M154.3,208.24c-32.31,0-58.5,8.85-58.5,19.76h117C212.8,217.09,186.61,208.24,154.3,208.24Z" fill="url(#1412ad02-5eb7-44e2-8417-0ab9b604522e)"/><path d="M244.7,208.24c-32.31,0-58.5,8.85-58.5,19.76h117C303.2,217.09,277,208.24,244.7,208.24Z" fill="url(#58d39bd9-ffe5-4eb5-af0b-a37f600655c4)"/><path d="M335,208.24c-32.31,0-58.5,8.85-58.5,19.76h117C393.5,217.09,367.31,208.24,335,208.24Z" fill="url(#0c51aa78-dcd6-45fb-a19f-053811ff6629)"/><rect x="289.12" y="215" width="1.2" height="13"/><rect x="199.36" y="215" width="1.2" height="13" fill="gray"/><rect x="108.42" y="215" width="1.2" height="13"/><rect y="226.32" width="400" height="4.25" rx="2.12" ry="2.12" fill="#603813"/></g><circle cx="200.71" cy="242.25" r="26.55" stroke="#754c24" stroke-miterlimit="10" stroke-width="4" fill="url(#d47b8dab-c71a-4fee-9dd9-ca70c01d1296)"/><ellipse cx="199.75" cy="121.31" rx="12.38" ry="106.31" fill="url(#99819be4-b53a-4681-b031-e185c34b0723)"/><g id="f7740208-5e06-4f89-82d1-a89eb6d5d9d7" data-name="Layer 27"><rect x="197.75" width="1.5" height="221" transform="translate(397 221) rotate(180)"/></g><g id="a3057f18-d208-4009-9418-4b595e7b6883" data-name="Sail"><g id="db6d4ad2-68c9-49e7-bfd4-7f6efa910839" data-name="Sail"><path d="M91.65,219.24c-38.74,0-70.15,8.85-70.15,19.76H161.8C161.8,228.09,130.4,219.24,91.65,219.24Z" fill="url(#f999d81e-7ef6-41c2-b4b3-790d86d8b2b1)"/><path d="M199.94,219.24c-38.74,0-70.15,8.85-70.15,19.76H270.1C270.1,228.09,238.69,219.24,199.94,219.24Z" fill="url(#0b2ba31b-a8ee-4be0-9149-af6bd0ca3178)"/><path d="M308.35,219.24c-38.74,0-70.15,8.85-70.15,19.76H378.5C378.5,228.09,347.09,219.24,308.35,219.24Z" fill="url(#b9fea250-b687-46ca-8178-696995bf32cf)"/><line x1="363.05" y1="239" x2="361.61" y2="239" fill="gray"/><line x1="361.61" y1="226" x2="363.05" y2="226" fill="gray"/><rect x="253.98" y="226" width="1.44" height="13"/><rect x="144.92" y="226" width="1.44" height="13"/></g><rect x="16.99" y="238.35" width="366.73" height="4.25" rx="2.12" ry="2.12" fill="#603813"/></g><circle cx="200.71" cy="242.25" r="13.81" stroke="#603813" stroke-miterlimit="10" stroke-width="4" fill="url(#9be2dfb3-c99f-47c7-ad38-ae6f9c7fa6ec)"/><circle cx="200.71" cy="242.25" r="6.02" fill="#42210b" stroke="#754c24" stroke-miterlimit="10" stroke-width="3"/><rect x="199.88" y="237.63" width="1.55" height="9.02" transform="translate(229.99 -70.97) rotate(45)"/><rect x="200.52" y="237.56" width="1" height="8.97" transform="translate(-112.27 213.03) rotate(-45)"/><g id="c8a3dc71-72eb-43bb-95bf-824a1710e6ae" data-name="Layer 34"><rect x="1.96" y="226.32" width="1" height="4.88"/><rect x="18.79" y="238.36" width="1" height="4.3"/><rect x="395.62" y="226.29" width="2.11" height="4.3"/><rect x="394.98" y="226.29" width="1" height="4.3"/><rect x="380.98" y="238.33" width="1" height="4.3"/></g></g></g></svg>