<svg xmlns="http://www.w3.org/2000/svg" xmlns:xlink="http://www.w3.org/1999/xlink" viewBox="0 0 724 1337"><defs><pattern id="a" width="92" height="500" patternTransform="translate(14065 -526.1) scale(0.3 0.47)" patternUnits="userSpaceOnUse" viewBox="0 0 92 500"><rect width="92" height="500" style="fill:none"/><rect width="86" height="500" style="fill:#8c6239"/><rect x="86" width="6" height="500" style="fill:#694a2b"/></pattern><pattern id="b" width="92" height="500" patternTransform="translate(13346.8 -280.3) scale(0.28 0.45)" patternUnits="userSpaceOnUse" viewBox="0 0 92 500"><rect width="92" height="500" style="fill:none"/><rect width="86" height="500" style="fill:#8c6239"/><rect x="86" width="6" height="500" style="fill:#694a2b"/></pattern><linearGradient id="c" x1="302.05" y1="326.76" x2="302.05" y2="287.24" gradientUnits="userSpaceOnUse"><stop offset="0" stop-color="#fff"/><stop offset="1" stop-color="#a8a8a8"/></linearGradient><linearGradient id="d" x1="372.48" y1="326.76" x2="372.48" y2="287.24" xlink:href="#c"/><linearGradient id="e" x1="442.98" y1="326.76" x2="442.98" y2="287.24" xlink:href="#c"/><pattern id="f" width="92" height="500" patternTransform="translate(20 97.8) scale(0.21 0.2)" patternUnits="userSpaceOnUse" viewBox="0 0 92 500"><rect width="92" height="500" style="fill:none"/><rect width="86" height="500" style="fill:#8c6239"/><rect x="86" width="6" height="500" style="fill:#694a2b"/></pattern><pattern id="g" width="92" height="500" patternTransform="translate(15 38.6) scale(0.2)" patternUnits="userSpaceOnUse" viewBox="0 0 92 500"><rect width="92" height="500" style="fill:none"/><rect width="86" height="500" style="fill:#8c6239"/><rect x="86" width="6" height="500" style="fill:#694a2b"/></pattern><pattern id="h" width="92" height="500" patternTransform="translate(15.4 0.6) scale(0.2)" patternUnits="userSpaceOnUse" viewBox="0 0 92 500"><rect width="92" height="500" style="fill:none"/><rect width="86" height="500" style="fill:#8c6239"/><rect x="86" width="6" height="500" style="fill:#694a2b"/></pattern><pattern id="i" width="92" height="500" patternTransform="translate(-10817.8 11457.7) rotate(90) scale(0.05)" patternUnits="userSpaceOnUse" viewBox="0 0 92 500"><rect width="92" height="500" style="fill:none"/><rect width="86" height="500" style="fill:#8c6239"/><rect x="86" width="6" height="500" style="fill:#694a2b"/></pattern><linearGradient id="j" x1="540.87" y1="899.66" x2="540.87" y2="862.14" gradientTransform="matrix(0, 0.57, -0.62, 0, 938.71, 833.18)" xlink:href="#c"/><linearGradient id="k" x1="238.88" y1="1054.51" x2="238.88" y2="1007" xlink:href="#c"/><linearGradient id="l" x1="330.42" y1="1054.51" x2="330.42" y2="1007" xlink:href="#c"/><linearGradient id="m" x1="422.06" y1="1054.51" x2="422.06" y2="1007" xlink:href="#c"/><linearGradient id="n" x1="513.61" y1="1054.51" x2="513.61" y2="1007" xlink:href="#c"/><linearGradient id="o" x1="266.91" y1="1067.73" x2="266.91" y2="1020.22" xlink:href="#c"/><linearGradient id="p" x1="376.69" y1="1067.73" x2="376.69" y2="1020.22" xlink:href="#c"/><linearGradient id="q" x1="486.59" y1="1067.73" x2="486.59" y2="1020.22" xlink:href="#c"/><pattern id="r" width="92" height="500" patternTransform="translate(134 1115.1) rotate(90) scale(0.08)" patternUnits="userSpaceOnUse" viewBox="0 0 92 500"><rect width="92" height="500" style="fill:none"/><rect width="86" height="500" style="fill:#8c6239"/><rect x="86" width="6" height="500" style="fill:#694a2b"/></pattern><linearGradient id="s" x1="202.52" y1="806.51" x2="202.52" y2="759" xlink:href="#c"/><linearGradient id="t" x1="318.34" y1="806.51" x2="318.34" y2="759" xlink:href="#c"/><linearGradient id="u" x1="434.27" y1="806.51" x2="434.27" y2="759" xlink:href="#c"/><linearGradient id="v" x1="550.08" y1="806.51" x2="550.08" y2="759" xlink:href="#c"/><linearGradient id="w" x1="215.04" y1="818.51" x2="215.04" y2="771" xlink:href="#c"/><linearGradient id="x" x1="321.71" y1="818.51" x2="321.71" y2="771" xlink:href="#c"/><linearGradient id="y" x1="428.49" y1="818.51" x2="428.49" y2="771" xlink:href="#c"/><linearGradient id="z" x1="535.16" y1="818.51" x2="535.16" y2="771" xlink:href="#c"/><linearGradient id="aa" x1="247.71" y1="831.73" x2="247.71" y2="784.22" xlink:href="#c"/><linearGradient id="ab" x1="375.63" y1="831.73" x2="375.63" y2="784.22" xlink:href="#c"/><linearGradient id="ac" x1="503.68" y1="831.73" x2="503.68" y2="784.22" xlink:href="#c"/><pattern id="ad" width="92" height="500" patternTransform="translate(-18715.7 6329.4) rotate(90) scale(0.06 0.06)" patternUnits="userSpaceOnUse" viewBox="0 0 92 500"><rect width="92" height="500" style="fill:none"/><rect width="86" height="500" style="fill:#8c6239"/><rect x="86" width="6" height="500" style="fill:#694a2b"/></pattern><pattern id="ae" width="92" height="500" patternTransform="translate(-5789.5 -6055) rotate(90) scale(0.1 0.1)" patternUnits="userSpaceOnUse" viewBox="0 0 92 500"><rect width="92" height="500" style="fill:none"/><rect width="86" height="500" style="fill:#8c6239"/><rect x="86" width="6" height="500" style="fill:#694a2b"/></pattern><linearGradient id="af" x1="239.21" y1="548.45" x2="239.21" y2="508.93" xlink:href="#c"/><linearGradient id="ag" x1="329.51" y1="548.45" x2="329.51" y2="508.93" xlink:href="#c"/><linearGradient id="ah" x1="419.91" y1="548.45" x2="419.91" y2="508.93" xlink:href="#c"/><linearGradient id="ai" x1="510.21" y1="548.45" x2="510.21" y2="508.93" xlink:href="#c"/><pattern id="aj" width="92" height="500" patternTransform="translate(-10819 9732.6) rotate(90) scale(0.05)" patternUnits="userSpaceOnUse" viewBox="0 0 92 500"><rect width="92" height="500" style="fill:none"/><rect width="86" height="500" style="fill:#8c6239"/><rect x="86" width="6" height="500" style="fill:#694a2b"/></pattern><linearGradient id="ak" x1="81.87" y1="216.05" x2="81.87" y2="191.29" gradientTransform="translate(578.6 340.1) rotate(90)" xlink:href="#c"/><linearGradient id="al" x1="266.86" y1="559.45" x2="266.86" y2="519.93" xlink:href="#c"/><linearGradient id="am" x1="375.15" y1="559.45" x2="375.15" y2="519.93" xlink:href="#c"/><linearGradient id="an" x1="483.56" y1="559.45" x2="483.56" y2="519.93" xlink:href="#c"/><pattern id="ao" width="92" height="500" patternTransform="translate(132.9 -564.4) rotate(90) scale(0.08)" patternUnits="userSpaceOnUse" viewBox="0 0 92 500"><rect width="92" height="500" style="fill:none"/><rect width="86" height="500" style="fill:#8c6239"/><rect x="86" width="6" height="500" style="fill:#694a2b"/></pattern></defs><title>ship_newbg</title><ellipse cx="375" cy="797.9" rx="120" ry="408.9" style="stroke:#c69c6d;stroke-miterlimit:10;stroke-width:8.058872954682144px;fill:url(#a)"/><ellipse cx="374.8" cy="793.2" rx="112.8" ry="397.2" style="stroke:#1a1a1a;stroke-miterlimit:10;stroke-width:8.016479572484586px;fill:url(#b)"/><path d="M398,428H346V378a20,20,0,0,0,20-20h12a20,20,0,0,0,20,20Z" style="fill:#a67c52;stroke:#42210b;stroke-miterlimit:10;stroke-width:8px"/><rect x="350" y="395" width="44" height="8" style="fill:#603813"/><rect x="350" y="387" width="44" height="8" style="fill:#8c6239"/><path d="M302,287.2c-25.2,0-45.6,8.8-45.6,19.8h91.2C347.7,296.1,327.2,287.2,302,287.2Z" style="fill:url(#c)"/><path d="M372.5,287.2c-25.2,0-45.6,8.8-45.6,19.8h91.2C418.1,296.1,397.7,287.2,372.5,287.2Z" style="fill:url(#d)"/><path d="M443,287.2c-25.2,0-45.6,8.8-45.6,19.8h91.2C488.6,296.1,468.2,287.2,443,287.2Z" style="fill:url(#e)"/><rect x="407.6" y="294" width="0.9" height="13"/><rect x="336.7" y="294" width="0.9" height="13" style="fill:#261d0d"/><rect x="253.5" y="306.4" width="238.5" height="4.25" rx="2.1" ry="2.1" style="fill:#603813"/><rect x="364" y="228" width="16" height="207" rx="8" ry="8" style="fill:#42210b"/><path d="M373,308h-3a3,3,0,0,1-3-3V104a3,3,0,0,0,3-3h3a3,3,0,0,0,3,3V305A3,3,0,0,1,373,308Z" style="fill:#603813"/><rect x="364.7" y="305.7" width="16" height="2"/><rect x="364.7" y="302.7" width="16" height="2" transform="translate(-36.6 51.6) rotate(-7.5)"/><rect x="364.7" y="299.7" width="16" height="2" transform="matrix(1, 0.08, -0.08, 1, 25.08, -28.67)"/><rect x="364" y="235.3" width="16" height="2"/><rect x="364.7" y="232.9" width="14.5" height="2" transform="translate(-54.7 129) rotate(-18.4)"/><rect x="365.4" y="230.2" width="13.1" height="2" transform="translate(19.5 -28.8) rotate(4.6)"/><rect x="367" y="104" width="9.5" height="2" transform="translate(9.5 -29.2) rotate(4.6)"/><rect x="366.4" y="106.3" width="9.5" height="2" transform="translate(-15.2 106.9) rotate(-16.1)"/><rect x="366.6" y="109" width="9.5" height="2"/><rect x="365.5" y="228.1" width="10.6" height="2" transform="translate(-33.3 65.7) rotate(-9.7)"/><rect x="367" y="226" width="9" height="2"/><path d="M390,1218H359a100,100,0,0,1-100-100v-85a15,15,0,0,1,15-15H475a15,15,0,0,1,15,15v85A100,100,0,0,1,390,1218Z" style="stroke:#c69c6d;stroke-miterlimit:10;stroke-width:8.313142147367964px;fill:url(#f)"/><path d="M382,1216H367a100,100,0,0,1-100-100v-84a15,15,0,0,1,15-15H467a15,15,0,0,1,15,15v84A100,100,0,0,1,382,1216Z" style="stroke:#1a1a1a;stroke-miterlimit:10;stroke-width:8px;fill:url(#g)"/><path d="M351.5,1251a4,4,0,0,1-4-4,16,16,0,0,0-16-16,4,4,0,0,1-4-4v-90.5a4,4,0,0,1,4-4H419a4,4,0,0,1,4,4V1227a4,4,0,0,1-4,4,16,16,0,0,0-16,16,4,4,0,0,1-4,4Z" style="fill:url(#h)"/><path d="M419,1136.5V1227a20,20,0,0,0-20,20H351.5a20,20,0,0,0-20-20v-90.5H419m0-8H331.5a8,8,0,0,0-8,8V1227a8,8,0,0,0,8,8,12,12,0,0,1,12,12,8,8,0,0,0,8,8H399a8,8,0,0,0,8-8,12,12,0,0,1,12-12,8,8,0,0,0,8-8v-90.5a8,8,0,0,0-8-8Z" style="fill:#42210b"/><rect x="348.3" y="858" width="55.4" height="91.8"/><polygon points="346.4 952.5 348.2 958 351.4 954.8 349.6 949.3 346.4 952.5" style="fill:#333"/><polygon points="402.4 949.3 400.6 954.8 403.8 958 405.6 952.5 402.4 949.3" style="fill:#333"/><rect x="351.2" y="954.6" width="49.6" height="0.37"/><polygon points="403.8 951.6 348.2 951.6 348.2 958 403.8 958 403.8 951.6 403.8 951.6" style="fill:#333"/><rect x="346.3" y="624" width="55.4" height="91.8"/><polygon points="344.4 718.5 346.2 724 349.4 720.8 347.6 715.3 344.4 718.5" style="fill:#333"/><polygon points="400.4 715.3 398.6 720.8 401.8 724 403.6 718.5 400.4 715.3" style="fill:#333"/><rect x="349.2" y="720.6" width="49.6" height="0.37"/><polygon points="401.8 717.6 346.2 717.6 346.2 724 401.8 724 401.8 717.6 401.8 717.6" style="fill:#333"/><polygon points="391.1 716 391.1 624 395.1 624 395 716 391.1 716"/><polygon points="391.1 624 391.1 716 395 716 395.1 624 391.1 624 391.1 624" style="fill:#333"/><polygon points="353 716 353.1 624 357 624 356.9 716 353 716"/><polygon points="353.1 624 353 716 356.9 716 357 624 353.1 624 353.1 624" style="fill:#333"/><polygon points="381.2 716 381.3 623.4 385.3 623.4 385.2 716 381.2 716"/><polygon points="381.3 623.4 381.2 716 385.2 716 385.3 623.4 381.3 623.4 381.3 623.4" style="fill:#333"/><polygon points="372 716 372.1 624 375.3 624 375.2 716 372 716"/><polygon points="372.1 624 372 716 375.2 716 375.3 624 372.1 624 372.1 624" style="fill:#333"/><polygon points="362.2 716 362.2 622.7 366.2 622.7 366.1 716 362.2 716"/><polygon points="362.2 622.7 362.2 716 366.1 716 366.2 622.7 362.2 622.7 362.2 622.7" style="fill:#333"/><rect x="348" y="641.3" width="55.2" height="4.71"/><polygon points="403.2 641.3 348 641.3 348 646 403.2 646 403.2 641.3 403.2 641.3" style="fill:#333"/><rect x="349" y="664" width="53.4" height="3.9"/><polygon points="402.4 664 349 664 349 667.9 402.4 667.9 402.4 664 402.4 664" style="fill:#333"/><rect x="349" y="653" width="55.2" height="4"/><polygon points="404.2 653 349 653 349 657 404.2 657 404.2 653 404.2 653" style="fill:#333"/><rect x="349" y="686" width="54.2" height="4.52"/><polygon points="403.2 686 349 686 349 690.5 403.2 690.5 403.2 686 403.2 686" style="fill:#333"/><rect x="349" y="697" width="54.2" height="4.15"/><polygon points="403.2 697 349 697 349 701.1 403.2 701.1 403.2 697 403.2 697" style="fill:#333"/><rect x="348" y="629.3" width="56.2" height="4.71"/><polygon points="404.2 629.3 348 629.3 348 634 404.2 634 404.2 629.3 404.2 629.3" style="fill:#333"/><rect x="348" y="675" width="55.4" height="3.9"/><polygon points="403.4 675 348 675 348 678.9 403.4 678.9 403.4 675 403.4 675" style="fill:#333"/><rect x="348" y="708" width="54.2" height="4.15"/><polygon points="402.2 708 348 708 348 712.1 402.2 712.1 402.2 708 402.2 708" style="fill:#333"/><path d="M398,626v89.1H350V626h48m2-6H348a4,4,0,0,0-4,4v93.2a4,4,0,0,0,4,4H400a4,4,0,0,0,4-4V624a4,4,0,0,0-4-4Z" style="fill:#1a1a1a"/><polygon points="393.1 950 393.1 858 397.1 858 397 950 393.1 950"/><polygon points="393.1 858 393.1 950 397 950 397.1 858 393.1 858 393.1 858" style="fill:#333"/><polygon points="355 950 355.1 858 359 858 358.9 950 355 950"/><polygon points="355.1 858 355 950 358.9 950 359 858 355.1 858 355.1 858" style="fill:#333"/><polygon points="383.2 950 383.3 857.4 387.3 857.4 387.2 950 383.2 950"/><polygon points="383.3 857.4 383.2 950 387.2 950 387.3 857.4 383.3 857.4 383.3 857.4" style="fill:#333"/><polygon points="374 950 374.1 858 377.3 858 377.2 950 374 950"/><polygon points="374.1 858 374 950 377.2 950 377.3 858 374.1 858 374.1 858" style="fill:#333"/><polygon points="364.2 950 364.2 856.7 368.2 856.7 368.1 950 364.2 950"/><polygon points="364.2 856.7 364.2 950 368.1 950 368.2 856.7 364.2 856.7 364.2 856.7" style="fill:#333"/><rect x="350" y="875.3" width="55.2" height="4.71"/><polygon points="405.2 875.3 350 875.3 350 880 405.2 880 405.2 875.3 405.2 875.3" style="fill:#333"/><rect x="351" y="898" width="53.4" height="3.9"/><polygon points="404.4 898 351 898 351 901.9 404.4 901.9 404.4 898 404.4 898" style="fill:#333"/><rect x="351" y="887" width="55.2" height="4"/><polygon points="406.2 887 351 887 351 891 406.2 891 406.2 887 406.2 887" style="fill:#333"/><rect x="351" y="920" width="54.2" height="4.52"/><polygon points="405.2 920 351 920 351 924.5 405.2 924.5 405.2 920 405.2 920" style="fill:#333"/><rect x="351" y="931" width="54.2" height="4.15"/><polygon points="405.2 931 351 931 351 935.1 405.2 935.1 405.2 931 405.2 931" style="fill:#333"/><rect x="350" y="863.3" width="56.2" height="4.71"/><polygon points="406.2 863.3 350 863.3 350 868 406.2 868 406.2 863.3 406.2 863.3" style="fill:#333"/><rect x="350" y="909" width="55.4" height="3.9"/><polygon points="405.4 909 350 909 350 912.9 405.4 912.9 405.4 909 405.4 909" style="fill:#333"/><rect x="350" y="942" width="54.2" height="4.15"/><polygon points="404.2 942 350 942 350 946.1 404.2 946.1 404.2 942 404.2 942" style="fill:#333"/><path d="M400,860v89.1H352V860h48m2-6H350a4,4,0,0,0-4,4v93.2a4,4,0,0,0,4,4H402a4,4,0,0,0,4-4V858a4,4,0,0,0-4-4Z" style="fill:#1a1a1a"/><polygon points="354.8 1051 354.6 1049.5 266.6 1058.7 266.8 1060.2 354.8 1051" style="fill:#261d0d"/><polygon points="359 1055.3 358.4 1053.6 269.8 1080.1 270.4 1081.7 359 1055.3" style="fill:#261d0d"/><polygon points="346.8 1050.8 345.3 1051.2 347.3 1057.9 348.8 1057.5 346.8 1050.8" style="fill:#261d0d"/><polygon points="342 1051.5 340.5 1051.9 342.9 1059.6 344.4 1059.2 342 1051.5" style="fill:#261d0d"/><polygon points="336.4 1051.7 334.9 1052.1 337.5 1060.7 339 1060.3 336.4 1051.7" style="fill:#261d0d"/><polygon points="331.7 1052.4 330.2 1052.8 332.9 1061.7 334.4 1061.3 331.7 1052.4" style="fill:#261d0d"/><polygon points="326.3 1053 324.8 1053.4 327.9 1063.5 329.4 1063.1 326.3 1053" style="fill:#261d0d"/><polygon points="320.3 1053.9 318.7 1054.3 322 1065.3 323.6 1065 320.3 1053.9" style="fill:#261d0d"/><polygon points="314.3 1054.4 312.8 1054.7 316.5 1067 318 1066.7 314.3 1054.4" style="fill:#261d0d"/><polygon points="308.1 1054.8 306.5 1055.2 310.7 1068.9 312.2 1068.5 308.1 1054.8" style="fill:#261d0d"/><polygon points="302 1055.3 300.5 1055.7 305.1 1071 306.7 1070.6 302 1055.3" style="fill:#261d0d"/><polygon points="295.7 1056.3 294.2 1056.7 299 1072.5 300.5 1072.1 295.7 1056.3" style="fill:#261d0d"/><polygon points="359.5 1052.3 359.2 1051.1 270.2 1069.3 270.4 1070.5 359.5 1052.3" style="fill:#261d0d"/><polygon points="289.2 1056.7 287.6 1057.1 292.8 1074 294.3 1073.6 289.2 1056.7" style="fill:#261d0d"/><polygon points="282.2 1057.8 280.7 1058.2 286 1076 287.6 1075.6 282.2 1057.8" style="fill:#261d0d"/><polygon points="275 1058.8 273.4 1059.2 279.2 1078.1 280.7 1077.8 275 1058.8" style="fill:#261d0d"/><polygon points="268.8 1059.8 267.2 1060.2 273 1079.2 274.5 1078.8 268.8 1059.8" style="fill:#261d0d"/><polygon points="397.6 1050.8 397.8 1049.2 480.5 1057.9 480.3 1059.4 397.6 1050.8" style="fill:#261d0d"/><polygon points="393.4 1055 394 1053.4 476.6 1078.1 476 1079.8 393.4 1055" style="fill:#261d0d"/><polygon points="405.7 1050.5 407.2 1050.9 405.1 1057.6 403.6 1057.2 405.7 1050.5" style="fill:#261d0d"/><polygon points="410.4 1051.3 411.9 1051.6 409.6 1059.3 408.1 1059 410.4 1051.3" style="fill:#261d0d"/><polygon points="416 1051.5 417.5 1051.9 414.9 1060.4 413.5 1060 416 1051.5" style="fill:#261d0d"/><polygon points="420.7 1052.2 422.2 1052.6 419.5 1061.4 418 1061 420.7 1052.2" style="fill:#261d0d"/><polygon points="426.1 1052.7 427.6 1053.1 424.5 1063.2 423.1 1062.9 426.1 1052.7" style="fill:#261d0d"/><polygon points="432.2 1053.7 433.7 1054.1 430.4 1065.1 428.8 1064.7 432.2 1053.7" style="fill:#261d0d"/><polygon points="438.1 1054.1 439.6 1054.5 435.9 1066.8 434.4 1066.4 438.1 1054.1" style="fill:#261d0d"/><polygon points="444.3 1054.6 445.9 1055 441.7 1068.6 440.2 1068.2 444.3 1054.6" style="fill:#261d0d"/><polygon points="450.4 1055 451.9 1055.4 447.3 1070.7 445.8 1070.3 450.4 1055" style="fill:#261d0d"/><polygon points="456.7 1056 458.2 1056.4 453.4 1072.2 451.9 1071.8 456.7 1056" style="fill:#261d0d"/><polygon points="393 1052.1 393.2 1050.9 482.3 1069.1 482 1070.3 393 1052.1" style="fill:#261d0d"/><polygon points="463.2 1056.4 464.8 1056.8 459.6 1073.8 458.1 1073.4 463.2 1056.4" style="fill:#261d0d"/><polygon points="470.2 1057.6 471.7 1058 466.4 1075.7 464.9 1075.3 470.2 1057.6" style="fill:#261d0d"/><polygon points="477.5 1058.5 479 1058.9 473.3 1077.9 471.7 1077.5 477.5 1058.5" style="fill:#261d0d"/><polygon points="271.6 1081.4 267.5 1082 262.9 1059.2 266.9 1058.5 271.6 1081.4" style="fill:#261d0d"/><polygon points="476 1079.7 480 1080.3 484.4 1058.6 480.4 1058 476 1079.7" style="fill:#261d0d"/><circle cx="375.2" cy="1048.7" r="26.5" style="stroke:#754c24;stroke-miterlimit:10;stroke-width:4px;fill:url(#i)"/><rect x="477.1" y="993.6" width="1.2" height="296.94" transform="translate(58.4 2306.8) rotate(-137.5)"/><rect x="274" y="995.7" width="1.2" height="294.49" transform="matrix(-0.74, 0.67, -0.67, -0.74, 1242.02, 1810.79)"/><ellipse cx="396.9" cy="1139.8" rx="11.5" ry="98.9" transform="translate(-245.9 118.3) rotate(-13)" style="fill:url(#j)"/><path d="M416.5,1233.8l-43.9-183.5c-.1-.6.8-.7,2.1-.2h0c1.3.5,2.4,1.4,2.6,2l43.9,183.5c.1.6-.8.7-2.1.2h0C417.8,1235.3,416.6,1234.4,416.5,1233.8Z" style="fill:#603813"/><path d="M238.9,1007c-32.8,0-59.3,10.6-59.3,23.8H298.2C298.2,1017.6,271.6,1007,238.9,1007Z" style="fill:url(#k)"/><path d="M330.4,1007c-32.8,0-59.3,10.6-59.3,23.8H389.7C389.7,1017.6,363.2,1007,330.4,1007Z" style="fill:url(#l)"/><path d="M422.1,1007c-32.8,0-59.3,10.6-59.3,23.8H481.4C481.4,1017.6,454.8,1007,422.1,1007Z" style="fill:url(#m)"/><path d="M513.6,1007c-32.8,0-59.3,10.6-59.3,23.8H572.9C572.9,1017.6,546.4,1007,513.6,1007Z" style="fill:url(#n)"/><rect x="467.1" y="1015.1" width="1.2" height="15.63"/><rect x="376.1" y="1015.1" width="1.2" height="15.63" style="fill:gray"/><rect x="283.9" y="1015.1" width="1.2" height="15.63"/><rect x="174" y="1028.7" width="405.5" height="5.11" rx="2.1" ry="2.1" style="fill:#603813"/><path d="M266.9,1020.2c-39.3,0-71.1,10.6-71.1,23.8H338C338,1030.9,306.2,1020.2,266.9,1020.2Z" style="fill:url(#o)"/><path d="M376.7,1020.2c-39.3,0-71.1,10.6-71.1,23.8H447.8C447.8,1030.9,416,1020.2,376.7,1020.2Z" style="fill:url(#p)"/><path d="M486.6,1020.2c-39.3,0-71.1,10.6-71.1,23.8H557.7C557.7,1030.9,525.9,1020.2,486.6,1020.2Z" style="fill:url(#q)"/><rect x="431.5" y="1028.4" width="1.5" height="15.63"/><rect x="320.9" y="1028.4" width="1.5" height="15.63"/><rect x="191.2" y="1043.2" width="371.8" height="5.11" rx="2.1" ry="2.1" style="fill:#603813"/><circle cx="375.2" cy="1048.7" r="13.8" style="stroke:#603813;stroke-miterlimit:10;stroke-width:4px;fill:url(#r)"/><circle cx="375.2" cy="1048.7" r="6" style="fill:#42210b;stroke:#754c24;stroke-miterlimit:10;stroke-width:4px"/><circle cx="375.2" cy="1251.7" r="6" style="fill:#42210b;stroke:#754c24;stroke-miterlimit:10;stroke-width:4px"/><rect x="193.2" y="1043.1" width="1" height="5.11"/><rect x="575.3" y="1028.7" width="1" height="5.11"/><rect x="558.1" y="1043.2" width="1" height="5.11"/><rect x="374.5" y="1044.6" width="1" height="7.9" transform="translate(851.3 42) rotate(45)"/><rect x="375" y="1044.6" width="1" height="7.9" transform="translate(-604 518.4) rotate(-41.9)"/><rect x="566.8" y="1025.8" width="1.2" height="24.67" transform="translate(900.3 -97.1) rotate(45)"/><rect x="185.2" y="1027.5" width="1.2" height="21.81" transform="translate(1073.7 1608) rotate(132.8)"/><rect x="177.4" y="1028.7" width="1" height="5.11"/><rect x="175.8" y="1028.7" width="1" height="5.11"/><rect x="571.2" y="1028.7" width="1" height="5.11"/><rect x="395.8" y="1046.1" width="1.3" height="186.1" transform="translate(1038.6 2160) rotate(167)"/><rect x="417.1" y="1227.6" width="1" height="4.1" transform="translate(1461.9 457.7) rotate(72.3)"/><rect x="417.6" y="1229.6" width="1" height="4.1" transform="translate(1464.1 458.6) rotate(72.3)"/><rect x="416.7" y="1225.7" width="1" height="4.1" transform="translate(1459.8 456.8) rotate(72.3)"/><path d="M202.5,759c-41.4,0-75,10.6-75,23.8h150C277.5,769.6,244,759,202.5,759Z" style="fill:url(#s)"/><path d="M318.3,759c-41.4,0-75,10.6-75,23.8h150C393.4,769.6,359.8,759,318.3,759Z" style="fill:url(#t)"/><path d="M434.3,759c-41.4,0-75,10.6-75,23.8h150C509.3,769.6,475.7,759,434.3,759Z" style="fill:url(#u)"/><path d="M550.1,759c-41.4,0-75,10.6-75,23.8h150C625.1,769.6,591.5,759,550.1,759Z" style="fill:url(#v)"/><rect x="491.2" y="767.1" width="1.5" height="15.63"/><rect x="376.1" y="767.1" width="1.5" height="15.63"/><rect x="259.5" y="767.1" width="1.5" height="15.63"/><rect x="120.4" y="780.7" width="513" height="5.11" rx="2.1" ry="2.1" style="fill:#603813"/><path d="M215,771c-38.2,0-69.1,10.6-69.1,23.8H284.1C284.1,781.6,253.2,771,215,771Z" style="fill:url(#w)"/><path d="M321.7,771c-38.2,0-69.1,10.6-69.1,23.8H390.8C390.8,781.6,359.9,771,321.7,771Z" style="fill:url(#x)"/><path d="M428.5,771c-38.2,0-69.1,10.6-69.1,23.8H497.6C497.6,781.6,466.7,771,428.5,771Z" style="fill:url(#y)"/><path d="M535.2,771c-38.2,0-69.1,10.6-69.1,23.8H604.3C604.3,781.6,573.3,771,535.2,771Z" style="fill:url(#z)"/><rect x="481" y="779.1" width="1.4" height="15.63"/><rect x="374.9" y="779.1" width="1.4" height="15.63" style="fill:gray"/><rect x="267.5" y="779.1" width="1.4" height="15.63"/><rect x="139.4" y="792.7" width="472.5" height="5.11" rx="2.1" ry="2.1" style="fill:#603813"/><path d="M247.7,784.2c-45.8,0-82.9,10.6-82.9,23.8H330.6C330.6,794.9,293.5,784.2,247.7,784.2Z" style="fill:url(#aa)"/><path d="M375.6,784.2c-45.8,0-82.9,10.6-82.9,23.8H458.5C458.5,794.9,421.4,784.2,375.6,784.2Z" style="fill:url(#ab)"/><path d="M503.7,784.2c-45.8,0-82.9,10.6-82.9,23.8H586.5C586.5,794.9,549.4,784.2,503.7,784.2Z" style="fill:url(#ac)"/><rect x="439.5" y="792.4" width="1.7" height="15.63"/><rect x="310.6" y="792.4" width="1.7" height="15.63"/><rect x="159.5" y="807.2" width="433.2" height="5.11" rx="2.1" ry="2.1" style="fill:#603813"/><polygon points="354.7 812.2 354.5 810.3 260.8 821.4 261 823.2 354.7 812.2" style="fill:#261d0d"/><polygon points="359.2 817.3 358.6 815.3 264.2 846.9 264.9 848.9 359.2 817.3" style="fill:#261d0d"/><polygon points="346.2 811.9 344.6 812.3 346.7 820.3 348.3 819.9 346.2 811.9" style="fill:#261d0d"/><polygon points="341.1 812.8 339.6 813.2 342 822.4 343.6 822 341.1 812.8" style="fill:#261d0d"/><polygon points="335.1 813 333.5 813.5 336.3 823.7 337.9 823.3 335.1 813" style="fill:#261d0d"/><polygon points="330.1 813.8 328.5 814.3 331.4 824.9 333 824.4 330.1 813.8" style="fill:#261d0d"/><polygon points="324.4 814.5 322.8 815 326.1 827.1 327.7 826.6 324.4 814.5" style="fill:#261d0d"/><polygon points="317.9 815.6 316.3 816.1 319.9 829.3 321.5 828.8 317.9 815.6" style="fill:#261d0d"/><polygon points="311.6 816.2 310 816.6 314 831.3 315.5 830.9 311.6 816.2" style="fill:#261d0d"/><polygon points="305 816.7 303.3 817.2 307.7 833.5 309.4 833 305 816.7" style="fill:#261d0d"/><polygon points="298.5 817.2 296.9 817.7 301.8 836 303.5 835.5 298.5 817.2" style="fill:#261d0d"/><polygon points="291.8 818.5 290.2 818.9 295.3 837.8 296.9 837.4 291.8 818.5" style="fill:#261d0d"/><polygon points="359.7 813.7 359.4 812.3 264.6 834.1 264.9 835.5 359.7 813.7" style="fill:#261d0d"/><polygon points="284.8 818.9 283.2 819.4 288.7 839.7 290.3 839.2 284.8 818.9" style="fill:#261d0d"/><polygon points="277.4 820.3 275.8 820.8 281.5 842 283.1 841.5 277.4 820.3" style="fill:#261d0d"/><polygon points="269.7 821.5 268.1 821.9 274.2 844.6 275.8 844.1 269.7 821.5" style="fill:#261d0d"/><polygon points="263.1 822.6 261.5 823.1 267.6 845.8 269.2 845.3 263.1 822.6" style="fill:#261d0d"/><polygon points="400.4 811.9 400.6 810 488.7 820.4 488.5 822.2 400.4 811.9" style="fill:#261d0d"/><polygon points="395.9 817 396.5 815 484.5 844.5 483.9 846.5 395.9 817" style="fill:#261d0d"/><polygon points="408.9 811.6 410.5 812 408.4 820 406.8 819.6 408.9 811.6" style="fill:#261d0d"/><polygon points="414 812.5 415.6 812.9 413.1 822.1 411.5 821.7 414 812.5" style="fill:#261d0d"/><polygon points="420 812.7 421.6 813.2 418.8 823.4 417.2 823 420 812.7" style="fill:#261d0d"/><polygon points="425 813.5 426.6 814 423.7 824.6 422.1 824.1 425 813.5" style="fill:#261d0d"/><polygon points="430.7 814.2 432.3 814.7 429.1 826.8 427.5 826.3 430.7 814.2" style="fill:#261d0d"/><polygon points="437.2 815.3 438.8 815.8 435.3 829 433.6 828.5 437.2 815.3" style="fill:#261d0d"/><polygon points="443.5 815.9 445.1 816.3 441.2 831 439.6 830.6 443.5 815.9" style="fill:#261d0d"/><polygon points="450.2 816.4 451.8 816.9 447.4 833.2 445.8 832.7 450.2 816.4" style="fill:#261d0d"/><polygon points="456.6 817 458.2 817.4 453.3 835.7 451.7 835.2 456.6 817" style="fill:#261d0d"/><polygon points="463.3 818.2 464.9 818.6 459.8 837.5 458.2 837.1 463.3 818.2" style="fill:#261d0d"/><polygon points="395.4 813.4 395.7 812 490.5 833.8 490.2 835.2 395.4 813.4" style="fill:#261d0d"/><polygon points="470.3 818.6 471.9 819.1 466.5 839.4 464.8 838.9 470.3 818.6" style="fill:#261d0d"/><polygon points="477.7 820 479.3 820.5 473.6 841.7 472 841.2 477.7 820" style="fill:#261d0d"/><polygon points="485.4 821.2 487.1 821.6 481 844.3 479.3 843.8 485.4 821.2" style="fill:#261d0d"/><rect x="259.3" y="821.3" width="4.3" height="27.69" transform="translate(-144.1 59.7) rotate(-10.2)" style="fill:#261d0d"/><rect x="486.2" y="820.6" width="4.3" height="26.4" transform="translate(820.9 1741.1) rotate(-169.8)" style="fill:#261d0d"/><ellipse cx="376.5" cy="811.9" rx="31.4" ry="31.9" style="stroke:#754c24;stroke-miterlimit:10;stroke-width:4px;fill:url(#ad)"/><ellipse cx="376.5" cy="811.9" rx="16.3" ry="16.6" style="stroke:#603813;stroke-miterlimit:10;stroke-width:4px;fill:url(#ae)"/><ellipse cx="376.5" cy="811.9" rx="7.1" ry="7.2" style="fill:#42210b;stroke:#754c24;stroke-miterlimit:10;stroke-width:3px"/><rect x="630.4" y="780.7" width="1" height="5.11"/><rect x="623.7" y="780.7" width="1" height="5.11"/><rect x="609" y="792.7" width="1" height="5.11"/><rect x="589.6" y="807.2" width="1" height="5.11"/><rect x="219.8" y="807.2" width="1" height="5.11"/><rect x="523.9" y="807.2" width="1" height="5.11"/><path d="M239.2,508.9c-32.3,0-58.5,8.8-58.5,19.8h117C297.7,517.8,271.5,508.9,239.2,508.9Z" style="fill:url(#af)"/><path d="M329.5,508.9c-32.3,0-58.5,8.8-58.5,19.8H388C388,517.8,361.8,508.9,329.5,508.9Z" style="fill:url(#ag)"/><path d="M419.9,508.9c-32.3,0-58.5,8.8-58.5,19.8h117C478.4,517.8,452.2,508.9,419.9,508.9Z" style="fill:url(#ah)"/><path d="M510.2,508.9c-32.3,0-58.5,8.8-58.5,19.8h117C568.7,517.8,542.5,508.9,510.2,508.9Z" style="fill:url(#ai)"/><rect x="464.3" y="515.7" width="1.2" height="13"/><rect x="374.6" y="515.7" width="1.2" height="13" style="fill:gray"/><rect x="283.6" y="515.7" width="1.2" height="13"/><rect x="175.2" y="527" width="400" height="4.25" rx="2.1" ry="2.1" style="fill:#603813"/><polygon points="358.1 543.2 357.9 541.3 279.3 552.4 279.5 554.2 358.1 543.2" style="fill:#261d0d"/><polygon points="361.9 548.3 361.4 546.3 282.2 577.9 282.7 579.9 361.9 548.3" style="fill:#261d0d"/><polygon points="350.9 542.9 349.6 543.3 351.4 551.3 352.8 550.9 350.9 542.9" style="fill:#261d0d"/><polygon points="346.7 543.8 345.4 544.2 347.5 553.4 348.8 553 346.7 543.8" style="fill:#261d0d"/><polygon points="341.7 544 340.3 544.5 342.6 554.7 344 554.3 341.7 544" style="fill:#261d0d"/><polygon points="337.5 544.8 336.1 545.3 338.5 555.9 339.9 555.4 337.5 544.8" style="fill:#261d0d"/><polygon points="332.7 545.5 331.3 546 334.1 558.1 335.4 557.6 332.7 545.5" style="fill:#261d0d"/><polygon points="327.2 546.6 325.9 547.1 328.9 560.3 330.2 559.8 327.2 546.6" style="fill:#261d0d"/><polygon points="321.9 547.2 320.6 547.6 323.9 562.3 325.2 561.9 321.9 547.2" style="fill:#261d0d"/><polygon points="316.4 547.7 315 548.2 318.7 564.5 320 564 316.4 547.7" style="fill:#261d0d"/><polygon points="311 548.2 309.6 548.7 313.7 567 315.1 566.5 311 548.2" style="fill:#261d0d"/><polygon points="305.3 549.5 304 549.9 308.2 568.8 309.6 568.4 305.3 549.5" style="fill:#261d0d"/><polygon points="362.3 544.7 362.1 543.3 282.5 565.1 282.7 566.5 362.3 544.7" style="fill:#261d0d"/><polygon points="299.5 549.9 298.1 550.4 302.7 570.7 304 570.2 299.5 549.9" style="fill:#261d0d"/><polygon points="293.2 551.3 291.9 551.8 296.7 573 298 572.5 293.2 551.3" style="fill:#261d0d"/><polygon points="286.8 552.5 285.4 552.9 290.5 575.6 291.9 575.1 286.8 552.5" style="fill:#261d0d"/><polygon points="281.2 553.6 279.9 554.1 285 576.8 286.3 576.3 281.2 553.6" style="fill:#261d0d"/><polygon points="396.4 542.9 396.6 541 470.5 551.4 470.3 553.2 396.4 542.9" style="fill:#261d0d"/><polygon points="392.6 548 393.2 546 467 575.5 466.5 577.5 392.6 548" style="fill:#261d0d"/><polygon points="403.6 542.6 404.9 543 403.1 551 401.8 550.6 403.6 542.6" style="fill:#261d0d"/><polygon points="407.8 543.5 409.2 543.9 407.1 553.1 405.8 552.7 407.8 543.5" style="fill:#261d0d"/><polygon points="412.9 543.7 414.2 544.2 411.9 554.4 410.6 554 412.9 543.7" style="fill:#261d0d"/><polygon points="417.1 544.5 418.4 545 416 555.6 414.7 555.1 417.1 544.5" style="fill:#261d0d"/><polygon points="421.9 545.2 423.2 545.7 420.5 557.8 419.2 557.3 421.9 545.2" style="fill:#261d0d"/><polygon points="427.3 546.3 428.7 546.8 425.7 560 424.3 559.5 427.3 546.3" style="fill:#261d0d"/><polygon points="432.7 546.9 434 547.3 430.6 562 429.3 561.6 432.7 546.9" style="fill:#261d0d"/><polygon points="438.2 547.4 439.6 547.9 435.9 564.2 434.5 563.7 438.2 547.4" style="fill:#261d0d"/><polygon points="443.6 548 445 548.4 440.8 566.7 439.5 566.2 443.6 548" style="fill:#261d0d"/><polygon points="449.2 549.2 450.6 549.6 446.3 568.5 445 568.1 449.2 549.2" style="fill:#261d0d"/><polygon points="392.3 544.4 392.5 543 472.1 564.8 471.8 566.2 392.3 544.4" style="fill:#261d0d"/><polygon points="455.1 549.6 456.5 550.1 451.9 570.4 450.5 569.9 455.1 549.6" style="fill:#261d0d"/><polygon points="461.3 551 462.7 551.5 457.9 572.7 456.5 572.2 461.3 551" style="fill:#261d0d"/><polygon points="467.8 552.2 469.2 552.6 464 575.3 462.7 574.8 467.8 552.2" style="fill:#261d0d"/><polygon points="283.7 579.4 280.1 580.2 276 552.9 279.6 552.2 283.7 579.4" style="fill:#261d0d"/><polygon points="466.5 577.4 470.1 578.2 474 552.2 470.4 551.5 466.5 577.4" style="fill:#261d0d"/><circle cx="375.9" cy="542.9" r="26.5" style="stroke:#754c24;stroke-miterlimit:10;stroke-width:4px;fill:url(#aj)"/><ellipse cx="375" cy="422" rx="12.4" ry="106.3" style="fill:url(#ak)"/><rect x="373" y="300.7" width="1.5" height="221" transform="translate(747.4 822.4) rotate(180)"/><path d="M266.9,519.9c-38.7,0-70.2,8.8-70.2,19.8H337C337,528.8,305.6,519.9,266.9,519.9Z" style="fill:url(#al)"/><path d="M375.2,519.9c-38.7,0-70.2,8.8-70.2,19.8H445.3C445.3,528.8,413.9,519.9,375.2,519.9Z" style="fill:url(#am)"/><path d="M483.6,519.9c-38.7,0-70.2,8.8-70.2,19.8H553.7C553.7,528.8,522.3,519.9,483.6,519.9Z" style="fill:url(#an)"/><rect x="429.2" y="526.7" width="1.4" height="13"/><rect x="320.1" y="526.7" width="1.4" height="13"/><rect x="192.2" y="539" width="366.7" height="4.25" rx="2.1" ry="2.1" style="fill:#603813"/><circle cx="375.9" cy="542.9" r="13.8" style="stroke:#603813;stroke-miterlimit:10;stroke-width:4px;fill:url(#ao)"/><circle cx="375.9" cy="542.9" r="6" style="fill:#42210b;stroke:#754c24;stroke-miterlimit:10;stroke-width:3px"/><rect x="375.1" y="538.3" width="1.6" height="9.02" transform="translate(493.9 -106.8) rotate(45)"/><rect x="375.7" y="538.2" width="1" height="8.97" transform="translate(-273.6 425) rotate(-45)"/><rect x="177.2" y="527" width="1" height="4.88"/><rect x="194" y="539" width="1" height="4.3"/><rect x="570.8" y="527" width="2.1" height="4.3"/><rect x="570.2" y="527" width="1" height="4.3"/><rect x="556.2" y="539" width="1" height="4.3"/><rect x="374" y="543.8" width="2" height="503.88"/><rect x="600" y="526.2" width="1.4" height="258.94" transform="translate(-129.8 148.5) rotate(-12.7)"/><rect x="150.2" y="528" width="1.4" height="257.57" transform="translate(141.8 -17) rotate(12.2)"/><rect x="150.2" y="779.8" width="1.4" height="255.51" transform="translate(-189.6 52.9) rotate(-12.3)"/><rect x="602.1" y="778" width="1.4" height="258.19" transform="translate(204.8 -106.7) rotate(12.2)"/><rect x="217" y="302.1" width="1.6" height="235.12" transform="translate(149.7 -48.2) rotate(19.1)"/><rect x="530" y="302.1" width="1.6" height="235.12" transform="translate(-112.6 210) rotate(-20.3)"/><rect x="185.4" y="525.1" width="1.6" height="19.97" transform="translate(-365.3 405.2) rotate(-57.6)"/><rect x="563" y="524.9" width="1.4" height="19.97" transform="translate(543.3 -242) rotate(45)"/><rect x="609.3" y="771.6" width="1.4" height="49.15" transform="translate(857.6 -175.8) rotate(51.7)"/><rect x="142.7" y="772.4" width="1.2" height="46.46" transform="translate(882.7 1122.7) rotate(124.1)"/><rect x="629.6" y="779.4" width="1" height="3.68" transform="translate(-357.8 958.5) rotate(-61.3)"/><rect x="126.5" y="780.7" width="1" height="5.11"/><rect x="141.9" y="792.7" width="1" height="5.11"/><rect x="162.1" y="807.2" width="1" height="5.11"/><rect x="123" y="780.7" width="1" height="5.11"/><rect x="376.5" y="806.1" width="1" height="11.28" transform="translate(740.1 -6.3) rotate(48.8)"/><rect x="376.8" y="806" width="1" height="11.34" transform="translate(1175.2 1217.4) rotate(141.9)"/></svg>