<svg xmlns="http://www.w3.org/2000/svg" viewBox="0 0 60.15 104"><title>grate</title><g id="Layer_2" data-name="Layer 2"><g id="grate-2" data-name="grate"><rect x="2.31" y="3.99" width="55.38" height="91.8"/><polygon points="0.39 98.48 2.23 104 5.42 100.81 3.58 95.3 0.39 98.48" fill="#333"/><polygon points="56.42 95.3 54.58 100.81 57.77 104 59.62 98.48 56.42 95.3" fill="#333"/><rect x="5.22" y="100.63" width="49.55" height="0.37"/><polygon points="57.77 97.63 2.23 97.63 2.23 104 57.77 104 57.77 97.63 57.77 97.63" fill="#333"/><polygon points="47.07 95.99 47.15 3.99 51.07 4 51 96 47.07 95.99"/><polygon points="47.15 3.99 47.07 95.99 51 96 51.07 4 47.15 3.99 47.15 3.99" fill="#333"/><polygon points="8.99 95.99 9.07 3.99 13 4 12.92 96 8.99 95.99"/><polygon points="9.07 3.99 8.99 95.99 12.92 96 13 4 9.07 3.99 9.07 3.99" fill="#333"/><polygon points="37.21 95.99 37.29 3.35 41.3 3.36 41.22 96 37.21 95.99"/><polygon points="37.29 3.35 37.21 95.99 41.22 96 41.3 3.36 37.29 3.35 37.29 3.35" fill="#333"/><polygon points="27.97 95.99 28.07 3.99 31.32 4 31.23 96 27.97 95.99"/><polygon points="28.07 3.99 27.97 95.99 31.23 96 31.32 4 28.07 3.99 28.07 3.99" fill="#333"/><polygon points="18.17 95.99 18.25 2.66 22.17 2.67 22.09 96 18.17 95.99"/><polygon points="18.25 2.66 18.17 95.99 22.09 96 22.17 2.67 18.25 2.66 18.25 2.66" fill="#333"/><rect x="4" y="21.29" width="55.15" height="4.71"/><polygon points="59.15 21.29 4 21.29 4 26 59.15 26 59.15 21.29 59.15 21.29" fill="#333"/><rect x="5" y="44" width="53.38" height="3.9"/><polygon points="58.38 44 5 44 5 47.9 58.38 47.9 58.38 44 58.38 44" fill="#333"/><rect x="5" y="33" width="55.15" height="4"/><polygon points="60.15 33 5 33 5 37 60.15 37 60.15 33 60.15 33" fill="#333"/><rect x="5" y="66" width="54.15" height="4.52"/><polygon points="59.15 66 5 66 5 70.52 59.15 70.52 59.15 66 59.15 66" fill="#333"/><rect x="5" y="77" width="54.15" height="4.15"/><polygon points="59.15 77 5 77 5 81.15 59.15 81.15 59.15 77 59.15 77" fill="#333"/><rect x="4" y="9.29" width="56.15" height="4.71"/><polygon points="60.15 9.29 4 9.29 4 14 60.15 14 60.15 9.29 60.15 9.29" fill="#333"/><rect x="4" y="55" width="55.38" height="3.9"/><polygon points="59.38 55 4 55 4 58.9 59.38 58.9 59.38 55 59.38 55" fill="#333"/><rect x="4" y="88" width="54.15" height="4.15"/><polygon points="58.15 88 4 88 4 92.15 58.15 92.15 58.15 88 58.15 88" fill="#333"/><path d="M54,6V95.12H6V6H54m2-6H4A4,4,0,0,0,0,4v93.2a4,4,0,0,0,4,4H56a4,4,0,0,0,4-4V4a4,4,0,0,0-4-4Z" fill="#1a1a1a"/></g></g></svg>