<svg xmlns="http://www.w3.org/2000/svg" xmlns:xlink="http://www.w3.org/1999/xlink" viewBox="0 0 786.21 147.01"><defs><linearGradient id="429f5b4e-5c52-4f8a-8495-f66f360c950c" x1="125.79" y1="72.81" x2="125.79" gradientUnits="userSpaceOnUse"><stop offset="0" stop-color="#fff"/><stop offset="1" stop-color="#a8a8a8"/></linearGradient><linearGradient id="ae2fa0c4-ca3e-461c-8645-35cc6e868c85" x1="303.28" y1="72.81" x2="303.28" y2="0" xlink:href="#429f5b4e-5c52-4f8a-8495-f66f360c950c"/><linearGradient id="fb7e7744-ed27-4449-8208-62058c5bce09" x1="480.96" y1="72.81" x2="480.96" y2="0" xlink:href="#429f5b4e-5c52-4f8a-8495-f66f360c950c"/><linearGradient id="02ca759b-203d-4e19-a4fe-59eda8a366c9" x1="658.45" y1="72.81" x2="658.45" y2="0" xlink:href="#429f5b4e-5c52-4f8a-8495-f66f360c950c"/><linearGradient id="f1748ce1-e29c-4143-a3e9-7f0b3c85ab4e" x1="144.98" y1="91.2" x2="144.98" y2="18.39" xlink:href="#429f5b4e-5c52-4f8a-8495-f66f360c950c"/><linearGradient id="2e5355cf-64f5-4ded-bd18-920d821efd8e" x1="308.46" y1="91.2" x2="308.46" y2="18.39" xlink:href="#429f5b4e-5c52-4f8a-8495-f66f360c950c"/><linearGradient id="0f332b27-abfb-4a77-aa1a-088110c4a78b" x1="472.11" y1="91.2" x2="472.11" y2="18.39" xlink:href="#429f5b4e-5c52-4f8a-8495-f66f360c950c"/><linearGradient id="bec3d6ab-3f46-4416-868a-67f13fccbcef" x1="635.59" y1="91.2" x2="635.59" y2="18.39" xlink:href="#429f5b4e-5c52-4f8a-8495-f66f360c950c"/><linearGradient id="5b7f2fb7-1b5b-4d87-8299-d91271d1e9e7" x1="195.04" y1="111.47" x2="195.04" y2="38.66" xlink:href="#429f5b4e-5c52-4f8a-8495-f66f360c950c"/><linearGradient id="0200bdcb-7a57-4db2-8ba0-a30bd516e4b9" x1="391.09" y1="111.47" x2="391.09" y2="38.66" xlink:href="#429f5b4e-5c52-4f8a-8495-f66f360c950c"/><linearGradient id="62b26b03-7c1c-44b6-afee-9d335660ef39" x1="587.34" y1="111.47" x2="587.34" y2="38.66" xlink:href="#429f5b4e-5c52-4f8a-8495-f66f360c950c"/><pattern id="e2a1a814-1377-4753-a3c1-fe3020a764b8" data-name="Simple planks" width="92" height="500" patternTransform="translate(-28743.75 9690.3) rotate(90) scale(0.09 0.09)" patternUnits="userSpaceOnUse" viewBox="0 0 92 500"><rect width="92" height="500" fill="none"/><rect width="86" height="500" fill="#8c6239"/><rect x="86" width="6" height="500" fill="#694a2b"/></pattern><pattern id="2ad229ea-3982-4b5a-b18e-58462ec7dfea" data-name="Simple planks" width="92" height="500" patternTransform="translate(-8922.67 -9304.02) rotate(90) scale(0.16 0.15)" patternUnits="userSpaceOnUse" viewBox="0 0 92 500"><rect width="92" height="500" fill="none"/><rect width="86" height="500" fill="#8c6239"/><rect x="86" width="6" height="500" fill="#694a2b"/></pattern></defs><title>main_mast</title><g id="552d41b6-69fc-4dc7-b936-db97ff11fe30" data-name="Layer 2"><g id="1bf41e82-e8e6-487c-915b-db842941eaba" data-name="Main Mast"><g id="8a8ecab8-4fcd-49da-a6c4-597b3ca54391" data-name="left wing"><path d="M250.15,66.51h0A13.51,13.51,0,0,1,263.67,80v62.49a0,0,0,0,1,0,0H250.15a24.33,24.33,0,0,1-24.33-24.33V90.84A24.33,24.33,0,0,1,250.15,66.51Z" fill="#8c6239" stroke="#c69c6d" stroke-miterlimit="10" stroke-width="9"/><path d="M247.14,62.51h25.19a0,0,0,0,1,0,0v72a0,0,0,0,1,0,0H247.14a10.81,10.81,0,0,1-10.81-10.81V73.33A10.81,10.81,0,0,1,247.14,62.51Z" fill="#8c6239" stroke="#1a1a1a" stroke-miterlimit="10" stroke-width="7"/></g><g id="8076770c-c74b-4e34-b227-ed6c9bdb4f6d" data-name="right wing"><path d="M539.82,62.51h13.51a0,0,0,0,1,0,0V125a13.51,13.51,0,0,1-13.51,13.51h0a24.33,24.33,0,0,1-24.33-24.33V86.84A24.33,24.33,0,0,1,539.82,62.51Z" transform="translate(1068.82 201.03) rotate(-180)" fill="#8c6239" stroke="#c69c6d" stroke-miterlimit="10" stroke-width="9"/><path d="M520.14,58.51h25.19a0,0,0,0,1,0,0v72a0,0,0,0,1,0,0H520.14a10.81,10.81,0,0,1-10.81-10.81V69.33a10.81,10.81,0,0,1,10.81-10.81Z" transform="translate(1054.66 189.03) rotate(-180)" fill="#8c6239" stroke="#1a1a1a" stroke-miterlimit="10" stroke-width="7"/></g><g id="fe3c96fb-76b7-4b1d-94f8-251d81cc2ee2" data-name="Sail"><path id="ea8d6c3e-1d66-482c-ab3b-df9b4ae931f0" data-name="sail3" d="M125.79,0c-63.5,0-115,16.3-115,36.41h230C240.77,16.3,189.29,0,125.79,0Z" fill="url(#429f5b4e-5c52-4f8a-8495-f66f360c950c)"/><path id="92cda49c-88ca-43b0-881d-aaa26cf0ae10" data-name="sail2" d="M303.28,0c-63.5,0-115,16.3-115,36.41h230C418.26,16.3,366.78,0,303.28,0Z" fill="url(#ae2fa0c4-ca3e-461c-8645-35cc6e868c85)"/><path id="c0c69ae2-db22-41f4-8cc0-954c3fe93841" data-name="sail3" d="M481,0c-63.5,0-115,16.3-115,36.41h230C595.94,16.3,544.46,0,481,0Z" fill="url(#fb7e7744-ed27-4449-8208-62058c5bce09)"/><path id="ad05b747-3413-4fc8-9b44-ff7b4109ae42" data-name="sail4" d="M658.45,0c-63.5,0-115,16.3-115,36.41h230C773.43,16.3,722,0,658.45,0Z" fill="url(#02ca759b-203d-4e19-a4fe-59eda8a366c9)"/><rect x="568.26" y="12.46" width="2.35" height="23.95"/><rect x="391.85" y="12.46" width="2.35" height="23.95"/><rect x="213.09" y="12.46" width="2.35" height="23.95"/><rect y="33.31" width="786.21" height="7.83" rx="2.12" ry="2.12" fill="#603813"/></g><g id="c2f3bdef-ecc7-4fe7-be32-905026dbbfce" data-name="Sail"><path d="M145,18.39c-58.49,0-105.9,16.3-105.9,36.41h211.8C250.88,34.69,203.47,18.39,145,18.39Z" fill="url(#f1748ce1-e29c-4143-a3e9-7f0b3c85ab4e)"/><path d="M308.46,18.39c-58.49,0-105.9,16.3-105.9,36.41h211.8C414.36,34.69,366.95,18.39,308.46,18.39Z" fill="url(#2e5355cf-64f5-4ded-bd18-920d821efd8e)"/><path d="M472.11,18.39c-58.49,0-105.9,16.3-105.9,36.41H578C578,34.69,530.6,18.39,472.11,18.39Z" fill="url(#0f332b27-abfb-4a77-aa1a-088110c4a78b)"/><path d="M635.59,18.39c-58.49,0-105.9,16.3-105.9,36.41h211.8C741.49,34.69,694.08,18.39,635.59,18.39Z" fill="url(#bec3d6ab-3f46-4416-868a-67f13fccbcef)"/><rect x="552.52" y="30.85" width="2.17" height="23.95"/><rect x="390.04" y="30.85" width="2.17" height="23.95" fill="gray"/><rect x="225.39" y="30.85" width="2.17" height="23.95"/><rect x="29.12" y="51.7" width="724.14" height="7.83" rx="2.12" ry="2.12" fill="#603813"/></g><g id="757f22f0-9636-41aa-af30-69d38b540313" data-name="Sail"><g id="50a483ad-fe25-4da9-9f71-777e8e531bc6" data-name="Sail"><path d="M195,38.66C124.9,38.66,68,55,68,75.06H322C322,55,265.18,38.66,195,38.66Z" fill="url(#5b7f2fb7-1b5b-4d87-8299-d91271d1e9e7)"/><path d="M391.09,38.66c-70.14,0-127,16.3-127,36.41h254C518.08,55,461.23,38.66,391.09,38.66Z" fill="url(#0200bdcb-7a57-4db2-8ba0-a30bd516e4b9)"/><path d="M587.34,38.66c-70.14,0-127,16.3-127,36.41h254C714.33,55,657.48,38.66,587.34,38.66Z" fill="url(#62b26b03-7c1c-44b6-afee-9d335660ef39)"/><line x1="686.36" y1="75.06" x2="683.76" y2="75.06" fill="gray"/><line x1="683.76" y1="51.11" x2="686.36" y2="51.11" fill="gray"/><rect x="488.92" y="51.11" width="2.6" height="23.95"/><rect x="291.47" y="51.11" width="2.6" height="23.95"/></g><rect x="59.88" y="73.87" width="663.9" height="7.83" rx="2.12" ry="2.12" fill="#603813"/></g><g id="4f2f7ec2-467f-482f-a5a4-bf619af0d8bd" data-name="Layer 33"><g id="20a288db-602a-450e-a0f4-774e5db7e12a" data-name="Layer 35"><polygon points="399.45 87.2 399.26 84.42 526.59 78.32 526.79 81.1 399.45 87.2" fill="#261d0d"/><polygon points="394.41 96.02 394.77 92.87 527.08 115.72 526.72 118.87 394.41 96.02" fill="#261d0d"/><polygon points="411.47 84.65 413.84 84.95 412.91 97.58 410.53 97.28 411.47 84.65" fill="#261d0d"/><polygon points="418.83 84.75 421.2 85.05 420.13 99.55 417.75 99.25 418.83 84.75" fill="#261d0d"/><polygon points="427.42 83.69 429.79 83.99 428.6 100.09 426.22 99.79 427.42 83.69" fill="#261d0d"/><polygon points="434.69 83.67 437.07 83.96 435.83 100.64 433.45 100.34 434.69 83.67" fill="#261d0d"/><polygon points="443 83.26 445.37 83.56 443.96 102.63 441.58 102.33 443 83.26" fill="#261d0d"/><polygon points="452.41 83.33 454.86 83.64 453.31 104.45 450.86 104.14 452.41 83.33" fill="#261d0d"/><polygon points="461.57 82.59 463.9 82.89 462.18 106.04 459.86 105.75 461.57 82.59" fill="#261d0d"/><polygon points="471.06 81.75 473.48 82.06 471.57 107.83 469.14 107.52 471.06 81.75" fill="#261d0d"/><polygon points="480.29 81 482.71 81.3 480.57 110.13 478.15 109.83 480.29 81" fill="#261d0d"/><polygon points="490.1 81.19 492.53 81.5 490.32 111.25 487.9 110.95 490.1 81.19" fill="#261d0d"/><polygon points="392.81 90.77 392.86 88.57 532.78 97.99 532.72 100.18 392.81 90.77" fill="#261d0d"/><polygon points="500.13 80.15 502.56 80.46 500.19 112.39 497.76 112.09 500.13 80.15" fill="#261d0d"/><polygon points="510.99 80.36 513.41 80.67 510.93 114.08 508.51 113.78 510.99 80.36" fill="#261d0d"/><polygon points="522.22 80.23 524.64 80.53 521.99 116.23 519.57 115.92 522.22 80.23" fill="#261d0d"/><polygon points="526.66 118.78 532.91 118.88 532.69 78.5 526.43 78.39 526.66 118.78" fill="#261d0d"/></g><g id="7d8662ab-0296-448b-ade9-e629cbf4e5bb" data-name="Layer 36"><polygon points="386.26 87.2 386.46 84.42 259.13 78.32 258.93 81.1 386.26 87.2" fill="#261d0d"/><polygon points="391.31 96.02 390.95 92.87 258.64 115.72 259 118.87 391.31 96.02" fill="#261d0d"/><polygon points="374.25 84.65 371.87 84.95 372.81 97.58 375.19 97.28 374.25 84.65" fill="#261d0d"/><polygon points="366.89 84.75 364.51 85.05 365.59 99.55 367.96 99.25 366.89 84.75" fill="#261d0d"/><polygon points="358.3 83.69 355.92 83.99 357.12 100.09 359.49 99.79 358.3 83.69" fill="#261d0d"/><polygon points="351.02 83.67 348.65 83.96 349.88 100.64 352.26 100.34 351.02 83.67" fill="#261d0d"/><polygon points="342.72 83.26 340.35 83.56 341.76 102.63 344.14 102.33 342.72 83.26" fill="#261d0d"/><polygon points="333.31 83.33 330.86 83.64 332.4 104.45 334.85 104.14 333.31 83.33" fill="#261d0d"/><polygon points="324.14 82.59 321.82 82.89 323.54 106.04 325.86 105.75 324.14 82.59" fill="#261d0d"/><polygon points="314.66 81.75 312.24 82.06 314.15 107.83 316.57 107.52 314.66 81.75" fill="#261d0d"/><polygon points="305.43 81 303 81.3 305.14 110.13 307.57 109.83 305.43 81" fill="#261d0d"/><polygon points="295.61 81.19 293.19 81.5 295.4 111.25 297.82 110.95 295.61 81.19" fill="#261d0d"/><polygon points="392.91 90.77 392.86 88.57 252.94 97.99 252.99 100.18 392.91 90.77" fill="#261d0d"/><polygon points="285.58 80.15 283.16 80.46 285.53 112.39 287.95 112.09 285.58 80.15" fill="#261d0d"/><polygon points="274.73 80.36 272.3 80.67 274.78 114.08 277.21 113.78 274.73 80.36" fill="#261d0d"/><polygon points="263.5 80.23 261.08 80.53 263.72 116.23 266.15 115.92 263.5 80.23" fill="#261d0d"/><polygon points="259.06 118.78 252.81 118.88 253.03 78.5 259.28 78.39 259.06 118.78" fill="#261d0d"/></g></g><ellipse cx="392.47" cy="81.05" rx="48.06" ry="48.91" stroke="#754c24" stroke-miterlimit="10" stroke-width="4" fill="url(#e2a1a814-1377-4753-a3c1-fe3020a764b8)"/><ellipse cx="392.47" cy="81.05" rx="24.99" ry="25.43" stroke="#603813" stroke-miterlimit="10" stroke-width="4" fill="url(#2ad229ea-3982-4b5a-b18e-58462ec7dfea)"/><ellipse cx="392.47" cy="81.05" rx="10.89" ry="11.09" fill="#42210b" stroke="#754c24" stroke-miterlimit="10" stroke-width="3"/><g id="57351a78-63d1-4bcc-bfc4-20d75e02b8d6" data-name="Layer 30"><rect x="781.61" y="33.31" width="1.53" height="7.83"/><rect x="771.21" y="33.31" width="1.53" height="7.83"/><rect x="748.79" y="51.7" width="1.53" height="7.83"/><rect x="719.06" y="73.87" width="1.53" height="7.83"/></g><rect x="152.2" y="73.87" width="1.53" height="7.83"/><rect x="618.29" y="73.87" width="1.53" height="7.83"/></g></g></svg>