<svg xmlns="http://www.w3.org/2000/svg" xmlns:xlink="http://www.w3.org/1999/xlink" viewBox="0 0 108.65 632.17"><defs><pattern id="788407ed-e764-451f-ad80-187c474cf520" data-name="Simple planks" width="92" height="500" patternTransform="translate(-8927.82 -9317.02) rotate(90) scale(0.16 0.15)" patternUnits="userSpaceOnUse" viewBox="0 0 92 500"><rect width="92" height="500" fill="none"/><rect width="86" height="500" fill="#8c6239"/><rect x="86" width="6" height="500" fill="#694a2b"/></pattern></defs><title>main_gaff</title><g id="e24bcdb4-d8cc-45ac-bcec-1393185e0717" data-name="Layer 2"><g id="abe4838c-a5fb-483e-861f-c06a4e358b13" data-name="Gaff rigged"><g id="8ad37d28-9884-45df-a003-90f12255b5e9" data-name="Main mast"><g id="a960d5e3-8a41-4c5b-80d2-acd93fce4d07" data-name="Main sail"><g id="2456481b-1437-4b8b-b918-c6f5725bb742" data-name="Rigs"><rect x="77.75" y="249.66" width="7.83" height="382.51" rx="2.12" ry="2.12" fill="#603813"/><rect x="77.75" width="7.83" height="238.5" rx="2.12" ry="2.12" fill="#603813"/></g><rect x="71.46" y="585.1" width="0.81" height="45.77" transform="translate(-168.24 44.81) rotate(-16.35)"/><polygon points="77.3 266.95 78.3 266.93 74.11 300.65 73.11 300.68 77.3 266.95"/><path d="M65.82,585.66l-.88.61h0s-51.38-117.56-62-201.49,11-102.18,11-102.18,13.31,24.29,31.73,25.64c19.26,1.78,28.7-8.91,28.7-8.91S52.5,454,63.66,555.63c3.67,33.41,2,30.69,2,30.69Z" fill="#999"/><polygon points="80.71 257.53 81.7 257.67 67.66 308.01 66.67 307.87 80.71 257.53"/><polygon points="58.7 246.29 59.76 246.01 62.86 254.78 61.81 255.06 58.7 246.29"/><line x1="58.07" y1="256.05" x2="54.97" y2="247.28"/><polygon points="70.04 198.39 70.98 198.04 85.05 258.9 84.11 259.25 70.04 198.39"/><polygon points="65.46 252.6 66.08 253.38 14.2 283.79 13.58 283 65.46 252.6"/><path d="M64.95,586.27h0S15.1,471.35,3.49,387.25,13.9,282.6,13.9,282.6,23.1,308.22,39.54,309c17.2,1.23,28.38-2.49,28.38-2.49s-20.44,148.1-4.27,249.09c5.33,33.27,1.28,30.64,1.28,30.64Z" fill="#d1d3d4"/><path d="M64.67,13.48l-.7-.4h0S23,90,14.51,144.93s8.74,66.86,8.74,66.86S33.86,195.89,48.56,195c15.36-1.17,22.89,5.83,22.89,5.83S54,99.63,62.94,33.13C65.87,11.27,64.5,13,64.5,13Z" fill="#999"/><polygon points="22.99 211.52 23.39 210.6 74.84 241.47 74.45 242.39 22.99 211.52"/><polygon points="64.57 192.31 65.47 191.86 86.24 252.44 85.35 252.89 64.57 192.31"/><rect x="70.93" y="-0.88" width="0.81" height="17.75" transform="translate(108.62 69.34) rotate(-127.69)"/><path d="M64,13.08h0s-39.76,75.2-49,130.23,8.3,68.48,8.3,68.48,7.34-16.76,20.46-17.3c13.72-.81,22.64,1.63,22.64,1.63S50,99.21,62.94,33.13c4.25-21.77,1-20.05,1-20.05Z" fill="#d1d3d4"/><rect x="81.26" y="626.03" width="0.81" height="7.83" transform="translate(-548.28 711.6) rotate(-90)"/><rect x="81.26" y="623.09" width="0.81" height="7.83" transform="translate(-545.34 708.66) rotate(-90)"/><rect x="81.26" y="620.21" width="0.81" height="7.83" transform="translate(-542.46 705.78) rotate(-90)"/><polygon points="62.52 245.28 63.57 245 66.68 253.77 65.62 254.05 62.52 245.28"/><ellipse cx="81.66" cy="245.2" rx="24.99" ry="25.43" stroke="#603813" stroke-miterlimit="10" stroke-width="4" fill="url(#788407ed-e764-451f-ad80-187c474cf520)"/><ellipse cx="81.66" cy="245.2" rx="10.89" ry="11.09" fill="#42210b" stroke="#754c24" stroke-miterlimit="10" stroke-width="3"/><rect x="81.26" y="-1.36" width="0.81" height="7.83" transform="translate(79.11 84.22) rotate(-90)"/><rect x="81.26" y="1.64" width="0.81" height="7.83" transform="translate(76.11 87.22) rotate(-90)"/><rect x="81.26" y="4.64" width="0.81" height="7.83" transform="translate(73.11 90.22) rotate(-90)"/></g></g></g></g></svg>