<svg xmlns="http://www.w3.org/2000/svg" xmlns:xlink="http://www.w3.org/1999/xlink" viewBox="0 0 239.31 242"><defs><pattern id="Simple_planks" data-name="Simple planks" width="92" height="500" patternTransform="translate(19.96 97.83) scale(0.21 0.2)" patternUnits="userSpaceOnUse" viewBox="0 0 92 500"><rect width="92" height="500" fill="none"/><rect width="86" height="500" fill="#8c6239"/><rect x="86" width="6" height="500" fill="#694a2b"/></pattern><pattern id="Simple_planks-3" data-name="Simple planks" width="92" height="500" patternTransform="translate(15 38.6) scale(0.2)" patternUnits="userSpaceOnUse" viewBox="0 0 92 500"><rect width="92" height="500" fill="none"/><rect width="86" height="500" fill="#8c6239"/><rect x="86" width="6" height="500" fill="#694a2b"/></pattern><pattern id="Simple_planks-5" data-name="Simple planks" width="92" height="500" patternTransform="translate(15.4 0.6) scale(0.2)" patternUnits="userSpaceOnUse" viewBox="0 0 92 500"><rect width="92" height="500" fill="none"/><rect width="86" height="500" fill="#8c6239"/><rect x="86" width="6" height="500" fill="#694a2b"/></pattern></defs><title>officerdeck</title><g id="Layer_2" data-name="Layer 2"><g id="aft"><g id="Layer_2-2" data-name="Layer 2"><path id="Officers_deck" data-name="Officers deck" d="M135.16,205h-31a100,100,0,0,1-100-100V20a15,15,0,0,1,15-15h201a15,15,0,0,1,15,15v85A100,100,0,0,1,135.16,205Z" stroke="#c69c6d" stroke-miterlimit="10" stroke-width="8.31" fill="url(#Simple_planks)"/><path id="Officers_deck-2" data-name="Officers deck" d="M127.16,203h-15a100,100,0,0,1-100-100V19a15,15,0,0,1,15-15h185a15,15,0,0,1,15,15v84A100,100,0,0,1,127.16,203Z" stroke="#1a1a1a" stroke-miterlimit="10" stroke-width="8" fill="url(#Simple_planks-3)"/><g id="Layer_12" data-name="Layer 12"><path d="M96.66,238a4,4,0,0,1-4-4,16,16,0,0,0-16-16,4,4,0,0,1-4-4V123.5a4,4,0,0,1,4-4h87.5a4,4,0,0,1,4,4V214a4,4,0,0,1-4,4,16,16,0,0,0-16,16,4,4,0,0,1-4,4Z" fill="url(#Simple_planks-5)"/><path d="M164.16,123.5V214a20,20,0,0,0-20,20H96.66a20,20,0,0,0-20-20V123.5h87.5m0-8H76.66a8,8,0,0,0-8,8V214a8,8,0,0,0,8,8,12,12,0,0,1,12,12,8,8,0,0,0,8,8h47.5a8,8,0,0,0,8-8,12,12,0,0,1,12-12,8,8,0,0,0,8-8V123.5a8,8,0,0,0-8-8Z" fill="#42210b"/></g></g></g></g></svg>