<svg xmlns="http://www.w3.org/2000/svg" viewBox="0 0 508.92 739.29"><title>ropes</title><g id="Layer_2" data-name="Layer 2"><g id="Ropes"><g id="Layer_20" data-name="Layer 20"><rect x="251" y="235.41" width="2" height="503.88"/><rect x="477.02" y="217.87" width="1.37" height="258.94" transform="translate(-64.81 113.83) rotate(-12.73)"/><g id="Layer_28" data-name="Layer 28"><rect x="27.17" y="219.62" width="1.37" height="257.57" transform="translate(74.07 1.96) rotate(12.17)"/><rect x="27.2" y="471.42" width="1.37" height="255.51" transform="translate(-126.84 19.65) rotate(-12.28)"/><rect x="479.1" y="469.61" width="1.37" height="258.19" transform="translate(136.99 -87.68) rotate(12.17)"/><rect x="94" y="-6.25" width="1.55" height="235.12" transform="translate(41.75 -24.93) rotate(19.14)"/><rect x="407" y="-6.25" width="1.55" height="235.12" transform="translate(-13.3 148.24) rotate(-20.28)"/><rect x="62.38" y="216.73" width="1.56" height="19.97" transform="translate(-162.06 158.4) rotate(-57.56)"/><rect x="440.04" y="216.49" width="1.39" height="19.97" transform="translate(289.23 -245.31) rotate(45)"/><rect x="486.27" y="463.21" width="1.42" height="49.15" transform="translate(568.55 -196.63) rotate(51.75)"/><rect x="19.73" y="464.08" width="1.2" height="46.46" transform="translate(435.39 743.47) rotate(124.07)"/><rect x="506.57" y="471" width="1" height="3.68" transform="translate(-151.24 690.4) rotate(-61.29)"/><rect x="3.46" y="472.37" width="1" height="5.11"/><rect x="18.88" y="484.37" width="1" height="5.11"/><rect x="39.13" y="498.83" width="1" height="5.11"/><rect y="472.37" width="1" height="5.11"/></g><rect x="253.53" y="497.78" width="1" height="11.28" transform="translate(465.89 -19.15) rotate(48.84)"/><rect x="253.84" y="497.6" width="1" height="11.34" transform="translate(765.06 742.31) rotate(141.89)"/></g></g></g></svg>