<svg xmlns="http://www.w3.org/2000/svg" xmlns:xlink="http://www.w3.org/1999/xlink" viewBox="0 0 56 112"><defs><pattern id="83355674-b80e-477d-b422-5319f8777e56" data-name="Simple planks" width="92" height="500" patternTransform="translate(-267.04 67.48) scale(0.16)" patternUnits="userSpaceOnUse" viewBox="0 0 92 500"><rect width="92" height="500" fill="none"/><rect width="86" height="500" fill="#8c6239"/><rect x="86" width="6" height="500" fill="#694a2b"/></pattern></defs><title>rowboat</title><g id="4efaa776-caf3-4a93-9ecf-41fa5b4730fe" data-name="Layer 2"><g id="a94da804-8f0e-485e-b94a-2a2661be8ed7" data-name="rowboat"><path d="M2.5,105.5V44C7.21,27.82,18.18,2.5,28,2.5S48.8,28,53.5,44.27V105.5Z" fill="url(#83355674-b80e-477d-b422-5319f8777e56)"/><path d="M28,5c3.12,0,8.75,5,15.22,19A169.21,169.21,0,0,1,51,44.64V103H5V44.39a167.59,167.59,0,0,1,7.78-20.55C19.24,10,24.88,5,28,5m0-5h0C12.54,0,0,43.67,0,43.67V108H56V43.92S43.46,0,28,0Z" fill="#42210b"/><g id="ad66e802-a0fe-4e1b-994f-b56943032b52" data-name="Layer 15"><rect x="2" y="52" width="52" height="12" fill="#42210b"/><rect x="2" y="80" width="52" height="12" fill="#42210b"/><rect x="8" y="23" width="40" height="12" transform="translate(56 58) rotate(180)" fill="#42210b"/></g><path d="M52,112H4l-4-4v-1H56v1Z" fill="#603813"/></g></g></svg>