<?xml version="1.0" encoding="iso-8859-1"?>
<!-- Generator: Adobe Illustrator 19.0.0, SVG Export Plug-In . SVG Version: 6.00 Build 0)  -->
<svg version="1.1" id="Layer_1" xmlns="http://www.w3.org/2000/svg" xmlns:xlink="http://www.w3.org/1999/xlink" x="0px" y="0px"
	 viewBox="0 0 512.001 512.001" style="enable-background:new 0 0 512.001 512.001;" xml:space="preserve">
<path style="fill:#854437;" d="M342.26,382.638c0,73.348-38.62,121.867-86.26,121.867s-86.26-48.519-86.26-121.867
	S208.36,238.889,256,238.889S342.26,309.29,342.26,382.638z"/>
<path style="fill:#63352B;" d="M256,238.888c-3.542,0-7.033,0.398-10.463,1.149c42.705,9.345,75.797,74.706,75.797,142.6
	s-33.092,114.509-75.797,121.066c3.43,0.527,6.921,0.801,10.463,0.801c47.64,0,86.26-48.519,86.26-121.867
	S303.64,238.888,256,238.888z"/>
<path style="fill:#572F26;" d="M264.782,500.446c-1.422,3.351-5.293,4.935-8.684,3.558l0,0l-2.234-0.907
	c-3.062-1.244-4.754-4.523-3.957-7.71c4.108-16.441,13.839-67.318-6.057-118.499c-23.15-59.553-5.055-114.153,2.478-132.699
	c1.559-3.839,5.696-5.987,9.77-5.102l0,0l0.355,0.181c3.466,1.769,5.285,5.63,4.447,9.407c-3.878,17.47-12.163,68.386,7.446,118.833
	C291.743,427.699,272.368,482.57,264.782,500.446z"/>
<path style="fill:#854437;" d="M50.557,174.48C0.228,121.123-4.97,59.328,29.686,26.639s96.042-23.893,146.37,29.464
	s70.541,131.07,35.885,163.759S100.885,227.837,50.557,174.48z"/>
<path style="fill:#63352B;" d="M176.056,56.103C125.728,2.746,64.342-6.05,29.686,26.639c-3.108,2.931-5.889,6.101-8.352,9.473
	C56.807,10.191,113.806,21.003,161.06,71.1c46.031,48.801,66.86,117.969,43.568,154.436c2.602-1.654,5.049-3.539,7.314-5.675
	C246.597,187.173,226.385,109.46,176.056,56.103z"/>
<path style="fill:#572F26;" d="M26.154,35.55c-1.265-3.414,0.464-7.221,3.876-8.546l0,0l2.248-0.873
	c3.081-1.196,6.561,0.028,8.169,2.893c8.293,14.779,36.124,58.466,85.715,82.046c57.703,27.437,82.004,79.572,89.251,98.232
	c1.5,3.863-0.035,8.264-3.607,10.415l0,0l-0.382,0.112c-3.735,1.092-7.708-0.469-9.69-3.792
	c-9.166-15.37-38.076-58.094-86.955-81.336C56.457,106.97,32.901,53.76,26.154,35.55z"/>
<path style="fill:#854437;" d="M461.444,174.48c50.328-53.357,55.527-115.152,20.871-147.841s-96.042-23.893-146.37,29.464
	s-70.541,131.07-35.885,163.759S411.115,227.837,461.444,174.48z"/>
<path style="fill:#63352B;" d="M482.314,26.639c-2.349-2.215-4.824-4.233-7.407-6.067c26.039,34.131,17.954,90.396-28.374,139.512
	c-46.835,49.653-116.241,74.492-153.58,51.359c2.044,3.057,4.408,5.874,7.105,8.418c34.656,32.689,111.056,7.975,161.385-45.382
	C511.772,121.123,516.97,59.328,482.314,26.639z"/>
<path style="fill:#572F26;" d="M485.846,35.55c1.265-3.414-0.464-7.221-3.876-8.546l0,0l-2.248-0.873
	c-3.081-1.196-6.561,0.028-8.169,2.893c-8.293,14.779-36.124,58.466-85.716,82.046c-57.703,27.437-82.004,79.572-89.251,98.232
	c-1.5,3.863,0.035,8.264,3.607,10.415l0,0l0.382,0.112c3.735,1.092,7.708-0.469,9.69-3.792c9.166-15.37,38.076-58.094,86.955-81.336
	C455.543,106.97,479.099,53.76,485.846,35.55z"/>
<path d="M256,231.389c-0.333,0-0.664,0.015-0.997,0.021c-1.021-0.049-2.033-0.007-3.023,0.132
	c-23.924,1.702-46.326,18.565-63.454,47.937c-16.705,28.647-26.286,66.246-26.286,103.157c0,4.142,3.358,7.5,7.5,7.5
	s7.5-3.358,7.5-7.5c0-59.243,25.912-114.084,58.318-130.948c-8.774,26.025-19.208,75.157,1.301,127.915
	c19.343,49.763,9.307,99.809,5.77,113.962c-0.154,0.616-0.249,1.235-0.317,1.853c-28.434-6.612-51.505-33.694-60.663-72.744
	c-0.946-4.033-4.982-6.538-9.014-5.589c-4.033,0.946-6.535,4.981-5.589,9.014c12.239,52.183,47.155,85.902,88.954,85.902
	c0.727,0,1.451-0.014,2.174-0.034c0.136,0.004,0.272,0.019,0.407,0.019c0.568,0,1.131-0.043,1.691-0.11
	c24.315-1.342,46.473-14.132,62.771-36.37c17.477-23.846,26.715-55.961,26.715-92.871c0-36.911-9.581-74.51-26.286-103.157
	C305.389,248.468,281.426,231.389,256,231.389z M253.276,247.01c0.064-0.157,0.169-0.29,0.301-0.392
	c0.032,0.138,0.033,0.285,0,0.432c-4.383,19.743-12.399,71.268,7.778,123.174c21.533,55.396,5.254,106.406-3.16,126.533l-0.82-0.333
	c3.96-16.223,14.07-69.25-6.535-122.255C229.12,318.293,245.308,266.629,253.276,247.01z M310.945,466.64
	c-9.814,13.39-22.043,22.663-35.538,27.189c9.249-25.82,20.757-75.459-0.072-129.04c-19.213-49.426-10.303-100.126-7.115-114.489
	c0.142-0.64,0.229-1.28,0.292-1.92c36.002,11.389,66.246,70.252,66.246,134.255C334.759,415.854,326.302,445.687,310.945,466.64z"/>
<path d="M217.088,225.318c0.263-0.248,0.514-0.506,0.772-0.759c0.791-0.676,1.508-1.416,2.142-2.212
	c16.16-17.658,20.851-45.255,13.172-78.31c-7.504-32.301-26.334-66.227-51.66-93.077c-2.841-3.013-7.588-3.151-10.602-0.31
	c-3.014,2.842-3.152,7.589-0.31,10.602c40.603,43.046,59.389,100.638,47.472,135.155c-11.485-24.959-37.599-67.815-88.689-92.108
	C81.168,81.373,54.129,38.08,46.99,25.358c-0.307-0.547-0.657-1.055-1.026-1.546c25.182-14.62,60.458-10.765,93.836,11.261
	c3.458,2.282,8.11,1.329,10.39-2.129c2.282-3.457,1.328-8.109-2.129-10.39C103.394-6.922,54.91-7.458,24.544,21.187
	c-0.526,0.496-1.041,1.001-1.551,1.51c-0.494,0.445-0.96,0.916-1.383,1.421C4.78,41.785-2.595,66.33,0.813,93.737
	c3.648,29.339,18.964,59.04,44.29,85.89c25.327,26.851,58.096,47.629,89.904,57.005c12.452,3.671,24.213,5.489,35.029,5.489
	C189.13,242.12,205.281,236.455,217.088,225.318z M122.942,117.846c54.139,25.742,77.813,74.433,85.479,94.172
	c0.061,0.158,0.076,0.327,0.05,0.492c-0.118-0.079-0.22-0.185-0.297-0.313c-10.359-17.37-39.882-60.353-90.174-84.267
	c-53.672-25.521-76.833-73.799-84.523-94.214l0.826-0.321C42.554,47.914,71.584,93.425,122.942,117.846z M56.016,169.335
	c-22.794-24.165-37.112-51.67-40.317-77.449c-2.054-16.52,0.498-31.696,7.25-44.268c10.98,25.122,36.669,69.16,88.61,93.858
	c47.889,22.771,76.198,65.768,83.734,78.404c0.34,0.569,0.714,1.108,1.112,1.621c-7.574,3.676-16.552,5.448-26.436,5.447
	C135.508,226.946,90.17,205.545,56.016,169.335z"/>
<path d="M490.393,24.119c-0.425-0.507-0.893-0.98-1.389-1.427c-0.509-0.507-1.022-1.011-1.547-1.506
	c-18.903-17.83-45.118-24.739-73.811-19.455c-29.076,5.354-57.832,22.377-83.159,49.228s-44.156,60.776-51.66,93.077
	c-7.679,33.055-2.988,60.652,13.172,78.31c0.633,0.796,1.351,1.536,2.142,2.212c0.258,0.253,0.509,0.511,0.772,0.759
	c11.758,11.091,27.8,16.771,46.998,16.771c5.468,0,11.193-0.461,17.147-1.389c24.22-3.775,50.886-15.341,75.085-32.565
	c3.374-2.402,4.163-7.085,1.761-10.459s-7.084-4.162-10.459-1.761c-40.217,28.626-83.753,38.212-109.844,25.579
	c0.397-0.511,0.769-1.048,1.108-1.615c7.536-12.635,35.844-55.631,83.733-78.403c51.941-24.698,77.631-68.736,88.611-93.859
	c6.752,12.572,9.305,27.748,7.25,44.268c-3.206,25.779-17.524,53.284-40.317,77.45c-2.842,3.013-2.703,7.76,0.31,10.602
	c3.012,2.842,7.759,2.703,10.602-0.31c25.327-26.851,40.642-56.551,44.29-85.89C514.595,66.331,507.221,41.786,490.393,24.119z
	 M341.399,61.252c22.793-24.165,49.415-40.064,74.963-44.768c18.568-3.419,35.754-0.822,49.692,7.305
	c-0.376,0.497-0.732,1.013-1.043,1.569c-7.139,12.722-34.178,56.015-82.394,78.942c-51.09,24.293-77.204,67.148-88.689,92.108
	C282.01,161.89,300.796,104.298,341.399,61.252z M393.999,127.93c-50.292,23.914-79.816,66.896-90.174,84.266
	c-0.077,0.129-0.179,0.235-0.297,0.314c-0.026-0.165-0.011-0.334,0.05-0.492c7.666-19.739,31.34-68.43,85.479-94.172
	c51.358-24.421,80.389-69.932,88.64-84.451l0.826,0.321C470.833,54.131,447.672,102.409,393.999,127.93z"/>
<g>
</g>
<g>
</g>
<g>
</g>
<g>
</g>
<g>
</g>
<g>
</g>
<g>
</g>
<g>
</g>
<g>
</g>
<g>
</g>
<g>
</g>
<g>
</g>
<g>
</g>
<g>
</g>
<g>
</g>
</svg>
