<svg xmlns="http://www.w3.org/2000/svg" xmlns:xlink="http://www.w3.org/1999/xlink" version="1.1" id="Layer_1" x="0px" y="0px" viewBox="0 0 512 512" style="enable-background:new 0 0 512 512;" xml:space="preserve" width="512" height="512" class=""><g><path style="fill:#F2F2F2" d="M457.222,303.497L304.477,44.594c-9.79-16.587-27.828-27.716-48.477-27.716v427.604l233.495-22.505  C489.495,378.733,477.724,338.234,457.222,303.497z" data-original="#44A72A" class="active-path" data-old_color="#EFEEEE"></path><path style="fill:#FAFDF7" d="M444.484,421.977L256,444.482L22.505,421.977c0-43.244,11.77-83.743,32.273-118.48L207.523,44.593  c9.79-16.587,27.828-27.716,48.477-27.716c16.665,0,31.238,11.129,39.137,27.716l123.296,258.903  C434.975,338.234,444.484,378.733,444.484,421.977z" data-original="#91E262" class="" data-old_color="#F9FCF6"></path><path style="fill:#3A1509" d="M427.604,433.232v61.89h33.758c9.284,0,18.961-7.303,21.515-16.226l6.617-23.158L427.604,433.232z" data-original="#00B9FF" class="" data-old_color="#3B1609"></path><g>
	<path style="fill:#421501" d="M455.736,455.736l-6.617,23.158c-2.554,8.923-12.232,16.226-21.515,16.226H50.637   c-9.284,0-18.961-7.303-21.515-16.226l-6.617-23.158L256,433.231L455.736,455.736z" data-original="#55D0FF" class="" data-old_color="#431501"></path>
	<path style="fill:#421501" d="M495.121,421.977h-33.758v33.758h33.758c9.317,0,16.879-7.551,16.879-16.879   C512,429.539,504.438,421.977,495.121,421.977z" data-original="#55D0FF" class="" data-old_color="#431501"></path>
</g><path style="fill:#341E0A" d="M461.363,421.977c9.317,0,16.879,7.562,16.879,16.879c0,9.329-7.562,16.879-16.879,16.879H16.879  C7.562,455.735,0,448.185,0,438.856c0-9.317,7.562-16.879,16.879-16.879H461.363z" data-original="#AAE8FF" class="" data-old_color="#351F0B"></path><g>
	<circle style="fill:#F2F2F2" cx="150.179" cy="280.317" r="8.44" data-original="#44A72A" class="active-path" data-old_color="#EFEEEE"></circle>
	<circle style="fill:#F2F2F2" cx="116.421" cy="314.075" r="8.44" data-original="#44A72A" class="active-path" data-old_color="#EFEEEE"></circle>
	<circle style="fill:#F2F2F2" cx="183.937" cy="314.075" r="8.44" data-original="#44A72A" class="active-path" data-old_color="#EFEEEE"></circle>
	<circle style="fill:#F2F2F2" cx="376.967" cy="320.703" r="8.44" data-original="#44A72A" class="active-path" data-old_color="#EFEEEE"></circle>
	<circle style="fill:#F2F2F2" cx="410.725" cy="354.462" r="8.44" data-original="#44A72A" class="active-path" data-old_color="#EFEEEE"></circle>
	<circle style="fill:#F2F2F2" cx="256" cy="84.394" r="8.44" data-original="#44A72A" class="active-path" data-old_color="#EFEEEE"></circle>
</g></g> </svg>