<svg xmlns="http://www.w3.org/2000/svg" xmlns:xlink="http://www.w3.org/1999/xlink" version="1.1" id="Layer_1" x="0px" y="0px" viewBox="0 0 512 512" style="enable-background:new 0 0 512 512;" xml:space="preserve" width="512" height="512" class=""><g><path style="fill:#FF5E00" d="M450.8,301.981L302.93,51.341C293.452,35.283,275.99,24.51,256,24.51v413.957l226.043-21.787  C482.043,374.816,470.648,335.609,450.8,301.981z" data-original="#44A72A" class="" data-old_color="#FF6600"></path><path style="fill:#FF5600" d="M438.468,416.68L256,438.467L29.957,416.68c0-41.864,11.395-81.07,31.243-114.699l147.87-250.64  C218.548,35.283,236.01,24.51,256,24.51c16.133,0,30.241,10.774,37.888,26.831l119.361,250.64  C429.263,335.609,438.468,374.816,438.468,416.68z" data-original="#91E262" class="" data-old_color="#FF5E00"></path><path style="fill:#7F530A" d="M422.128,427.576v59.915h32.681c8.987,0,18.356-7.07,20.829-15.709l6.405-22.419L422.128,427.576z" data-original="#00B9FF" class="" data-old_color="#80540B"></path><g>
	<path style="fill:#7C4D0F" d="M449.362,449.362l-6.405,22.419c-2.473,8.639-11.841,15.709-20.829,15.709H57.191   c-8.987,0-18.356-7.07-20.829-15.709l-6.405-22.419L256,427.574L449.362,449.362z" data-original="#55D0FF" class="" data-old_color="#7E4E0F"></path>
	<path style="fill:#7C4D0F" d="M487.489,416.68h-32.681v32.681h32.681c9.02,0,16.34-7.31,16.34-16.34   C503.83,424,496.509,416.68,487.489,416.68z" data-original="#55D0FF" class="" data-old_color="#7E4E0F"></path>
</g><path style="fill:#7A4A12" d="M454.809,416.68c9.02,0,16.34,7.32,16.34,16.34c0,9.031-7.321,16.34-16.34,16.34H24.511  c-9.02,0-16.34-7.31-16.34-16.34c0-9.02,7.321-16.34,16.34-16.34H454.809z" data-original="#AAE8FF" class="active-path" data-old_color="#7B4A12"></path><circle cx="153.556" cy="279.541" r="8.17" data-original="#000000" class="" style="fill:#413F3E" data-old_color="#504A47"></circle><circle cx="120.876" cy="312.222" r="8.17" data-original="#000000" class="" style="fill:#413F3E" data-old_color="#504A47"></circle><circle cx="186.237" cy="312.222" r="8.17" data-original="#000000" class="" style="fill:#413F3E" data-old_color="#504A47"></circle><circle cx="373.106" cy="318.638" r="8.17" data-original="#000000" class="" style="fill:#413F3E" data-old_color="#504A47"></circle><circle cx="405.787" cy="351.319" r="8.17" data-original="#000000" class="" style="fill:#413F3E" data-old_color="#504A47"></circle><circle cx="256" cy="89.872" r="8.17" data-original="#000000" class="" style="fill:#413F3E" data-old_color="#504A47"></circle><path d="M512,433.021c0-12.642-9.621-23.078-21.927-24.373c-1.338-39.07-12.411-77.223-32.233-110.815L309.967,47.188  C298.737,28.16,278.058,16.34,256,16.34s-42.737,11.821-53.968,30.849l-65.633,111.248c-2.293,3.886-1.001,8.896,2.885,11.189  c3.887,2.292,8.895,1.001,11.189-2.885l65.633-111.248C224.41,41.422,239.697,32.681,256,32.681s31.59,8.741,39.895,22.811  l147.873,250.645c18.315,31.039,28.588,66.272,29.939,102.374H38.293c1.351-36.101,11.625-71.335,29.939-102.375l65.634-111.249  c2.293-3.886,1.001-8.896-2.885-11.189c-3.889-2.294-8.896-1.001-11.189,2.885L54.159,297.83  c-19.821,33.593-30.895,71.745-32.233,110.815C9.621,409.944,0,420.379,0,433.021c0,13.274,10.607,24.109,23.789,24.492  l4.717,16.508c3.466,12.134,16.066,21.638,28.685,21.638h397.617c12.619,0,25.219-9.505,28.685-21.637l4.717-16.509  C501.393,457.13,512,446.295,512,433.021z M454.809,479.319H57.191c-5.327,0-11.51-4.665-12.973-9.786l-3.429-12.001h430.422  l-3.429,12.001C466.319,474.656,460.135,479.319,454.809,479.319z M487.489,441.191H24.511c-4.506,0-8.17-3.665-8.17-8.17  s3.665-8.17,8.17-8.17h462.979c4.506,0,8.17,3.665,8.17,8.17S491.995,441.191,487.489,441.191z" data-original="#000000" class="" style="fill:#413F3E" data-old_color="#504A47"></path></g> </svg>