<?xml version="1.0" encoding="iso-8859-1"?>
<!-- Generator: Adobe Illustrator 19.0.0, SVG Export Plug-In . SVG Version: 6.00 Build 0)  -->
<svg version="1.1" id="Layer_1" xmlns="http://www.w3.org/2000/svg" xmlns:xlink="http://www.w3.org/1999/xlink" x="0px" y="0px"
	 viewBox="0 0 511.999 511.999" style="enable-background:new 0 0 511.999 511.999;" xml:space="preserve">
<circle style="fill:#7B7B53;" cx="256.003" cy="147.914" r="124.104"/>
<path style="fill:#5A5A28;" d="M255.999,23.807c68.54,0,124.103,55.562,124.103,124.103S324.54,272.013,255.999,272.013"/>
<circle style="fill:#7B7B53;" cx="131.899" cy="364.09" r="124.104"/>
<path style="fill:#5A5A28;" d="M131.898,239.986c68.54,0,124.103,55.562,124.103,124.103s-55.563,124.103-124.103,124.103"/>
<circle style="fill:#FA9C1C;" cx="131.899" cy="364.09" r="100.085"/>
<g>
	<polygon style="fill:#FBB049;" points="111.881,464.172 71.847,440.152 71.847,280.019 111.881,264.006 	"/>
	<polygon style="fill:#FBB049;" points="151.914,464.172 191.947,440.152 191.947,280.019 151.914,264.006 	"/>
</g>
<circle style="fill:#7B7B53;" cx="380.107" cy="364.09" r="124.104"/>
<path style="fill:#5A5A28;" d="M380.102,239.986c68.54,0,124.103,55.562,124.103,124.103s-55.563,124.103-124.103,124.103"/>
<circle style="fill:#FA9C1C;" cx="380.107" cy="364.09" r="100.085"/>
<g>
	<polygon style="fill:#FBB049;" points="360.086,464.172 320.053,440.152 320.053,280.019 360.086,264.006 	"/>
	<polygon style="fill:#FBB049;" points="400.119,464.172 440.153,440.152 440.153,280.019 400.119,264.006 	"/>
</g>
<circle style="fill:#FA9C1C;" cx="256.003" cy="147.914" r="100.085"/>
<g>
	<polygon style="fill:#FBB049;" points="235.983,247.993 195.95,223.973 195.95,63.84 235.983,47.827 	"/>
	<polygon style="fill:#FBB049;" points="276.017,247.993 316.05,223.973 316.05,63.84 276.017,47.827 	"/>
</g>
<g>
	<path style="fill:#1D1D1B;" d="M131.897,256.211c-59.483,0-107.877,48.394-107.877,107.877
		c0,59.484,48.393,107.878,107.877,107.878s107.878-48.393,107.878-107.878C239.775,304.605,191.381,256.211,131.897,256.211z
		 M184.151,440.115c-7.436,5.127-15.656,9.194-24.442,11.977V276.087c8.787,2.783,17.006,6.85,24.442,11.977V440.115z
		 M79.642,288.064c7.436-5.128,15.657-9.194,24.445-11.977v176.006c-8.787-2.783-17.007-6.85-24.445-11.977
		C79.642,440.116,79.642,288.064,79.642,288.064z M39.609,364.088c0-24.085,9.278-46.041,24.444-62.493v124.985
		C48.888,410.131,39.609,388.174,39.609,364.088z M119.675,455.566V272.611c4-0.531,8.079-0.811,12.221-0.811
		s8.222,0.28,12.222,0.811v182.955c-4,0.531-8.079,0.811-12.222,0.811C127.754,456.377,123.676,456.098,119.675,455.566z
		 M199.741,426.582V301.595c15.166,16.451,24.445,38.408,24.445,62.493C224.185,388.174,214.906,410.131,199.741,426.582z"/>
	<path style="fill:#1D1D1B;" d="M380.103,256.211c-59.484,0-107.878,48.394-107.878,107.877
		c0,59.484,48.393,107.878,107.878,107.878c59.483,0,107.877-48.393,107.877-107.878
		C487.979,304.605,439.586,256.211,380.103,256.211z M432.358,440.115c-7.436,5.128-15.657,9.194-24.445,11.977V276.086
		c8.787,2.783,17.007,6.85,24.445,11.977V440.115z M327.848,288.063c7.436-5.127,15.656-9.194,24.442-11.977v176.005
		c-8.787-2.783-17.006-6.85-24.442-11.977V288.063z M287.815,364.088c0-24.086,9.279-46.042,24.445-62.493v124.986
		C297.094,410.131,287.815,388.174,287.815,364.088z M367.881,455.566V272.611c4-0.531,8.079-0.811,12.222-0.811
		c4.143,0,8.221,0.28,12.221,0.811v182.955c-4,0.531-8.079,0.811-12.221,0.811C375.96,456.377,371.881,456.098,367.881,455.566z
		 M447.947,426.582V301.597c15.165,16.451,24.444,38.408,24.444,62.493C472.39,388.174,463.112,410.131,447.947,426.582z"/>
	<path style="fill:#1D1D1B;" d="M380.103,232.191c-8.445,0-16.705,0.808-24.713,2.332c20.234-23.189,32.508-53.493,32.508-86.613
		c0-72.729-59.17-131.898-131.898-131.898S124.102,75.181,124.102,147.91c0,33.12,12.274,63.425,32.508,86.613
		c-8.008-1.525-16.267-2.332-24.713-2.332C59.169,232.191,0,291.36,0,364.088c0,72.729,59.169,131.898,131.897,131.898
		c57.054,0,105.757-36.415,124.103-87.222c18.346,50.807,67.05,87.222,124.103,87.222c72.729,0,131.897-59.169,131.897-131.898
		C512,291.36,452.831,232.191,380.103,232.191z M255.999,31.602c64.133,0,116.308,52.175,116.308,116.308
		s-52.175,116.308-116.308,116.308S139.691,212.042,139.691,147.91C139.691,83.777,191.867,31.602,255.999,31.602z M280.712,277.476
		c-10.657,12.214-19.104,26.403-24.713,41.937c-5.609-15.535-14.056-29.723-24.713-41.937c8.008,1.524,16.267,2.332,24.713,2.332
		C264.445,279.807,272.704,279,280.712,277.476z M131.897,480.397c-64.132,0-116.307-52.176-116.307-116.309
		S67.765,247.78,131.897,247.78c64.133,0,116.308,52.175,116.308,116.308C248.205,428.221,196.029,480.397,131.897,480.397z
		 M380.103,480.397c-64.133,0-116.308-52.175-116.308-116.308s52.175-116.308,116.308-116.308
		c64.132,0,116.307,52.175,116.307,116.308C496.41,428.221,444.235,480.397,380.103,480.397z"/>
	<path style="fill:#1D1D1B;" d="M255.999,40.033c-59.484,0-107.878,48.393-107.878,107.877s48.393,107.878,107.878,107.878
		s107.878-48.394,107.878-107.878C363.878,88.426,315.484,40.033,255.999,40.033z M308.255,223.935
		c-7.436,5.127-15.656,9.194-24.442,11.977V59.907c8.787,2.783,17.006,6.85,24.442,11.977V223.935z M203.745,71.884
		c7.436-5.127,15.656-9.194,24.444-11.977v176.005c-8.787-2.783-17.006-6.85-24.444-11.977V71.884z M163.712,147.91
		c0-24.085,9.279-46.041,24.445-62.493v124.986C172.99,193.952,163.712,171.996,163.712,147.91z M243.778,239.388V56.433
		c4-0.531,8.079-0.811,12.222-0.811c4.144,0,8.222,0.28,12.222,0.811v182.955c-4,0.531-8.079,0.811-12.222,0.811
		C251.857,240.198,247.778,239.919,243.778,239.388z M323.845,210.403V85.417c15.166,16.451,24.445,38.408,24.445,62.493
		C348.288,171.996,339.01,193.952,323.845,210.403z"/>
</g>
<g>
</g>
<g>
</g>
<g>
</g>
<g>
</g>
<g>
</g>
<g>
</g>
<g>
</g>
<g>
</g>
<g>
</g>
<g>
</g>
<g>
</g>
<g>
</g>
<g>
</g>
<g>
</g>
<g>
</g>
</svg>
