<?xml version="1.0" encoding="iso-8859-1"?>
<!-- Generator: Adobe Illustrator 19.0.0, SVG Export Plug-In . SVG Version: 6.00 Build 0)  -->
<svg version="1.1" id="Layer_1" xmlns="http://www.w3.org/2000/svg" xmlns:xlink="http://www.w3.org/1999/xlink" x="0px" y="0px"
	 viewBox="0 0 512.001 512.001" style="enable-background:new 0 0 512.001 512.001;" xml:space="preserve">
<rect x="90.215" y="31.894" style="fill:#F75469;" width="332.146" height="447.676"/>
<path style="fill:#FCCA5F;" d="M422.365,95.145v321.171l-41.53,24.069l-41.518-24.069l-41.518,24.069l-41.518-24.069l-41.518,24.069
	l-41.518-24.069l-41.518,24.069l-41.506-24.069V95.145l41.518-24.069l41.53,24.069l41.518-24.069l41.518,24.069l41.518-24.069
	l41.518,24.069l41.506-24.069L422.365,95.145z M323.864,255.731l-67.573-93.422l-67.585,93.422l67.585,93.422L323.864,255.731z"/>
<path d="M431.098,9.026c0-4.985-4.04-9.026-9.026-9.026s-9.026,4.041-9.026,9.026v14.11h-18.854V9.026
	c0-4.985-4.04-9.026-9.026-9.026c-4.986,0-9.026,4.041-9.026,9.026v14.11h-18.854V9.026c0-4.985-4.04-9.026-9.026-9.026
	s-9.026,4.041-9.026,9.026v14.11h-18.853V9.026c0-4.985-4.04-9.026-9.026-9.026s-9.026,4.041-9.026,9.026v14.11h-18.854V9.026
	c0-4.985-4.04-9.026-9.026-9.026c-4.986,0-9.026,4.041-9.026,9.026v14.11h-18.854V9.026c0-4.985-4.041-9.026-9.026-9.026
	s-9.026,4.041-9.026,9.026v14.11h-18.854V9.026c0-4.985-4.041-9.026-9.026-9.026c-4.985,0-9.026,4.041-9.026,9.026v14.11h-18.854
	V9.026c0-4.985-4.041-9.026-9.026-9.026s-9.026,4.041-9.026,9.026v14.11h-18.854V9.026c0-4.985-4.041-9.026-9.026-9.026
	s-9.026,4.041-9.026,9.026v14.11H98.951V9.026C98.951,4.041,94.91,0,89.925,0c-4.985,0-9.026,4.041-9.026,9.026l0.004,308.673
	c0,4.985,4.041,9.026,9.026,9.026c4.985,0,9.026-4.041,9.026-9.026V100.614l32.493-18.836l37.004,21.445
	c1.425,0.827,2.981,1.219,4.518,1.219c3.113,0,6.143-1.614,7.817-4.502c2.5-4.313,1.029-9.836-3.283-12.335l-41.53-24.069
	c-2.799-1.623-6.253-1.622-9.052,0L98.956,79.748v-38.56h314.095v38.561l-27.967-16.213c-2.799-1.623-6.253-1.621-9.055,0
	l-36.98,21.444l-36.99-21.444c-2.799-1.623-6.254-1.623-9.053,0l-36.991,21.445l-36.992-21.445c-2.8-1.623-6.253-1.622-9.053,0
	l-19.417,11.257c-4.312,2.5-5.781,8.023-3.282,12.335c2.5,4.312,8.023,5.781,12.335,3.282l14.891-8.632l36.992,21.445
	c2.799,1.623,6.254,1.623,9.053,0l36.991-21.445l36.991,21.445c2.802,1.623,6.255,1.622,9.055,0l36.98-21.444l32.491,18.836v310.77
	l-32.503,18.837l-36.992-21.445c-4.312-2.497-9.834-1.03-12.335,3.283c-2.501,4.312-1.03,9.834,3.282,12.335l41.518,24.069
	c1.4,0.811,2.964,1.217,4.527,1.217s3.126-0.406,4.526-1.217l27.979-16.215v38.564H98.957v-38.559l27.953,16.209
	c2.8,1.623,6.255,1.623,9.053,0l36.992-21.445l36.991,21.445c2.8,1.623,6.254,1.623,9.053,0l36.992-21.445l36.991,21.445
	c1.4,0.811,2.964,1.217,4.527,1.217c1.563,0,3.128-0.406,4.527-1.217l14.867-8.619c4.312-2.501,5.782-8.023,3.282-12.335
	c-2.498-4.312-8.02-5.781-12.335-3.282l-10.341,5.994l-36.991-21.445c-2.8-1.623-6.253-1.622-9.053,0l-36.991,21.445l-36.992-21.445
	c-2.799-1.623-6.253-1.623-9.053,0l-36.991,21.444l-32.482-18.835V349.59c0-4.985-4.041-9.026-9.026-9.026
	c-4.985,0-9.026,4.041-9.026,9.026l-0.004,153.385c0,4.985,4.041,9.026,9.026,9.026c4.985,0,9.026-4.041,9.026-9.026v-14.113h18.854
	v14.113c0,4.985,4.041,9.026,9.026,9.026s9.026-4.041,9.026-9.026v-14.113h18.854v14.113c0,4.985,4.041,9.026,9.026,9.026
	s9.026-4.041,9.026-9.026v-14.113h18.854v14.113c0,4.985,4.041,9.026,9.026,9.026s9.026-4.041,9.026-9.026v-14.113h18.854v14.113
	c0,4.985,4.041,9.026,9.026,9.026c4.985,0,9.026-4.041,9.026-9.026v-14.113h18.854v14.113c0,4.985,4.04,9.026,9.026,9.026
	s9.026-4.041,9.026-9.026v-14.113h18.854v14.113c0,4.985,4.04,9.026,9.026,9.026c4.986,0,9.026-4.041,9.026-9.026v-14.113h18.853
	v14.113c0,4.985,4.04,9.026,9.026,9.026s9.026-4.041,9.026-9.026v-14.113h18.854v14.113c0,4.985,4.04,9.026,9.026,9.026
	s9.026-4.041,9.026-9.026v-14.113h18.854v14.113c0,4.985,4.04,9.026,9.026,9.026c4.986,0,9.026-4.041,9.026-9.026V9.026H431.098z"/>
<path d="M287.111,190.185l-23.794-32.898c-1.697-2.347-4.418-3.735-7.313-3.735c-2.895,0-5.616,1.389-7.313,3.735l-67.585,93.422
	c-2.284,3.158-2.284,7.423,0,10.581l67.585,93.422c1.698,2.347,4.418,3.735,7.313,3.735c2.895,0,5.616-1.39,7.313-3.735
	l67.573-93.422c2.283-3.157,2.283-7.423,0-10.579l-23.031-31.84c-2.923-4.04-8.566-4.944-12.604-2.024
	c-4.039,2.922-4.945,8.565-2.024,12.604l19.206,26.551l-56.435,78.022l-56.444-78.022l56.444-78.022l16.482,22.788
	c2.922,4.04,8.565,4.944,12.603,2.024C289.126,199.867,290.032,194.225,287.111,190.185z"/>
<path d="M337.941,155.235c-4.986,0-9.026,4.041-9.026,9.026v8.123h-8.122c-4.986,0-9.026,4.041-9.026,9.026s4.04,9.026,9.026,9.026
	h8.122v8.122c0,4.985,4.04,9.026,9.026,9.026s9.026-4.041,9.026-9.026v-8.122h8.122c4.986,0,9.026-4.041,9.026-9.026
	s-4.04-9.026-9.026-9.026h-8.122v-8.123C346.967,159.276,342.926,155.235,337.941,155.235z"/>
<path d="M337.941,365.371c4.986,0,9.026-4.041,9.026-9.026v-8.123h8.122c4.986,0,9.026-4.041,9.026-9.026
	c0-4.985-4.04-9.026-9.026-9.026h-8.122v-8.122c0-4.985-4.04-9.026-9.026-9.026s-9.026,4.041-9.026,9.026v8.122h-8.122
	c-4.986,0-9.026,4.041-9.026,9.026c0,4.985,4.04,9.026,9.026,9.026h8.122v8.123C328.915,361.33,332.955,365.371,337.941,365.371z"/>
<path d="M255.998,282.174c4.985,0,9.026-4.041,9.026-9.026v-8.123h8.123c4.986,0,9.026-4.041,9.026-9.026
	c0-4.985-4.04-9.026-9.026-9.026h-8.123v-8.122c0-4.985-4.04-9.026-9.026-9.026c-4.986,0-9.026,4.041-9.026,9.026v8.122h-8.122
	c-4.985,0-9.026,4.041-9.026,9.026c0,4.985,4.041,9.026,9.026,9.026h8.122v8.123C246.973,278.133,251.014,282.174,255.998,282.174z"
	/>
<path d="M168.266,155.235c-4.985,0-9.026,4.041-9.026,9.026v8.123h-8.123c-4.985,0-9.026,4.041-9.026,9.026s4.041,9.026,9.026,9.026
	h8.123v8.122c0,4.985,4.041,9.026,9.026,9.026s9.026-4.041,9.026-9.026v-8.122h8.122c4.985,0,9.026-4.041,9.026-9.026
	s-4.041-9.026-9.026-9.026h-8.122v-8.123C177.292,159.276,173.251,155.235,168.266,155.235z"/>
<path d="M151.117,348.223h8.123v8.123c0,4.985,4.041,9.026,9.026,9.026s9.026-4.041,9.026-9.026v-8.123h8.122
	c4.985,0,9.026-4.041,9.026-9.026s-4.041-9.026-9.026-9.026h-8.122v-8.122c0-4.985-4.041-9.026-9.026-9.026
	s-9.026,4.041-9.026,9.026v8.122h-8.123c-4.985,0-9.026,4.041-9.026,9.026S146.132,348.223,151.117,348.223z"/>
<g>
</g>
<g>
</g>
<g>
</g>
<g>
</g>
<g>
</g>
<g>
</g>
<g>
</g>
<g>
</g>
<g>
</g>
<g>
</g>
<g>
</g>
<g>
</g>
<g>
</g>
<g>
</g>
<g>
</g>
</svg>
