<?xml version="1.0" encoding="iso-8859-1"?>
<!-- Generator: Adobe Illustrator 19.0.0, SVG Export Plug-In . SVG Version: 6.00 Build 0)  -->
<svg version="1.1" id="Capa_1" xmlns="http://www.w3.org/2000/svg" xmlns:xlink="http://www.w3.org/1999/xlink" x="0px" y="0px"
	 viewBox="0 0 511.999 511.999" style="enable-background:new 0 0 511.999 511.999;" xml:space="preserve">
<path style="fill:#CC7400;" d="M108.667,491.293c-18.801-18.801-16.374-42.922,0-59.296l206.464-206.464
	c8.556-8.556,22.428-8.556,30.984,0l28.312,28.312c8.556,8.556,8.556,22.428,0,30.984L167.964,491.293
	C151.59,507.668,127.469,510.095,108.667,491.293z"/>
<path style="fill:#AA6100;" d="M141.2,462.066l206.464-206.465c6.405-6.405,15.789-8.013,23.692-4.828l-25.241-25.241
	c-8.556-8.556-22.428-8.556-30.984,0L108.667,431.997c-16.374,16.374-18.801,40.495,0,59.296
	c6.607,6.607,13.872,10.583,21.226,12.262C125.082,488.924,129.686,473.58,141.2,462.066z"/>
<path style="fill:#9A4C00;" d="M369.102,262.444l-31.586-31.586c-7.62-7.62-7.62-20.09,0-27.711l0,0c7.62-7.62,20.09-7.62,27.71,0
	l31.586,31.586c7.62,7.62,7.62,20.09,0,27.711l0,0C389.192,270.065,376.723,270.065,369.102,262.444z"/>
<path style="fill:#663A00;" d="M360.72,226.351L360.72,226.351c7.62-7.62,20.09-7.62,27.711,0l-23.204-23.204
	c-7.62-7.62-20.09-7.62-27.711,0l0,0c-7.62,7.621-7.62,20.09,0,27.71l23.203,23.203C353.1,246.441,353.1,233.972,360.72,226.351z"/>
<rect x="119.607" y="423.036" transform="matrix(-0.7071 -0.7071 0.7071 -0.7071 -34.251 862.6565)" style="fill:#91DC5A;" width="83.859" height="30.772"/>
<rect x="141.363" y="401.284" transform="matrix(-0.7071 -0.7071 0.7071 -0.7071 18.2696 840.9074)" style="fill:#FF728B;" width="83.859" height="30.772"/>
<polygon style="fill:#6DC82A;" points="142.762,397.902 142.762,397.902 121.003,419.661 152.304,450.962 174.063,429.203 "/>
<rect x="147.161" y="387.288" transform="matrix(-0.7071 -0.7071 0.7071 -0.7071 4.273 807.1173)" style="fill:#FF3F62;" width="44.27" height="30.772"/>
<circle style="fill:#FFFFFF;" cx="234.9" cy="365.79" r="26.08"/>
<path style="fill:#D1E7F8;" d="M234.902,339.708c-14.406,0-26.084,11.678-26.084,26.084c0,7.858,3.479,14.898,8.976,19.68
	l36.789-36.789C249.8,343.188,242.759,339.708,234.902,339.708z"/>
<g>
	<path style="fill:#D9CCBC;" d="M351.57,164.352L351.57,164.352c-7.976,0-14.502-6.526-14.502-14.502V22.001
		c0-7.976,6.526-14.502,14.502-14.502l0,0c7.976,0,14.502,6.526,14.502,14.502V149.85
		C366.072,157.826,359.546,164.352,351.57,164.352z"/>
	<path style="fill:#D9CCBC;" d="M402.038,191.122L402.038,191.122c-7.976,0-14.502-6.526-14.502-14.502v-34.527
		c0-7.976,6.526-14.502,14.502-14.502l0,0c7.976,0,14.502,6.526,14.502,14.502v34.527
		C416.539,184.596,410.014,191.122,402.038,191.122z"/>
	<path style="fill:#D9CCBC;" d="M402.038,113.551L402.038,113.551c-7.976,0-14.502-6.526-14.502-14.502V89.044
		c0-7.976,6.526-14.502,14.502-14.502l0,0c7.976,0,14.502,6.526,14.502,14.502v10.005
		C416.539,107.025,410.014,113.551,402.038,113.551z"/>
</g>
<circle cx="405.88" cy="347.21" r="7.5"/>
<circle cx="366.07" cy="387.25" r="7.5"/>
<circle cx="405.88" cy="424.36" r="7.5"/>
<path d="M401.265,268.563c3.053-2.8,3.258-7.544,0.459-10.597c-2.799-3.053-7.543-3.257-10.597-0.46
	c-4.704,4.314-12.207,4.15-16.722-0.365l-31.586-31.586c-4.715-4.715-4.715-12.388,0-17.104s12.389-4.715,17.104,0l31.586,31.586
	c2.929,2.928,7.678,2.928,10.606,0c2.929-2.93,2.929-7.678,0-10.607l-31.586-31.586c-10.563-10.562-27.752-10.563-38.318,0.001
	c-4.059,4.06-6.552,9.098-7.492,14.362c-5.604,1.136-10.756,3.885-14.892,8.021L103.364,426.693
	c-9.564,9.564-15.028,21.576-15.384,33.823c-0.383,13.156,4.937,25.633,15.384,36.08c10.097,10.097,22.086,15.404,34.755,15.403
	c0.44,0,18.824,0,35.147-15.403l206.465-206.465c4.097-4.097,6.852-9.281,8.003-14.856
	C392.625,274.399,397.332,272.169,401.265,268.563z M142.762,408.509l32.57,32.57c4.943,4.491,9.142,1.464,10.606,0
	c2.929-2.93,2.929-7.678,0-10.607l-32.57-32.569l11.152-11.152l48.689,48.69l-32.909,32.91l-48.69-48.689L142.762,408.509z
	 M139.008,496.987c-8.93,0.27-17.583-3.543-25.037-10.998c-7.454-7.453-11.257-16.111-10.998-25.036
	c0.245-8.405,4.15-16.806,10.998-23.652l7.033-7.033l48.69,48.689l-7.033,7.033C155.814,492.837,147.413,496.743,139.008,496.987z
	 M223.818,424.833l-48.69-48.69l145.307-145.307c1.669-1.669,3.678-2.873,5.868-3.559c1.32,3.234,3.289,6.264,5.91,8.885
	l31.586,31.586c2.618,2.618,5.637,4.59,8.858,5.918c-0.69,2.186-1.879,4.206-3.532,5.86L223.818,424.833z"/>
<path d="M234.902,332.208c-18.519,0-33.584,15.066-33.584,33.585s15.066,33.584,33.584,33.584s33.584-15.065,33.584-33.584
	S253.42,332.208,234.902,332.208z M234.902,384.377c-10.248,0-18.584-8.337-18.584-18.584c0-10.248,8.337-18.585,18.584-18.585
	s18.584,8.337,18.584,18.585C253.486,376.04,245.149,384.377,234.902,384.377z"/>
<path d="M351.57,171.853c12.132,0,22.002-9.87,22.002-22.002V22.001C373.572,9.869,363.702,0,351.57,0s-22.001,9.869-22.001,22.001
	v11.052c0,4.143,3.358,7.5,7.5,7.5s7.5-3.357,7.5-7.5V22.001c0-3.86,3.141-7.001,7.001-7.001s7.002,3.141,7.002,7.001v127.85
	c0,3.861-3.141,7.002-7.002,7.002s-7.001-3.141-7.001-7.002v-82.88c0-4.143-3.358-7.5-7.5-7.5s-7.5,3.357-7.5,7.5v82.88
	C329.568,161.982,339.438,171.853,351.57,171.853z"/>
<path d="M424.039,99.049V89.044c0-12.132-9.87-22.001-22.001-22.001s-22.002,9.869-22.002,22.001v10.005
	c0,10.566,7.487,19.413,17.434,21.522c-9.947,2.109-17.434,10.956-17.434,21.522v34.527c0,12.132,9.87,22.002,22.002,22.002
	s22.001-9.87,22.001-22.002v-34.527c0-10.566-7.487-19.413-17.434-21.522C416.552,118.462,424.039,109.615,424.039,99.049z
	 M409.039,142.093v34.527c0,3.861-3.141,7.002-7.001,7.002s-7.002-3.141-7.002-7.002v-34.527c0-3.861,3.141-7.002,7.002-7.002
	S409.039,138.231,409.039,142.093z M409.039,99.049c0,3.861-3.141,7.002-7.001,7.002s-7.002-3.141-7.002-7.002V89.044
	c0-3.86,3.141-7.001,7.002-7.001s7.001,3.141,7.001,7.001V99.049z"/>
<g>
</g>
<g>
</g>
<g>
</g>
<g>
</g>
<g>
</g>
<g>
</g>
<g>
</g>
<g>
</g>
<g>
</g>
<g>
</g>
<g>
</g>
<g>
</g>
<g>
</g>
<g>
</g>
<g>
</g>
</svg>
