<?xml version="1.0"?>
<svg xmlns="http://www.w3.org/2000/svg" xmlns:xlink="http://www.w3.org/1999/xlink" version="1.1" id="Capa_1" x="0px" y="0px" viewBox="0 0 511.608 511.608" style="enable-background:new 0 0 511.608 511.608;" xml:space="preserve" width="512px" height="512px" class=""><g><g>
	<rect x="43.964" y="3.997" style="fill:#B88607" width="423.68" height="295.77" data-original="#965353" class="" data-old_color="#BA8707"/>
	<rect x="20.004" y="315.754" style="fill:#B88607" width="463.64" height="191.85" data-original="#965353" class="" data-old_color="#BA8707"/>
</g><g>
	<path style="fill:#FFCE54;" d="M491.623,251.807c4.473,0,7.994,3.599,7.994,7.994c0,4.395-3.521,7.993-7.994,7.993   c-4.396,0-7.994-3.598-7.994-7.993C483.629,255.406,487.228,251.807,491.623,251.807z" data-original="#FFCE54"/>
	<path style="fill:#FFCE54;" d="M491.623,171.868c4.473,0,7.994,3.599,7.994,7.994s-3.521,7.994-7.994,7.994   c-4.396,0-7.994-3.599-7.994-7.994S487.228,171.868,491.623,171.868z" data-original="#FFCE54"/>
	<path style="fill:#FFCE54;" d="M491.623,91.93c4.473,0,7.994,3.599,7.994,7.994c0,4.395-3.521,7.993-7.994,7.993   c-4.396,0-7.994-3.599-7.994-7.993C483.629,95.529,487.228,91.93,491.623,91.93z" data-original="#FFCE54"/>
	<path style="fill:#FFCE54;" d="M491.623,11.992c4.473,0,7.994,3.599,7.994,7.994s-3.521,7.994-7.994,7.994   c-4.396,0-7.994-3.599-7.994-7.994S487.228,11.992,491.623,11.992z" data-original="#FFCE54"/>
	<path style="fill:#FFCE54;" d="M19.986,11.992c4.473,0,7.993,3.599,7.993,7.994s-3.521,7.994-7.993,7.994   c-4.396,0-7.994-3.599-7.994-7.994S15.59,11.992,19.986,11.992z" data-original="#FFCE54"/>
	<path style="fill:#FFCE54;" d="M19.986,91.93c4.473,0,7.993,3.599,7.993,7.994c0,4.395-3.521,7.993-7.993,7.993   c-4.396,0-7.994-3.599-7.994-7.993C11.992,95.529,15.59,91.93,19.986,91.93z" data-original="#FFCE54"/>
	<path style="fill:#FFCE54;" d="M19.986,171.868c4.473,0,7.993,3.599,7.993,7.994s-3.521,7.994-7.993,7.994   c-4.396,0-7.994-3.599-7.994-7.994S15.59,171.868,19.986,171.868z" data-original="#FFCE54"/>
	<path style="fill:#FFCE54;" d="M19.986,251.807c4.473,0,7.993,3.599,7.993,7.994c0,4.395-3.521,7.993-7.993,7.993   c-4.396,0-7.994-3.598-7.994-7.993C11.992,255.406,15.59,251.807,19.986,251.807z" data-original="#FFCE54"/>
</g><rect x="123.904" y="107.914" style="fill:#66510A" width="39.969" height="15.988" data-original="#E6E9ED" class="" data-old_color="#66520B"/><rect x="135.894" y="27.984" style="fill:#5D4C06" width="15.988" height="15.988" data-original="#ED5565" class="" data-old_color="#5B4B06"/><path style="fill:#FFCE54;" d="M143.89,83.936c4.474,0,7.994,3.599,7.994,7.994c0,4.395-3.521,7.994-7.994,7.994  c-4.395,0-7.994-3.599-7.994-7.994C135.896,87.534,139.495,83.936,143.89,83.936z" data-original="#FFCE54"/><path style="fill:#5D4C06" d="M151.884,91.93c0-4.396-3.521-7.994-7.994-7.994c-4.395,0-7.994,3.599-7.994,7.994  c0,4.395,3.6,7.994,7.994,7.994C148.364,99.924,151.884,96.325,151.884,91.93z M163.874,107.917h-39.969V75.942h39.969V107.917z" data-original="#ED5565" class="" data-old_color="#5B4B06"/><path style="fill:#66510A" d="M163.874,75.942h-39.969V69.15v-1.202c0-9.595,9.274-12.787,11.913-15.988h0.077v-7.993h15.988v7.993  h0.164c2.631,3.201,11.826,6.394,11.826,15.988v1.202L163.874,75.942L163.874,75.942z" data-original="#E6E9ED" class="" data-old_color="#66520B"/><path style="fill:#5B4209" d="M131.9,67.949c0-9.595,3.996-15.988,3.996-15.988h-0.077c-2.639,3.201-11.913,6.394-11.913,15.988  v1.202v6.792h7.994v-6.792V67.949z" data-original="#FFFFFF" class="" data-old_color="#5B420A"/><g style="opacity:0.3;">
	<path d="M155.881,67.949c0-9.595-3.997-15.988-3.997-15.988h0.078c2.639,3.201,11.912,6.394,11.912,15.988v1.202v6.792h-7.993   v-6.792L155.881,67.949L155.881,67.949z" data-original="#000000" class=""/>
</g><path style="fill:#66510A" d="M275.789,27.979h15.987c0,10.313,0,15.91,0,15.988h-15.987  C275.789,43.889,275.789,38.291,275.789,27.979z" data-original="#E6E9ED" class="" data-old_color="#66520B"/><path style="fill:#A0D468;" d="M275.789,43.967h15.987c0,9.032,7.994,15.191,7.994,20.382c0,5.199-3.755,21.741-3.755,31.257  c0,9.594,3.755,17.666,3.755,22.303c0,4.715-1.835,5.996-1.835,5.996h-28.221c0,0-1.92-1.28-1.92-5.996  c0-4.637,3.755-12.709,3.755-22.303c0-9.516-3.755-26.058-3.755-31.257C267.795,59.158,275.789,52.999,275.789,43.967z" data-original="#A0D468"/><g style="opacity:0.5;">
	<path style="fill:#5B4209" d="M275.789,117.91c0-4.637,3.755-12.709,3.755-22.303c0-9.516-3.755-26.058-3.755-31.257   c0-5.191,0-20.382,0-20.382c0,9.032-7.994,15.191-7.994,20.382c0,5.199,3.755,21.741,3.755,31.257   c0,9.594-3.755,17.666-3.755,22.303c0,4.715,1.92,5.996,1.92,5.996h7.994C277.709,123.906,275.789,122.625,275.789,117.91z" data-original="#FFFFFF" class="" data-old_color="#5B420A"/>
</g><g style="opacity:0.2;">
	<path d="M291.777,117.91c0-4.637-3.755-12.709-3.755-22.303c0-9.516,3.755-26.058,3.755-31.257c0-5.191,0-20.382,0-20.382   c0,9.032,7.994,15.191,7.994,20.382c0,5.199-3.755,21.741-3.755,31.257c0,9.594,3.755,17.666,3.755,22.303   c0,4.715-1.921,5.996-1.921,5.996h-7.994C289.856,123.906,291.777,122.625,291.777,117.91z" data-original="#000000" class=""/>
</g><rect x="339.744" y="227.824" style="fill:#FFCE54;" width="31.976" height="15.988" data-original="#FFCE54"/><g>
	<rect x="339.744" y="195.854" style="fill:#5D4C06" width="31.976" height="31.976" data-original="#ED5565" class="" data-old_color="#5B4B06"/>
	<rect x="347.734" y="147.884" style="fill:#5D4C06" width="15.987" height="15.987" data-original="#ED5565" class="" data-old_color="#5B4B06"/>
</g><path style="fill:#FFCE54;" d="M371.715,195.85h-31.976v-6.792v-1.202c0-9.594,5.277-12.787,7.916-15.988h0.078v-7.994h15.987v7.994  h0.164c2.631,3.201,7.83,6.394,7.83,15.988v1.202v6.792H371.715z" data-original="#FFCE54"/><g style="opacity:0.5;">
	<path style="fill:#5B4209" d="M347.734,187.856c0-9.594,0-15.988,0-15.988h-0.078c-2.639,3.201-7.916,6.394-7.916,15.988v1.202   v6.792h7.994v-6.792V187.856z" data-original="#FFFFFF" class="" data-old_color="#5B420A"/>
</g><g style="opacity:0.2;">
	<path d="M363.799,187.856c0-9.594,0-15.988,0-15.988h0.078c2.639,3.201,7.916,6.394,7.916,15.988v1.202v6.792h-7.994v-6.792   V187.856z" data-original="#000000" class=""/>
</g><path style="fill:#696006" d="M155.881,371.715c30.937,0,63.95,3.599,63.95,7.993c0,4.396-33.014,7.994-63.95,7.994  c-30.859,0-63.951-3.599-63.951-7.994C91.93,375.314,125.022,371.715,155.881,371.715z" data-original="#DA4453" class="" data-old_color="#685F06"/><g style="opacity:0.2;">
	<path style="fill:#5B4209" d="M107.917,379.708c0-4.02,27.651-7.361,55.965-7.907c-2.669-0.047-5.339-0.086-8.001-0.086   c-30.859,0-63.951,3.599-63.951,7.993c0,4.396,33.092,7.994,63.951,7.994c2.662,0,5.332-0.039,8.001-0.086   C135.569,387.071,107.917,383.73,107.917,379.708z" data-original="#FFFFFF" class="" data-old_color="#5B420A"/>
</g><g style="opacity:0.3;">
	<path d="M203.844,379.708c0-4.02-27.65-7.361-55.965-7.907c2.67-0.047,5.34-0.086,8.002-0.086c30.858,0,63.95,3.599,63.95,7.993   c0,4.396-33.092,7.994-63.95,7.994c-2.662,0-5.332-0.039-8.002-0.086C176.194,387.071,203.844,383.73,203.844,379.708z" data-original="#000000" class=""/>
</g><path style="fill:#5D4C06" d="M91.93,379.708c0,4.396,33.092,7.994,63.951,7.994c30.937,0,63.95-3.599,63.95-7.994v23.982  c0,3.996-27.58,7.354-55.957,7.916c-2.638,0.078-5.354,0.078-7.993,0.078s-5.355,0-7.994-0.078  c-28.299-0.563-55.957-3.92-55.957-7.916C91.93,403.69,91.93,379.708,91.93,379.708z" data-original="#ED5565" class="" data-old_color="#5B4B06"/><g style="opacity:0.3;">
	<path style="fill:#5B4209" d="M107.917,403.691v-18.915c-9.68-1.382-15.987-3.146-15.987-5.067v23.982   c0,3.996,27.658,7.354,55.957,7.916c2.639,0.078,5.355,0.078,7.994,0.078s5.355,0,7.993-0.078   C135.576,411.044,107.917,407.687,107.917,403.691z" data-original="#FFFFFF" class="" data-old_color="#5B420A"/>
</g><g style="opacity:0.2;">
	<path d="M203.844,403.691v-18.915c9.68-1.382,15.987-3.146,15.987-5.067v23.982c0,3.996-27.658,7.354-55.957,7.916   c-2.638,0.078-5.354,0.078-7.993,0.078s-5.355,0-7.994-0.078C176.186,411.044,203.844,407.687,203.844,403.691z" data-original="#000000" class=""/>
</g><path style="fill:#696006" d="M347.734,371.715c30.938,0,63.951,3.599,63.951,7.993c0,4.396-33.014,7.994-63.951,7.994  c-30.859,0-63.951-3.599-63.951-7.994C283.783,375.314,316.874,371.715,347.734,371.715z" data-original="#DA4453" class="" data-old_color="#685F06"/><path style="fill:#5D4C06" d="M283.783,379.708c0,4.396,33.092,7.994,63.951,7.994c30.938,0,63.951-3.599,63.951-7.994v23.982  c0,3.996-27.581,7.354-55.957,7.916c-2.639,0.078-5.355,0.078-7.994,0.078s-5.355,0-7.994-0.078  c-28.298-0.563-55.957-3.92-55.957-7.916V379.708z" data-original="#ED5565" class="" data-old_color="#5B4B06"/><g style="opacity:0.2;">
	<path style="fill:#5B4209" d="M299.771,379.708c0-4.02,27.65-7.361,55.965-7.907c-2.67-0.047-5.34-0.086-8.002-0.086   c-30.859,0-63.951,3.599-63.951,7.993c0,4.396,33.092,7.994,63.951,7.994c2.662,0,5.332-0.039,8.002-0.086   C327.421,387.071,299.771,383.73,299.771,379.708z" data-original="#FFFFFF" class="" data-old_color="#5B420A"/>
</g><g style="opacity:0.3;">
	<path d="M395.697,379.708c0-4.02-27.65-7.361-55.965-7.907c2.67-0.047,5.34-0.086,8.002-0.086c30.859,0,63.951,3.599,63.951,7.993   c0,4.396-33.092,7.994-63.951,7.994c-2.662,0-5.332-0.039-8.002-0.086C368.046,387.071,395.697,383.73,395.697,379.708z" data-original="#000000" class=""/>
</g><g style="opacity:0.3;">
	<path style="fill:#5B4209" d="M299.771,403.691v-18.915c-9.681-1.382-15.988-3.146-15.988-5.067v23.982   c0,3.996,27.659,7.354,55.957,7.916c2.639,0.078,5.355,0.078,7.994,0.078s5.355,0,7.994-0.078   C327.429,411.044,299.771,407.687,299.771,403.691z" data-original="#FFFFFF" class="" data-old_color="#5B420A"/>
</g><g style="opacity:0.2;">
	<path d="M395.697,403.691v-18.915c9.681-1.382,15.988-3.146,15.988-5.067v23.982c0,3.996-27.659,7.354-55.957,7.916   c-2.639,0.078-5.355,0.078-7.994,0.078s-5.355,0-7.994-0.078C368.038,411.044,395.697,407.687,395.697,403.691z" data-original="#000000" class=""/>
</g><rect x="4.021" y="299.774" style="fill:#656D78;" width="503.61" height="15.987" data-original="#656D78" class=""/><rect x="147.884" y="411.604" style="fill:#66510A" width="15.987" height="96" data-original="#E6E9ED" class="" data-old_color="#66520B"/><rect x="147.884" y="411.604" style="fill:#5B4209" width="7.994" height="96" data-original="#FFFFFF" class="" data-old_color="#5B420A"/><rect x="339.744" y="411.604" style="fill:#66510A" width="15.988" height="96" data-original="#E6E9ED" class="" data-old_color="#66520B"/><rect x="339.744" y="411.604" style="fill:#5B4209" width="7.994" height="96" data-original="#FFFFFF" class="" data-old_color="#5B420A"/><rect x="251.804" y="275.784" style="fill:#FC6E51;" width="23.982" height="23.982" data-original="#FC6E51" class=""/><g style="opacity:0.5;">
	<path style="fill:#5B4209" d="M19.986,19.985c0-2.919,1.662-5.371,4.012-6.768c-1.194-0.711-2.506-1.226-4.012-1.226   c-4.396,0-7.994,3.599-7.994,7.994s3.599,7.994,7.994,7.994c1.506,0,2.817-0.515,4.012-1.226   C21.648,25.356,19.986,22.905,19.986,19.985z" data-original="#FFFFFF" class="" data-old_color="#5B420A"/>
</g><g style="opacity:0.5;">
	<path style="fill:#5B4209" d="M19.986,99.924c0-2.92,1.662-5.371,4.012-6.769c-1.194-0.71-2.506-1.226-4.012-1.226   c-4.396,0-7.994,3.599-7.994,7.994c0,4.395,3.599,7.993,7.994,7.993c1.506,0,2.817-0.515,4.012-1.226   C21.648,105.295,19.986,102.843,19.986,99.924z" data-original="#FFFFFF" class="" data-old_color="#5B420A"/>
</g><g style="opacity:0.5;">
	<path style="fill:#5B4209" d="M19.986,179.863c0-2.92,1.662-5.371,4.012-6.769c-1.194-0.71-2.506-1.226-4.012-1.226   c-4.396,0-7.994,3.599-7.994,7.994s3.599,7.994,7.994,7.994c1.506,0,2.817-0.515,4.012-1.226   C21.648,185.233,19.986,182.782,19.986,179.863z" data-original="#FFFFFF" class="" data-old_color="#5B420A"/>
</g><g style="opacity:0.5;">
	<path style="fill:#5B4209" d="M19.986,259.801c0-2.92,1.662-5.371,4.012-6.769c-1.194-0.71-2.506-1.226-4.012-1.226   c-4.396,0-7.994,3.599-7.994,7.994c0,4.395,3.599,7.993,7.994,7.993c1.506,0,2.817-0.515,4.012-1.225   C21.648,265.172,19.986,262.72,19.986,259.801z" data-original="#FFFFFF" class="" data-old_color="#5B420A"/>
</g><g style="opacity:0.5;">
	<path style="fill:#5B4209" d="M491.623,19.985c0-2.919,1.662-5.371,4.013-6.768c-1.194-0.711-2.506-1.226-4.013-1.226   c-4.396,0-7.994,3.599-7.994,7.994s3.599,7.994,7.994,7.994c1.507,0,2.818-0.515,4.013-1.226   C493.285,25.356,491.623,22.905,491.623,19.985z" data-original="#FFFFFF" class="" data-old_color="#5B420A"/>
</g><g style="opacity:0.5;">
	<path style="fill:#5B4209" d="M491.623,99.924c0-2.92,1.662-5.371,4.013-6.769c-1.194-0.71-2.506-1.226-4.013-1.226   c-4.396,0-7.994,3.599-7.994,7.994c0,4.395,3.599,7.993,7.994,7.993c1.507,0,2.818-0.515,4.013-1.226   C493.285,105.295,491.623,102.843,491.623,99.924z" data-original="#FFFFFF" class="" data-old_color="#5B420A"/>
</g><g style="opacity:0.5;">
	<path style="fill:#5B4209" d="M491.623,179.863c0-2.92,1.662-5.371,4.013-6.769c-1.194-0.71-2.506-1.226-4.013-1.226   c-4.396,0-7.994,3.599-7.994,7.994s3.599,7.994,7.994,7.994c1.507,0,2.818-0.515,4.013-1.226   C493.285,185.233,491.623,182.782,491.623,179.863z" data-original="#FFFFFF" class="" data-old_color="#5B420A"/>
</g><g style="opacity:0.5;">
	<path style="fill:#5B4209" d="M491.623,259.801c0-2.92,1.662-5.371,4.013-6.769c-1.194-0.71-2.506-1.226-4.013-1.226   c-4.396,0-7.994,3.599-7.994,7.994c0,4.395,3.599,7.993,7.994,7.993c1.507,0,2.818-0.515,4.013-1.225   C493.285,265.172,491.623,262.72,491.623,259.801z" data-original="#FFFFFF" class="" data-old_color="#5B420A"/>
</g><path style="fill:#FFCE54;" d="M195.85,267.639c-8.79,0-15.987-3.521-15.987-7.838c0-4.317,7.197-7.838,15.987-7.838  c8.876,0,15.988,3.521,15.988,7.838S204.726,267.639,195.85,267.639z" data-original="#FFCE54"/><path style="fill:#FC6E51;" d="M171.868,299.771c-4.395,0-7.994-3.6-7.994-7.994v-7.994h63.951v7.994  c0,4.395-3.521,7.994-7.994,7.994H171.868z" data-original="#FC6E51" class=""/><g style="opacity:0.3;">
	<path style="fill:#5B4209" d="M171.868,291.777v-7.994h-7.994v7.994c0,4.395,3.6,7.994,7.994,7.994h7.994   C175.467,299.771,171.868,296.171,171.868,291.777z" data-original="#FFFFFF" class="" data-old_color="#5B420A"/>
</g><g style="opacity:0.3;">
	<path d="M219.831,291.777v-7.994h7.994v7.994c0,4.395-3.599,7.994-7.994,7.994h-7.993   C216.233,299.771,219.831,296.171,219.831,291.777z" data-original="#000000" class=""/>
</g><path style="fill:#FC6E51;" d="M203.844,205.998c0,10.078,23.981,7.518,23.981,19.509v10.313h-63.951v-10.313  c0-11.749,23.982-9.75,23.982-19.509v-18.142h15.987L203.844,205.998L203.844,205.998z" data-original="#FC6E51" class=""/><g style="opacity:0.3;">
	<path style="fill:#5B4209" d="M163.874,225.507v10.313h7.994v-10.313c0-10.805,13.373-10.094,15.543-17.479   C184.281,215.515,163.874,214.656,163.874,225.507z" data-original="#FFFFFF" class="" data-old_color="#5B420A"/>
</g><g style="opacity:0.3;">
	<path style="fill:#5B4209" d="M187.411,208.028c0.266-0.625,0.445-1.28,0.445-2.03   C187.857,206.779,187.607,207.38,187.411,208.028z" data-original="#FFFFFF" class="" data-old_color="#5B420A"/>
</g><g style="opacity:0.3;">
	<path d="M227.825,225.507v10.313h-7.994v-10.313c0-10.805-13.372-10.094-15.542-17.479   C207.419,215.515,227.825,214.656,227.825,225.507z" data-original="#000000" class=""/>
</g><g style="opacity:0.3;">
	<path d="M204.289,208.028c-0.266-0.625-0.445-1.28-0.445-2.03C203.844,206.779,204.094,207.38,204.289,208.028z" data-original="#000000" class=""/>
</g><path style="fill:#656D78;" d="M179.863,259.801c0,4.317,7.197,7.838,15.987,7.838c8.876,0,15.988-3.521,15.988-7.838  c0-4.317-7.112-7.838-15.988-7.838C187.06,251.963,179.863,255.484,179.863,259.801z M163.874,235.82h63.951v23.981v23.981h-63.951  v-23.981V235.82z" data-original="#656D78" class=""/><g style="opacity:0.2;">
	<rect x="163.874" y="235.824" style="fill:#5B4209" width="7.994" height="47.963" data-original="#FFFFFF" class="" data-old_color="#5B420A"/>
</g><g style="opacity:0.3;">
	<rect x="219.834" y="235.824" width="7.994" height="47.963" data-original="#000000" class=""/>
</g><g style="opacity:0.2;">
	<rect x="251.804" y="275.784" style="fill:#5B4209" width="7.979" height="23.982" data-original="#FFFFFF" class="" data-old_color="#5B420A"/>
</g><g style="opacity:0.3;">
	<rect x="267.814" y="275.784" width="7.979" height="23.982" data-original="#000000" class=""/>
</g><g style="opacity:0.3;">
	<rect x="347.734" y="147.884" style="fill:#5B4209" width="7.955" height="15.987" data-original="#FFFFFF" class="" data-old_color="#5B420A"/>
</g><g style="opacity:0.3;">
	<rect x="339.744" y="195.854" style="fill:#5B4209" width="7.994" height="31.976" data-original="#FFFFFF" class="" data-old_color="#5B420A"/>
</g><g style="opacity:0.5;">
	<rect x="339.744" y="227.824" style="fill:#5B4209" width="7.994" height="15.988" data-original="#FFFFFF" class="" data-old_color="#5B420A"/>
</g><g style="opacity:0.3;">
	<rect x="363.804" y="195.854" width="7.994" height="31.976" data-original="#000000" class=""/>
</g><g style="opacity:0.2;">
	<rect x="363.804" y="227.824" width="7.994" height="15.988" data-original="#000000" class=""/>
</g><g style="opacity:0.2;">
	<rect x="20.004" y="315.754" width="463.62" height="7.993" data-original="#000000" class=""/>
</g><g style="opacity:0.2;">
	<rect x="19.984" y="323.754" style="fill:#5B4209" width="15.987" height="183.86" data-original="#FFFFFF" class="" data-old_color="#5B420A"/>
</g><g style="opacity:0.2;">
	<rect x="467.644" y="323.754" width="15.987" height="183.86" data-original="#000000" class=""/>
</g><g style="opacity:0.2;">
	<rect x="4.021" y="299.774" style="fill:#5B4209" width="503.61" height="7.993" data-original="#FFFFFF" class="" data-old_color="#5B420A"/>
</g><g style="opacity:0.3;">
	<rect x="135.894" y="27.984" style="fill:#5B4209" width="7.994" height="15.988" data-original="#FFFFFF" class="" data-old_color="#5B420A"/>
</g><g style="opacity:0.3;">
	<rect x="123.904" y="75.944" style="fill:#5B4209" width="7.979" height="31.975" data-original="#FFFFFF" class="" data-old_color="#5B420A"/>
</g><g style="opacity:0.3;">
	<rect x="123.904" y="107.914" style="fill:#5B4209" width="7.979" height="15.988" data-original="#FFFFFF" class="" data-old_color="#5B420A"/>
</g><g style="opacity:0.3;">
	<rect x="155.894" y="107.914" width="7.978" height="15.988" data-original="#000000" class=""/>
</g><g style="opacity:0.3;">
	<rect x="155.894" y="75.944" width="7.978" height="31.975" data-original="#000000" class=""/>
</g><rect x="275.794" y="27.984" style="fill:#5B4209" width="7.993" height="15.988" data-original="#FFFFFF" class="" data-old_color="#5B420A"/><g style="opacity:0.2;">
	<rect x="43.964" y="7.994" style="fill:#5B4209" width="15.987" height="291.78" data-original="#FFFFFF" class="" data-old_color="#5B420A"/>
</g><g style="opacity:0.2;">
	<rect x="451.654" y="7.994" width="15.988" height="291.78" data-original="#000000" class=""/>
</g><g>
	<path style="fill:#0B0A0A" d="M163.874,295.773c-2.209,0-3.996-1.787-3.996-3.996v-66.27c0-2.209,1.787-3.997,3.996-3.997   c2.21,0,3.997,1.788,3.997,3.997v66.27C167.871,293.986,166.084,295.773,163.874,295.773z" data-original="#3A3847" class="active-path" data-old_color="#0B0B0B"/>
	<path style="fill:#0B0A0A" d="M227.825,295.773c-2.209,0-3.997-1.787-3.997-3.996v-66.27c0-2.209,1.788-3.997,3.997-3.997   s3.997,1.788,3.997,3.997v66.27C231.823,293.986,230.034,295.773,227.825,295.773z" data-original="#3A3847" class="active-path" data-old_color="#0B0B0B"/>
	<path style="fill:#0B0A0A" d="M187.857,209.995c-2.21,0-3.997-1.788-3.997-3.997v-18.142c0-2.209,1.787-3.997,3.997-3.997   c2.209,0,3.996,1.788,3.996,3.997v18.142C191.853,208.208,190.066,209.995,187.857,209.995z" data-original="#3A3847" class="active-path" data-old_color="#0B0B0B"/>
	<path style="fill:#0B0A0A" d="M203.844,209.995c-2.209,0-3.997-1.788-3.997-3.997v-18.142c0-2.209,1.788-3.997,3.997-3.997   s3.997,1.788,3.997,3.997v18.142C207.841,208.208,206.053,209.995,203.844,209.995z" data-original="#3A3847" class="active-path" data-old_color="#0B0B0B"/>
	<path style="fill:#0B0A0A" d="M163.874,229.504c-2.209,0-3.996-1.788-3.996-3.997c0-8.946,8.931-12.194,15.456-14.56   c3.802-1.381,8.525-3.099,8.525-4.949c0-2.209,1.787-3.997,3.997-3.997c2.209,0,3.996,1.788,3.996,3.997   c0,7.455-7.643,10.227-13.786,12.459c-6.159,2.241-10.195,3.934-10.195,7.049C167.871,227.716,166.084,229.504,163.874,229.504z" data-original="#3A3847" class="active-path" data-old_color="#0B0B0B"/>
	<path style="fill:#0B0A0A" d="M227.825,229.504c-2.209,0-3.997-1.788-3.997-3.997c0-3.193-3.817-4.77-10.102-6.979   c-6.183-2.17-13.88-4.879-13.88-12.529c0-2.209,1.788-3.997,3.997-3.997s3.997,1.788,3.997,3.997c0,1.991,4.535,3.583,8.54,4.988   c6.519,2.295,15.441,5.434,15.441,14.521C231.823,227.716,230.034,229.504,227.825,229.504z" data-original="#3A3847" class="active-path" data-old_color="#0B0B0B"/>
	<path style="fill:#0B0A0A" d="M219.831,303.767h-47.963c-2.209,0-3.997-1.787-3.997-3.996c0-2.21,1.788-3.998,3.997-3.998h47.963   c2.21,0,3.997,1.788,3.997,3.998C223.828,301.98,222.041,303.767,219.831,303.767z" data-original="#3A3847" class="active-path" data-old_color="#0B0B0B"/>
	<path style="fill:#0B0A0A" d="M227.825,239.816h-63.951c-2.209,0-3.996-1.788-3.996-3.997s1.787-3.997,3.996-3.997h63.951   c2.209,0,3.997,1.788,3.997,3.997C231.823,238.029,230.034,239.816,227.825,239.816z" data-original="#3A3847" class="active-path" data-old_color="#0B0B0B"/>
	<path style="fill:#0B0A0A" d="M227.825,287.78h-63.951c-2.209,0-3.996-1.788-3.996-3.997s1.787-3.997,3.996-3.997h63.951   c2.209,0,3.997,1.788,3.997,3.997S230.034,287.78,227.825,287.78z" data-original="#3A3847" class="active-path" data-old_color="#0B0B0B"/>
	<path style="fill:#0B0A0A" d="M195.85,271.636c-11.39,0-19.984-5.09-19.984-11.835c0-6.745,8.595-11.835,19.984-11.835   c11.577,0,19.985,4.98,19.985,11.835C215.835,266.656,207.427,271.636,195.85,271.636z M195.85,255.96   c-7.299,0-11.771,2.74-11.99,3.856c0.219,1.085,4.691,3.825,11.99,3.825c7.807,0,11.843-2.951,11.991-3.849   C207.693,258.911,203.657,255.96,195.85,255.96z" data-original="#3A3847" class="active-path" data-old_color="#0B0B0B"/>
	<path style="fill:#0B0A0A" d="M171.868,303.767c-6.612,0-11.99-5.379-11.99-11.99c0-2.209,1.787-3.997,3.996-3.997   c2.21,0,3.997,1.788,3.997,3.997c0,2.201,1.796,3.996,3.997,3.996c2.209,0,3.997,1.788,3.997,3.998   C175.866,301.98,174.077,303.767,171.868,303.767z" data-original="#3A3847" class="active-path" data-old_color="#0B0B0B"/>
	<path style="fill:#0B0A0A" d="M219.831,303.767c-2.209,0-3.996-1.787-3.996-3.996c0-2.21,1.787-3.998,3.996-3.998   c2.241,0,3.997-1.756,3.997-3.996c0-2.209,1.788-3.997,3.997-3.997s3.997,1.788,3.997,3.997   C231.823,298.388,226.444,303.767,219.831,303.767z" data-original="#3A3847" class="active-path" data-old_color="#0B0B0B"/>
	<path style="fill:#0B0A0A" d="M207.841,191.853H183.86c-2.21,0-3.997-1.787-3.997-3.997s1.787-3.997,3.997-3.997h23.981   c2.209,0,3.997,1.788,3.997,3.997S210.05,191.853,207.841,191.853z" data-original="#3A3847" class="active-path" data-old_color="#0B0B0B"/>
	<path style="fill:#0B0A0A" d="M507.611,319.755H3.997c-2.209,0-3.997-1.788-3.997-3.997v-15.987c0-2.21,1.788-3.998,3.997-3.998   H507.61c2.21,0,3.997,1.788,3.997,3.998v15.987C511.608,317.967,509.821,319.755,507.611,319.755z M7.994,311.761h495.62v-7.994   H7.994V311.761z" data-original="#3A3847" class="active-path" data-old_color="#0B0B0B"/>
	<path style="fill:#0B0A0A" d="M19.986,511.608c-2.21,0-3.997-1.788-3.997-3.997v-183.86c0-2.209,1.787-3.996,3.997-3.996   c2.209,0,3.996,1.787,3.996,3.996V507.61C23.982,509.82,22.195,511.608,19.986,511.608z" data-original="#3A3847" class="active-path" data-old_color="#0B0B0B"/>
	<path style="fill:#0B0A0A" d="M483.629,511.608c-2.209,0-3.997-1.788-3.997-3.997v-183.86c0-2.209,1.788-3.996,3.997-3.996   s3.997,1.787,3.997,3.996V507.61C487.626,509.82,485.838,511.608,483.629,511.608z" data-original="#3A3847" class="active-path" data-old_color="#0B0B0B"/>
	<path style="fill:#0B0A0A" d="M147.887,511.608c-2.209,0-3.997-1.788-3.997-3.997v-96.004c0-2.21,1.788-3.997,3.997-3.997   s3.997,1.787,3.997,3.997v96.004C151.884,509.82,150.096,511.608,147.887,511.608z" data-original="#3A3847" class="active-path" data-old_color="#0B0B0B"/>
	<path style="fill:#0B0A0A" d="M163.874,511.608c-2.209,0-3.996-1.788-3.996-3.997v-95.926c0-2.21,1.787-3.998,3.996-3.998   c2.21,0,3.997,1.788,3.997,3.998v95.926C167.871,509.82,166.084,511.608,163.874,511.608z" data-original="#3A3847" class="active-path" data-old_color="#0B0B0B"/>
	<path style="fill:#0B0A0A" d="M155.881,495.62c-2.756,0-5.52-0.078-8.119-0.156c-16.37-0.656-35.848-3.232-35.848-11.835   c0-5.16,5.98-8.353,19.399-10.344c2.146-0.344,4.216,1.179,4.536,3.364c0.327,2.179-1.18,4.216-3.365,4.536   c-5.207,0.78-8.54,1.694-10.531,2.436c3.911,1.444,12.358,3.302,26.09,3.849c4.98,0.156,10.664,0.156,15.707,0   c13.739-0.547,22.186-2.412,26.081-3.856c-1.873-0.71-5.113-1.624-10.555-2.42c-2.178-0.328-3.692-2.357-3.372-4.544   c0.328-2.186,2.311-3.614,4.543-3.372c13.412,1.983,19.399,5.168,19.399,10.352c0,8.603-19.478,11.179-35.816,11.835   C161.4,495.542,158.637,495.62,155.881,495.62z" data-original="#3A3847" class="active-path" data-old_color="#0B0B0B"/>
	<path style="fill:#0B0A0A" d="M155.881,391.7c-20.43,0-67.948-1.171-67.948-11.991c0-10.819,47.519-11.99,67.948-11.99   s67.947,1.171,67.947,11.99C223.828,390.529,176.311,391.7,155.881,391.7z M101.742,379.708   c10.117,2.022,30.235,3.998,54.139,3.998c23.911,0,44.036-1.976,54.146-3.998c-10.109-2.021-30.234-3.996-54.146-3.996   C131.978,375.712,111.86,377.687,101.742,379.708z" data-original="#3A3847" class="active-path" data-old_color="#0B0B0B"/>
	<path style="fill:#0B0A0A" d="M155.881,415.681c-2.678,0-5.434,0-8.111-0.078c-39.688-0.788-59.837-4.801-59.837-11.912   c0-2.209,1.788-3.997,3.997-3.997c1.562,0,2.912,0.89,3.567,2.193c3.989,2.077,23.958,5.16,52.468,5.723   c2.639,0.077,5.316,0.077,7.916,0.077c0.039,0,0.078,0,0.109,0c2.568,0,5.207,0,7.768-0.077   c28.548-0.563,48.517-3.646,52.506-5.715c0.656-1.304,2.007-2.201,3.567-2.201c2.21,0,3.997,1.788,3.997,3.997   c0,7.119-20.148,11.124-59.876,11.912C161.314,415.681,158.559,415.681,155.881,415.681z" data-original="#3A3847" class="active-path" data-old_color="#0B0B0B"/>
	<path style="fill:#0B0A0A" d="M91.93,407.687c-2.209,0-3.997-1.787-3.997-3.996v-23.982c0-2.209,1.788-3.996,3.997-3.996   s3.997,1.787,3.997,3.996v23.982C95.927,405.9,94.139,407.687,91.93,407.687z" data-original="#3A3847" class="active-path" data-old_color="#0B0B0B"/>
	<path style="fill:#0B0A0A" d="M219.831,407.687c-2.209,0-3.996-1.787-3.996-3.996v-23.982c0-2.209,1.787-3.996,3.996-3.996   c2.21,0,3.997,1.787,3.997,3.996v23.982C223.828,405.9,222.041,407.687,219.831,407.687z" data-original="#3A3847" class="active-path" data-old_color="#0B0B0B"/>
	<path style="fill:#0B0A0A" d="M339.74,511.608c-2.209,0-3.997-1.788-3.997-3.997v-96.004c0-2.21,1.788-3.997,3.997-3.997   c2.21,0,3.997,1.787,3.997,3.997v96.004C343.737,509.82,341.95,511.608,339.74,511.608z" data-original="#3A3847" class="active-path" data-old_color="#0B0B0B"/>
	<path style="fill:#0B0A0A" d="M355.728,511.608c-2.21,0-3.997-1.788-3.997-3.997v-95.926c0-2.21,1.787-3.998,3.997-3.998   c2.209,0,3.997,1.788,3.997,3.998v95.926C359.725,509.82,357.937,511.608,355.728,511.608z" data-original="#3A3847" class="active-path" data-old_color="#0B0B0B"/>
	<path style="fill:#0B0A0A" d="M347.734,495.62c-2.756,0-5.52-0.078-8.118-0.156c-16.371-0.656-35.848-3.232-35.848-11.835   c0-5.16,5.979-8.353,19.398-10.344c2.162-0.344,4.224,1.179,4.536,3.364c0.327,2.179-1.179,4.216-3.364,4.536   c-5.207,0.78-8.541,1.694-10.531,2.436c3.91,1.444,12.357,3.302,26.089,3.849c4.98,0.156,10.664,0.156,15.707,0   c13.739-0.547,22.186-2.412,26.081-3.856c-1.873-0.71-5.113-1.624-10.555-2.42c-2.178-0.328-3.691-2.357-3.372-4.544   c0.328-2.186,2.327-3.614,4.544-3.372c13.411,1.983,19.398,5.168,19.398,10.352c0,8.603-19.477,11.179-35.816,11.835   C353.253,495.542,350.49,495.62,347.734,495.62z" data-original="#3A3847" class="active-path" data-old_color="#0B0B0B"/>
	<path style="fill:#0B0A0A" d="M347.734,391.7c-20.43,0-67.948-1.171-67.948-11.991c0-10.819,47.519-11.99,67.948-11.99   s67.948,1.171,67.948,11.99C415.682,390.529,368.163,391.7,347.734,391.7z M293.596,379.708   c10.117,2.022,30.234,3.998,54.138,3.998c23.911,0,44.036-1.976,54.146-3.998c-10.109-2.021-30.234-3.996-54.146-3.996   C323.83,375.712,303.713,377.687,293.596,379.708z" data-original="#3A3847" class="active-path" data-old_color="#0B0B0B"/>
	<path style="fill:#0B0A0A" d="M347.734,415.681c-2.678,0-5.434,0-8.11-0.078c-39.689-0.788-59.838-4.801-59.838-11.912   c0-2.209,1.788-3.997,3.997-3.997c1.562,0,2.912,0.89,3.567,2.193c3.989,2.077,23.959,5.16,52.468,5.723   c2.639,0.077,5.316,0.077,7.916,0.077c0.039,0,0.078,0,0.109,0c2.568,0,5.207,0,7.768-0.077   c28.548-0.563,48.518-3.646,52.507-5.715c0.655-1.304,2.006-2.201,3.567-2.201c2.209,0,3.997,1.788,3.997,3.997   c0,7.119-20.148,11.124-59.876,11.912C353.167,415.681,350.411,415.681,347.734,415.681z" data-original="#3A3847" class="active-path" data-old_color="#0B0B0B"/>
	<path style="fill:#0B0A0A" d="M283.783,407.687c-2.209,0-3.997-1.787-3.997-3.996v-23.982c0-2.209,1.788-3.996,3.997-3.996   c2.21,0,3.997,1.787,3.997,3.996v23.982C287.78,405.9,285.992,407.687,283.783,407.687z" data-original="#3A3847" class="active-path" data-old_color="#0B0B0B"/>
	<path style="fill:#0B0A0A" d="M411.685,407.687c-2.21,0-3.997-1.787-3.997-3.996v-23.982c0-2.209,1.787-3.996,3.997-3.996   c2.209,0,3.997,1.787,3.997,3.996v23.982C415.682,405.9,413.894,407.687,411.685,407.687z" data-original="#3A3847" class="active-path" data-old_color="#0B0B0B"/>
	<path style="fill:#0B0A0A" d="M43.967,295.773c-2.21,0-3.997-1.787-3.997-3.996V3.997C39.97,1.788,41.757,0,43.967,0   c2.209,0,3.997,1.788,3.997,3.997v287.779C47.964,293.986,46.176,295.773,43.967,295.773z" data-original="#3A3847" class="active-path" data-old_color="#0B0B0B"/>
	<path style="fill:#0B0A0A" d="M467.642,295.773c-2.21,0-3.997-1.787-3.997-3.996V3.997c0-2.209,1.787-3.997,3.997-3.997   c2.209,0,3.997,1.788,3.997,3.997v287.779C471.639,293.986,469.851,295.773,467.642,295.773z" data-original="#3A3847" class="active-path" data-old_color="#0B0B0B"/>
	<path style="fill:#0B0A0A" d="M467.642,7.994H43.967c-2.21,0-3.997-1.788-3.997-3.997S41.757,0,43.967,0h423.675   c2.209,0,3.997,1.788,3.997,3.997S469.851,7.994,467.642,7.994z" data-original="#3A3847" class="active-path" data-old_color="#0B0B0B"/>
	<path style="fill:#0B0A0A" d="M155.881,247.81H51.96c-2.209,0-3.996-1.787-3.996-3.997s1.787-3.997,3.996-3.997h103.921   c2.209,0,3.997,1.788,3.997,3.997S158.09,247.81,155.881,247.81z" data-original="#3A3847" class="active-path" data-old_color="#0B0B0B"/>
	<path style="fill:#0B0A0A" d="M459.648,247.81H235.82c-2.209,0-3.997-1.787-3.997-3.997s1.788-3.997,3.997-3.997h223.828   c2.209,0,3.997,1.788,3.997,3.997S461.857,247.81,459.648,247.81z" data-original="#3A3847" class="active-path" data-old_color="#0B0B0B"/>
	<path style="fill:#0B0A0A" d="M459.648,127.902H51.96c-2.209,0-3.996-1.788-3.996-3.997s1.787-3.997,3.996-3.997h407.688   c2.209,0,3.997,1.788,3.997,3.997C463.645,126.115,461.857,127.902,459.648,127.902z" data-original="#3A3847" class="active-path" data-old_color="#0B0B0B"/>
	<path style="fill:#0B0A0A" d="M19.986,31.976c-6.612,0-11.991-5.379-11.991-11.991S13.373,7.994,19.986,7.994   c6.611,0,11.99,5.379,11.99,11.991S26.597,31.976,19.986,31.976z M19.986,15.989c-2.202,0-3.997,1.795-3.997,3.997   s1.795,3.997,3.997,3.997c2.24,0,3.996-1.756,3.996-3.997S22.226,15.989,19.986,15.989z" data-original="#3A3847" class="active-path" data-old_color="#0B0B0B"/>
	<path style="fill:#0B0A0A" d="M19.986,111.914c-6.612,0-11.991-5.378-11.991-11.99s5.379-11.991,11.991-11.991   c6.611,0,11.99,5.379,11.99,11.991C31.976,106.536,26.597,111.914,19.986,111.914z M19.986,95.927   c-2.202,0-3.997,1.795-3.997,3.997c0,2.201,1.795,3.997,3.997,3.997c2.24,0,3.996-1.756,3.996-3.997S22.226,95.927,19.986,95.927z" data-original="#3A3847" class="active-path" data-old_color="#0B0B0B"/>
	<path style="fill:#0B0A0A" d="M19.986,191.853c-6.612,0-11.991-5.378-11.991-11.99s5.379-11.991,11.991-11.991   c6.611,0,11.99,5.379,11.99,11.991C31.976,186.474,26.597,191.853,19.986,191.853z M19.986,175.866   c-2.202,0-3.997,1.795-3.997,3.997c0,2.201,1.795,3.997,3.997,3.997c2.24,0,3.996-1.756,3.996-3.997S22.226,175.866,19.986,175.866   z" data-original="#3A3847" class="active-path" data-old_color="#0B0B0B"/>
	<path style="fill:#0B0A0A" d="M19.986,271.792c-6.612,0-11.991-5.379-11.991-11.991c0-6.612,5.379-11.991,11.991-11.991   c6.611,0,11.99,5.379,11.99,11.991C31.976,266.413,26.597,271.792,19.986,271.792z M19.986,255.804   c-2.202,0-3.997,1.796-3.997,3.997s1.795,3.997,3.997,3.997c2.24,0,3.996-1.757,3.996-3.997S22.226,255.804,19.986,255.804z" data-original="#3A3847" class="active-path" data-old_color="#0B0B0B"/>
	<path style="fill:#0B0A0A" d="M491.623,31.976c-6.612,0-11.991-5.379-11.991-11.991s5.379-11.991,11.991-11.991   s11.99,5.379,11.99,11.991S498.236,31.976,491.623,31.976z M491.623,15.989c-2.201,0-3.997,1.795-3.997,3.997   s1.796,3.997,3.997,3.997c2.24,0,3.997-1.756,3.997-3.997S493.864,15.989,491.623,15.989z" data-original="#3A3847" class="active-path" data-old_color="#0B0B0B"/>
	<path style="fill:#0B0A0A" d="M491.623,111.914c-6.612,0-11.991-5.378-11.991-11.99s5.379-11.991,11.991-11.991   s11.99,5.379,11.99,11.991C503.614,106.536,498.236,111.914,491.623,111.914z M491.623,95.927c-2.201,0-3.997,1.795-3.997,3.997   c0,2.201,1.796,3.997,3.997,3.997c2.24,0,3.997-1.756,3.997-3.997S493.864,95.927,491.623,95.927z" data-original="#3A3847" class="active-path" data-old_color="#0B0B0B"/>
	<path style="fill:#0B0A0A" d="M491.623,191.853c-6.612,0-11.991-5.378-11.991-11.99s5.379-11.991,11.991-11.991   s11.99,5.379,11.99,11.991C503.614,186.474,498.236,191.853,491.623,191.853z M491.623,175.866c-2.201,0-3.997,1.795-3.997,3.997   c0,2.201,1.796,3.997,3.997,3.997c2.24,0,3.997-1.756,3.997-3.997S493.864,175.866,491.623,175.866z" data-original="#3A3847" class="active-path" data-old_color="#0B0B0B"/>
	<path style="fill:#0B0A0A" d="M491.623,271.792c-6.612,0-11.991-5.379-11.991-11.991c0-6.612,5.379-11.991,11.991-11.991   s11.99,5.379,11.99,11.991C503.613,266.413,498.236,271.792,491.623,271.792z M491.623,255.804c-2.201,0-3.997,1.796-3.997,3.997   s1.796,3.997,3.997,3.997c2.24,0,3.997-1.757,3.997-3.997S493.864,255.804,491.623,255.804z" data-original="#3A3847" class="active-path" data-old_color="#0B0B0B"/>
	<path style="fill:#0B0A0A" d="M251.807,303.767c-2.209,0-3.997-1.787-3.997-3.996v-23.982c0-2.209,1.788-3.996,3.997-3.996   c2.21,0,3.997,1.787,3.997,3.996v23.982C255.804,301.98,254.017,303.767,251.807,303.767z" data-original="#3A3847" class="active-path" data-old_color="#0B0B0B"/>
	<path style="fill:#0B0A0A" d="M275.789,303.767h-23.982c-2.209,0-3.997-1.787-3.997-3.996c0-2.21,1.788-3.998,3.997-3.998h23.982   c2.209,0,3.996,1.788,3.996,3.998C279.785,301.98,277.998,303.767,275.789,303.767z" data-original="#3A3847" class="active-path" data-old_color="#0B0B0B"/>
	<path style="fill:#0B0A0A" d="M275.789,303.767c-2.21,0-3.997-1.787-3.997-3.996v-23.982c0-2.209,1.787-3.996,3.997-3.996   c2.209,0,3.996,1.787,3.996,3.996v23.982C279.785,301.98,277.998,303.767,275.789,303.767z" data-original="#3A3847" class="active-path" data-old_color="#0B0B0B"/>
	<path style="fill:#0B0A0A" d="M275.789,279.785h-23.982c-2.209,0-3.997-1.788-3.997-3.997s1.788-3.996,3.997-3.996h23.982   c2.209,0,3.996,1.787,3.996,3.996S277.998,279.785,275.789,279.785z" data-original="#3A3847" class="active-path" data-old_color="#0B0B0B"/>
	<path style="fill:#0B0A0A" d="M339.74,247.81c-2.209,0-3.997-1.787-3.997-3.997v-54.755c0-2.209,1.788-3.997,3.997-3.997   c2.21,0,3.997,1.787,3.997,3.997v54.755C343.737,246.023,341.95,247.81,339.74,247.81z" data-original="#3A3847" class="active-path" data-old_color="#0B0B0B"/>
	<path style="fill:#0B0A0A" d="M347.734,175.866c-2.209,0-3.997-1.788-3.997-3.997v-23.981c0-2.209,1.788-3.997,3.997-3.997   s3.997,1.788,3.997,3.997v23.981C351.731,174.077,349.943,175.866,347.734,175.866z" data-original="#3A3847" class="active-path" data-old_color="#0B0B0B"/>
	<path style="fill:#0B0A0A" d="M371.715,247.81c-2.209,0-3.997-1.787-3.997-3.997v-54.755c0-2.209,1.788-3.997,3.997-3.997   s3.997,1.787,3.997,3.997v54.755C375.712,246.023,373.924,247.81,371.715,247.81z" data-original="#3A3847" class="active-path" data-old_color="#0B0B0B"/>
	<path style="fill:#0B0A0A" d="M371.715,191.853c-2.209,0-3.997-1.787-3.997-3.997c0-6.207-2.561-8.845-5.035-11.397   c-0.694-0.71-1.335-1.382-1.889-2.053c-1.397-1.702-1.155-4.223,0.554-5.628c1.694-1.39,4.208-1.155,5.629,0.554   c0.414,0.508,0.913,1.015,1.444,1.562c2.903,2.99,7.291,7.518,7.291,16.963C375.712,190.066,373.924,191.853,371.715,191.853z" data-original="#3A3847" class="active-path" data-old_color="#0B0B0B"/>
	<path style="fill:#0B0A0A" d="M339.74,191.853c-2.209,0-3.997-1.787-3.997-3.997c0-9.438,4.427-13.958,7.354-16.948   c0.538-0.555,1.046-1.069,1.476-1.585c1.404-1.694,3.918-1.944,5.628-0.539c1.702,1.405,1.944,3.919,0.539,5.628   c-0.563,0.679-1.218,1.358-1.929,2.084c-2.498,2.545-5.074,5.183-5.074,11.358C343.737,190.066,341.95,191.853,339.74,191.853z" data-original="#3A3847" class="active-path" data-old_color="#0B0B0B"/>
	<path style="fill:#0B0A0A" d="M363.721,175.866c-2.209,0-3.996-1.788-3.996-3.997v-23.981c0-2.209,1.787-3.997,3.996-3.997   c2.21,0,3.997,1.788,3.997,3.997v23.981C367.718,174.077,365.931,175.866,363.721,175.866z" data-original="#3A3847" class="active-path" data-old_color="#0B0B0B"/>
	<path style="fill:#0B0A0A" d="M371.715,199.847h-31.976c-2.209,0-3.997-1.788-3.997-3.997s1.788-3.997,3.997-3.997h31.976   c2.209,0,3.997,1.788,3.997,3.997C375.712,198.059,373.924,199.847,371.715,199.847z" data-original="#3A3847" class="active-path" data-old_color="#0B0B0B"/>
	<path style="fill:#0B0A0A" d="M371.715,231.823h-31.976c-2.209,0-3.997-1.788-3.997-3.997s1.788-3.997,3.997-3.997h31.976   c2.209,0,3.997,1.788,3.997,3.997S373.924,231.823,371.715,231.823z" data-original="#3A3847" class="active-path" data-old_color="#0B0B0B"/>
	<path style="fill:#0B0A0A" d="M363.721,151.884h-15.987c-2.209,0-3.997-1.788-3.997-3.997s1.788-3.997,3.997-3.997h15.987   c2.21,0,3.997,1.788,3.997,3.997S365.931,151.884,363.721,151.884z" data-original="#3A3847" class="active-path" data-old_color="#0B0B0B"/>
	<path style="fill:#0B0A0A" d="M363.721,167.871h-15.987c-2.209,0-3.997-1.788-3.997-3.997s1.788-3.997,3.997-3.997h15.987   c2.21,0,3.997,1.788,3.997,3.997C367.718,166.084,365.931,167.871,363.721,167.871z" data-original="#3A3847" class="active-path" data-old_color="#0B0B0B"/>
	<path style="fill:#0B0A0A" d="M363.721,215.835h-16.065c-2.209,0-3.997-1.788-3.997-3.997s1.788-3.997,3.997-3.997h16.065   c2.21,0,3.997,1.787,3.997,3.997S365.931,215.835,363.721,215.835z" data-original="#3A3847" class="active-path" data-old_color="#0B0B0B"/>
	<path style="fill:#0B0A0A" d="M123.906,127.902c-2.209,0-3.997-1.788-3.997-3.997V69.151c0-2.209,1.788-3.997,3.997-3.997   s3.997,1.788,3.997,3.997v54.755C127.903,126.115,126.115,127.902,123.906,127.902z" data-original="#3A3847" class="active-path" data-old_color="#0B0B0B"/>
	<path style="fill:#0B0A0A" d="M135.896,55.957c-2.209,0-3.996-1.788-3.996-3.997V27.979c0-2.209,1.787-3.997,3.996-3.997   c2.21,0,3.997,1.788,3.997,3.997V51.96C139.893,54.17,138.106,55.957,135.896,55.957z" data-original="#3A3847" class="active-path" data-old_color="#0B0B0B"/>
	<path style="fill:#0B0A0A" d="M163.874,127.902c-2.209,0-3.996-1.788-3.996-3.997V69.151c0-2.209,1.787-3.997,3.996-3.997   c2.21,0,3.997,1.788,3.997,3.997v54.755C167.871,126.115,166.084,127.902,163.874,127.902z" data-original="#3A3847" class="active-path" data-old_color="#0B0B0B"/>
	<path style="fill:#0B0A0A" d="M163.874,71.946c-2.209,0-3.996-1.788-3.996-3.997c0-4.637-2.889-7.097-6.964-10.063   c-1.507-1.101-2.928-2.14-3.958-3.389c-1.397-1.701-1.155-4.223,0.555-5.628c1.693-1.397,4.215-1.155,5.628,0.554   c0.375,0.461,1.499,1.28,2.482,1.999c3.833,2.794,10.25,7.471,10.25,16.526C167.871,70.158,166.084,71.946,163.874,71.946z" data-original="#3A3847" class="active-path" data-old_color="#0B0B0B"/>
	<path style="fill:#0B0A0A" d="M123.906,71.946c-2.209,0-3.997-1.788-3.997-3.997c0-9.063,6.456-13.732,10.313-16.526   c0.999-0.719,2.131-1.538,2.514-2.007c1.405-1.693,3.927-1.943,5.629-0.538c1.701,1.405,1.943,3.919,0.538,5.628   c-1.03,1.249-2.467,2.295-3.989,3.396c-4.106,2.966-7.01,5.425-7.01,10.047C127.903,70.158,126.115,71.946,123.906,71.946z" data-original="#3A3847" class="active-path" data-old_color="#0B0B0B"/>
	<path style="fill:#0B0A0A" d="M151.884,55.957c-2.209,0-3.997-1.788-3.997-3.997V27.979c0-2.209,1.788-3.997,3.997-3.997   s3.997,1.788,3.997,3.997V51.96C155.881,54.17,154.093,55.957,151.884,55.957z" data-original="#3A3847" class="active-path" data-old_color="#0B0B0B"/>
	<path style="fill:#0B0A0A" d="M163.874,79.939h-39.969c-2.209,0-3.997-1.787-3.997-3.997s1.788-3.997,3.997-3.997h39.969   c2.21,0,3.997,1.787,3.997,3.997S166.084,79.939,163.874,79.939z" data-original="#3A3847" class="active-path" data-old_color="#0B0B0B"/>
	<path style="fill:#0B0A0A" d="M163.874,111.914h-39.969c-2.209,0-3.997-1.788-3.997-3.997s1.788-3.997,3.997-3.997h39.969   c2.21,0,3.997,1.788,3.997,3.997C167.871,110.127,166.084,111.914,163.874,111.914z" data-original="#3A3847" class="active-path" data-old_color="#0B0B0B"/>
	<path style="fill:#0B0A0A" d="M151.884,31.976h-15.988c-2.209,0-3.996-1.788-3.996-3.997s1.787-3.997,3.996-3.997h15.988   c2.209,0,3.997,1.788,3.997,3.997S154.093,31.976,151.884,31.976z" data-original="#3A3847" class="active-path" data-old_color="#0B0B0B"/>
	<path style="fill:#0B0A0A" d="M151.884,47.964h-15.988c-2.209,0-3.996-1.788-3.996-3.997c0-2.21,1.787-3.997,3.996-3.997h15.988   c2.209,0,3.997,1.787,3.997,3.997C155.881,46.176,154.093,47.964,151.884,47.964z" data-original="#3A3847" class="active-path" data-old_color="#0B0B0B"/>
	<path style="fill:#0B0A0A" d="M143.89,103.921c-6.612,0-11.99-5.378-11.99-11.991s5.378-11.991,11.99-11.991   s11.991,5.379,11.991,11.991S150.502,103.921,143.89,103.921z M143.89,87.933c-2.201,0-3.997,1.796-3.997,3.997   s1.796,3.997,3.997,3.997c2.24,0,3.997-1.757,3.997-3.997S146.13,87.933,143.89,87.933z" data-original="#3A3847" class="active-path" data-old_color="#0B0B0B"/>
	<path style="fill:#0B0A0A" d="M269.957,127.965c-0.858,0-1.725-0.25-2.459-0.734c-0.866-0.578-3.7-2.958-3.7-9.321   c0-2.405,0.694-5.129,1.499-8.291c1.062-4.153,2.256-8.853,2.256-14.013c0-5.152-1.249-12.975-2.248-19.267   c-0.844-5.285-1.507-9.461-1.507-11.991c0-3.373,1.835-6.347,3.771-9.5c2.076-3.38,4.224-6.877,4.224-10.882V27.979   c0-2.209,1.787-3.997,3.997-3.997c2.209,0,3.996,1.788,3.996,3.997v15.988c0,6.269-2.997,11.147-5.409,15.066   c-1.21,1.975-2.584,4.208-2.584,5.316c0,1.897,0.687,6.191,1.405,10.734c1.101,6.909,2.35,14.739,2.35,20.523   c0,6.159-1.39,11.608-2.506,15.98c-0.641,2.537-1.249,4.926-1.249,6.323c0,2.264,0.569,3.021,0.577,3.029   c1.835,1.226,2.115,3.528,0.891,5.363C272.526,127.41,271.253,127.965,269.957,127.965z" data-original="#3A3847" class="active-path" data-old_color="#0B0B0B"/>
	<path style="fill:#0B0A0A" d="M297.936,127.902c-1.257,0-2.498-0.593-3.278-1.709c-1.163-1.671-0.882-3.911,0.585-5.246   c0.125-0.219,0.531-1.077,0.531-3.037c0-1.397-0.609-3.786-1.249-6.323c-1.116-4.372-2.506-9.821-2.506-15.98   c0-5.785,1.249-13.614,2.35-20.523c0.718-4.543,1.405-8.837,1.405-10.734c0-1.108-1.374-3.341-2.584-5.316   c-2.412-3.919-5.41-8.798-5.41-15.066V27.979c0-2.209,1.788-3.997,3.997-3.997s3.997,1.788,3.997,3.997v15.988   c0,4.004,2.146,7.502,4.223,10.882c1.937,3.154,3.771,6.128,3.771,9.5c0,2.529-0.664,6.706-1.507,11.991   c-0.999,6.292-2.249,14.114-2.249,19.267c0,5.16,1.195,9.859,2.257,14.013c0.804,3.162,1.499,5.886,1.499,8.291   c0,6.308-2.709,8.697-3.545,9.274C299.529,127.668,298.733,127.902,297.936,127.902z" data-original="#3A3847" class="active-path" data-old_color="#0B0B0B"/>
	<path style="fill:#0B0A0A" d="M291.777,31.976H275.79c-2.21,0-3.997-1.788-3.997-3.997s1.787-3.997,3.997-3.997h15.987   c2.209,0,3.997,1.788,3.997,3.997S293.986,31.976,291.777,31.976z" data-original="#3A3847" class="active-path" data-old_color="#0B0B0B"/>
	<path style="fill:#0B0A0A" d="M291.777,47.964H275.79c-2.21,0-3.997-1.788-3.997-3.997c0-2.21,1.787-3.997,3.997-3.997h15.987   c2.209,0,3.997,1.787,3.997,3.997C295.774,46.176,293.986,47.964,291.777,47.964z" data-original="#3A3847" class="active-path" data-old_color="#0B0B0B"/>
	<path style="fill:#0B0A0A" d="M283.783,79.939c-2.209,0-3.997-1.787-3.997-3.997v-7.994c0-2.209,1.788-3.997,3.997-3.997   c2.21,0,3.997,1.788,3.997,3.997v7.994C287.78,78.152,285.992,79.939,283.783,79.939z" data-original="#3A3847" class="active-path" data-old_color="#0B0B0B"/>
	<path style="fill:#0B0A0A" d="M291.777,71.946H275.79c-2.21,0-3.997-1.788-3.997-3.997s1.787-3.997,3.997-3.997h15.987   c2.209,0,3.997,1.788,3.997,3.997S293.986,71.946,291.777,71.946z" data-original="#3A3847" class="active-path" data-old_color="#0B0B0B"/>
	<path style="fill:#0B0A0A" d="M283.783,111.914c-2.209,0-3.997-1.788-3.997-3.997V91.93c0-2.209,1.788-3.997,3.997-3.997   c2.21,0,3.997,1.788,3.997,3.997v15.987C287.78,110.127,285.992,111.914,283.783,111.914z" data-original="#3A3847" class="active-path" data-old_color="#0B0B0B"/>
</g></g> </svg>
