<?xml version="1.0" encoding="iso-8859-1"?>
<!-- Generator: Adobe Illustrator 19.0.0, SVG Export Plug-In . SVG Version: 6.00 Build 0)  -->
<svg version="1.1" id="Capa_1" xmlns="http://www.w3.org/2000/svg" xmlns:xlink="http://www.w3.org/1999/xlink" x="0px" y="0px"
	 viewBox="0 0 511.821 511.821" style="enable-background:new 0 0 511.821 511.821;" xml:space="preserve">
<path style="fill:#9BC53D;" d="M382.706,216.706c5.896-78.84-8-208-16-208c-12.136,0-119.688,85.304-160,168l64,120L382.706,216.706
	z"/>
<path style="fill:#AFD164;" d="M366.706,8.706c-12.136,0-119.688,85.304-160,168l0.976,1.824l174.592-63.488
	C378.906,58.458,371.674,8.706,366.706,8.706z"/>
<path d="M373.45,3.754c-1.824-1.968-4.216-3.048-6.744-3.048c-19.688,0-128.784,93.704-167.192,172.496
	c-1.128,2.304-1.072,5.008,0.136,7.272l64,120c1.08,2.032,2.992,3.496,5.232,4.024c0.6,0.136,1.216,0.208,1.824,0.208
	c1.656,0,3.28-0.512,4.648-1.488l112-80c1.936-1.384,3.152-3.544,3.328-5.912C395.858,148.162,385.226,16.442,373.45,3.754z
	 M374.994,212.386l-95.752,68.392l35.48-93.136l39.568-19.784c3.952-1.976,5.552-6.784,3.576-10.736
	c-1.976-3.952-6.776-5.552-10.736-3.576l-23.992,11.992l19.04-49.992c1.568-4.128-0.496-8.752-4.632-10.328
	c-4.136-1.56-8.752,0.496-10.328,4.632l-21.888,57.456l-11.048-33.136c-1.392-4.184-5.912-6.48-10.12-5.056
	c-4.192,1.4-6.456,5.928-5.056,10.12l16,48c0.336,1.016,0.92,1.912,1.608,2.704l-30.784,80.816l-50.224-94.176
	c36.864-72.12,123.656-144.24,147.248-157.792C369.466,43.178,379.578,142.722,374.994,212.386z"/>
<path style="fill:#86472B;" d="M55.194,132.386c26.6,42.84,62.008,41.44,84.584,104.472c26.768,74.72-18.064,90.776,8.704,165.496
	c19.696,54.968,49.144,60.888,74.008,89.888c-4.2,2.488-8.56,4.696-13.216,6.368c-63.88,22.88-145.856-42.864-183.112-146.848
	C-7.046,259.066,6.602,167.434,55.194,132.386z"/>
<path style="fill:#B35F39;" d="M259.786,449.026c-8.928,18.904-21.472,33.856-37.296,43.224c-24.864-29-54.312-34.92-74.008-89.888
	c-26.768-74.72,18.064-90.776-8.704-165.496c-22.584-63.032-57.984-61.632-84.584-104.472c5.912-4.264,12.248-7.856,19.176-10.336
	c63.88-22.88,145.856,42.864,183.112,146.848c3.376,9.416,6.264,18.824,8.68,28.16"/>
<path d="M273.906,295.05c-2.496-9.64-5.496-19.344-8.896-28.848c-18.504-51.664-48.368-95.896-84.096-124.544
	c-36.832-29.544-75.632-39.184-109.248-27.144c-7.184,2.576-14.104,6.296-21.152,11.376l0,0l0,0
	c-52.384,37.784-65.8,133.912-31.88,228.568c33.376,93.176,102.536,156.616,164.52,156.616c9.84,0,19.504-1.6,28.816-4.936
	c4.672-1.672,9.448-3.968,14.576-7.008c0.008,0,0.016-0.008,0.016-0.008c16.952-10.04,30.56-25.744,40.448-46.688
	c1.888-3.992,0.176-8.76-3.824-10.648c-3.984-1.864-8.76-0.176-10.648,3.824c-7.384,15.64-17.024,27.792-28.712,36.208
	c-0.328-0.344-0.656-0.64-0.984-0.976c-0.72-0.736-1.432-1.432-2.152-2.144c-1.312-1.296-2.632-2.56-3.96-3.776
	c-0.728-0.672-1.456-1.336-2.184-1.992c-1.4-1.248-2.8-2.464-4.2-3.656c-0.616-0.528-1.232-1.064-1.856-1.584
	c-1.92-1.608-3.832-3.184-5.728-4.744c-17.536-14.392-34.104-27.992-46.744-63.296c-12.64-35.272-8.464-56.264-4.04-78.488
	c4.656-23.384,9.464-47.56-4.664-87.008c-14.136-39.456-33.192-55.136-51.632-70.304c-2.248-1.856-4.472-3.696-6.672-5.552
	c-0.448-0.376-0.896-0.752-1.344-1.136c-2.2-1.88-4.36-3.816-6.496-5.824c-0.424-0.4-0.84-0.808-1.264-1.208
	c-2.168-2.08-4.296-4.256-6.392-6.592c-0.248-0.272-0.488-0.576-0.736-0.856c-2.024-2.304-4.008-4.768-5.952-7.416
	c-0.16-0.216-0.32-0.408-0.472-0.624c3.576-2.096,7.12-3.768,10.72-5.056c28.192-10.096,61.504-1.368,93.832,24.56
	c33.448,26.824,61.52,68.536,79.04,117.464c3.248,9.048,6.096,18.288,8.472,27.464c1.112,4.28,5.488,6.832,9.752,5.744
	C272.442,303.698,275.018,299.33,273.906,295.05z M132.25,239.562c12.64,35.272,8.456,56.264,4.04,78.488
	c-0.584,2.92-1.168,5.856-1.712,8.832c-1.648,8.928-2.984,18.224-2.992,28.648c-0.016,13.896,2.312,29.808,9.376,49.528
	c14.136,39.464,33.208,55.128,51.656,70.264c2.496,2.048,4.928,4.064,7.336,6.112c0.728,0.616,1.448,1.256,2.168,1.88
	c1.976,1.712,3.912,3.496,5.832,5.328c0.472,0.448,0.944,0.888,1.416,1.352c-0.944,0.4-1.872,0.76-2.792,1.096
	C147.01,512.434,69.41,448.746,33.698,349.074C3.642,265.194,12.186,181.042,53.41,144.082c2.68,3.704,5.416,7.048,8.2,10.152
	c0.48,0.536,0.968,1.04,1.456,1.568c0.976,1.056,1.96,2.104,2.944,3.104c0.568,0.576,1.144,1.144,1.72,1.704
	c0.92,0.904,1.832,1.792,2.752,2.648c0.592,0.552,1.176,1.096,1.768,1.632c0.928,0.84,1.856,1.672,2.784,2.488
	c0.576,0.504,1.152,1.016,1.736,1.512c0.992,0.848,1.976,1.688,2.96,2.512c0.504,0.424,1.016,0.856,1.52,1.28
	c1.424,1.184,2.856,2.36,4.272,3.528C103.042,190.642,119.602,204.266,132.25,239.562z"/>
<rect x="89.454" y="275.748" transform="matrix(-0.9414 0.3374 -0.3374 -0.9414 284.9286 517.9796)" width="16.001" height="16.001"/>
<rect x="93.732" y="240.228" transform="matrix(-0.9414 0.3374 -0.3374 -0.9414 281.2483 447.5794)" width="16.001" height="16.001"/>
<rect x="176.681" y="329.442" transform="matrix(-0.9414 0.3374 -0.3374 -0.9414 472.3829 592.7898)" width="16.001" height="16.001"/>
<rect x="172.417" y="365" transform="matrix(-0.9414 0.3374 -0.3374 -0.9414 476.1021 663.2585)" width="16.001" height="16.001"/>
<rect x="180.964" y="293.952" transform="matrix(-0.9414 0.3374 -0.3374 -0.9414 468.7232 522.4453)" width="16.001" height="16.001"/>
<path style="fill:#86472B;" d="M386.522,295.21c21.92-37.96,44.352-45.24,66.688-58.688c-1.816-1.208-3.552-2.504-5.464-3.6
	c-58.584-33.824-138.392-5.272-178.256,63.776s-29.064,160.016,29.52,193.84c1.056,0.608,2.176,1.032,3.24,1.592
	c16.528-9.408,33.024-20.664,49.24-48.752C387.954,380.226,350.066,358.354,386.522,295.21z"/>
<path style="fill:#B35F39;" d="M481.642,419.178c38.56-66.792,25.488-146.872-28.432-182.656
	c-22.328,13.456-44.768,20.728-66.688,58.688c-36.456,63.144,1.432,85.016-35.024,148.16c-16.216,28.08-32.712,39.344-49.24,48.752
	C360.666,522.874,442.498,486.978,481.642,419.178z"/>
<path d="M457.666,229.882c-0.016-0.008-0.024-0.024-0.032-0.032l-1.616-1.096c-1.392-0.96-2.784-1.904-4.272-2.768
	c-62.312-35.96-147.184-6.048-189.184,66.704c-43.664,75.632-28.8,169.4,32.472,204.776c0.808,0.464,1.648,0.856,2.48,1.24
	l1.024,0.496c0.008,0.008,0.024,0.008,0.032,0.016c15.368,8.08,32.4,11.896,49.976,11.896c51.912,0,108.456-33.256,140.024-87.936
	C529.01,353.138,515.434,268.242,457.666,229.882z M276.418,300.69c26.984-46.728,73.256-73.984,117.448-73.984
	c14.976,0,29.72,3.136,43.384,9.696c-0.856,0.472-1.712,0.952-2.568,1.432c-0.08,0.048-0.16,0.088-0.24,0.136
	c-0.896,0.504-1.8,1.016-2.704,1.528c-0.36,0.208-0.72,0.408-1.08,0.616c-0.816,0.472-1.632,0.952-2.448,1.432
	c-0.4,0.24-0.808,0.472-1.208,0.712c-0.792,0.472-1.576,0.96-2.368,1.448c-0.432,0.264-0.864,0.528-1.296,0.8
	c-0.768,0.48-1.536,0.992-2.304,1.496c-0.448,0.296-0.896,0.584-1.352,0.888c-0.744,0.496-1.48,1.024-2.224,1.544
	c-0.48,0.336-0.96,0.664-1.448,1.016c-0.72,0.52-1.44,1.072-2.16,1.616c-0.496,0.376-0.992,0.736-1.496,1.128
	c-0.72,0.56-1.44,1.16-2.16,1.752c-0.504,0.408-1,0.808-1.504,1.232c-0.712,0.608-1.424,1.256-2.136,1.888
	c-0.504,0.456-1.016,0.888-1.52,1.352c-0.712,0.664-1.424,1.368-2.136,2.064c-0.504,0.496-1.008,0.96-1.52,1.48
	c-0.704,0.72-1.416,1.488-2.12,2.24c-0.512,0.544-1.024,1.064-1.536,1.632c-0.712,0.784-1.416,1.632-2.128,2.464
	c-0.504,0.592-1.016,1.152-1.52,1.768c-0.736,0.896-1.472,1.856-2.208,2.8c-0.48,0.608-0.952,1.184-1.432,1.824
	c-0.76,1.008-1.52,2.096-2.28,3.16c-0.448,0.632-0.904,1.232-1.352,1.888c-0.848,1.24-1.704,2.56-2.552,3.872
	c-0.352,0.552-0.712,1.056-1.064,1.624c-1.208,1.912-2.408,3.904-3.616,5.992c-19.336,33.496-18.952,56.224-18.584,78.216
	c0.344,20.72,0.672,40.296-16.448,69.944c-1.864,3.224-3.72,6.176-5.576,8.944c-0.64,0.952-1.272,1.768-1.912,2.664
	c-1.216,1.72-2.432,3.448-3.648,5c-0.76,0.976-1.52,1.832-2.28,2.744c-1.096,1.312-2.192,2.632-3.28,3.824
	c-0.8,0.872-1.6,1.672-2.408,2.488c-1.056,1.072-2.112,2.144-3.168,3.128c-0.816,0.76-1.64,1.48-2.456,2.192
	c-1.04,0.904-2.088,1.8-3.128,2.632c-0.824,0.656-1.648,1.296-2.472,1.912c-1.056,0.792-2.104,1.56-3.16,2.296
	c-0.808,0.56-1.624,1.12-2.432,1.656c-1.096,0.72-2.192,1.432-3.296,2.112c-0.768,0.48-1.536,0.96-2.304,1.416
	c-0.352,0.208-0.696,0.408-1.048,0.616C250.042,452.002,238.018,367.202,276.418,300.69z M474.706,415.178
	c-34.944,60.536-102.872,92.472-155.072,75.608c1.808-1.24,3.624-2.584,5.448-3.984c0.456-0.352,0.92-0.744,1.384-1.112
	c1.536-1.224,3.072-2.512,4.616-3.88c0.576-0.504,1.144-1.016,1.72-1.544c1.768-1.632,3.544-3.36,5.312-5.224
	c0.224-0.24,0.448-0.44,0.68-0.688c1.968-2.104,3.936-4.392,5.896-6.824c0.536-0.656,1.064-1.376,1.6-2.056
	c1.496-1.928,3-3.968,4.496-6.12c0.576-0.824,1.144-1.64,1.72-2.496c1.976-2.968,3.952-6.064,5.92-9.472
	c19.336-33.496,18.952-56.224,18.584-78.216c-0.344-20.72-0.672-40.296,16.448-69.944c17.136-29.68,34.272-39.2,52.408-49.28
	c2.328-1.288,4.648-2.584,6.976-3.912C500.146,280.962,509.962,354.122,474.706,415.178z"/>
<rect x="403.375" y="349.513" transform="matrix(-0.5 0.866 -0.866 -0.5 926.3821 179.4979)" width="16" height="15.312"/>
<rect x="401.322" y="383.669" transform="matrix(-0.4998 0.8661 -0.8661 -0.4998 952.8464 232.39)" width="15.999" height="15.311"/>
<rect x="405.455" y="315.371" transform="matrix(-0.5 0.866 -0.866 -0.5 899.9338 126.4844)" width="16" height="15.312"/>
<rect x="319.72" y="371.901" transform="matrix(-0.4998 0.8661 -0.8661 -0.4998 820.2657 285.4185)" width="15.999" height="15.311"/>
<rect x="321.79" y="337.792" transform="matrix(-0.5001 0.866 -0.866 -0.5001 793.8633 232.6119)" width="16" height="15.312"/>
<g>
</g>
<g>
</g>
<g>
</g>
<g>
</g>
<g>
</g>
<g>
</g>
<g>
</g>
<g>
</g>
<g>
</g>
<g>
</g>
<g>
</g>
<g>
</g>
<g>
</g>
<g>
</g>
<g>
</g>
</svg>
