<?xml version="1.0" encoding="iso-8859-1"?>
<!-- Generator: Adobe Illustrator 19.0.0, SVG Export Plug-In . SVG Version: 6.00 Build 0)  -->
<svg version="1.1" id="Layer_1" xmlns="http://www.w3.org/2000/svg" xmlns:xlink="http://www.w3.org/1999/xlink" x="0px" y="0px"
	 viewBox="0 0 512.001 512.001" style="enable-background:new 0 0 512.001 512.001;" xml:space="preserve">
<g>
	<path style="fill:#A82232;" d="M165.234,366.467c-19.345-19.51-33.033-43.697-35.05-71.663c-0.665-9.226,1.534-18.489,2.685-27.595
		c1.133-8.962,1.956-18.124,2.125-27.154c0.168-9.027,0.511-18.68-0.93-27.569c-1.362-8.399,3.077-2.764,5.936,1.218
		c4.98,6.935,11.465,12.435,18.237,17.574c6.036,4.58,10.104,11.367,15.851,15.979c-4.152-8.346-4.939-18.604-6.848-27.649
		c-2.121-10.047-1.208-20.048,0.589-30.077c2.186-12.203,6.843-24.455,14.042-34.604c5.907-8.327,9.645-15.966,13.428-25.539
		c1.822-4.61,3.7-9.171,5.554-13.762c1.004-2.485,1.276-6.081,3.152-7.729c2.7,3.923,4.498,8.762,6.808,12.963
		c1.522,2.768,4.625,11.202,8.162,11.228c4.832-23.424,1.161-48.891,11.734-71.007c5.129-10.728,14.778-19.998,22.492-29.056
		c3.145-3.692,6.414-7.785,8.595-12.134c1.471-2.933,2.19-8.794,4.631-10.636c3.244,7.172,5.427,14.745,8.891,21.857
		c5.332,10.948,11.969,23.441,13.278,35.664c1.367,12.759,3.497,26.214,2.922,39.062c-0.55,12.292-3.564,29.967,3.745,40.993
		c1.827-1.889,1.727-5.958,2.394-8.565c1.481-5.788,4.303-11.351,6.736-16.777c3.069-6.844,6.585-14.424,11.008-20.522
		c0.142,10.252-0.21,19.925,3.005,29.966c2.868,8.958,8.146,16.81,13.223,24.631c4.659,7.178,8.053,14.224,11.941,21.799
		c4.256,8.292,5.634,18.291,6.849,27.425c1.069,8.032,1.163,16.918-0.43,24.881c-0.93,4.648-4.4,12.66-3.226,17.267
		c3.065-1.495,5.767-4.929,8.15-7.448c4.561-4.822,9.287-9.674,13.543-14.765c3.035-3.632,6.262-7.106,8.94-11.007
		c1.255-1.827,2.507-4.74,4.504-5.665c1.68,5.852,2.083,13.34,2.773,19.423c1.563,13.78,3.346,27.793,3.663,41.665
		c0.452,19.779-5.325,41.041-14.357,58.611c-4.861,9.456-12.257,18.131-19.059,26.245c-3.701,4.414-7.425,10.188-12.479,13.257
		c-3.801,2.308-6.4,0.675-10.331-0.684c-5.244-1.812-9.351-2.124-14.508,0.253c-4.989,2.3-7.35,5.412-10.296,9.867
		c-2.814,4.257-3.17,6.803-7.986,7.611c-4.684,0.786-6.968,2.926-9.565,7.129c-2.088,3.378-1.648,4.224-5.301,4.275
		c-4.188,0.058-6.582-1.608-10.768,0.184c-2.936,1.257-6.669,5.621-9.811,5.544c-2.717-0.067-5.027-2.773-8.212-2.837
		c-3.909-0.078-6.814,1.836-10.461,2.912c-6.566,1.937-9.599-5.97-16.817-5.912c-4.005,0.032-7.544,3.158-9.657-1.177
		c-2.522-5.173-1.33-6.183-6.691-8.934c-4.441-2.279-7.478-6.028-10.34-9.977C193.998,364.891,176.671,366.508,165.234,366.467z"/>
	<path style="fill:#A82232;" d="M327.41,8.857c-13.893,20.056-18.551,44.7-5.245,66.359c4.554,7.412,10.33,13.959,14.403,21.743
		c3.529,6.744,2.296,12.739,2.856,19.829c3.798-0.389,10.26-10.776,12.138-13.973c4.482-7.628,7.519-15.068,9.86-23.539
		c2.441-8.834,3.53-18.259-2.841-25.577c-5.974-6.861-13.596-12.114-19.604-19.056c-2.931-3.387-5.256-7.507-7.353-11.464
		C329.297,18.788,329.608,14.317,327.41,8.857z"/>
	<path style="fill:#A82232;" d="M141.319,76.493c-0.224,7.418,1.214,14.585-0.751,21.899c-2.649,9.862-8.363,18.372-11.58,28.001
		c-3.618,10.833-2.965,23.773-0.747,34.827c0.907,4.52,2.274,8.596,3.753,12.943c0.854,2.51,1.05,6.347,3.812,7.723
		c8.755,4.36,21.743-25.243,24.661-31.198c6.749-13.768,8.584-28.826,3.799-43.498C161.181,97.728,153.586,81.845,141.319,76.493z"
		/>
</g>
<path style="fill:#FBB040;" d="M199.315,375.445c-3.263-4.707-5.461-10.716-8.117-15.863c-3.601-6.977-8.826-13.437-11.754-20.723
	c-3.883-9.661-3.236-19.517-3.547-29.642c-0.15-4.877-1.123-9.859-2.041-14.647c-0.614-3.204-2.109-6.575-1.822-9.869
	c4.226-0.425,12.208,6.357,15.559,8.655c3.788,2.597,6.903,6.354,10.2,9.547c1.791,1.735,3.992,5.365,6.035,6.138
	c-0.353-4.234-3.078-8.338-3.632-12.709c-0.874-6.902-0.188-14.476,0.82-21.325c2.058-13.986,8.839-24.709,15.189-37.036
	c4.88-9.473,9.898-19.957,12.73-30.256c1.709-6.215,2.92-12.679,4.325-18.987c1.16-5.21-0.223-9.354-0.065-14.26
	c8.562-1.219,11.864,15.376,16.493,19.972c0.617-8.441,0.566-16.819,2.198-25.208c2.021-10.39,6.352-19.894,11.54-28.935
	c0.598,1.794-0.166,3.854-0.281,5.818c-0.222,3.791,0.712,7.41,1.161,11.153c0.814,6.787,2.439,12.966,4.629,19.435
	c4.524,13.359,10.053,25.761,18.931,36.758c7.77,9.624,13.159,20.256,13.587,32.804c0.269,7.879-1.526,15.901-2.566,23.679
	c-0.513,3.835-1.54,7.55-2.696,11.238c-0.706,2.253-2.384,5.09-2.257,7.387c2.399-0.895,6.727-6.407,8.595-8.38
	c1.805-1.905,3.864-4.137,5.046-6.475c2.387,3.679-0.884,15.289-2.097,19.233c-1.292,4.201-2.571,8.499-4.3,12.54
	c-1.171,2.736-3.95,6.033-3.888,9.087c8.659,1.338,17.013-8.916,21.353-15.038c3.103-4.377,5.27-8.95,7.967-13.516
	c1.091-1.847,2.301-4.456,4.166-5.551c4.773,0.37,5.97,11.328,6.498,14.837c1.805,11.986,0.732,24.224-0.071,36.245
	c-0.622,9.312-1.684,20.253-6.127,28.614c-1.009,1.898-2.229,5.096-4.165,6.19c-1.811,1.023-4.85,0.191-7.01,0.744
	c-5.155,1.319-9.821,5.252-12.745,9.563c-1.042,1.536-1.59,3.311-3.284,4.254c-1.652,0.92-3.705,0.628-5.465,1.648
	c-6.415,3.717-8.463,12.805-16.525,14.288c-3.897,0.717-6.825-0.373-10.76,1.434c-4.529,2.079-5.455,3.422-10.307,2.387
	c-4.274-0.912-7.3-0.763-11.622,0.167c-3.687,0.793-5.797,1.286-8.781-0.263c-1.528-0.793-2.856-2.221-4.519-2.792
	c-3.232-1.11-6.205,0.134-9.48,0.115c-4.477-0.026-6.038-1.698-7.802-5.666c-2.131-4.796-5.574-7.649-10.12-9.96
	C205.081,380.54,200.974,379.014,199.315,375.445z"/>
<path style="fill:#8B5E3C;" d="M200.482,379.063c2.466-4.73-4.55-9.629-8.451-10.866c-7.919-2.511-17.134-1.781-25.134-0.108
	c-8.944,1.872-17.949,4.13-27.094,4.576c-8.447,0.412-16.75-1.392-25.195-1.726c-4.176-0.165-18.948-2.237-21.625,3.006
	c-1.16,2.272,1.389,3.912,2.671,5.554c1.904,2.44,3.179,4.676,3.927,7.678c1.663,6.677,2.556,13.249-3.918,17.255
	c-1.464,0.906-7.724,2.887-6.439,5.404c0.662,1.296,5.948,2.421,7.342,3.279c6.634,4.087,12.56,9.854,17.188,16.058
	c2.763,3.704,4.454,7.907,5.66,12.37c0.968,3.582-0.312,14.576,2.64,16.553c4.756-2.511,6.416-8.274,10.91-11.233
	c3.313-2.181,6.818-3.413,10.789-2.418c6.397,1.602,11.432,4.848,16.327,9.079c6.773,5.853,10.946,12.552,14.186,20.938
	c1.357,3.512,2.089,7.248,2.134,11.047c0.039,3.291-1.77,7.961,2.11,9.392c4.001,1.475,9.483-3.424,12.019-5.867
	c4.189-4.034,9.452-7.63,13.213-12.01c2.835-3.302,2.339-6.814,3.527-10.558c1.186-3.738,5.274-7.162,8.326-9.403
	c7.004-5.143,15.647-7.453,23.994-9.359c8.429-1.925,17.894-3.686,26.508-2.04c5.329,1.018,10.576,3.424,15.561,5.5
	c7.369,3.069,17.794,8.283,20.192,16.579c1.67,5.776,0.943,9.811,6.048,14.046c4.571,3.792,9.828,6.918,14.81,10.162
	c1.701,1.108,6.858,5.163,8.746,3.298c1.212-1.197,0.385-5.701,0.438-7.22c0.109-3.115,0.288-6.336,0.6-9.431
	c1.133-11.244,9.656-24.7,19.147-30.667c6.229-3.916,14.081-6.267,21.047-2.503c3.175,1.716,5.752,7.36,9.26,5.462
	c4.704-2.545,5.149-13.587,7.228-18.131c3-6.555,7.096-11.959,12.772-16.441c5.749-4.54,11.32-5.877,9.833-14.138
	c-1.53-8.494-4.71-15.241,0.83-23.359c2.377-3.484,5.667-6.002-0.002-7.538c-7.638-2.069-17.073,0.852-24.938,0.559
	c-4.514-0.168-8.813-0.545-13.178-1.572c-4.041-0.951-8.121-0.539-12.28-0.627c-9.591-0.204-19.139-1.263-28.642-2.518
	c-4.291-0.566-8.598-1.595-12.918-0.597c-2.833,0.655-5.365,2.116-7.893,3.482c-4.159,2.248-5.563,4.636-7.976,8.313
	c-2.694,4.105-7.094,3.895-10.818,6.451c-4.116,2.826-5.439,8.564-9.745,11.083c-2.312,1.353-4.526,0.819-7.06,0.782
	c-3.745-0.055-7.213,0.854-10.648,2.307c-5.423,2.294-6.531,2.731-12.099,1.211c-3.954-1.08-8.157,1.927-11.989,0.481
	c-2.614-0.987-3.617-2.877-6.738-3.207c-4.189-0.443-12.552,2.669-15.923-0.628c-2.739-2.678-2.107-7.578-5.099-10.523
	C210.712,382.397,204.619,383.757,200.482,379.063z"/>
<g>
	<path style="fill:#FCBC7E;" d="M64.541,428.497c0.226,9.772-0.105,20.294,5.454,28.957c4.164,6.49,11.188,11.145,18.412,13.643
		c4.514,1.561,9.58,1.732,14.27,0.997c4.144-0.649,7.968-2.634,12.202-2.806c4.058-0.165,6.876-2.084,8.413,2.946
		c1.016,3.327,1.118,7.242,3.117,10.199c0.981,1.451,2.449,2.062,3.506,3.304c1.657,1.949,2.681,4.371,4.485,6.291
		c5.419,5.768,12.511,8.191,20.212,9.266c6.99,0.976,16.643,1.166,21.161-5.265c3.133-4.46,0.635-8.64-0.526-13.398
		c-1.594-6.533-3.437-13.355-6.703-19.295c-3.47-6.31-8.384-10.157-14.243-14.116c-5.774-3.902-12.137-6.919-19.085-4.153
		c-3.489,1.389-4.828,3.856-7.011,6.738c-0.542,0.716-2.461,2.612-3.406,2.571c-1.83-0.08-0.861-2.201-1.099-4.093
		c-0.761-6.034-4.011-12.55-7.43-17.509c-3.094-4.488-6.292-8.997-10.249-12.778c-1.839-1.757-3.828-3.387-6.01-4.703
		c-2.021-1.22-4.345-1.316-6.262-2.482c-6.091-3.704,4.624-9.365,5.882-13.222c1.118-3.427,0.503-7.035-0.185-10.532
		c-0.592-3.009-1.109-10.686-3.841-12.724c-6.87-5.124-11.61,11.876-12.382,15.618c-1.38,6.681-1.983,13.955-6.597,19.359
		c-2.515,2.946-5.771,4.273-7.844,7.703C67.536,421.074,64.486,426.11,64.541,428.497z"/>
	<path style="fill:#FCBC7E;" d="M255.341,446.582c-13.856,0.571-26.498,0.746-38.433,9.04c-5.844,4.061-11.52,12.46-10.365,19.964
		c1.234,8.014,7.454,14.138,13.692,18.559c15.292,10.84,32.776,12.047,50.993,10.331c14.591-1.374,41.842-16.749,33.053-35.453
		c-4.205-8.949-12.898-11.835-21.261-15.743C274.39,449.247,264.58,446.248,255.341,446.582z"/>
	<path style="fill:#FCBC7E;" d="M365.963,444.773c-6.275,0.043-14.147,1.697-18.812,6.148c-6.733,6.426-11.184,14.418-13.815,23.225
		c-1.727,5.782-4.378,15.531-1.837,21.447c2.758,6.421,12.354,6.009,17.978,5.133c15.294-2.384,27.257-11.56,34.335-24.925
		c1.394-2.632,2.547-4.656,5.558-5.059c1.494-0.2,3.573,0.634,5.077,0.728c2.992,0.187,5.957-0.242,8.933-0.587
		c9.589-1.112,17.705-3.169,26.401-7.342c7.925-3.803,13.598-10.701,16.895-18.767c2.05-5.015,4.869-12.082,2.655-17.483
		c-2.523-6.154-8.724-11.324-14.125-14.77c-5.778-3.686-7.468-6.085-6.834-12.73c0.607-6.363-1.489-14.805-5.286-19.966
		c-2.185-2.969-6.435-7.1-9.783-4.85c-3.722,2.501-5.531,11.075-5.757,15.307c-0.332,6.208,3.124,8.915,5.478,13.952
		c2.833,6.061-4.887,9.528-9.222,12.037c-7.179,4.155-12.594,11.601-15.393,19.33c-1.005,2.776-3.267,17.801-7.09,17.311
		c-1.201-0.154-1.729-2.258-2.507-3.03c-1.192-1.182-2.871-1.879-4.334-2.631C370.958,445.445,368.616,444.443,365.963,444.773z"/>
</g>
<path d="M444.751,412.93c-3.02-3.522-7.602-6.334-12.404-8.413c1.475-12.263-1.88-24.922-11.931-32.928
	c-5.304-4.225-12.002-5.148-18.604-5.387c-7.564-0.274-15.087,0.145-22.66,0.421c-9,0.328-17.897,0.068-26.775-0.646
	c0.2-0.197,0.399-0.399,0.603-0.587c2.756-2.53,5.297-5.059,7.605-8.014c4.593-5.879,8.324-12.045,12.514-18.178
	c3.965-5.803,6.845-12.488,9.744-18.874c3.408-7.508,6.253-15.06,8.443-23.025c2.146-7.808,2.909-15.559,3.33-23.615
	c0.4-7.64,0.588-15.98-0.696-23.528c-0.581-3.415-1.193-6.817-1.808-10.219c-0.25-1.965-0.523-3.918-0.84-5.843
	c-0.795-4.839-1.628-9.631-2.528-14.446c-1.072-5.732-0.885-11.105-0.548-16.893c0.314-5.389-7.195-5.691-8.86-1.199
	c-3.744,10.098-10.252,18.436-16.783,26.858c-1.614,2.082-3.404,4.009-5.293,5.838c-1.12,0.73-2.462,1.578-3.907,2.529
	c0.324-0.985,0.633-1.963,0.915-2.924c1.985-6.758,3.788-14.177,4.285-21.214c0.771-10.929-1.22-22.417-5.82-32.504
	c-0.704-1.907-1.493-3.811-2.399-5.718c-5.451-11.483-14.076-21.512-21.422-31.89c-0.671-1.268-1.318-2.548-1.917-3.851
	c-3.37-7.333-6.667-14.472-7.246-22.637c-0.456-6.433,1.6-12.854,3.587-18.925c0.967-2.955-2.946-6.419-5.641-4.337
	c-3.722,2.875-6.113,7.736-8.885,11.507c-3.544,4.819-5.983,10.175-8.213,15.684c-1.723,4.256-3.715,8.533-5.366,12.9
	c-0.023-0.228-0.053-0.454-0.071-0.683c-0.453-5.787-0.418-11.416,0.14-17.2c0.664-6.877,1.134-13.813,1.304-20.757
	c0.216-1.669,0.41-3.344,0.57-5.03c0.572-6.033-0.132-11.773-0.556-17.789c-0.812-11.527-6.29-22.134-11.531-32.177
	c-2.971-5.694-5.797-11.453-8.512-17.27c-2.443-5.234-5.342-11.001-5.858-16.87c-0.337-3.84-5.491-7.166-8.513-3.526
	c-3.402,4.099-4.205,10.213-5.672,15.234c-0.961,3.29-2.075,6.296-3.416,9.203c-9.969,14.235-23.381,26.182-29.976,42.506
	c-1.327,3.284-2.415,6.542-3.297,9.808c-2.313,7.722-3.3,15.827-2.949,23.932c0.012,0.275,0.023,0.551,0.035,0.826
	c0.001,0.086,0.001,0.17,0.002,0.256c0.122,6.772,0.41,13.543,0.69,20.305c-1.051-2.655-2.176-5.238-3.157-7.676
	c-1.387-3.446-2.694-6.937-4.142-10.341c-1.434-3.369-3.714-11.7-9.097-8.703c-4.168,2.32-2.701,11.551-3.369,15.536
	c-0.597,1.987-1.33,3.948-2.048,5.83c-2.505,6.566-5.895,12.654-9.055,18.921c-2.79,5.535-6.26,11.017-9.513,16.306
	c-2.963,4.818-5.229,10.101-7.205,15.407c-1.276,2.945-2.486,5.918-3.591,8.918c-4.955,13.449-5.156,26.176-2.772,40.175
	c0.164,0.961,0.332,1.942,0.501,2.924c0.278,3.804,0.68,7.671,1.373,11.454c-1.866-2.003-3.732-3.963-5.506-5.864
	c-4.803-5.148-9.604-10.298-14.828-15.03c-2.437-2.207-4.906-4.323-7.251-6.631c-1.657-1.631-3.087-3.068-5.352-3.792
	c-2.023-0.646-3.694,0.383-4.521,1.952c-0.535,0.378-0.898,0.96-0.826,1.715c0.275,2.886,1.043,5.73,1.872,8.581
	c1.24,5.386,2.484,10.693,2.494,16.462c0.013,7.007-0.577,14.075-1.24,21.057c-1.497,15.773-5.564,31.199-4.431,47.11
	c0.39,5.482,1.729,10.573,3.422,15.668c1.571,8.075,4.033,15.981,7.76,23.28c3.004,5.882,7.26,11.147,11.381,16.357
	c0.584,0.843,1.178,1.673,1.794,2.476c0.984,1.282,1.99,2.475,3.021,3.612c1.968,2.333,4.14,4.537,6.617,6.28
	c0.4,0.332,0.802,0.665,1.212,0.994c-3.813,0.964-7.618,1.973-11.489,2.62c-7.859,1.315-15.776,1.103-23.664,0.305
	c-12.043-1.218-26.857-4.731-37.311,3.719c-5.304,4.287-8.28,10.95-9.429,17.53c-0.519,2.971-1.081,5.931-0.975,8.963
	c0.124,3.544,0.071,6.174-3.012,7.993c-0.452,0.267-0.9,0.535-1.344,0.805c-3.151,1.242-6.043,2.968-8.32,5.566
	c-1.734,1.978-2.848,4.008-3.531,6.094c-1.092,2.216-1.834,4.571-2.091,7.206c-1.076,11.026,1.594,23.95,7.968,33.151
	c5.642,8.144,13.977,15.348,24.236,16.383c4.899,0.494,9.899,0.042,14.731-0.769c4.506-0.756,10.084-1.243,13.203-4.916
	c0.372,4.192,1.267,8.404,2.987,12.116c5.028,10.849,15.396,18.693,26.747,22.097c10.489,3.146,22.71,0.731,32.151-4.66
	c5.579-3.186,10.341-7.009,15.129-11.243c1.683-1.488,3.778-3.382,5.367-5.523c2.498,4.908,7.022,7.938,11.295,11.676
	c2.768,2.421,5.784,4.376,8.962,6.082c5.091,3.194,10.867,5.33,16.713,6.857c13.12,3.934,27.16,4.752,40.365,0.448
	c8.484-2.766,15.307-8.878,21.359-15.112c2.134-2.198,3.931-4.651,5.188-7.304c0.997,0.72,2.013,1.395,2.951,2.041
	c3.724,2.567,7.808,5.177,11.786,7.355c0.09,0.049,0.181,0.1,0.271,0.149c4.872,3.31,10.13,5.934,15.638,7.401
	c3.093,0.972,6.264,1.552,9.502,1.441c8.729-0.298,18.101-3.517,25.741-7.671c6.816-3.706,11.611-10.155,14.531-17.233
	c0.619-1.499,1.139-2.99,1.569-4.475c8.042,2.661,17.512,1.669,25.616,0.057c3.549-0.706,6.776-1.862,9.779-3.368
	c5.024-1.797,9.663-4.574,13.215-8.51c1.408-1.559,2.629-3.31,3.704-5.18c5.308-5.911,9.711-12.702,11.076-20.65
	C453.345,428.967,450.85,420.043,444.751,412.93z M414.575,378.252c6.732,5.364,8.836,14.786,9.956,23.533
	c-0.799-0.216-1.587-0.417-2.349-0.588c-3.158-0.709-6.371-1.201-9.586-1.68c-0.887-2.661-2.074-5.28-2.053-8.274
	c0.033-4.67,2.647-8.54,3.833-12.803C414.443,378.38,414.506,378.308,414.575,378.252z M358.485,374.271
	c5.333,0.953,10.696,1.566,16.132,1.215c7.124-0.461,14.244-1.939,21.326-2.087c1.193-0.005,2.383,0.01,3.565,0.058
	c0.138,0.007,0.277,0.008,0.415,0.017c0.088,0.004,0.176,0.012,0.264,0.016c2.779,0.189,5.55,0.653,8.312,1.543
	c0.927,0.298,1.78,0.666,2.599,1.066c-3.92,3.875-5.77,10.951-6.025,15.945c-0.088,1.727-0.041,4.059,0.349,6.344
	c-0.069-0.012-0.138-0.023-0.206-0.035c-5.5-0.991-10.948-2.188-16.419-3.333c-19.42-4.066-38.587-10.142-57.689-15.394
	c-6.247-1.717-13.479-3.018-20.498-3.041c0.166-0.407,0.342-0.822,0.577-1.24c0.063-0.113,0.139-0.204,0.205-0.312
	c2.415-2.149,4.972-3.991,8.552-4.518c6.634-0.976,13.918,1.03,20.47,2.032C346.311,373.448,352.395,373.991,358.485,374.271z
	 M264.434,397.924c-3.942-1.702-8.748-2.059-12.894-0.954c-1.88,0.501-3.85,1.399-5.54,2.459c-0.097,0.024-0.195,0.04-0.291,0.067
	c-0.2-0.436-0.486-0.862-0.878-1.266c-5.687-5.849-13.202-6.449-20.493-4.679c-0.161-0.953-0.427-2.322-0.52-2.618
	c-0.593-1.872-1.369-3.373-2.534-4.951c-2.326-3.15-5.14-5.698-8.699-7.334c-2.796-1.285-5.73-1.949-8.714-2.195
	c-0.329-1.107-0.506-2.46-0.988-3.411c-0.566-1.118-1.256-2.211-2.122-3.132c-0.03-0.167-0.086-0.34-0.187-0.516
	c-0.863-1.508-1.963-2.718-3.021-4.007c-1.164-3.456-2.94-6.578-4.835-9.962c-4.541-8.11-9.185-16.669-11.691-25.678
	c-0.462-1.659-0.797-3.316-1.045-4.971c-0.471-7.315,0.551-14.664-0.476-21.942c-0.382-2.7-4.572-10.406-0.861-11.334
	c3.34-0.835,9.704,7.119,12.039,8.994c3.37,2.706,5.583,6.325,8.408,9.523c2.067,2.339,4.546,4.336,6.994,6.261
	c1.159,0.911,5.118,3.337,4.228-0.591c-0.597-2.639-1.929-5.011-2.647-7.641c-0.838-3.068-1.545-6.206-2.293-9.3
	c-0.448-1.853-0.784-3.645-1.043-5.416c-0.633-6.045-0.719-12.122,0.308-18.166c2.198-12.934,8.047-24.215,14.248-35.599
	c6.354-11.665,12.346-24.098,15.455-37.086c1.298-5.419,2.314-11.127,2.644-16.698c0.153-2.586,0.024-5.17-0.143-7.75
	c1.805,2.642,3.402,5.436,4.777,7.924c3.441,6.227,6.104,12.968,9.056,19.451c0.134,0.294,0.311,0.531,0.516,0.716
	c0.626,1.298,2.341,4.826,4.279,2.632c0.858-0.972-0.363-3.244-0.537-4.365c-0.762-4.904-0.666-10.171-1.012-15.132
	c-0.497-7.136,0.621-14.823,2.03-21.812c1.239-6.145,2.854-12.279,4.998-18.177c0.165-0.455,0.349-0.906,0.526-1.357
	c-0.271,8.555,0.016,17.062,1.968,25.677c3.281,14.477,11.198,26.85,19.233,39.084c3.233,4.922,6.87,9.178,9.288,14.629
	c3.158,7.118,4.241,14.614,4.572,22.348c-0.008,0.594-0.004,1.186-0.033,1.785c-0.402,8.319-1.097,17.276-3.512,25.263
	c-1.791,5.925-5.05,11.385-6.512,17.382c-0.349,1.432-0.541,3.094,0.375,4.249c1.257,1.584,11.022-8.146,11.83-9.08
	c1.212-1.241,2.353-2.569,3.412-4.008c0.022-0.025,0.045-0.052,0.067-0.076c1.103-1.219,2.062-2.482,2.945-3.794
	c-1.014,3.848-2.335,7.633-3.776,11.313c-1.751,4.472-3.037,9.181-5.087,13.537c-1.254,2.665-4.914,7.195-4.529,10.221
	c0.168,1.323,0.892,2.923,2.414,3.171c2.031,0.332,4.251-0.387,6.307-1.358c4.984-1.358,10.617-6.017,13.29-8.123
	c4.435-3.493,7.988-8.047,10.818-12.904c1.478-2.536,2.643-5.179,3.82-7.861c0.333-0.759,2.862-5.122,2.682-5.497
	c2.831,5.914,2.477,14.445,2.872,20.214c0.542,7.921-0.064,15.682-0.488,23.59c-0.394,7.366-1.063,14.895-3.173,21.981
	c-0.943,3.167-1.997,6.708-3.745,9.548c-0.91,1.479-1.807,2.512-2.372,3.71c-3.913-0.059-7.794,0.433-11.306,2.117
	c-4.184,2.006-9.514,7.002-9.84,12.103c-1.644,0.253-3.25,0.599-4.797,1.059c-6.528,1.942-12.894,7.799-14.301,14.672
	c-0.351-0.083-0.697-0.177-1.052-0.251C277.384,391.465,268.225,392.837,264.434,397.924z M269.536,412.714
	c1.535,2.353,2.888,4.816,4.249,7.272c4.802,8.671,7.959,18.166,12.818,26.805c0.875,1.555,1.901,3.09,2.981,4.626
	c-1.03-0.473-1.964-0.875-2.706-1.198c-9.622-4.183-20.385-5.901-30.795-6.733c-10.362-0.828-22.01,0.95-31.581,5.003
	c-1.585,0.671-3.053,1.428-4.431,2.257c0.262-0.405,0.518-0.807,0.762-1.205c4.164-6.808,8.144-14.124,10.818-21.642
	c1.683-4.73,3.864-8.975,6.425-13.274c0.54-0.906,1.031-1.862,1.508-2.834c1.029-1.51,2.138-2.961,3.381-4.308
	c1.262-1.368,2.704-2.664,4.302-3.687c2.108-0.447,4.252-0.711,5.798-0.863c3.25-0.319,6.427,0.196,9.279,1.646
	C265.267,406.714,267.596,409.741,269.536,412.714z M153.607,346.686c-0.483-0.61-0.962-1.22-1.439-1.83
	c-1.835-3.031-3.577-6.122-5.295-9.195c-4.73-8.466-8.923-18.155-11.263-28.007c-1.395-7.141-1.932-14.425-1.264-21.969
	c1.289-14.544,4.334-28.845,4.892-43.467c0.01-0.251,0.016-0.502,0.025-0.753c0.424-5.123,0.823-10.275,0.491-15.395
	c-0.223-3.428-0.848-6.732-1.582-10.005c0.694,0.703,1.412,1.395,2.211,2.069c0.92,0.776,1.81,1.545,2.688,2.313
	c4.312,4.101,8.325,8.436,12.391,12.768c4.017,5.046,8.336,9.654,12.088,14.929c2.971,4.176,5.76,8.766,9.934,11.823
	c3.869,2.833,8.325-2.549,6.244-6.244c-6.593-11.707-9.205-27.053-11.184-40.25c-0.567-3.781-0.991-7.551-1.065-11.322
	c0.214-4.555,0.756-9.053,1.608-13.498c1.559-5.986,3.965-11.722,6.398-17.401c5.228-12.204,12.061-23.47,17.802-35.409
	c0.817-1.699,1.522-3.396,2.15-5.105c1.437-3.912,2.719-10.975,6.269-13.363c0.743,0.673,0.987,1.452,1.373,2.389
	c2.463,5.99,3.752,12.386,6.199,18.381c1.084,2.655,7.457,14.574,10.476,6.035c1.88-5.316,1.381-11.245,1.389-16.803
	c0.009-6.095-0.399-12.276-0.682-18.368c-0.298-6.417-0.279-12.642,0.474-18.722c0.796-5.102,2.013-10.094,3.75-15.075
	c0.75-1.9,1.603-3.789,2.601-5.667c5.733-10.781,15.119-19.014,22.229-28.849c3.494-4.833,7.214-9.694,9.684-15.146
	c0.737-1.626,1.399-3.29,2.027-4.966c0.911,2.027,1.94,3.964,2.64,5.636c2.022,4.826,4.853,9.429,7.351,14.035
	c3.324,6.128,6.99,11.98,9.402,18.573c2.416,6.606,3.216,14.018,3.385,20.998c0.165,6.828,0.051,13.614-0.336,20.42
	c-0.354,6.22-1.25,12.452-1.363,18.684c-0.111,6.138-0.138,12.049,0.417,18.203c0.514,5.702,2.138,13.029,6.644,16.843
	c1.076,0.911,2.518,0.936,3.534,0.285c0.544,0.108,1.112,0.028,1.702-0.308c2.755-1.571,3.055-11.975,3.494-14.917
	c0.395-2.65,1.053-5.139,1.901-7.559c0.696-1.58,1.395-3.158,2.06-4.749c0.274-0.656,0.546-1.312,0.818-1.968
	c0.265-0.531,0.533-1.062,0.812-1.594c1.458-2.778,3.037-5.484,4.605-8.195c-0.021,6.694,1.179,13.148,3.592,19.43
	c4.929,12.831,12.412,24.45,20.349,35.634c4.321,6.088,7.787,12.593,10.094,19.476c1.313,6.252,1.694,12.718,1.252,19.402
	c-0.5,7.553-1.915,14.796-3.598,22.163c-1.199,5.25-3.396,10.203-4.28,15.553c-0.336,2.035-1.267,6.139,0.152,7.991
	c1.302,1.7,2.628,1.544,3.819,0.62c0.081-0.039,0.15-0.096,0.228-0.142c4.081-0.66,8.547-5.623,11.281-7.703
	c4.989-3.795,10.021-7.753,13.855-12.772c0.044-0.058,0.088-0.115,0.132-0.173c0.144-0.12,0.293-0.232,0.435-0.354
	c4.429-3.794,7.931-8.441,10.69-13.531c0.682,3.725,1.388,7.439,1.913,11.196c1.344,9.62,2.021,19.302,2.619,28.996
	c0.259,4.193-0.329,8.247-0.339,12.425c-0.01,4.634-0.354,9.452-1.226,14.013c-1.247,6.528-3.235,12.874-4.923,19.282
	c-2.629,6.485-5.478,12.869-8.705,19.07c-3.844,7.386-9.551,13.745-14.565,20.35c-2.206,2.906-4.449,5.646-7.05,8.212
	c-1.609,1.587-3.254,3.127-4.757,4.82c-0.706,0.734-1.359,1.511-1.959,2.332c-0.238,0.235-0.382,0.396-0.443,0.491
	c-1.367,0.553-2.17,1.572-2.502,2.729c-1.612-0.21-3.223-0.428-4.837-0.668c-0.617-0.092-1.254-0.172-1.883-0.257
	c0.656-0.905,1.255-1.851,1.735-2.885c1.615-3.478,2.746-7.174,3.74-10.863c0.4-1.485,0.72-2.985,1.007-4.491
	c2.322-7.279,3.906-15.217,4.715-22.758c0.775-7.224-0.617-15.23-2.122-22.323c-0.155-0.729-0.373-1.434-0.603-2.131
	c-0.009-0.116-0.014-0.232-0.023-0.349c-0.527-6.848-1.757-16.174-6.504-21.499c-0.926-1.039-2.714-1.194-3.876-0.497
	c-2.73,1.637-4.275,5.491-5.934,8.105c-3.069,4.837-6.564,9.434-10.114,13.921c-2.589,3.273-5.256,6.654-8.438,9.355
	c-1.092,0.927-2.257,1.809-3.461,2.611c0.071-0.144,0.139-0.291,0.209-0.435c0.891-1.591,1.72-3.227,2.422-4.978
	c1.474-3.678,2.6-7.471,3.684-11.277c0.033-0.089,0.064-0.18,0.098-0.269c1.698-4.523,3.201-9.501,3.992-14.268
	c0.433-2.607,0.36-5.241,0.86-7.836c0.022-0.114,0.045-0.229,0.066-0.343c0.443-2.083,1.208-3.982,1.133-6.139
	c-0.095-2.709-3.482-4.326-5.48-2.27c-1.954,2.011-2.824,5.104-4.274,7.534c-0.953,1.599-1.91,3.192-2.864,4.786
	c1.393-5.807,2.012-11.79,1.957-17.483c-0.136-14.141-1.391-28.461-9.84-40.371c-8.535-12.03-18.494-24.362-22.573-38.819
	c-2.092-7.414-3.985-14.947-3.98-22.7c0.002-3.888-0.178-7.828,0.039-11.713c0.006-0.11,0.02-0.218,0.027-0.328
	c1.039-5.277,3.248-10.552,2.772-15.849c-0.626-6.961-7.975,4.953-8.58,6.008c-2.925,5.099-5.406,10.459-7.263,16.04
	c-2.199,6.605-3.959,13.356-5.159,20.219c-0.788,4.508-1.453,9.375-1.532,14.128c-0.117-0.213-0.24-0.437-0.354-0.645
	c-1.943-3.546-4.339-6.714-6.582-10.08c-1.499-2.25-3.027-5.025-5.061-6.833c-2.29-2.037-5.847-0.633-5.979,2.477
	c-0.257,6.03,0.861,12.079,0.426,18.172c-0.472,6.612-1.848,13.453-3.909,19.742c-4.482,13.68-11.17,26.025-17.959,38.639
	c-6.126,11.383-10.417,24.042-10.938,37.027c-0.235,5.877,0.3,11.784,1.472,17.552c-1.75-1.733-3.55-3.397-5.354-4.977
	c-3.637-3.185-7.191-6.529-11.093-9.402c-3.328-2.45-7.598-5.946-11.662-6.879c-2.84-0.652-5.153,2.281-3.746,4.873
	c9.111,16.791,3.347,35.976,9.766,53.501c2.98,8.137,7.255,15.542,11.896,22.83c1.314,2.064,2.772,4.002,4.132,6.015
	c-5.781-1.683-12.087-1.895-18.038-1.298c-5.975,0.6-9.208-2.128-13.141-6.871C158.562,353.868,156.314,350.105,153.607,346.686z
	 M100.008,375.032c11.189-3.604,22.532-0.28,33.883,0.454c11.675,0.755,22.838-2.264,34.128-4.712
	c6.785-1.471,13.797-1.944,20.672-0.684c3.631,0.666,6.745,1.909,8.63,5.255c0.213,0.378,0.376,0.753,0.528,1.123
	c-2.52,0.197-5.037,0.598-7.5,1.102c-17.668,3.612-35.227,8.849-52.551,13.786c-9.614,2.74-19.214,5.786-28.88,8.532
	c-2.146,0.339-4.296,0.658-6.445,0.981c1.234-4.304,1.327-9.037,0.44-13.29c-0.604-2.893-1.787-5.671-3.706-7.911
	c-0.808-0.944-1.69-2.149-2.707-3.114C97.575,375.958,98.735,375.442,100.008,375.032z M93.048,379.03
	c1.226,3.003,3.755,5.965,4.257,9.028c0.806,4.915-0.084,9.375-2.075,13.93c-1.608,0.256-3.216,0.516-4.824,0.801
	c-2.223,0.394-4.493,0.919-6.74,1.594C84.677,395.357,86.395,385.066,93.048,379.03z M118.672,463.33
	c-0.191,0.115-0.381,0.244-0.57,0.402c-1.503,1.26-8.034,2.512-10.749,3.033c-4.938,0.947-10.151,1.118-15.084,0.091
	c-5.244-1.091-9.858-3.113-13.676-6.117c-1.101-1.105-2.147-2.298-3.144-3.561c-5.85-7.412-8.491-17.264-8.478-26.599
	c0.007-4.881,1.373-8.736,4.517-12.555c0.427-0.518,0.895-1.003,1.378-1.475c4.751-2.196,11.452-2.878,15.793-2.44
	c7.467,0.753,14.382,4.975,19.182,10.606c4.463,5.235,8.064,11.735,9.922,18.384c1.49,5.332,1.628,10.819,2.248,16.224
	C119.61,460.666,119.153,462.001,118.672,463.33z M121.849,437.504c-2.893-7.454-7.266-14.28-12.52-19.214
	c-3.717-3.491-8.457-6.279-13.497-7.782c1.457-0.316,2.909-0.644,4.363-0.966c0.763-0.047,1.528-0.099,2.295-0.164
	c15.578-1.306,30.303-6.383,44.865-11.813c11.527-3.147,23.131-6.173,34.777-8.754c7.402-1.64,15.042-4.722,22.774-3.348
	c3.195,0.568,5.969,1.96,8.109,4.416c1.97,2.262,2.272,4.367,2.923,6.696c-2.396,1.127-4.665,2.405-6.714,3.715
	c-11.115,7.105-22.119,14.34-33.333,21.278c-6.15,3.805-12.934,6.726-19.671,9.367c-5.807,2.277-11.802,3.828-17.327,6.706
	c-5.507,2.868-10.415,5.465-13.768,10.881C124.599,444.801,123.43,441.079,121.849,437.504z M174.69,490.113
	c-0.612,2.285-1.62,4.305-3.18,5.554c-0.465,0.372-0.979,0.676-1.545,0.899c-7.008,2.757-15.919,2.08-22.682-0.953
	c-7.65-3.431-15.867-9.495-19.678-16.999c-5.024-9.892-1.189-22.191,7.486-28.714c1.635-0.8,3.378-1.377,5.185-1.703
	c3.889,0.222,7.82,1.083,10.168,1.958c5.759,2.147,12.419,7.944,16.25,12.737c4.035,5.049,5.088,11.656,6.49,17.763
	c0.695,3.026,1.424,5.753,1.509,8.904C174.697,489.743,174.691,489.928,174.69,490.113z M205.434,459.602
	c-1.286,2.122-2.354,4.315-3.101,6.613c-0.986,2.745-1.637,5.628-1.743,8.521c-0.221,0.083-0.439,0.189-0.65,0.338
	c-3.01,2.145-4.749,5.02-7.472,7.567c-0.384,0.359-0.773,0.695-1.158,1.045c-3.438,2.541-6.824,5.186-10.361,7.509
	c0.026-2.537-0.416-5.191-0.973-7.741c-0.24-2.859-0.949-5.793-1.991-8.677c-1.64-6.919-4.148-13.823-9.626-18.624
	c-6.001-5.259-12.301-10.525-20.42-11.758c-0.289-0.044-0.588-0.085-0.886-0.126c1.191-0.438,2.376-0.884,3.526-1.378
	c4.179-1.796,8.341-3.581,12.403-5.637c0.453-0.23,0.9-0.471,1.35-0.704c5.079-1.998,10.049-4.246,14.739-7.083
	c9.031-5.464,17.932-11.259,26.654-17.206c7.577-5.167,24.59-17.331,32.939-7.866c0.007,0.008,0.014,0.014,0.021,0.022
	c-3.607,3.213-6.303,8.104-8.606,11.867c-2.095,3.422-3.67,7.032-5.236,10.714c-1.655,3.893-3.995,7.285-5.973,11.013
	C214.888,445.517,209.554,452.212,205.434,459.602z M298.789,479.972c-1.866,7.293-11.868,11.741-17.365,15.799
	c-0.218,0.161-0.391,0.34-0.535,0.527c-4.079,1.659-8.181,3.117-12.721,3.981c-8.027,1.528-16.852,0.843-24.791-0.926
	c-8.118-1.809-16.571-3.886-22.969-9.466c-2.692-2.348-5.274-4.971-7.608-7.661c-1.766-2.035-2.931-4.223-4.113-6.419
	c2.505-16.635,20.036-24.044,35.958-26.344c4.009-0.327,8.029-0.279,11.92,0.109c8.636,0.861,17.828,2.274,25.869,5.686
	c2.601,1.104,5.061,2.334,7.436,3.854c0.589,0.377,1.152,0.789,1.708,1.213c3.726,3.642,6.944,8.961,7.543,14.358
	C299.318,476.456,299.232,478.238,298.789,479.972z M328.494,490.638c-3.78-2.088-7.191-4.622-10.841-6.905
	c-0.488-0.305-1.115-0.658-1.8-1.044c-1.677-1.213-3.378-2.376-5.125-3.445c-0.48-0.464-0.867-0.939-1.096-1.42
	c-0.243-0.509-0.551-0.904-0.894-1.221c2.899-8.362-6.174-20.465-10.333-26.536c-5.773-8.426-10.244-17.798-14.477-27.043
	c-3.356-7.329-7.131-15.773-13.444-21.238c0.964-0.39,1.921-0.737,2.828-1.016c3.835-1.181,7.194-0.683,10.855,0.366
	c3.267,1.349,6.37,3.328,9.341,4.954c2.979,1.631,5.909,3.333,8.822,5.062c1.795,1.292,3.569,2.571,5.337,3.754
	c11.607,7.765,23.958,15.154,36.438,21.607c0.475,0.246,0.945,0.5,1.422,0.742c0.222,0.112,0.447,0.216,0.669,0.327
	c0.638,0.324,1.274,0.658,1.912,0.977c1.937,0.968,4.075,1.886,6.302,2.812c1.015,0.442,2.033,0.88,3.051,1.319
	c-3.932,1.032-7.453,2.482-11.033,5.616c-5.321,4.659-10.069,10.599-13.44,16.817c-2.76,5.089-4.271,10.497-4.58,16.243
	C328.266,483.984,327.791,487.625,328.494,490.638z M372.924,487.024c-5.207,4.815-12.721,7.619-19.544,9.286
	c-4.371,1.068-8.971,1.556-13.331,0.196c-1.289-0.402-2.562-0.951-3.82-1.567c-1.207-1.322-2.004-3.175-2.503-5.209
	c0.271-2.415,0.135-5.064,0.313-6.684c0.835-7.617,2.684-13.456,7.148-19.891c0.461-0.664,0.939-1.332,1.427-1.998
	c0.421-0.466,0.846-0.925,1.281-1.367c5.621-5.716,11.929-11.65,20.507-11.892c1.87-0.053,3.704,0.188,5.463,0.666
	c6.69,4.077,11.743,9.601,11.519,18.499C381.214,473.79,377.901,482.421,372.924,487.024z M381.728,447.293
	c-4.483-4.534-10.385-7.615-16.318-10.067c-18.026-7.449-35.745-17.369-51.988-28.161c-7.145-4.747-13.989-10.069-21.737-13.534
	c0.248-0.738,0.5-1.464,0.788-2.155c2.628-3.697,5.285-6.894,11.091-7.822c8.023-1.283,17.552,0.148,25.28,2.295
	c7.541,2.095,15.117,4.1,22.693,6.112c17.726,6.616,35.47,13.824,54.483,15.418c0.481,0.04,0.96,0.07,1.44,0.103
	c-6.066,3.144-11.897,8.729-15.171,12.294C385.76,428.883,382.005,437.886,381.728,447.293z M439.874,446.006
	c-0.587,1.058-1.218,2.093-1.892,3.094c-4.975,7.392-12.983,14.813-21.581,17.507c-0.639,0.2-1.301,0.388-1.972,0.569
	c-4.386,0.651-8.935,0.419-13.273-0.412c-2.715-0.52-9.245-1.772-10.749-3.033c-0.188-0.158-0.378-0.288-0.57-0.402
	c-0.206-0.569-0.406-1.139-0.601-1.709c-0.319-1.661-0.8-3.322-1.451-4.984c-0.807-3.542-1.057-7.148-0.097-10.867
	c1.942-7.528,5.069-13.256,9.788-19.313c2.726-3.5,5.988-6.815,9.713-9.354c2.393-1.519,4.83-2.785,7.562-3.607
	c0.854-0.257,1.598-0.442,2.283-0.675c1.236-0.246,2.501-0.401,3.8-0.436c3.582-0.096,7.908,0.649,11.87,2.182
	c4.197,2.654,7.556,6.276,9.548,11.129c0.259,0.632,0.467,1.267,0.652,1.903C443.697,433.585,442.018,440.219,439.874,446.006z"/>
<path d="M140.439,185.023c8.176-4.393,15.547-15.969,19.233-24.248c5.028-11.296,8.418-22.477,9.938-34.784
	c1.335-10.808-1.701-22.085-7.128-31.401c-4.998-8.579-12.002-20.928-21.816-24.44c-3.682-1.318-6.503,3.219-4.828,6.28
	c5.334,9.746,1.918,19.849-1.683,29.591c-3.604,9.749-7.261,18.988-8.705,29.373c-1.41,10.144-1.125,20.466,1.125,30.472
	C127.67,170.74,132.268,189.413,140.439,185.023z M134.487,121.393c2.728-8.682,6.951-16.814,9.166-25.675
	c0.925-3.7,1.852-7.621,1.893-11.459c0.002-0.188-0.013-0.37-0.017-0.557c5.026,4.593,9.345,10.488,12.486,15.718
	c6.043,10.059,6.382,21.256,4.456,32.532c-1.657,9.702-5.028,19.739-9.879,28.347c-2.249,3.992-4.855,8.198-7.82,11.68
	c-1.353,1.589-4.728,6.64-7.252,5.998c-2.229-0.566-3.268-6.14-3.924-7.996c-1.798-5.095-2.678-10.635-3.095-15.999
	C129.646,142.97,131.182,131.913,134.487,121.393z"/>
<path d="M366.17,67.49c-0.004-0.018-0.009-0.036-0.012-0.054c-0.136-1.55-0.349-3.091-0.658-4.616
	c-2.044-10.072-8.777-17.988-16.301-24.649c-4.319-3.823-8.974-7.329-12.313-12.081c-2.826-4.021-4.268-8.131-5.52-12.605
	c0.123-2.626,0.613-5.31,1.341-8.101c0.373-1.427-1.03-3.181-2.585-2.585c-0.953,0.365-1.871,0.926-2.759,1.611
	c-3.159,0.977-5.251,4.198-7.122,6.893c-2.834,4.082-4.567,8.962-6.157,13.643c-3.596,10.585-5.289,22.111-2.793,33.152
	c2.344,10.369,9.188,18.956,15.269,27.45c3.672,5.129,6.786,11.346,7.828,17.615c0.971,5.843-0.547,11.005-1.217,16.742
	c-0.473,4.046,4.716,4.971,7.184,2.976c4.112-3.325,8.312-7.982,11.508-12.194c3.065-4.039,6-8.203,8.156-12.791
	C365.38,88.731,368.234,78.283,366.17,67.49z M343.654,107.621c0.006-0.314,0.024-0.625,0.016-0.941
	c-0.142-5.782-1.816-11.174-4.096-16.442c-4.029-9.308-11.029-17.023-16.295-25.629c-5.674-9.271-5.853-20.887-3.472-31.223
	c1.18-5.119,2.685-10.307,4.864-15.097c0.346-0.761,0.74-1.495,1.145-2.224c0.287,7.097,3.454,13.699,8.688,18.912
	c7.381,7.352,16.585,13.014,21.651,22.378c5.595,10.342,2.811,21.878-1.018,32.317c-1.628,4.437-3.9,8.855-6.688,12.95
	C346.9,104.332,345.279,105.98,343.654,107.621z"/>
<g>
</g>
<g>
</g>
<g>
</g>
<g>
</g>
<g>
</g>
<g>
</g>
<g>
</g>
<g>
</g>
<g>
</g>
<g>
</g>
<g>
</g>
<g>
</g>
<g>
</g>
<g>
</g>
<g>
</g>
</svg>
