<?xml version="1.0"?>
<svg xmlns="http://www.w3.org/2000/svg" xmlns:xlink="http://www.w3.org/1999/xlink" version="1.1" id="Capa_1" x="0px" y="0px" viewBox="0 0 512 512" style="enable-background:new 0 0 512 512;" xml:space="preserve" width="512px" height="512px" class=""><g><path style="fill:#755E51;" d="M376.139,165.329l51.541,36.996v191.123l-1.459,0.416c-15.223,4.33-31.351,7.117-47.933,8.283  l-2.149,0.151V165.329z" data-original="#755E51"/><rect x="253.992" y="235.48" style="fill:#FBC640;" width="83.336" height="104.237" data-original="#FBC640"/><path style="fill:#917464;" d="M359.227,402.819c-31.62,0-65.454-5.47-100.564-16.258l-4.671-1.432v-49.429h79.32v-96.206h-79.32  V77.625l126.163,90.586v233.801l-1.864,0.134C372.054,402.593,365.64,402.819,359.227,402.819z" data-original="#917464" class=""/><path style="fill:#F7BE10" d="M56.989,221.81c-7.109,0-13.824-3.444-17.961-9.214c-2.709-3.781-4.141-8.226-4.141-12.856  c0-7.109,3.438-13.824,9.199-17.964L256,29.634l211.914,152.141c9.895,7.107,12.168,20.933,5.069,30.821  c-4.138,5.767-10.854,9.209-17.965,9.209c-4.631,0-9.076-1.432-12.856-4.141l-65.186-46.793L256,84.011L69.85,217.664  C66.072,220.377,61.625,221.809,56.989,221.81z" data-original="#EFEFEF" class="active-path" data-old_color="#F7BE0F"/><path style="fill:#917464;" d="M255.417,385.569c-42.74-12.971-83.739-22.402-121.858-28.034l-1.715-0.253V168.211l126.164-90.586  v161.87h-79.31v96.206h79.31v50.655L255.417,385.569z" data-original="#917464" class=""/><rect x="174.682" y="235.48" style="fill:#FBC640;" width="83.325" height="104.237" data-original="#FBC640"/><path style="fill:#755E51;" d="M133.559,357.535c-16.279-2.412-32.211-4.14-47.353-5.133l-1.876-0.123V202.324l51.531-36.997  v192.538L133.559,357.535z" data-original="#755E51"/><path style="fill:#F7BE10" d="M8.031,481.902V351.429l1.548-0.364c0.642-0.151,16.065-3.695,46.963-3.695  c9.52,0,19.59,0.345,29.926,1.026c15.25,1.001,31.291,2.74,47.678,5.167c38.315,5.66,79.508,15.136,122.436,28.165l3.257,0.995  c34.73,10.671,68.167,16.082,99.387,16.082c6.317,0,12.633-0.223,18.776-0.664c16.309-1.148,32.162-3.887,47.12-8.141  c50.462-14.364,75.09-41.681,75.333-41.955l3.511-3.964l0.001,137.822H8.031z" data-original="#EFEFEF" class="active-path" data-old_color="#F7BE0F"/><path d="M505.535,340.011c-3.886-1.487-8.299-0.407-11.074,2.691c-0.21,0.234-19.478,21.363-58.749,35.465V222.922l1.772,1.272  c5.151,3.692,11.215,5.644,17.534,5.644c9.692,0,18.848-4.695,24.489-12.557c9.683-13.486,6.585-32.339-6.908-42.029L261.856,23.95  c-3.5-2.512-8.211-2.512-11.71,0L39.398,175.254c-7.854,5.645-12.543,14.799-12.543,24.486c0,6.318,1.952,12.381,5.646,17.536  c4.69,6.54,11.646,10.86,19.588,12.166c1.652,0.271,3.305,0.406,4.947,0.406c6.246,0,12.323-1.944,17.498-5.658l1.764-1.268v116.872  c-44.731-1.987-67.54,3.215-68.558,3.452C3.205,344.314,0,348.361,0,353.019v126.876c0,5.545,4.495,10.039,10.039,10.039h491.922  c5.544,0,10.039-4.495,10.039-10.039v-130.52C512,345.213,509.422,341.497,505.535,340.011z M415.634,384.189  c-8.886,2.184-18.063,3.835-27.447,4.927V188.8l27.447,19.706V384.189z M143.892,346.945V174.39l16.976-12.189v17.069  c0,5.545,4.495,10.039,10.039,10.039s10.039-4.495,10.039-10.039v-31.485l27.959-20.074v4.154c0,5.545,4.495,10.039,10.039,10.039  c5.545,0,10.039-4.495,10.039-10.039v-18.571l16.976-12.189v126.343H176.69c-5.545,0-10.039,4.495-10.039,10.039v100.222  c0,5.545,4.495,10.039,10.039,10.039h69.271v22.463C210.464,359.943,176.222,352.135,143.892,346.945z M245.961,327.67h-59.231  v-80.143h59.231V327.67z M266.039,247.527h59.241v80.143h-59.241V247.527z M266.039,347.748h69.281  c5.544,0,10.039-4.495,10.039-10.039V237.487c0-5.545-4.496-10.039-10.039-10.039h-69.281V101.106l37.747,27.101v41.035  c0,5.545,4.496,10.039,10.039,10.039c5.544,0,10.039-4.495,10.039-10.039v-26.62l44.243,31.764V390.6  c-31.863,1.086-66.125-3.751-102.069-14.414V347.748z M62.823,207.878c-2.178,1.564-4.834,2.185-7.48,1.75s-4.963-1.874-6.524-4.05  c-1.234-1.722-1.885-3.741-1.885-5.838c0-3.289,1.525-6.271,4.178-8.179L256,44.464L460.886,191.56  c4.5,3.232,5.537,9.517,2.308,14.013c-1.908,2.66-4.889,4.185-8.177,4.185c-2.098,0-4.117-0.652-5.832-1.88L261.856,73.384  c-0.042-0.03-0.087-0.056-0.13-0.085c-0.099-0.069-0.202-0.135-0.304-0.201c-0.15-0.096-0.301-0.189-0.454-0.276  c-0.109-0.062-0.219-0.124-0.331-0.183c-0.162-0.084-0.325-0.162-0.491-0.236c-0.106-0.048-0.211-0.099-0.319-0.145  c-0.262-0.108-0.527-0.207-0.796-0.291c-0.089-0.028-0.181-0.049-0.271-0.074c-0.2-0.057-0.401-0.11-0.603-0.155  c-0.111-0.024-0.225-0.045-0.338-0.065c-0.199-0.036-0.399-0.067-0.599-0.091c-0.101-0.012-0.203-0.026-0.305-0.035  c-0.304-0.028-0.609-0.046-0.915-0.046l0,0h-0.001c-0.304,0-0.608,0.018-0.912,0.046c-0.104,0.009-0.207,0.023-0.31,0.036  c-0.198,0.024-0.396,0.054-0.592,0.09c-0.115,0.021-0.231,0.042-0.345,0.067c-0.197,0.043-0.393,0.095-0.587,0.152  c-0.095,0.027-0.192,0.049-0.286,0.078c-0.266,0.084-0.53,0.182-0.79,0.289c-0.112,0.046-0.222,0.099-0.332,0.151  c-0.161,0.073-0.32,0.148-0.477,0.23c-0.114,0.06-0.227,0.122-0.339,0.187c-0.152,0.086-0.3,0.178-0.448,0.272  c-0.103,0.066-0.206,0.133-0.306,0.202c-0.042,0.029-0.087,0.055-0.13,0.085L80.48,195.202l0,0L62.823,207.878z M123.814,188.806  v155.214c-9.319-1.211-18.489-2.189-27.437-2.933V208.505L123.814,188.806z M491.922,469.855H20.078V361.526  c10.777-1.426,32.727-3.275,65.601-1.109c14.925,0.98,30.638,2.682,46.705,5.064c37.71,5.571,78.298,14.91,120.594,27.743  c0.029,0.009,0.058,0.017,0.087,0.026l3.238,0.99c43.257,13.291,84.488,18.649,122.548,15.918  c17.134-1.206,33.811-4.089,49.567-8.57c0.001,0,0.002,0,0.003-0.001c0.056-0.016,0.109-0.033,0.166-0.049  c0.038-0.011,0.076-0.022,0.113-0.034c29.015-8.3,49.944-20.545,63.221-30.246V469.855z" data-original="#000000" class="" style="fill:#000000"/><path d="M122.579,428.175c-22.756,0-45.511,0-68.267,0c-12.919,0-12.941,20.078,0,20.078c22.756,0,45.511,0,68.267,0  C135.498,448.254,135.519,428.175,122.579,428.175z" data-original="#000000" class="" style="fill:#000000"/><path d="M152.696,428.175c-12.919,0-12.941,20.078,0,20.078C165.616,448.254,165.637,428.175,152.696,428.175z" data-original="#000000" class="" style="fill:#000000"/></g> </svg>
