<?xml version="1.0" encoding="iso-8859-1"?>
<!-- Generator: Adobe Illustrator 19.0.0, SVG Export Plug-In . SVG Version: 6.00 Build 0)  -->
<svg version="1.1" id="Capa_1" xmlns="http://www.w3.org/2000/svg" xmlns:xlink="http://www.w3.org/1999/xlink" x="0px" y="0px"
	 viewBox="0 0 511.997 511.997" style="enable-background:new 0 0 511.997 511.997;" xml:space="preserve">
<path style="fill:#A35D45;" d="M289.756,390.879l43.758,43.758c-37.942,83.473-153.286,68.755-153.286,68.755v-29.295
	c24.307,0,44.013-19.706,44.013-44.013"/>
<path style="fill:#BA7052;" d="M364.935,390.879l43.758,43.758c-37.942,83.473-153.286,68.755-153.286,68.755v-29.295
	c24.307,0,44.013-19.706,44.013-44.013"/>
<polygon style="fill:#F7CB92;" points="172.979,171.195 172.979,300.289 218.792,300.289 218.792,381.518 347.986,352.681 
	367.715,257.068 357.091,137.17 194.699,143.241 "/>
<path style="fill:#75706B;" d="M196.078,360.128v69.957h81.917c64.076,0,116.02-51.944,116.02-116.02v-142.87h-66.52v105.531
	c0,13.013-10.549,23.564-23.564,23.564H196.078"/>
<path style="fill:#605B58;" d="M353.541,171.196v142.869c0,64.076-51.944,116.02-116.02,116.02h40.474
	c64.076,0,116.02-51.944,116.02-116.02V171.196H353.541z"/>
<path style="fill:#E2D0C5;" d="M306.503,171.195l3.072,24.321c2.581,20.431,19.958,35.751,40.552,35.751h85.38l-31.373-60.072"/>
<path style="fill:#75706B;" d="M417.79,101.449c-38.507,0-74.352-19.431-95.558-51.572C305.421,24.4,276.541,7.589,243.733,7.589
	c-37.971,0-70.683,22.52-85.508,54.932c-10.754,23.511-33.838,38.929-59.692,38.929h-0.505v69.746h388.464v-1.043
	C486.493,132.208,455.734,101.449,417.79,101.449L417.79,101.449z"/>
<g>
	<path style="fill:#605B58;" d="M417.79,101.449L417.79,101.449c-38.507,0-74.352-19.431-95.558-51.573
		C305.421,24.4,276.541,7.589,243.733,7.589c-3.723,0-7.391,0.224-11.001,0.645c24.055,3.28,44.861,19.048,57.571,41.643
		c18.08,32.14,48.638,51.573,81.465,51.573l0,0c32.348,0,58.57,30.759,58.57,68.702v1.043h56.154v-1.043
		C486.493,132.208,455.735,101.449,417.79,101.449z"/>
	<circle style="fill:#605B58;" cx="250.126" cy="234.322" r="32.45"/>
</g>
<circle style="fill:#BA7052;" cx="228.554" cy="91.42" r="40.565"/>
<path d="M417.79,93.86c-35.971,0-69.325-18.005-89.224-48.163C309.686,17.083,277.973,0,243.733,0
	c-39.642,0-75.914,23.302-92.41,59.364c-9.585,20.955-30.307,34.496-52.791,34.496h-0.506c-4.191,0-7.589,3.398-7.589,7.589v69.746
	c0,4.191,3.398,7.589,7.589,7.589h263.776c4.191,0,7.589-3.398,7.589-7.589c0-4.191-3.398-7.589-7.589-7.589H105.617v-54.923
	c25.604-2.562,48.47-18.872,59.509-43.006C179.159,35,210.014,15.178,243.733,15.178c29.124,0,56.102,14.534,72.165,38.879
	c22.716,34.428,60.807,54.981,101.893,54.981c31.487,0,57.489,23.937,60.765,54.569h-91.454c-4.191,0-7.589,3.398-7.589,7.589
	c0,4.191,3.398,7.589,7.589,7.589h99.39c4.191,0,7.589-3.398,7.589-7.589v-1.044C494.081,128.084,459.858,93.86,417.79,93.86z"/>
<path d="M196.078,307.878c4.191,0,7.589-3.398,7.589-7.589s-3.398-7.589-7.589-7.589h-15.511V191.433
	c0-4.191-3.398-7.589-7.589-7.589s-7.589,3.398-7.589,7.589V216.7l-13.877-2.312c-4.126-0.693-8.043,2.104-8.732,6.239
	c-0.689,4.133,2.105,8.044,6.239,8.732l16.372,2.728v68.203c0,4.191,3.398,7.589,7.589,7.589h23.098V307.878z"/>
<path d="M278.434,206.016c-7.561-7.563-17.616-11.727-28.31-11.727c-8.353,0-16.308,2.551-22.997,7.266l-16.058-13.067
	c-3.251-2.645-8.03-2.154-10.676,1.096c-2.645,3.251-2.154,8.031,1.096,10.676l15.056,12.252
	c-4.199,6.435-6.459,13.949-6.459,21.814c0,10.694,4.165,20.749,11.727,28.31c7.562,7.563,17.616,11.727,28.31,11.727
	c8.119,0,15.866-2.405,22.436-6.87l18.718,18.718c1.481,1.481,3.424,2.223,5.366,2.223s3.884-0.741,5.366-2.223
	c2.964-2.964,2.964-7.769,0-10.732l-18.718-18.718c4.464-6.57,6.87-14.317,6.87-22.436
	C290.161,223.632,285.996,213.578,278.434,206.016z M232.544,251.905c-4.696-4.696-7.281-10.938-7.281-17.579
	c0-6.641,2.586-12.883,7.281-17.579s10.938-7.281,17.579-7.281c6.641,0,12.883,2.586,17.579,7.281
	c4.696,4.695,7.281,10.938,7.281,17.579c0,6.641-2.586,12.883-7.281,17.579c-4.695,4.696-10.938,7.281-17.579,7.281
	C243.482,259.186,237.24,256.6,232.544,251.905z"/>
<path d="M327.495,240.374c-4.191,0-7.589,3.398-7.589,7.589v28.763c0,8.808-7.166,15.975-15.975,15.975H251.24
	c-4.191,0-7.589,3.398-7.589,7.589s3.398,7.589,7.589,7.589h52.691c17.178,0,31.153-13.975,31.153-31.153v-28.763
	C335.084,243.772,331.686,240.374,327.495,240.374z"/>
<path d="M401.603,314.065v-61.041c0-4.191-3.398-7.589-7.589-7.589s-7.589,3.398-7.589,7.589v61.041
	c0,59.789-48.642,108.431-108.431,108.431h-74.328v-62.368c0-4.191-3.398-7.589-7.589-7.589c-4.191,0-7.589,3.398-7.589,7.589
	v69.957c0,4.191,3.398,7.589,7.589,7.589h81.917C346.153,437.673,401.603,382.222,401.603,314.065z"/>
<path d="M196.078,338.513h20.357c4.119,0,8.014,1.997,10.417,5.342l5.619,7.818c1.482,2.063,3.809,3.16,6.169,3.16
	c1.534,0,3.082-0.463,4.423-1.427c3.403-2.446,4.179-7.188,1.733-10.592l-5.619-7.818c-5.248-7.301-13.75-11.66-22.742-11.66
	h-20.357c-4.191,0-7.589,3.398-7.589,7.589S191.887,338.513,196.078,338.513z"/>
<path d="M180.405,91.42c0,26.55,21.6,48.15,48.15,48.15s48.149-21.6,48.149-48.149s-21.6-48.15-48.15-48.15
	C202.005,43.269,180.405,64.87,180.405,91.42z M261.527,91.42c0,18.181-14.791,32.972-32.972,32.972s-32.972-14.791-32.972-32.972
	s14.791-32.972,32.972-32.972C246.736,58.447,261.527,73.239,261.527,91.42z"/>
<path d="M386.035,401.247c-2.964-2.965-7.769-2.964-10.732,0c-2.964,2.964-2.964,7.769,0,10.732l24.207,24.208
	c-15.212,29.485-43.035,48.519-82.785,56.608c-22.766,4.633-43.53,4.247-53.731,3.623v-15.292
	c14.209-2.107,27.009-10.07,35.196-22.187c2.346-3.473,1.433-8.191-2.04-10.537c-3.475-2.346-8.19-1.434-10.537,2.04
	c-6.796,10.059-18.088,16.064-30.208,16.064c-4.191,0-7.589,3.398-7.589,7.589v17.3c-25.192,6.082-48.878,5.695-60,5.019v-15.289
	c14.208-2.108,27.008-10.071,35.196-22.19c2.346-3.473,1.434-8.19-2.04-10.536c-3.472-2.347-8.19-1.434-10.536,2.04
	c-6.798,10.061-18.091,16.067-30.209,16.067c-4.191,0-7.589,3.398-7.589,7.589v29.293c0,3.82,2.839,7.044,6.629,7.528
	c0.708,0.09,8.781,1.081,21.121,1.081c12.687,0,29.89-1.055,48.237-5.206c1.103,2.194,3.24,3.795,5.82,4.125
	c0.632,0.081,8.693,1.076,21.067,1.076c11.649,0,27.121-0.882,43.806-4.238c46.424-9.338,79.719-33.536,96.283-69.979
	c1.309-2.88,0.695-6.269-1.542-8.507L386.035,401.247z"/>
<path d="M317.866,475.954c-3.713-5.64-12.624-3.628-13.773,2.915c-1.237,7.042,7.513,11.735,12.7,6.793
	C319.439,483.139,319.872,478.998,317.866,475.954z"/>
<path d="M420.865,186.84c-1.94-3.714-6.523-5.154-10.24-3.214c-3.714,1.94-5.153,6.524-3.214,10.24l15.57,29.812h-72.856
	c-16.729,0-30.925-12.516-33.022-29.113c-0.526-4.159-4.326-7.101-8.48-6.578c-4.158,0.525-7.103,4.322-6.578,8.48
	c3.053,24.166,23.723,42.389,48.081,42.389h85.38c2.654,0,5.115-1.386,6.491-3.656c1.375-2.271,1.465-5.094,0.236-7.446
	L420.865,186.84z"/>
<path d="M221.017,73.149c-2.964-2.964-7.769-2.964-10.732,0c-2.964,2.964-2.964,7.768,0,10.732l7.538,7.538l-7.538,7.538
	c-2.964,2.964-2.964,7.768,0,10.732c1.481,1.482,3.424,2.223,5.366,2.223s3.884-0.741,5.366-2.223l7.538-7.538l7.538,7.538
	c1.481,1.482,3.424,2.223,5.366,2.223s3.884-0.741,5.366-2.223c2.964-2.964,2.964-7.768,0-10.732l-7.538-7.538l7.538-7.538
	c2.964-2.964,2.964-7.768,0-10.732c-2.964-2.964-7.769-2.964-10.732,0l-7.538,7.538L221.017,73.149z"/>
<path d="M103.645,256.268c-7.966,0-15.159,3.364-20.237,8.746c-5.077-5.382-12.271-8.746-20.237-8.746
	c-4.191,0-7.589,3.398-7.589,7.589c0,4.191,3.398,7.589,7.589,7.589c6.975,0,12.648,5.673,12.648,12.648
	c0,4.191,3.398,7.589,7.589,7.589s7.589-3.398,7.589-7.589c0-6.975,5.673-12.648,12.648-12.648c4.191,0,7.589-3.398,7.589-7.589
	C111.234,259.666,107.836,256.268,103.645,256.268z"/>
<path d="M65.978,213.771c4.191,0,7.589-3.398,7.589-7.589c0-4.191-3.398-7.589-7.589-7.589c-7.966,0-15.159,3.364-20.237,8.746
	c-5.077-5.382-12.271-8.746-20.237-8.746c-4.191,0-7.589,3.398-7.589,7.589c0,4.191,3.398,7.589,7.589,7.589
	c6.975,0,12.648,5.673,12.648,12.648c0,4.191,3.398,7.589,7.589,7.589s7.589-3.398,7.589-7.589
	C53.33,219.445,59.005,213.771,65.978,213.771z"/>
<g>
</g>
<g>
</g>
<g>
</g>
<g>
</g>
<g>
</g>
<g>
</g>
<g>
</g>
<g>
</g>
<g>
</g>
<g>
</g>
<g>
</g>
<g>
</g>
<g>
</g>
<g>
</g>
<g>
</g>
</svg>
