<?xml version="1.0"?>
<svg xmlns="http://www.w3.org/2000/svg" xmlns:xlink="http://www.w3.org/1999/xlink" version="1.1" id="Capa_1" x="0px" y="0px" viewBox="0 0 512 512" style="enable-background:new 0 0 512 512;" xml:space="preserve" width="512px" height="512px" class=""><g><rect id="SVGCleanerId_0" x="199.965" y="347.568" style="fill:#C3C7C9;" width="112.221" height="128.248" data-original="#C3C7C9" class=""/><g>
	<rect x="199.965" y="315.504" style="fill:#C3C7C9;" width="112.221" height="32.063" data-original="#C3C7C9" class=""/>
	<polygon style="fill:#C3C7C9;" points="504.562,139.165 488.53,139.165 488.53,475.819 344.25,475.819 344.25,171.227    344.25,139.165 328.22,139.165 328.22,75.041 328.22,34.963 376.313,34.963 376.313,75.041 456.469,75.041 456.469,34.963    504.562,34.963  " data-original="#C3C7C9" class=""/>
</g><polygon style="fill:#5A4106" points="344.25,139.165 344.25,171.227 167.908,171.227 167.908,139.165 183.939,139.165   183.939,75.041 224.017,34.963 288.142,34.963 328.22,75.041 328.22,139.165 " data-original="#434648" class="active-path" data-old_color="#5B4206"/><polygon style="fill:#C3C7C9;" points="183.939,75.041 183.939,139.165 167.908,139.165 167.908,171.227 167.908,475.819   23.628,475.819 23.628,139.165 7.597,139.165 7.597,34.963 55.69,34.963 55.69,75.041 135.846,75.041 135.846,34.963   183.939,34.963 " data-original="#C3C7C9" class=""/><g>
	<polygon style="fill:#A2A6A8;" points="55.69,75.041 55.69,34.963 7.597,34.963 7.597,139.165 23.628,139.165 23.628,475.819    71.721,475.819 71.721,75.041  " data-original="#A2A6A8" class=""/>
	<polygon style="fill:#A2A6A8;" points="376.313,75.041 376.313,34.963 328.22,34.963 328.22,75.041 328.22,139.165 344.25,139.165    344.25,475.819 392.344,475.819 392.344,75.041  " data-original="#A2A6A8" class=""/>
</g><g>
	<rect id="SVGCleanerId_0_1_" x="199.965" y="347.568" style="fill:#C3C7C9;" width="112.221" height="128.248" data-original="#C3C7C9" class=""/>
</g><rect x="199.965" y="315.504" style="fill:#84878A;" width="112.221" height="32.063" data-original="#84878A" class=""/><polygon style="fill:#9C731C" points="344.25,171.227 344.25,475.819 312.189,475.819 312.189,347.57 312.189,315.508   199.97,315.508 199.97,347.57 199.97,475.819 167.908,475.819 167.908,171.227 " data-original="#696D6E" class="" data-old_color="#9B721B"/><g>
	<path style="fill:#E7ECED;" d="M256.079,83.057c13.306,0,24.047,10.741,24.047,24.047s-10.741,24.047-24.047,24.047   c-13.306,0-24.047-10.741-24.047-24.047C232.032,93.797,242.773,83.057,256.079,83.057z" data-original="#E7ECED" class=""/>
	<rect x="207.983" y="219.32" style="fill:#E7ECED;" width="96.184" height="48.094" data-original="#E7ECED" class=""/>
</g><path style="fill:#231F20;" d="M448.872,28.055v40.077h-65.121V28.055h-63.128v29.446l-29.447-29.446h-70.352l-29.446,29.446V28.055  h-63.129v40.077H63.128V28.055H0v119.237h16.031v16.529h15.035v-16.529h48.592v-15.035H15.035V43.09h33.058v40.077h95.19V43.09  h33.059v89.167h-16.031V252.49h-56.608v15.035h56.608v129.245h-56.608v15.035h56.608v57.106H31.066V363.713h88.669v-15.035H31.066  V219.432h88.669v-15.035H31.066v-16.533H16.031v296.081H495.97V324.13h-15.035v72.641h-56.608v15.035h56.608v57.106H351.688V363.713  h88.669v-15.035h-88.669V219.432h88.669v-15.035h-88.669v-57.106h48.592v-15.035h-64.623V43.09h33.058v40.077h95.191V43.09h33.059  v89.167h-16.031V252.49h-56.608v15.035h56.608v32.558h15.035V147.292H512V28.055H448.872z M304.592,468.911h-97.183V355.697h41.074  v32.561h15.035v-32.561h41.074v113.214H304.592z M336.653,468.911h-17.027V308.6h-71.638v15.035h56.604v17.028h-97.183v-17.028  h16.53V308.6h-31.565v160.312h-17.028V179.354h161.308v289.557H336.653z M336.653,147.292v17.028H175.347v-17.028h16.031V78.764  l35.674-35.674h57.898l35.674,35.674v68.528H336.653z" data-original="#231F20" class=""/><g>
	<rect x="247.986" y="404.791" style="fill:#FFFFFF" width="16.031" height="15.035" data-original="#FFFFFF" class=""/>
	<rect x="247.986" y="436.846" style="fill:#FFFFFF" width="16.031" height="15.035" data-original="#FFFFFF" class=""/>
	<rect x="95.692" y="132.258" style="fill:#FFFFFF" width="16.031" height="15.035" data-original="#FFFFFF" class=""/>
</g><g>
	<rect x="127.747" y="132.258" style="fill:#231F20;" width="16.031" height="15.035" data-original="#231F20" class=""/>
	<rect x="416.308" y="132.258" style="fill:#231F20;" width="16.031" height="15.035" data-original="#231F20" class=""/>
</g><rect x="448.372" y="132.258" style="fill:#FFFFFF" width="16.031" height="15.035" data-original="#FFFFFF" class=""/><g>
	<path style="fill:#231F20;" d="M256,76.148c-17.404,0-31.564,14.159-31.564,31.564c0,17.404,14.159,31.564,31.564,31.564   s31.564-14.16,31.564-31.564C287.564,90.307,273.404,76.148,256,76.148z M256,124.241c-9.114,0-16.529-7.414-16.529-16.529   c0-9.114,7.414-16.529,16.529-16.529c9.115,0,16.529,7.414,16.529,16.529S265.114,124.241,256,124.241z" data-original="#231F20" class=""/>
	<path style="fill:#231F20;" d="M311.611,212.413H200.389v63.128H311.61v-63.128H311.611z M296.576,260.506h-81.152v-33.059h81.152   V260.506z" data-original="#231F20" class=""/>
</g><rect x="71.636" y="252.487" style="fill:#FFFFFF" width="16.031" height="15.035" data-original="#FFFFFF" class=""/><rect x="71.636" y="396.773" style="fill:#231F20;" width="16.031" height="15.035" data-original="#231F20" class=""/><rect x="392.262" y="252.487" style="fill:#FFFFFF" width="16.031" height="15.035" data-original="#FFFFFF" class=""/><rect x="392.262" y="396.773" style="fill:#231F20;" width="16.031" height="15.035" data-original="#231F20" class=""/></g> </svg>
