<?xml version="1.0" encoding="iso-8859-1"?>
<!-- Generator: Adobe Illustrator 19.0.0, SVG Export Plug-In . SVG Version: 6.00 Build 0)  -->
<svg version="1.1" id="Layer_1" xmlns="http://www.w3.org/2000/svg" xmlns:xlink="http://www.w3.org/1999/xlink" x="0px" y="0px"
	 viewBox="0 0 512 512" style="enable-background:new 0 0 512 512;" xml:space="preserve">
<g>
	<path style="fill:#A07852;" d="M504.5,136.993v90.008H7.5v-90.008c0-25.522,20.702-46.212,46.225-46.212h404.551
		C483.798,90.78,504.5,111.47,504.5,136.993z"/>
	<rect x="7.5" y="225.89" style="fill:#A07852;" width="497" height="204.7"/>
</g>
<g>
	<rect x="7.5" y="225.89" style="fill:#896746;" width="497" height="39.42"/>
	<rect x="125.7" y="225.89" style="fill:#896746;" width="40.482" height="204.7"/>
	<rect x="345.82" y="225.89" style="fill:#896746;" width="40.482" height="204.7"/>
	<rect x="125.7" y="90.78" style="fill:#896746;" width="40.482" height="136.22"/>
	<rect x="345.82" y="90.78" style="fill:#896746;" width="40.482" height="136.22"/>
</g>
<g>
	<path style="fill:#FFE164;" d="M256,309.804L256,309.804c-22.931,0-41.52-18.589-41.52-41.52v-41.521h83.041v41.521
		C297.52,291.215,278.931,309.804,256,309.804z"/>
	<path style="fill:#FFE164;" d="M448.405,226.763H384.17V94.084c0-7.004,5.678-12.682,12.682-12.682h38.871
		c7.004,0,12.682,5.678,12.682,12.682L448.405,226.763L448.405,226.763z"/>
	<path style="fill:#FFE164;" d="M127.83,226.763H63.595V94.084c0-7.004,5.678-12.682,12.682-12.682h38.871
		c7.004,0,12.682,5.678,12.682,12.682C127.83,94.084,127.83,226.763,127.83,226.763z"/>
	<rect x="384.17" y="226.76" style="fill:#FFE164;" width="64.23" height="203.84"/>
	<rect x="63.59" y="226.76" style="fill:#FFE164;" width="64.23" height="203.84"/>
</g>
<path d="M512,137c0-29.621-24.099-53.72-53.72-53.72h-5.539c-3.585-5.627-9.865-9.378-17.017-9.378h-38.871
	c-7.153,0-13.432,3.751-17.017,9.378H132.165c-3.585-5.627-9.865-9.378-17.017-9.378H76.277c-7.153,0-13.432,3.751-17.017,9.378
	h-5.54C24.099,83.28,0,107.379,0,137v90c0,0.163,0.014,0.322,0.024,0.482c-0.007,0-0.014,0-0.021,0v203.116
	c0,4.143,3.358,7.5,7.5,7.5h496.994c4.142,0,7.5-3.357,7.5-7.5V315.003c0-4.143-3.358-7.5-7.5-7.5s-7.5,3.357-7.5,7.5v108.095
	h-41.092V234.5h41.092v50.848c0,4.143,3.358,7.5,7.5,7.5s7.5-3.357,7.5-7.5v-58.29c0-0.02,0.003-0.039,0.003-0.058L512,137L512,137z
	 M376.67,423.098H135.33v-86.1c0-4.143-3.358-7.5-7.5-7.5s-7.5,3.357-7.5,7.5v54.935H71.095V234.5h49.234v71.833
	c0,4.143,3.358,7.5,7.5,7.5c4.142,0,7.5-3.357,7.5-7.5V234.5h71.65v33.783c0,27.03,21.991,49.021,49.021,49.021
	s49.021-21.99,49.021-49.021V234.5h71.65L376.67,423.098L376.67,423.098z M221.979,234.5h68.041v33.783
	c0,18.759-15.262,34.021-34.021,34.021s-34.021-15.262-34.021-34.021L221.979,234.5L221.979,234.5z M135.33,219.5v-39.479h241.34
	V219.5H135.33z M455.905,219.5v-39.479H497V219.5H455.905z M497,137v28.021h-41.095V133.42h40.924
	C496.937,134.6,497,135.793,497,137z M376.67,118.421H339c-4.142,0-7.5,3.357-7.5,7.5c0,4.143,3.358,7.5,7.5,7.5h37.67v31.601
	H135.33v-31.601h169.003c4.142,0,7.5-3.357,7.5-7.5s-3.358-7.5-7.5-7.5H135.33V98.28h241.34V118.421z M56.095,165.021H15V137
	c0-1.207,0.063-2.4,0.172-3.579h40.924L56.095,165.021L56.095,165.021z M15,180.021h41.095V219.5H15V180.021z M492.24,118.421
	h-36.336V98.28h2.375C472.902,98.28,485.653,106.428,492.24,118.421z M396.852,88.902h38.871c2.857,0,5.182,2.324,5.182,5.182
	v125.179H391.67V94.084C391.67,91.227,393.995,88.902,396.852,88.902z M76.277,88.902h38.871c2.857,0,5.182,2.324,5.182,5.182
	v125.179H71.095V94.084C71.095,91.227,73.42,88.902,76.277,88.902z M53.72,98.28h2.375v20.141H19.76
	C26.347,106.428,39.098,98.28,53.72,98.28z M15.003,234.5h41.092v188.598H15.003V234.5z M71.095,423.098v-16.165h49.234v16.165
	H71.095z M391.67,423.098v-16.165h49.234v16.165H391.67z M440.905,391.933H391.67V234.5h49.234L440.905,391.933L440.905,391.933z"/>
<path d="M256,280.757c4.142,0,7.5-3.357,7.5-7.5v-22.259c0-4.143-3.358-7.5-7.5-7.5s-7.5,3.357-7.5,7.5v22.259
	C248.5,277.399,251.858,280.757,256,280.757z"/>
<g>
</g>
<g>
</g>
<g>
</g>
<g>
</g>
<g>
</g>
<g>
</g>
<g>
</g>
<g>
</g>
<g>
</g>
<g>
</g>
<g>
</g>
<g>
</g>
<g>
</g>
<g>
</g>
<g>
</g>
</svg>
