<?xml version="1.0" encoding="iso-8859-1"?>
<!-- Generator: Adobe Illustrator 19.0.0, SVG Export Plug-In . SVG Version: 6.00 Build 0)  -->
<svg version="1.1" id="Layer_1" xmlns="http://www.w3.org/2000/svg" xmlns:xlink="http://www.w3.org/1999/xlink" x="0px" y="0px"
	 viewBox="0 0 512 512" style="enable-background:new 0 0 512 512;" xml:space="preserve">
<g>
	<path style="fill:#A67C52;" d="M13.747,501.801h109.47V114.601c-21.375-21.375-33.36-33.36-54.735-54.735l0,0
		c-21.375,21.375-33.36,33.36-54.735,54.735C13.747,114.601,13.747,501.801,13.747,501.801z"/>
	<path style="fill:#A67C52;" d="M498.254,501.801h-109.47V114.601c21.375-21.375,33.36-33.36,54.735-54.735l0,0
		c21.375,21.375,33.36,33.36,54.735,54.735L498.254,501.801L498.254,501.801z"/>
</g>
<path style="fill:#FBB03B;" d="M312.763,226.098c0-31.349-25.413-56.763-56.763-56.763s-56.763,25.413-56.763,56.763h-76.021
	v275.703h265.567V226.098H312.763z"/>
<path style="fill:#A67C52;" d="M213.324,417.751v84.05h85.353v-84.05c0-23.569-19.107-42.677-42.677-42.677l0,0
	C232.431,375.075,213.324,394.182,213.324,417.751z"/>
<g>
	<path style="fill:#333333;" d="M174.593,299.591v36.99h37.565v-36.99c0-10.374-8.409-18.783-18.783-18.783l0,0
		C183.002,280.809,174.593,289.218,174.593,299.591z"/>
	<path style="fill:#333333;" d="M49.224,350.773v36.99h37.565v-36.99c0-10.374-8.409-18.783-18.783-18.783l0,0
		C57.633,331.99,49.224,340.399,49.224,350.773z"/>
	<path style="fill:#333333;" d="M49.224,226.635v36.99h37.565v-36.99c0-10.374-8.409-18.783-18.783-18.783l0,0
		C57.633,207.854,49.224,216.263,49.224,226.635z"/>
	<path style="fill:#333333;" d="M425.212,350.773v36.99h37.565v-36.99c0-10.374-8.409-18.783-18.783-18.783l0,0
		C433.622,331.99,425.212,340.399,425.212,350.773z"/>
	<path style="fill:#333333;" d="M425.212,226.635v36.99h37.565v-36.99c0-10.374-8.409-18.783-18.783-18.783l0,0
		C433.622,207.854,425.212,216.263,425.212,226.635z"/>
	<path style="fill:#333333;" d="M299.844,299.591v36.99h37.565v-36.99c0-10.374-8.409-18.783-18.783-18.783l0,0
		C308.253,280.809,299.844,289.218,299.844,299.591z"/>
</g>
<path d="M498.253,512c5.633,0,10.199-4.566,10.199-10.199V114.601c0-2.705-1.075-5.3-2.987-7.212l-51.748-51.749V38.644h8.046
	c5.633,0,10.199-4.566,10.199-10.199s-4.566-10.199-10.199-10.199h-8.046v-8.046C453.717,4.566,449.151,0,443.518,0
	c-5.633,0-10.199,4.566-10.199,10.199v8.046h-8.046c-5.633,0-10.199,4.566-10.199,10.199s4.566,10.199,10.199,10.199h8.046v16.998
	l-51.748,51.748c-1.912,1.912-2.987,4.507-2.987,7.212V215.9h-56.397c-4.414-28.773-27.216-51.555-55.988-55.972v-19.923h8.046
	c5.633,0,10.199-4.566,10.199-10.199c0-5.633-4.566-10.199-10.199-10.199H266.2v-8.046c0-5.633-4.566-10.199-10.199-10.199
	s-10.199,4.566-10.199,10.199v8.046h-8.046c-5.633,0-10.199,4.566-10.199,10.199c0,5.633,4.566,10.199,10.199,10.199h8.046v19.923
	c-28.772,4.417-51.572,27.199-55.988,55.972h-56.398V114.601c0-2.705-1.075-5.3-2.987-7.212L78.681,55.641V38.644h8.046
	c5.633,0,10.199-4.566,10.199-10.199S92.36,18.245,86.727,18.245h-8.046v-8.046C78.681,4.566,74.115,0,68.482,0
	S58.283,4.566,58.283,10.199v8.046h-8.045c-5.633,0-10.199,4.566-10.199,10.199s4.566,10.199,10.199,10.199h8.045v16.998
	L6.535,107.389c-1.912,1.912-2.987,4.506-2.987,7.212v387.199c0,5.633,4.566,10.199,10.199,10.199H498.253z M113.019,491.602H23.947
	V118.826L68.483,74.29l44.536,44.536C113.019,118.826,113.019,491.602,113.019,491.602z M273.339,236.298
	c5.633,0,10.199-4.566,10.199-10.199s-4.566-10.199-10.199-10.199h-62.763c4.664-20.784,23.253-36.364,45.424-36.364
	c25.675,0,46.563,20.888,46.563,46.563c0,5.633,4.566,10.199,10.199,10.199h65.822v255.303h-69.707v-73.85
	c0-29.155-23.72-52.876-52.876-52.876s-52.876,23.72-52.876,52.876v73.85h-69.707V236.298H273.339z M266.2,491.602v-50.996
	c0-5.633-4.566-10.199-10.199-10.199s-10.199,4.566-10.199,10.199v50.996h-22.278v-73.85c0-17.909,14.57-32.477,32.477-32.477
	s32.477,14.57,32.477,32.477v73.85H266.2z M398.982,118.826l44.537-44.536l44.536,44.536v372.776h-89.072V118.826H398.982z"/>
<path d="M212.157,346.781c5.633,0,10.199-4.566,10.199-10.199v-36.99c0-15.98-13.001-28.982-28.982-28.982
	s-28.982,13.001-28.982,28.982v36.991c0,5.633,4.566,10.199,10.199,10.199h37.566V346.781z M184.792,299.591
	c0-4.732,3.85-8.584,8.584-8.584s8.584,3.85,8.584,8.584v26.792h-17.166v-26.792H184.792z"/>
<path d="M68.006,321.791c-15.98,0-28.982,13.002-28.982,28.982v36.99c0,5.633,4.566,10.199,10.199,10.199h37.566
	c5.633,0,10.199-4.566,10.199-10.199v-36.99C96.988,334.792,83.987,321.791,68.006,321.791z M76.589,377.564H59.423v-26.791
	c0-4.733,3.85-8.584,8.584-8.584s8.584,3.85,8.584,8.584v26.791H76.589z"/>
<path d="M68.006,197.654c-15.98,0-28.982,13.001-28.982,28.982v36.991c0,5.633,4.566,10.199,10.199,10.199h37.566
	c5.633,0,10.199-4.566,10.199-10.199v-36.991C96.988,210.655,83.987,197.654,68.006,197.654z M76.589,253.428H59.423v-26.792
	c0-4.732,3.85-8.584,8.584-8.584s8.584,3.85,8.584,8.584v26.792H76.589z"/>
<path d="M443.995,321.791c-15.98,0-28.982,13.002-28.982,28.982v36.99c0,5.633,4.566,10.199,10.199,10.199h37.566
	c5.633,0,10.199-4.566,10.199-10.199v-36.99C472.976,334.792,459.975,321.791,443.995,321.791z M452.578,377.564h-17.167v-26.791
	c0-4.733,3.85-8.584,8.584-8.584c4.732,0,8.584,3.85,8.584,8.584L452.578,377.564L452.578,377.564z"/>
<path d="M415.013,226.635v36.992c0,5.633,4.566,10.199,10.199,10.199h37.566c5.633,0,10.199-4.566,10.199-10.199v-36.992
	c0-15.98-13.001-28.982-28.982-28.982S415.013,210.655,415.013,226.635z M435.412,226.635c0-4.732,3.85-8.584,8.584-8.584
	c4.732,0,8.584,3.85,8.584,8.584v26.792h-17.167V226.635z"/>
<path d="M299.844,346.781h37.565c5.633,0,10.199-4.566,10.199-10.199v-36.99c0-15.98-13.001-28.982-28.982-28.982
	s-28.982,13.001-28.982,28.982v36.991C289.645,342.215,294.211,346.781,299.844,346.781z M310.043,299.591
	c0-4.732,3.85-8.584,8.584-8.584c4.733,0,8.584,3.85,8.584,8.584v26.792h-17.166v-26.792H310.043z"/>
<path d="M256.001,396.749c-5.633,0-10.199,4.566-10.199,10.199v4.08c0,5.633,4.566,10.199,10.199,10.199
	c5.633,0,10.199-4.566,10.199-10.199v-4.08C266.2,401.315,261.634,396.749,256.001,396.749z"/>
<g>
</g>
<g>
</g>
<g>
</g>
<g>
</g>
<g>
</g>
<g>
</g>
<g>
</g>
<g>
</g>
<g>
</g>
<g>
</g>
<g>
</g>
<g>
</g>
<g>
</g>
<g>
</g>
<g>
</g>
</svg>
