<?xml version="1.0"?>
<svg xmlns="http://www.w3.org/2000/svg" xmlns:xlink="http://www.w3.org/1999/xlink" version="1.1" id="Layer_1" x="0px" y="0px" viewBox="0 0 511.999 511.999" style="enable-background:new 0 0 511.999 511.999;" xml:space="preserve" width="512px" height="512px" class=""><g><path style="fill:#F35711" d="M411.03,394.335c1.871-26.714-71.143-20.554-82.041-45.818  c-10.898-25.264,9.268-73.347-33.919-93.001c-43.187-19.655-69.278,22.914-41.111,34.59s24.806,41.296,22.816,53.415  c-1.989,12.117-18.384,40.04,18.295,58.785c36.679,18.744,38.675,32.245,38.675,32.245s85.027,11.754,83.315,11.754  C415.348,446.305,411.03,394.335,411.03,394.335z" data-original="#3EAC92" class="active-path" data-old_color="#F25711"/><path style="fill:#B8D6FD;" d="M47.124,44.969C63.018,29.527,91.26,7.591,123.452,7.591c49.679,0,89.953,52.241,89.953,52.241  s-40.273,52.241-89.953,52.241c-32.89,0-61.658-22.898-77.345-38.374L47.124,44.969z" data-original="#B8D6FD"/><path style="fill:#50C107" d="M55.235,503.923c0,0,12.167-48.667,57.793-49.681c45.626-1.014,33.459-29.403,53.737-38.528  s69.959,21.292,156.141,20.278s77.057-28.389,88.21-41.57c11.153-13.181,35.487-22.306,27.375-34.473s-33.459-119.641,3.042-152.086  s-23.32-49.681-15.209-77.057s51.709-41.57,58.807-55.765c7.097-14.195,19.264-15.209,19.264-15.209v443.077H57.263" data-original="#328777" class="" data-old_color="#50C108"/><path style="fill:#085024" d="M485.131,75.041c-1.049,2.099-2.911,4.199-5.323,6.339v353.818c0,23.416-18.982,42.397-42.397,42.397  H68.399c-9.802,12.898-13.164,26.328-13.164,26.328l2.028-1.014h447.132V59.832C504.395,59.832,492.228,60.846,485.131,75.041z" data-original="#266659" class="" data-old_color="#085125"/><g>
	<path style="fill:#3C66B1;" d="M8.105,21.304l45.332,29.749c6.454,4.235,6.454,13.696,0,17.931l-7.684,5.043L8.105,98.733   l15.395-38.528L8.105,21.304z" data-original="#3C66B1"/>
	<path style="opacity:0.11;fill:#3C66B1;enable-background:new    ;" d="M213.892,59.832c0,0-3.954-5.129-10.913-12.172   c-5.703,6.55-18.095,19.638-34.591,30.508c0.067,0.117,0.144,0.229,0.206,0.348c-4.129,2.73-8.517,5.324-13.122,7.642   c-0.082-0.121-0.158-0.243-0.239-0.364c-11.732,5.871-24.867,9.944-38.736,9.944c-32.851,0-61.587-22.841-77.287-38.318   l-0.413,0.271L20.085,69.97L8.592,98.733l37.647-24.707l0.413-0.271c15.7,15.476,44.436,38.318,77.287,38.318   c13.869,0,27.004-4.074,38.736-9.944c0.081,0.121,0.157,0.243,0.239,0.364c4.605-2.318,8.993-4.911,13.122-7.642   c-0.062-0.118-0.139-0.231-0.206-0.348C198.858,79.332,213.892,59.832,213.892,59.832z" data-original="#3C66B1"/>
</g><path style="fill:#B8D6FD;" d="M212.405,163.439c12.901-18.019,36.802-44.619,68.482-50.332  c48.891-8.817,97.796,35.447,97.796,35.447s-30.362,58.559-79.253,67.376c-32.368,5.837-64.743-11.591-82.927-24.038  L212.405,163.439z" data-original="#B8D6FD"/><g>
	<path style="fill:#3C66B1;" d="M169.806,147.074l49.892,21.231c7.102,3.022,8.781,12.333,3.183,17.646l-6.667,6.327l-32.665,30.996   l8.312-40.65L169.806,147.074z" data-original="#3C66B1"/>
	<path style="opacity:0.11;fill:#3C66B1;enable-background:new    ;" d="M379.163,148.467c0,0-4.802-4.346-12.9-10.043   c-4.45,7.458-14.322,22.538-28.628,36.164c0.087,0.102,0.182,0.2,0.265,0.305c-3.579,3.42-7.436,6.752-11.557,9.849   c-0.102-0.104-0.199-0.212-0.3-0.316c-10.504,7.859-22.707,14.2-36.357,16.661c-32.329,5.83-64.663-11.548-82.86-23.992   l-0.358,0.34l-16.235,15.405l-6.205,30.345l32.665-30.996l0.358-0.34c18.198,12.444,50.531,29.823,82.86,23.992   c13.649-2.462,25.853-8.802,36.357-16.662c0.101,0.104,0.198,0.212,0.3,0.316c4.122-3.098,7.978-6.429,11.557-9.849   c-0.082-0.105-0.177-0.203-0.265-0.305C367.829,170.326,379.163,148.467,379.163,148.467z" data-original="#3C66B1"/>
</g><path style="fill:#B8D6FD;" d="M63.584,269.905c21.019-7.02,55.982-14.533,84.988-0.569c44.762,21.551,58.387,86.09,58.387,86.09  s-58.948,29.6-103.71,8.049c-29.634-14.268-45.622-47.378-53.042-68.127L63.584,269.905z" data-original="#B8D6FD"/><g>
	<path style="fill:#3C66B1;" d="M38.694,231.656l27.939,46.469c3.978,6.615-0.127,15.14-7.778,16.156l-9.111,1.211l-44.638,5.93   l30.584-28.036L38.694,231.656z" data-original="#3C66B1"/>
	<path style="opacity:0.11;fill:#3C66B1;enable-background:new    ;" d="M207.398,355.638c0,0-1.338-6.337-4.552-15.701   c-7.979,3.428-24.822,9.845-44.402,12.483c0.01,0.134,0.03,0.27,0.034,0.403c-4.905,0.669-9.983,1.103-15.139,1.193   c-0.022-0.144-0.036-0.288-0.058-0.432c-13.117,0.2-26.718-1.827-39.216-7.844c-29.599-14.25-45.582-47.296-53.015-68.05   l-0.49,0.065l-22.185,2.947l-22.83,20.93l44.638-5.93l0.49-0.065c7.433,20.755,23.416,53.801,53.015,68.05   c12.496,6.017,26.099,8.043,39.216,7.844c0.021,0.144,0.035,0.288,0.058,0.432c5.155-0.09,10.233-0.524,15.139-1.193   c-0.004-0.133-0.024-0.269-0.034-0.403C185.393,366.686,207.398,355.638,207.398,355.638z" data-original="#3C66B1"/>
</g><path d="M509.545,54.236c-1.564-1.44-3.654-2.164-5.78-1.981c-6.101,0.508-18.322,5.163-25.434,19.385  c-1.901,3.802-10.751,9.625-18.56,14.762c-15.617,10.275-35.053,23.062-40.737,42.243c-4.517,15.245,5.637,27.098,14.596,37.553  c12.99,15.161,18.09,22.435,2.851,35.98c-21.889,19.457-23.38,59.672-20.775,89.982c2.672,31.089,10.892,63.657,16.458,72.006  c0.307,0.46,0.346,0.679,0.347,0.679c-0.09,2.303-7.815,8.154-11.966,11.298c-2.056,1.557-4.138,3.136-6.167,4.775  c-2.621-3.345-6.429-6.277-11.436-8.768c-8.046-4.003-18.241-6.596-29.035-9.342c-16.044-4.08-34.227-8.705-37.937-17.303  c-3.007-6.972-3.205-17.081-3.414-27.784c-0.468-24.049-1.053-53.977-34.339-69.126c-18.318-8.338-37.13-7.55-50.326,2.101  c-9.238,6.757-14.257,16.969-13.097,26.653c1.045,8.724,6.969,15.936,16.25,19.783c16.154,6.696,22.114,21.467,18.225,45.157  c-0.246,1.5-0.907,3.742-1.607,6.117c-4.026,13.664-12.403,42.096,23.945,60.671c15.375,7.857,24.021,14.55,28.844,19.323  c-45.922,0.215-81.221-8.618-107.095-15.114c-23.088-5.796-38.339-9.626-49.712-4.508c-9.964,4.484-13.932,12.306-17.432,19.206  c-5.135,10.122-9.191,18.117-33.353,18.654c-21.151,0.47-39.144,10.295-52.034,28.415c-9.469,13.312-12.829,26.47-12.968,27.024  c-1.019,4.075,1.458,8.204,5.533,9.223c0.618,0.154,1.239,0.229,1.85,0.229c1.351,0,2.653-0.362,3.788-1.016h445.366  c4.2,0,7.604-3.404,7.604-7.604V59.831C511.999,57.705,511.109,55.676,509.545,54.236z M282.251,352.704  c0.836-2.84,1.626-5.522,2.026-7.952c6.393-38.93-11.376-55.025-27.408-61.671c-2.914-1.207-6.488-3.496-6.973-7.541  c-0.5-4.17,2.238-9.104,6.974-12.568c4.177-3.056,15.954-9.224,35.049-0.534c24.566,11.179,24.988,32.747,25.432,55.579  c0.239,12.239,0.464,23.799,4.655,33.513c6.674,15.469,27.76,20.833,48.153,26.019c14.741,3.749,31.303,7.965,33.122,14.694  c-1.768,2.698-3.038,5.546-4.274,8.325c-2.43,5.467-5.131,11.539-13.334,16.615c-7.565-7.324-24.96-22.227-50.732-32.911  c-26.958-11.178-25.537-27.252-25.463-27.93l-0.02,0.147l-15.039-2.263c-0.171,1.142-3.765,28.147,34.698,44.095  c18.698,7.753,32.646,18.086,40.87,25.173c-7.744,2.025-17.754,3.552-30.83,4.335c-3.68-6.747-13.64-18.502-40.628-32.293  C273.413,382.699,278.109,366.764,282.251,352.704z M496.791,495.305H66.585c6.024-12.802,19.729-32.864,46.612-33.461  c33.266-0.739,40.96-15.905,46.578-26.978c3.219-6.346,5.276-10.043,10.111-12.218c6.554-2.95,21.211,0.731,39.767,5.388  c27.124,6.81,64.258,16.166,113.344,15.558c28.519-0.335,49.466-3.572,63.795-9.855c0.347-0.125,0.685-0.281,1.015-0.458  c1.345-0.617,2.653-1.253,3.878-1.927c13.608-7.492,18.007-17.384,21.22-24.608c1.341-3.015,2.499-5.62,4.017-7.414  c3.215-3.8,8.092-7.495,12.808-11.067c5.361-4.062,10.424-7.897,13.829-12.334c6.857-8.938,3.733-16.494,1.261-20.202  c-2.793-4.19-11.144-32.111-13.959-64.872c-3.261-37.942,2.324-65.4,15.726-77.312c27.043-24.039,9.923-44.021-1.406-57.243  c-8.543-9.971-13.584-16.517-11.564-23.337c4.104-13.852,20.26-24.482,34.514-33.859c10.772-7.086,20.073-13.206,23.803-20.665  c1.454-2.908,3.161-5.055,4.859-6.641v423.506H496.791z" data-original="#000000" class="" style="fill:#000000"/><path d="M15.316,60.19L1.044,95.911c-1.232,3.083-0.32,6.61,2.25,8.71c1.394,1.139,3.1,1.716,4.813,1.716  c1.448,0,2.9-0.413,4.171-1.246l32.71-21.465c16.431,15.226,45.346,36.535,78.465,36.535c52.811,0,94.237-52.949,95.975-55.202  c2.109-2.736,2.109-6.55,0-9.285c-1.738-2.254-43.163-55.202-95.975-55.202c-31.769,0-59.471,18.944-78.098,36.183L12.278,14.946  c-2.773-1.821-6.404-1.632-8.974,0.461c-2.571,2.093-3.489,5.611-2.269,8.694L15.316,60.19z M203.453,60.314  c-5.659,6.374-17.071,18.152-31.886,28.011c-9.398-17.455-9.137-37.449,0.723-55.538C186.755,42.546,197.888,54.046,203.453,60.314z   M159.194,25.039c-1.083,1.949-2.087,3.914-2.99,5.896h-62.44c-4.2,0-7.604,3.404-7.604,7.604s3.405,7.604,7.604,7.604h57.333  c-1.943,8.768-2.218,17.649-0.823,26.362h-56.51c-4.2,0-7.604,3.404-7.604,7.604s3.405,7.604,7.604,7.604h60.726  c1.12,2.794,2.431,5.549,3.921,8.257c-10.708,5.318-22.569,8.979-34.958,8.979c-26.37,0-50.399-16.683-65.348-29.957  c4.878-3.433,7.777-8.982,7.777-14.975c0-5.841-2.75-11.264-7.405-14.715c14.729-12.995,38.71-29.626,64.975-29.626  C136.144,15.678,148.284,19.511,159.194,25.039z M49.265,57.411c1.225,0.804,1.407,1.978,1.407,2.608  c0,0.629-0.183,1.803-1.407,2.607L24.13,79.121l6.43-16.095c0.721-1.804,0.724-3.814,0.009-5.62L24.014,40.84L49.265,57.411z" data-original="#000000" class="" style="fill:#000000"/><path d="M102.822,370.348c12.884,6.068,26.651,8.302,39.949,8.301c36.018-0.002,68.549-16.391,70.4-17.34  c3.074-1.577,4.699-5.026,3.957-8.4c-0.611-2.779-15.523-68.333-63.299-90.839c-28.738-13.537-61.872-8.205-86.071-0.549  l-20.672-33.733c-1.732-2.826-5.096-4.206-8.315-3.407c-3.218,0.798-5.548,3.589-5.758,6.899l-2.46,38.734L2.418,296.248  c-2.428,2.264-3.107,5.842-1.676,8.838c1.274,2.671,3.962,4.329,6.859,4.328c0.354,0,0.711-0.024,1.068-0.075l38.738-5.48  C55.783,324.636,72.86,356.235,102.822,370.348z M159.915,362.052c-1.063-19.796,7.693-37.77,24.322-49.934  c8.927,14.994,14.099,30.141,16.461,38.184C192.862,353.656,177.519,359.446,159.915,362.052z M147.347,275.83  c11.481,5.408,20.83,14.05,28.344,23.7c-1.811,1.301-3.556,2.651-5.218,4.06l-56.487-26.609c-3.8-1.79-8.33-0.159-10.12,3.639  c-1.791,3.799-0.161,8.33,3.638,10.12l51.866,24.433c-5.494,7.104-9.528,15.021-11.979,23.496l-51.121-24.081  c-3.8-1.789-8.33-0.159-10.12,3.639c-1.791,3.799-0.161,8.33,3.638,10.12l54.935,25.879c-0.177,3.004-0.165,6.055,0.028,9.139  c-11.953,0.247-24.243-1.493-35.451-6.774c-23.856-11.237-38.485-36.57-46.351-54.949c5.876-1.027,10.863-4.812,13.417-10.234  c2.489-5.283,2.312-11.362-0.428-16.466C94.805,269.461,123.586,264.635,147.347,275.83z M43.136,279.077  c1.42-1.324,2.28-3.142,2.403-5.08l1.129-17.781l15.78,25.75c0.766,1.249,0.43,2.39,0.162,2.96  c-0.268,0.569-0.934,1.553-2.385,1.759l-29.767,4.21L43.136,279.077z" data-original="#000000" class="" style="fill:#000000"/><path d="M172.173,142.252c-3.046-1.31-6.589-0.494-8.757,2.013c-2.169,2.509-2.461,6.133-0.724,8.957l20.336,33.057l-7.849,37.657  c-0.677,3.251,0.832,6.565,3.729,8.186c1.163,0.652,2.442,0.969,3.713,0.969c1.894,0,3.769-0.706,5.216-2.068l28.481-26.822  c16.101,10.381,41.963,23.556,69.516,23.554c4.665-0.001,9.384-0.378,14.105-1.212c52.008-9.178,83.603-68.519,84.922-71.039  c1.602-3.062,0.939-6.817-1.613-9.145c-2.103-1.917-52.102-46.869-104.107-37.685c-31.285,5.521-55.273,28.991-70.623,49.205  L172.173,142.252z M197.566,180.886l-9.335-15.175l27.745,11.931c1.346,0.579,1.731,1.704,1.839,2.324  c0.109,0.619,0.134,1.808-0.933,2.813l-21.885,20.611l3.536-16.967C198.93,184.52,198.584,182.54,197.566,180.886z M341.81,186.859  c-12.306-15.562-15.531-35.307-8.96-54.847c15.948,7.1,28.914,16.497,35.48,21.701C363.877,160.979,354.699,174.571,341.81,186.859z   M281.783,123.652c12.498-2.207,25.121-0.541,36.825,3.007c-0.729,2.108-1.376,4.218-1.921,6.329l-61.489,10.851  c-4.136,0.73-6.898,4.674-6.168,8.81c0.651,3.689,3.859,6.283,7.48,6.283c0.439,0,0.884-0.038,1.33-0.117l56.461-9.964  c-0.389,8.973,0.882,17.767,3.77,26.104l-55.649,9.821c-4.136,0.73-6.898,4.674-6.168,8.81c0.651,3.689,3.859,6.283,7.48,6.283  c0.439,0,0.884-0.038,1.33-0.117l59.801-10.553c1.593,2.564,3.369,5.056,5.313,7.471c-9.616,7.084-20.661,12.741-32.883,14.897  c-25.972,4.583-52.533-7.671-69.56-18.146c4.207-4.229,6.098-10.198,5.056-16.099c-1.015-5.752-4.666-10.615-9.849-13.203  C235.191,148.762,255.918,128.216,281.783,123.652z" data-original="#000000" class="" style="fill:#000000"/></g> </svg>
