<?xml version="1.0" encoding="iso-8859-1"?>
<!-- Generator: Adobe Illustrator 19.0.0, SVG Export Plug-In . SVG Version: 6.00 Build 0)  -->
<svg version="1.1" id="Capa_1" xmlns="http://www.w3.org/2000/svg" xmlns:xlink="http://www.w3.org/1999/xlink" x="0px" y="0px"
	 viewBox="0 0 512.001 512.001" style="enable-background:new 0 0 512.001 512.001;" xml:space="preserve">
<g>
	<path style="fill:#F9AF4D;" d="M257.449,502.001c-127.728,0-169.12-162.432-58.747-225.65
		c0.829,83.857,103.345,147.967,153.323,35.205C414.434,374.788,361.128,502.001,257.449,502.001L257.449,502.001z M245.79,10.001
		c-241.725,138.453-268.07,492,11.659,492c227.064,0,251.09-250.133,114.412-388.617C352.915,391.001,123.54,231.284,245.79,10.001z
		"/>
	<path style="fill:#EE1E4C;" d="M198.702,276.351c-110.373,63.218-68.98,225.65,58.747,225.65
		c103.679,0,156.984-127.213,94.576-190.445C302.047,424.317,199.531,360.208,198.702,276.351z"/>
</g>
<path d="M458.544,249.283C445.813,195.622,418.3,146.2,378.979,106.359c-2.762-2.799-6.906-3.721-10.597-2.351
	c-3.686,1.368-6.229,4.771-6.497,8.694c-3.196,46.832-12.924,84.411-28.13,108.674c-12.16,19.401-27.224,29.657-43.563,29.657
	c-18.497,0-37.536-13.553-50.93-36.254c-23.763-40.275-32.227-113.951,15.28-199.943c2.169-3.926,1.459-8.814-1.737-11.961
	c-3.195-3.147-8.095-3.78-11.986-1.553c-70.001,40.095-127.332,101.386-161.43,172.582c-16.03,33.471-26.432,67.755-30.916,101.901
	c-4.53,34.497-2.793,67.145,5.161,97.039c11.047,41.515,34.13,76.041,66.751,99.846c35.747,26.085,81.861,39.311,137.064,39.311
	c48.119,0,89.594-10.811,123.271-32.133c31.137-19.714,54.325-47.413,68.923-82.329
	C467.774,354.167,470.935,301.515,458.544,249.283z M148.685,411.204c-9.226-34.671-3.022-84.313,41.526-117.392
	c8.004,48.701,46.658,88.3,89.65,88.3c17.648,0,49.386-7.185,74.288-52.309c17.126,25.116,19.514,59.137,5.724,92.122
	c-14.163,33.878-48.507,70.076-102.424,70.076C204.439,492.001,161.746,460.286,148.685,411.204z M431.189,389.824
	c-16.387,39.197-44.864,67.914-83.033,84.752c12.766-12.655,23.048-27.903,30.169-44.937c8.928-21.353,12.201-43.956,9.468-65.362
	c-2.947-23.082-12.853-43.742-28.649-59.746c-2.323-2.354-5.662-3.407-8.915-2.813c-3.255,0.595-6.004,2.761-7.345,5.785
	c-15.608,35.214-37.99,54.608-63.023,54.608c-36.798,0-70.715-40.925-71.16-85.86c-0.035-3.549-1.948-6.814-5.027-8.578
	c-3.079-1.763-6.862-1.766-9.942-0.001c-28.098,16.094-48.794,39.392-59.853,67.375c-10.079,25.506-11.685,54.379-4.52,81.3
	c5.811,21.837,17.279,41.85,32.817,57.624c-45.114-19.943-75.844-56.031-89.212-106.27
	c-26.11-98.118,23.023-242.949,148.457-330.445c-13.173,31.295-20.297,62.506-21.229,93.143
	c-1.088,35.784,6.466,68.477,21.846,94.544c17.028,28.86,42.507,46.091,68.155,46.091c23.243,0,44.732-13.863,60.51-39.036
	c14.536-23.193,24.271-55.141,29.027-95.18C442.357,210.964,463.665,312.143,431.189,389.824z"/>
<path d="M151.59,140.38c-4.566-3.104-10.814-1.881-13.919,2.686l-0.183,0.27c-3.074,4.589-1.847,10.8,2.741,13.874
	c1.709,1.145,3.644,1.693,5.557,1.693c3.223,0,6.388-1.556,8.317-4.435l0.16-0.234C157.369,149.666,156.158,143.485,151.59,140.38z"
	/>
<path d="M135.324,164.957c-4.813-2.707-10.911-1.001-13.619,3.813c-9.344,16.611-17.27,33.958-23.556,51.559
	c-1.857,5.201,0.853,10.923,6.054,12.78c1.112,0.397,2.247,0.586,3.363,0.586c4.107,0,7.957-2.55,9.418-6.64
	c5.907-16.539,13.36-32.85,22.153-48.48C141.844,173.762,140.137,167.665,135.324,164.957z"/>
<g>
</g>
<g>
</g>
<g>
</g>
<g>
</g>
<g>
</g>
<g>
</g>
<g>
</g>
<g>
</g>
<g>
</g>
<g>
</g>
<g>
</g>
<g>
</g>
<g>
</g>
<g>
</g>
<g>
</g>
</svg>
