<?xml version="1.0" encoding="iso-8859-1"?>
<!-- Generator: Adobe Illustrator 19.0.0, SVG Export Plug-In . SVG Version: 6.00 Build 0)  -->
<svg version="1.1" id="Layer_1" xmlns="http://www.w3.org/2000/svg" xmlns:xlink="http://www.w3.org/1999/xlink" x="0px" y="0px"
	 viewBox="0 0 512 512" style="enable-background:new 0 0 512 512;" xml:space="preserve">
<path style="fill:#ADA9A7;" d="M480,280.994l16-16c-8-24-63-96-160-96c-18.006,0-32.176,0.408-51,4c-18.805-24.943-52.434-60-61-60
	c-9.333,0-64,56-64,72c0,4.873,7.202,14.008,13.716,21.275C135.662,220.33,106.23,232.994,96,232.994c-23,0-36-88-88-88
	c0,52.5,16,73.5,16,104v8c0,30.5-16,51.5-16,104c52,0,65-88,88-88s111,112,208,112c101,0,200-67.334,200-88
	C504,274.994,480,280.994,480,280.994z"/>
<path style="fill:#D6AE90;" d="M304,384.994c45.461,0,90.484-13.652,126.29-30.54c-20.028-11.431-38.29-33.46-38.29-33.46
	s-48,24-160,0c-38.097-8.164-98.261-32.46-115.353-36.723C153.902,312.664,226.027,384.994,304,384.994z"/>
<circle style="fill:#464655;" cx="448" cy="264.999" r="16"/>
<path style="fill:#8C888A;" d="M336,167.072c-97,0-217,64-240,64c-5.266,0-10.01-4.621-14.817-11.739
	c0.002-0.004,0.004-0.009,0.006-0.013c-5.041-7.461-10.152-17.644-16.012-28.17c-0.819,9.002-5.114,17.105-9.896,26.047
	C49.734,227.564,44,238.291,44,251.072s5.734,23.508,11.281,33.875c4.782,8.941,9.077,17.045,9.896,26.047
	c5.86-10.526,10.971-20.709,16.012-28.17c-1.563-3.219-3.188-6.289-4.744-9.197C71.914,265.158,68,257.838,68,251.072
	c0-4.54,1.766-9.332,4.295-14.551c9.816,12.429,26.256,22.33,55.705,10.551c33.218-13.287,197.403-33.299,248-8
	c2.349,1.174,4.751,2.178,7.178,3.094l15.686,4.11c26.486,4.166,54.121-4.771,70.252-22.317
	C442.738,196.468,397.992,167.072,336,167.072z"/>
<g>
	<path style="fill:#FFB27A;" d="M216,368c-6.667,10-34,32-48,32c-0.667,0,7.333-18.668-16-40c-20.875-19.086-47.333-55.334-48-80"/>
	<path style="fill:#FFB27A;" d="M368,328c0,0-41.333-2.668-64,16l40,16l32-16"/>
</g>
<path d="M498.061,273.252l3.596-3.596c2.143-2.143,2.891-5.313,1.933-8.188c-4.832-14.496-22.317-39.698-49.289-60.773
	c-23.759-18.565-63.57-40.696-118.301-40.696c-15.901,0-32.339,1.669-48.836,4.452c-0.209-0.421-0.452-0.832-0.742-1.223
	c-9.647-12.986-21.404-27.008-31.45-37.51c-18.31-19.139-25.931-21.719-30.972-21.719c-2.559,0-10.347,0-40.069,29.65
	c-8.737,8.716-29.318,30.115-31.726,40.551c-2.203,9.544,4.259,22.106,7.588,27.735c-5.95,2.246-11.663,4.43-17.063,6.497
	c-20.918,8.005-40.676,15.567-46.73,15.567c-0.221,0-2.28-0.166-6.559-5.907c-3.84-5.153-7.95-12.754-12.301-20.801
	C63.154,171.425,43.999,135.999,8,135.999c-4.418,0-8,3.582-8,8c0,30.824,5.244,50.822,9.871,68.467
	C13.16,225.008,16,235.838,16,247.999v8c0,12.161-2.84,22.991-6.129,35.533C5.244,309.177,0,329.175,0,359.999c0,4.418,3.582,8,8,8
	c35.999,0,55.154-35.426,69.141-61.292c4.351-8.047,8.461-15.647,12.301-20.801c4.278-5.741,6.338-5.907,6.531-5.908
	c0.011,0,0.025,0.004,0.036,0.005c0,0.071-0.007,0.141-0.005,0.212c0.796,29.451,31.458,68.188,50.599,85.688
	c11.192,10.232,15.787,20.851,13.656,31.561c-0.274,1.38-0.917,4.611,1.535,7.6c1.52,1.852,3.812,2.936,6.207,2.936
	c18.614,0,47.819-25.306,54.656-35.563c0.422-0.633,0.735-1.306,0.957-1.995c25.078,12.744,52.23,21.557,80.386,21.557
	c60.951,0,114.856-23.276,141.563-37.15C476.211,338.927,512,313.961,512,295.999C512,284.855,506.866,276.793,498.061,273.252z
	 M167.784,177.844c0.878-3.046,9.553-14.835,26.092-31.507c15.262-15.386,26.42-24.126,30.402-26.12
	c6.643,2.796,26.592,22.891,45.525,47.555c-33.337,7.099-66.226,18.042-94.738,28.481c-0.112-0.211-0.231-0.42-0.364-0.624
	C170.858,189.737,167.088,180.859,167.784,177.844z M209.344,363.562c-4.724,7.086-20.987,20.225-32.667,25.813
	c-1.089-15.28-10.578-27.324-19.279-35.279c-17.729-16.209-36.847-42.304-43.206-62.593c5.908,4.607,12.377,9.964,18.247,14.825
	c20.991,17.384,47.453,39.295,77.37,56.607C209.646,363.135,209.49,363.342,209.344,363.562z M304,375.999
	c-62.352,0-121.931-49.343-161.355-81.994C118.176,273.74,105.972,263.999,96,263.999c-13.956,0-22.331,15.488-32.934,35.098
	c-11.964,22.127-25.355,46.889-46.901,51.965c0.895-23.866,5.272-40.557,9.183-55.471C28.769,282.545,32,270.223,32,255.999v-8
	c0-14.224-3.231-26.546-6.652-39.592c-3.911-14.914-8.288-31.604-9.183-55.471c21.546,5.076,34.937,29.838,46.901,51.965
	c10.603,19.61,18.978,35.098,32.934,35.098c8.609,0,23.905-5.7,52.449-16.624C197.746,204.51,272.244,175.999,336,175.999
	c39.625,0,70.708,12.652,92.759,26.354C393.912,210.992,368,242.52,368,279.999c0,18.25,6.308,36.103,17.763,50.269
	c7.532,9.314,17.083,16.791,27.775,21.914C385.979,363.748,346.708,375.999,304,375.999z M436.685,341.426
	c-0.74,0.379-1.506,0.768-2.289,1.162c-0.199-0.063-0.398-0.123-0.604-0.17C404.475,335.777,384,310.109,384,279.999
	c0-35.225,28.605-63.889,63.804-63.995c20.753,17.018,33.621,35.182,38.786,46.091l-12.247,12.247
	c-2.531,2.531-3.05,6.43-1.304,9.554c1.746,3.125,5.377,4.705,8.859,3.875c0.022-0.005,2.212-0.519,4.96-0.519
	c7.615,0,9.129,3.181,9.142,8.68C495.339,300.734,477.433,320.528,436.685,341.426z"/>
<path d="M448,247.999c-8.822,0-16,7.178-16,16c0,8.822,7.178,16,16,16s16-7.178,16-16C464,255.177,456.822,247.999,448,247.999z"/>
<path d="M372.422,336.844l-28.787,14.394l-21.481-8.593c20.072-8.109,45.03-6.685,45.338-6.661c4.4,0.259,8.207-3.063,8.491-7.47
	c0.284-4.409-3.06-8.214-7.468-8.498c-1.817-0.115-44.776-2.635-69.601,17.808c-2.182,1.797-3.254,4.611-2.82,7.404
	c0.434,2.793,2.31,5.149,4.934,6.199l40,16c0.956,0.382,1.965,0.572,2.972,0.572c1.229,0,2.455-0.283,3.578-0.845l32-16
	c3.952-1.976,5.554-6.781,3.578-10.733C381.181,336.471,376.375,334.868,372.422,336.844z"/>
<g>
</g>
<g>
</g>
<g>
</g>
<g>
</g>
<g>
</g>
<g>
</g>
<g>
</g>
<g>
</g>
<g>
</g>
<g>
</g>
<g>
</g>
<g>
</g>
<g>
</g>
<g>
</g>
<g>
</g>
</svg>
