<?xml version="1.0" encoding="iso-8859-1"?>
<!-- Generator: Adobe Illustrator 19.0.0, SVG Export Plug-In . SVG Version: 6.00 Build 0)  -->
<svg version="1.1" id="Layer_1" xmlns="http://www.w3.org/2000/svg" xmlns:xlink="http://www.w3.org/1999/xlink" x="0px" y="0px"
	 viewBox="0 0 512 512" style="enable-background:new 0 0 512 512;" xml:space="preserve">
<rect x="95.233" y="218.117" style="fill:#C4743D;" width="321.536" height="257.229"/>
<rect x="95.233" y="218.117" style="fill:#AD6432;" width="321.536" height="26.412"/>
<path style="fill:#FEC95B;" d="M12.478,188.689c51.061-45.775,106.775-88.907,166.89-128.649
	c46.502-30.743,106.756-30.743,153.259,0c60.115,39.742,115.829,82.874,166.89,128.649c11.405,10.225,4.219,29.119-11.099,29.119
	H23.577C8.259,217.808,1.073,198.914,12.478,188.689z"/>
<path style="fill:#E2AD50;" d="M179.368,60.038c23.254-15.365,49.941-23.059,76.629-23.059c-12.666,0-25.332,7.694-36.368,23.059
	c-28.525,39.744-54.96,82.876-79.19,128.649c-5.409,10.232-1.998,29.122,5.271,29.122H23.572c-15.319,0-22.508-18.89-11.104-29.122
	C63.534,142.914,119.252,99.782,179.368,60.038z"/>
<g>
	<polygon style="fill:#FEC95B;" points="381.974,333.672 381.974,260.296 264.843,260.296 264.843,333.733 	"/>
	<polyline style="fill:#FEC95B;" points="212.02,474.8 212.02,260.296 120.152,260.296 120.152,474.979 	"/>
</g>
<path d="M504.119,183.562c-51.888-46.515-108.306-90.006-167.69-129.265c-48.86-32.302-111.999-32.301-160.856,0
	c-59.383,39.257-115.801,82.75-167.69,129.265c-7.351,6.59-9.824,16.8-6.299,26.011c3.516,9.19,12.151,15.128,21.997,15.128h33.757
	V475.04c0,3.804,3.086,6.89,6.89,6.89h403.876c3.804,0,6.89-3.086,6.89-6.89V364.799c0-3.804-3.086-6.89-6.89-6.89h-13.436V224.701
	h33.753c9.846,0,18.48-5.938,21.997-15.127C513.942,200.363,511.469,190.153,504.119,183.562z M71.117,468.151V224.702h17.225
	v243.449H71.117z M144.271,468.054c-6.043,0.011-11.849,0.023-17.225,0.033V267.191h17.225V468.054z M174.128,467.996
	c-5.335,0.01-10.735,0.021-16.077,0.032V267.191h16.077V467.996z M205.133,467.935c-5.362,0.01-11.169,0.022-17.225,0.034V267.191
	h17.225V467.935z M229.248,364.8v103.088c-2.764,0.006-6.262,0.013-10.335,0.021V260.301c0-3.804-3.086-6.89-6.89-6.89h-31.005
	h-29.857h-31.005c-3.804,0-6.89,3.086-6.89,6.89v207.814c-4.414,0.009-8.197,0.016-11.142,0.022V224.702h307.759V357.91H236.138
	C232.333,357.91,229.248,360.994,229.248,364.8z M359.081,371.69h41.414l-41.414,76.023V371.69z M345.301,447.714l-41.415-76.024
	h41.415V447.714z M403.327,395.295v72.854h-39.688L403.327,395.295z M417.107,395.295l39.689,72.855h-39.689V395.295z
	 M243.028,371.69h41.414l-41.414,76.021V371.69z M287.274,395.295v72.854h-39.688L287.274,395.295z M301.054,468.151v-72.855
	l39.689,72.855H301.054z M461.213,447.454L419.94,371.69h41.274L461.213,447.454L461.213,447.454z M440.887,357.91h-17.225V224.702
	h17.225V357.91z M497.546,204.65c-0.563,1.471-2.885,6.272-9.126,6.272H23.58c-6.241,0-8.563-4.801-9.126-6.272
	c-0.566-1.48-2.05-6.634,2.626-10.827c51.389-46.069,107.27-89.145,166.091-128.032C205.293,51.167,230.647,43.854,256,43.854
	c25.354,0,50.709,7.313,72.83,21.937c58.824,38.89,114.704,81.965,166.092,128.032C499.597,198.016,498.112,203.17,497.546,204.65z"
	/>
<path d="M381.978,253.411H264.847c-3.804,0-6.89,3.086-6.89,6.89v73.437c0,1.828,0.727,3.582,2.02,4.874
	c1.292,1.292,3.043,2.017,4.87,2.017c0.001,0,0.002,0,0.003,0l117.131-0.061c3.804-0.002,6.887-3.087,6.887-6.89v-73.374
	C388.868,256.495,385.782,253.411,381.978,253.411z M375.088,312.856l-37.362-45.665h37.362V312.856z M316.522,326.82l-38.424,0.021
	l38.424-46.96V326.82z M330.302,279.879l38.384,46.913l-38.384,0.021V279.879z M309.098,267.191l-37.362,45.664v-45.664H309.098z"/>
<path d="M442.283,179.057l-23.039-6.89c-16.365-4.893-33.664-4.893-50.025,0c-13.781,4.121-28.349,4.121-42.13,0
	c-16.365-4.893-33.664-4.893-50.025,0c-13.781,4.121-28.349,4.121-42.13,0c-16.365-4.893-33.664-4.893-50.025,0
	c-13.781,4.121-28.349,4.121-42.129,0c-16.365-4.894-33.664-4.893-50.025,0l-23.039,6.89c-3.646,1.091-5.718,4.93-4.627,8.576
	c1.089,3.644,4.925,5.719,8.575,4.627l23.039-6.89c13.777-4.121,28.346-4.121,42.129,0c16.36,4.893,33.659,4.893,50.025,0
	c13.777-4.121,28.346-4.121,42.129,0c16.36,4.893,33.659,4.893,50.025,0c13.777-4.121,28.346-4.121,42.129,0
	c16.36,4.893,33.659,4.893,50.025,0c13.777-4.121,28.346-4.121,42.129,0l23.039,6.89c0.658,0.196,1.322,0.291,1.976,0.291
	c2.966,0,5.706-1.93,6.598-4.917C448.002,183.987,445.929,180.148,442.283,179.057z"/>
<path d="M115.795,141.732l23.039,6.89c16.36,4.892,33.659,4.893,50.025,0c13.777-4.123,28.346-4.121,42.129,0
	c16.36,4.892,33.659,4.893,50.025,0c13.777-4.123,28.346-4.121,42.129,0c8.181,2.446,16.596,3.67,25.012,3.67
	c8.415,0,16.83-1.223,25.012-3.67l23.039-6.89c3.646-1.091,5.718-4.93,4.627-8.576c-1.089-3.645-4.924-5.719-8.575-4.627
	l-23.039,6.89c-13.781,4.12-28.349,4.121-42.13,0c-16.365-4.893-33.664-4.893-50.025,0c-13.781,4.12-28.349,4.121-42.13,0
	c-16.365-4.893-33.664-4.893-50.025,0c-13.781,4.12-28.349,4.121-42.129,0l-23.039-6.89c-3.644-1.089-7.485,0.982-8.575,4.627
	C110.077,136.802,112.149,140.642,115.795,141.732z"/>
<path d="M165.82,117.617l23.039-6.89c13.777-4.121,28.346-4.121,42.129,0c16.36,4.893,33.659,4.893,50.025,0
	c13.777-4.121,28.346-4.121,42.129,0l23.039,6.89c0.658,0.196,1.322,0.291,1.976,0.291c2.966,0,5.706-1.93,6.598-4.917
	c1.091-3.646-0.981-7.485-4.627-8.576l-23.039-6.89c-16.365-4.894-33.664-4.893-50.025,0c-13.781,4.12-28.349,4.121-42.13,0
	c-16.365-4.894-33.664-4.893-50.025,0l-23.039,6.89c-3.646,1.091-5.718,4.93-4.627,8.576
	C158.335,116.635,162.169,118.708,165.82,117.617z"/>
<path d="M230.987,76.35c8.183,2.447,16.596,3.67,25.013,3.67c8.414,0,16.831-1.224,25.012-3.67c3.646-1.091,5.718-4.93,4.627-8.576
	c-1.089-3.645-4.929-5.718-8.575-4.627c-13.784,4.121-28.35,4.121-42.129,0c-3.651-1.09-7.486,0.982-8.576,4.627
	C225.27,71.42,227.341,75.259,230.987,76.35z"/>
<g>
</g>
<g>
</g>
<g>
</g>
<g>
</g>
<g>
</g>
<g>
</g>
<g>
</g>
<g>
</g>
<g>
</g>
<g>
</g>
<g>
</g>
<g>
</g>
<g>
</g>
<g>
</g>
<g>
</g>
</svg>
