<?xml version="1.0"?>
<svg xmlns="http://www.w3.org/2000/svg" xmlns:xlink="http://www.w3.org/1999/xlink" version="1.1" id="Layer_1" x="0px" y="0px" viewBox="0 0 512 512" style="enable-background:new 0 0 512 512;" xml:space="preserve" width="512px" height="512px" class=""><g><path style="fill:#0D0D0E" d="M256,512c-9.217,0-16.696-7.473-16.696-16.696v-66.783c0-9.223,7.479-16.696,16.696-16.696  c9.217,0,16.584,7.473,16.584,16.696v66.783C272.584,504.527,265.217,512,256,512z" data-original="#ACABB1" class="" data-old_color="#171718"/><path style="fill:#09090A" d="M272.584,495.304v-66.783c0-9.223-7.367-16.696-16.584-16.696V512  C265.217,512,272.584,504.527,272.584,495.304z" data-original="#898890" class="" data-old_color="#19191D"/><path style="fill:#62451C" d="M322.782,445.217H189.217c-18.413,0-33.391-14.978-33.391-33.391v-50.087  c0-9.223,7.479-16.696,16.696-16.696h166.957c9.217,0,16.584,7.473,16.584,16.696v50.087  C356.062,430.239,341.195,445.217,322.782,445.217z" data-original="#997B57" class="" data-old_color="#63461C"/><path style="fill:#5E4117" d="M339.478,345.043H256v100.174h66.783c18.413,0,33.28-14.978,33.28-33.391v-50.087  C356.062,352.516,348.695,345.043,339.478,345.043z" data-original="#806749" class="" data-old_color="#604218"/><path style="fill:#FFE14D;" d="M356.176,378.435H155.857l-33.422-79.533V133.565h267.019v165.334l-0.001,0.007L356.176,378.435z" data-original="#FFE14D" class=""/><polygon style="fill:#FDD43B" points="256,378.435 356.176,378.435 389.453,298.904 389.454,298.899 389.454,133.565 256,133.565   " data-original="#FFCC33" class="active-path" data-old_color="#FBD23B"/><rect x="239.304" y="156.939" style="fill:#62451C" width="33.391" height="231.513" data-original="#997B57" class="" data-old_color="#63461C"/><rect x="256" y="156.939" style="fill:#5E4117" width="16.696" height="231.513" data-original="#806749" class="" data-old_color="#604218"/><path style="fill:#62451C" d="M415.348,136.255L291.804,56.12L256,78.381L220.195,56.12L96.652,136.255  c-6.206,4.021-9.021,11.652-6.924,18.745s8.619,11.956,16.011,11.956h300.522c7.392,0,13.913-4.864,16.011-11.956  C424.37,147.908,421.554,140.277,415.348,136.255z" data-original="#997B57" class="" data-old_color="#63461C"/><path style="fill:#5E4117" d="M406.261,166.957c7.392,0,13.913-4.864,16.011-11.956c2.098-7.092-0.718-14.723-6.924-18.745  L291.804,56.12L256,78.381v88.576H406.261z" data-original="#806749" class="" data-old_color="#604218"/><path style="fill:#0D0D0E" d="M256,100.174c-27.619,0-50.087-22.468-50.087-50.087S228.381,0,256,0s50.087,22.468,50.087,50.087  S283.619,100.174,256,100.174z M256,33.391c-9.206,0-16.696,7.49-16.696,16.696s7.49,16.696,16.696,16.696  c9.206,0,16.696-7.49,16.696-16.696S265.206,33.391,256,33.391z" data-original="#ACABB1" class="" data-old_color="#171718"/><path style="fill:#09090A" d="M272.695,50.087c0,9.206-7.49,16.696-16.696,16.696v33.391c27.619,0,50.087-22.468,50.087-50.087  S283.619,0,256,0v33.391C265.206,33.391,272.695,40.881,272.695,50.087z" data-original="#898890" class="" data-old_color="#19191D"/><path style="fill:#0D0D0E" d="M339.476,512H172.519c-9.22,0-16.696-7.475-16.696-16.696l0,0c0-9.22,7.475-16.696,16.696-16.696  h166.957c9.22,0,16.696,7.475,16.696,16.696l0,0C356.171,504.525,348.696,512,339.476,512z" data-original="#ACABB1" class="" data-old_color="#171718"/><path style="fill:#09090A" d="M339.476,478.609h-83.478V512h83.478c9.22,0,16.696-7.475,16.696-16.696  S348.695,478.609,339.476,478.609z" data-original="#898890" class="" data-old_color="#19191D"/></g> </svg>
