<?xml version="1.0" encoding="iso-8859-1"?>
<!-- Generator: Adobe Illustrator 19.0.0, SVG Export Plug-In . SVG Version: 6.00 Build 0)  -->
<svg version="1.1" id="Layer_1" xmlns="http://www.w3.org/2000/svg" xmlns:xlink="http://www.w3.org/1999/xlink" x="0px" y="0px"
	 viewBox="0 0 512.001 512.001" style="enable-background:new 0 0 512.001 512.001;" xml:space="preserve">
<rect x="177.67" y="376.24" style="fill:#A07852;" width="156.66" height="39.16"/>
<rect x="16.575" y="262.95" style="fill:#FFDAA7;" width="478.85" height="114.86"/>
<g>
	<rect x="189.18" y="295.93" style="fill:#FFC373;" width="133.65" height="81.88"/>
	<rect x="16.575" y="273.8" style="fill:#FFC373;" width="478.85" height="22.13"/>
</g>
<polygon style="fill:#A07852;" points="504.5,274.09 7.5,274.09 36.998,220.65 475.002,220.65 "/>
<g>
	<path style="fill:#896746;" d="M234.451,220.65v53.44h-94.197v-15.683c0-7.25,5.877-13.127,13.127-13.127l0,0l24.631-24.631h56.439
		V220.65z"/>
	<path style="fill:#896746;" d="M277.549,220.65v53.44h94.197v-15.683c0-7.25-5.877-13.127-13.127-13.127l0,0l-24.631-24.631
		h-56.439V220.65z"/>
</g>
<polygon style="fill:#FFDAA7;" points="349.125,267.463 162.875,267.463 256,174.338 "/>
<polygon style="fill:#FFC373;" points="349.125,267.463 162.875,267.463 192.717,237.621 319.283,237.621 "/>
<g>
	<rect x="166.44" y="290.3" style="fill:#FFDAA7;" width="22.462" height="110.48"/>
	<rect x="323.1" y="290.3" style="fill:#FFDAA7;" width="22.462" height="110.48"/>
	<rect x="161.45" y="259.81" style="fill:#FFDAA7;" width="189.09" height="36.12"/>
</g>
<g>
	<path style="fill:#B9DEEF;" d="M408.95,348.907h-26.971v-34.705c0-7.448,6.038-13.485,13.485-13.485l0,0
		c7.448,0,13.485,6.038,13.485,13.485v34.705H408.95z"/>
	<path style="fill:#B9DEEF;" d="M465.982,348.907h-26.971v-34.705c0-7.448,6.038-13.485,13.485-13.485l0,0
		c7.448,0,13.485,6.038,13.485,13.485v34.705H465.982z"/>
	<path style="fill:#B9DEEF;" d="M72.989,348.907H46.018v-34.705c0-7.448,6.038-13.485,13.485-13.485l0,0
		c7.448,0,13.485,6.038,13.485,13.485L72.989,348.907L72.989,348.907z"/>
	<path style="fill:#B9DEEF;" d="M130.021,348.907H103.05v-34.705c0-7.448,6.038-13.485,13.485-13.485l0,0
		c7.448,0,13.485,6.038,13.485,13.485L130.021,348.907L130.021,348.907z"/>
</g>
<rect x="220.68" y="316.91" style="fill:#A07852;" width="70.64" height="60.902"/>
<g>
	<rect x="157.74" y="395.99" style="fill:#FFC373;" width="39.07" height="21.73"/>
	<rect x="315.19" y="395.99" style="fill:#FFC373;" width="39.07" height="21.73"/>
</g>
<path d="M511.066,270.465l-27.908-50.556v-11.552c0-4.143-3.357-7.5-7.5-7.5s-7.5,3.357-7.5,7.5v4.793h-59.871v-4.793
	c0-4.143-3.357-7.5-7.5-7.5s-7.5,3.357-7.5,7.5v4.793h-87.869l-44.114-44.114c-2.929-2.926-7.675-2.928-10.605-0.002l-12.77,12.76
	c-2.93,2.928-2.932,7.677-0.004,10.606c2.928,2.933,7.677,2.932,10.607,0.005l7.467-7.461l67.364,67.364H188.635l42.808-42.814
	c2.929-2.93,2.929-7.678,0-10.607c-2.929-2.928-7.678-2.928-10.606,0l-14.261,14.264h-87.207v-4.793c0-4.143-3.358-7.5-7.5-7.5
	s-7.5,3.357-7.5,7.5v4.793H44.498v-4.793c0-4.143-3.358-7.5-7.5-7.5s-7.5,3.357-7.5,7.5v10.364L0.934,270.465
	c-1.283,2.323-1.242,5.151,0.107,7.438c1.349,2.285,3.805,3.688,6.459,3.688h1.58v67.23c0,0.029-0.004,0.058-0.004,0.087
	s0.004,0.058,0.004,0.087v28.815c0,4.143,3.358,7.5,7.5,7.5h142.36v3.175h-1.198c-4.142,0-7.5,3.357-7.5,7.5v21.73
	c0,4.143,3.358,7.5,7.5,7.5h39.069c1.913,0,3.654-0.722,4.979-1.901h108.42c1.325,1.179,3.065,1.901,4.979,1.901h39.07
	c4.143,0,7.5-3.357,7.5-7.5v-21.73c0-4.143-3.357-7.5-7.5-7.5h-1.199v-3.175h63.5c4.143,0,7.5-3.357,7.5-7.5s-3.357-7.5-7.5-7.5
	h-63.5v-67.318c2.904-1.034,4.986-3.8,4.986-7.059V281.59H487.92v59.817h-14.438v-27.205c0-11.571-9.414-20.985-20.985-20.985
	s-20.985,9.414-20.985,20.985v27.205H416.45v-27.205c0-11.571-9.414-20.985-20.985-20.985s-20.985,9.414-20.985,20.985v27.205
	h-6.878c-4.143,0-7.5,3.357-7.5,7.5s3.357,7.5,7.5,7.5H487.92v13.902h-42.68c-4.143,0-7.5,3.357-7.5,7.5s3.357,7.5,7.5,7.5h50.18
	c4.143,0,7.5-3.357,7.5-7.5v-28.806c0-0.032,0.005-0.064,0.005-0.097s-0.004-0.064-0.005-0.097V281.59h1.58
	c2.653,0,5.11-1.402,6.459-3.688C512.308,275.616,512.349,272.788,511.066,270.465z M389.479,341.407v-27.205
	c0-3.301,2.685-5.985,5.985-5.985s5.985,2.685,5.985,5.985v27.205H389.479z M446.511,341.407v-27.205
	c0-3.301,2.685-5.985,5.985-5.985s5.985,2.685,5.985,5.985v27.205H446.511z M204.311,403.484h103.377v4.829H204.311V403.484z
	 M315.188,388.484H196.811H196.4v-3.175h119.2v3.175H315.188z M283.817,324.406v45.902H263.5v-45.902H283.817z M248.5,370.309
	h-20.318v-45.902H248.5V370.309z M315.6,370.31h-16.782v-53.403c0-4.143-3.357-7.5-7.5-7.5h-70.635c-4.142,0-7.5,3.357-7.5,7.5
	v53.403H196.4v-66.877h119.2L315.6,370.31L315.6,370.31z M168.954,288.433v-3.359h174.092v3.359H168.954z M343.046,267.309v2.765
	H168.954v-2.765H343.046z M24.08,370.31v-13.902h120.318c4.142,0,7.5-3.357,7.5-7.5s-3.358-7.5-7.5-7.5h-6.877v-27.205
	c0-11.571-9.414-20.985-20.985-20.985s-20.985,9.414-20.985,20.985v27.205H80.489v-27.205c0-11.571-9.414-20.985-20.985-20.985
	s-20.985,9.414-20.985,20.985v27.205H24.08V281.59h23.61c4.142,0,7.5-3.357,7.5-7.5s-3.358-7.5-7.5-7.5H20.207l21.22-38.439h150.151
	l-24.154,24.158h-5.97c-4.142,0-7.5,3.357-7.5,7.5v6.781H75.94c-4.142,0-7.5,3.357-7.5,7.5s3.358,7.5,7.5,7.5h78.014v14.343
	c0,3.259,2.083,6.025,4.986,7.059v67.318H24.08z M65.489,341.407H53.518v-27.205c0-3.301,2.685-5.985,5.985-5.985
	s5.985,2.685,5.985,5.985L65.489,341.407L65.489,341.407z M122.521,341.407H110.55v-27.205c0-3.301,2.685-5.985,5.985-5.985
	s5.985,2.685,5.985,5.985L122.521,341.407L122.521,341.407z M173.94,303.433h7.46v85.052h-7.46V303.433z M165.242,403.484h24.069
	v6.73h-24.069V403.484z M346.759,410.215h-24.07v-6.73h24.07V410.215z M330.6,388.484v-85.052h7.46v85.052H330.6z M350.546,252.309
	h-5.97l-24.158-24.158h150.155l21.22,38.439H358.046v-6.781C358.046,255.666,354.688,252.309,350.546,252.309z"/>
<path d="M269.649,245.121c4.143,0,7.5-3.357,7.5-7.5s-3.357-7.5-7.5-7.5h-27.298c-4.142,0-7.5,3.357-7.5,7.5s3.358,7.5,7.5,7.5
	H269.649z"/>
<path d="M320.159,137.118h111.354c4.143,0,7.5-3.357,7.5-7.5c0-4.143-3.357-7.5-7.5-7.5H320.159c-4.143,0-7.5,3.357-7.5,7.5
	C312.659,133.761,316.017,137.118,320.159,137.118z"/>
<path d="M73.366,101.785H184.72c4.142,0,7.5-3.357,7.5-7.5s-3.358-7.5-7.5-7.5H73.366c-4.142,0-7.5,3.357-7.5,7.5
	S69.224,101.785,73.366,101.785z"/>
<path d="M334.394,145.914c-4.143,0-7.5,3.357-7.5,7.5s3.357,7.5,7.5,7.5h37.352c4.143,0,7.5-3.357,7.5-7.5s-3.357-7.5-7.5-7.5
	H334.394z"/>
<path d="M110.367,161.777c-4.142,0-7.5,3.357-7.5,7.5s3.358,7.5,7.5,7.5h37.352c4.142,0,7.5-3.357,7.5-7.5s-3.358-7.5-7.5-7.5
	H110.367z"/>
<g>
</g>
<g>
</g>
<g>
</g>
<g>
</g>
<g>
</g>
<g>
</g>
<g>
</g>
<g>
</g>
<g>
</g>
<g>
</g>
<g>
</g>
<g>
</g>
<g>
</g>
<g>
</g>
<g>
</g>
</svg>
