<?xml version="1.0"?>
<svg xmlns="http://www.w3.org/2000/svg" xmlns:xlink="http://www.w3.org/1999/xlink" version="1.1" id="Capa_1" x="0px" y="0px" viewBox="0 0 512 512" style="enable-background:new 0 0 512 512;" xml:space="preserve" width="512px" height="512px" class=""><g><path style="fill:#FFC900" d="M410.727,186.417V471.25H52.478c-24.776,0-44.867-20.091-44.867-44.877  c0,0,1.085-117.888,25.862-117.888c7.9,0,14.472-3.6,19.766-7.708c11.308-8.763,16.744-19.817,16.744-2.941l27.373-111.418  L410.727,186.417L410.727,186.417z" data-original="#FFF2E9" class="" data-old_color="#FFF2E9"/><path style="fill:#D39A00" d="M53.238,300.776V471.25h-0.761c-24.776,0-44.867-20.091-44.867-44.877  c0,0,1.085-117.888,25.862-117.888C41.372,308.484,47.944,304.884,53.238,300.776z" data-original="#E2D0C5" class="active-path" data-old_color="#D29901"/><path style="fill:#FFC900" d="M97.355,141.54v284.832c0-24.523-19.675-44.452-44.117-44.857c-0.254-0.01-0.507-0.01-0.761-0.01  c-24.776,0-44.867,20.091-44.867,44.867L7.6,141.54h0.01c0-24.776,20.091-44.867,44.867-44.867c0.254,0,0.507,0,0.761,0.01  C77.68,97.088,97.355,117.017,97.355,141.54z" data-original="#FFF2E9" class="" data-old_color="#FFF2E9"/><path style="fill:#D39A00" d="M97.355,141.54v284.832c0-24.523-19.675-44.452-44.117-44.857V96.682  C77.68,97.088,97.355,117.017,97.355,141.54z" data-original="#E2D0C5" class="active-path" data-old_color="#D29901"/><circle style="fill:#46BEE8;" cx="410.682" cy="134.46" r="93.71" data-original="#46BEE8"/><path style="fill:#65D2EF;" d="M410.684,40.75c-5.446,0-10.781,0.471-15.972,1.362c44.144,7.582,77.737,46.04,77.737,92.347  c0,46.309-33.592,84.766-77.737,92.348c5.192,0.891,10.527,1.362,15.972,1.362c51.755,0,93.709-41.955,93.709-93.709  S462.439,40.75,410.684,40.75z" data-original="#65D2EF"/><polygon style="fill:#EF6E4B;" points="451.321,175.097 427.933,117.211 370.048,93.823 393.436,151.709 " data-original="#EF6E4B"/><path d="M410.727,249.154c-4.201,0-7.606,3.406-7.606,7.606v206.882H163.785c-4.201,0-7.606,3.406-7.606,7.606  s3.406,7.606,7.606,7.606h246.942c4.201,0,7.606-3.406,7.606-7.606V256.761C418.333,252.56,414.928,249.154,410.727,249.154z" data-original="#000000" class="" style="fill:#000000"/><path d="M138.43,463.642H52.478c-20.545,0-37.261-16.72-37.261-37.271c0-20.545,16.715-37.261,37.261-37.261  c20.551,0,37.271,16.715,37.271,37.261c0,4.201,3.406,7.606,7.606,7.606s7.606-3.406,7.606-7.606V194.023h197.756  c4.201,0,7.606-3.406,7.606-7.606c0-4.201-3.406-7.606-7.606-7.606H104.962V141.54c0-28.935-23.544-52.474-52.484-52.474  c-28.842,0-52.324,23.389-52.473,52.197C0.002,141.356,0,141.449,0,141.544v284.832c0,0.095,0.002,0.191,0.005,0.285  c0.157,28.806,23.635,52.195,52.473,52.195h85.952c4.201,0,7.606-3.406,7.606-7.606S142.63,463.642,138.43,463.642z M15.213,141.8  c0.003-0.086,0.004-0.173,0.004-0.261c0-20.546,16.715-37.261,37.261-37.261c20.551,0,37.271,16.715,37.271,37.261v247.923  c-9.517-9.606-22.712-15.565-37.271-15.565c-14.558,0-27.75,5.959-37.265,15.566C15.213,389.463,15.213,141.8,15.213,141.8z" data-original="#000000" class="" style="fill:#000000"/><path d="M177.926,272.026c1.485,1.485,3.432,2.228,5.378,2.228c1.946,0,3.893-0.742,5.378-2.228c2.971-2.971,2.971-7.787,0-10.756  l-14.017-14.017l14.017-14.017c2.971-2.971,2.971-7.787,0-10.756c-2.97-2.971-7.786-2.971-10.756,0l-14.017,14.017l-14.017-14.017  c-2.971-2.971-7.787-2.971-10.756,0c-2.971,2.971-2.971,7.787,0,10.756l14.017,14.017l-14.017,14.017  c-2.971,2.971-2.971,7.787,0,10.756c1.485,1.486,3.432,2.228,5.378,2.228c1.946,0,3.893-0.742,5.378-2.228l14.017-14.017  L177.926,272.026z" data-original="#000000" class="" style="fill:#000000"/><path d="M196.01,367.287c-3.981-1.342-8.296,0.796-9.638,4.776c-1.163,3.448-1.754,7.094-1.754,10.835  c0,4.074,0.702,8.36,2.086,12.74c1.025,3.243,4.021,5.315,7.25,5.315c0.76,0,1.532-0.115,2.295-0.356  c4.005-1.267,6.226-5.539,4.96-9.545c-0.915-2.894-1.379-5.638-1.379-8.154c0-2.115,0.312-4.069,0.954-5.974  C202.129,372.944,199.99,368.629,196.01,367.287z" data-original="#000000" class="" style="fill:#000000"/><path d="M329.875,246.84c-3.932-1.482-8.319,0.502-9.802,4.433c-1.482,3.93,0.502,8.319,4.433,9.802  c5.818,2.195,10.555,4.941,14.08,8.163c1.459,1.335,3.297,1.993,5.131,1.993c2.061,0,4.116-0.833,5.616-2.474  c2.835-3.1,2.62-7.912-0.482-10.746C343.893,253.478,337.51,249.72,329.875,246.84z" data-original="#000000" class="" style="fill:#000000"/><path d="M354.509,281.3c-0.024,0-0.049,0-0.073,0c-4.167,0-7.566,3.359-7.604,7.535c-0.038,4.005-1.85,7.508-5.703,11.022  c-3.104,2.832-3.325,7.642-0.494,10.745c1.5,1.646,3.558,2.481,5.622,2.481c1.83,0,3.665-0.656,5.124-1.987  c6.998-6.382,10.585-13.825,10.662-22.12C362.084,284.776,358.71,281.339,354.509,281.3z" data-original="#000000" class="" style="fill:#000000"/><path d="M215.573,437.446c1.488,1.507,3.45,2.262,5.413,2.262c1.93,0,3.862-0.73,5.344-2.194c2.989-2.951,3.02-7.768,0.068-10.756  c-4.713-4.774-8.863-9.395-12.332-13.737c-2.622-3.281-7.408-3.815-10.69-1.194c-3.282,2.623-3.816,7.409-1.194,10.69  C205.982,427.273,210.487,432.296,215.573,437.446z" data-original="#000000" class="" style="fill:#000000"/><path d="M301.009,317.742c-4.033,1.176-6.349,5.398-5.173,9.431c0.969,3.322,4.004,5.48,7.299,5.48c0.705,0,1.422-0.099,2.133-0.306  c7.332-2.138,13.511-4.158,18.891-6.177c3.933-1.477,5.925-5.861,4.449-9.794c-1.477-3.933-5.861-5.924-9.794-4.449  C313.794,313.81,307.97,315.712,301.009,317.742z" data-original="#000000" class="" style="fill:#000000"/><path d="M259.453,247.556c-0.39-4.183-4.1-7.263-8.281-6.866c-11.646,1.087-19.415,2.436-19.74,2.493  c-4.137,0.724-6.904,4.664-6.18,8.801c0.646,3.696,3.858,6.298,7.485,6.298c0.434,0,0.874-0.038,1.315-0.115  c0.074-0.013,7.543-1.305,18.534-2.332C256.769,255.446,259.843,251.738,259.453,247.556z" data-original="#000000" class="" style="fill:#000000"/><path d="M299.511,255.554c3.852,0,7.156-2.916,7.558-6.832c0.428-4.179-2.613-7.914-6.791-8.343  c-6.212-0.637-12.935-0.982-19.981-1.025c-0.016,0-0.031,0-0.048,0c-4.178,0-7.579,3.374-7.605,7.56  c-0.025,4.201,3.359,7.628,7.56,7.653c6.562,0.041,12.794,0.359,18.524,0.946C298.99,255.541,299.251,255.554,299.511,255.554z" data-original="#000000" class="" style="fill:#000000"/><path d="M256.996,345.039c0.676,0,1.365-0.091,2.049-0.282c6.081-1.697,12.233-3.308,18.526-4.946  c4.066-1.058,6.504-5.212,5.445-9.277c-1.059-4.066-5.213-6.5-9.277-5.445c-6.361,1.656-12.585,3.286-18.784,5.015  c-4.047,1.13-6.411,5.324-5.282,9.371C250.612,342.838,253.669,345.039,256.996,345.039z" data-original="#000000" class="" style="fill:#000000"/><path d="M237.018,343.395c-1.509-3.922-5.914-5.876-9.83-4.367c-7.271,2.797-13.345,5.648-18.569,8.715  c-3.623,2.127-4.836,6.787-2.709,10.411c1.416,2.413,3.957,3.757,6.567,3.757c1.308,0,2.634-0.338,3.844-1.048  c4.501-2.642,9.843-5.14,16.33-7.637C236.571,351.717,238.526,347.316,237.018,343.395z" data-original="#000000" class="" style="fill:#000000"/><path d="M488.08,69.075c-2.713-3.208-7.511-3.609-10.72-0.897c-3.208,2.713-3.609,7.512-0.897,10.72  c13.106,15.499,20.324,35.232,20.324,55.562c0,47.477-38.626,86.103-86.103,86.103s-86.103-38.626-86.103-86.103  s38.625-86.103,86.103-86.103c17.256,0,33.901,5.083,48.135,14.701c3.482,2.353,8.21,1.437,10.562-2.045  c2.351-3.481,1.436-8.21-2.045-10.562c-16.759-11.322-36.349-17.307-56.652-17.307c-55.865,0-101.316,45.449-101.316,101.316  s45.449,101.316,101.316,101.316S512,190.327,512,134.461C512,110.537,503.505,87.316,488.08,69.075z" data-original="#000000" class="" style="fill:#000000"/><path d="M434.985,114.362c-0.773-1.913-2.29-3.43-4.203-4.203l-57.885-23.388c-2.829-1.144-6.069-0.485-8.228,1.673  c-2.159,2.158-2.817,5.397-1.673,8.228l23.388,57.885c0.773,1.913,2.29,3.43,4.203,4.203l57.885,23.388  c0.923,0.373,1.889,0.554,2.848,0.554c1.98,0,3.926-0.774,5.38-2.228c2.158-2.158,2.817-5.397,1.674-8.228L434.985,114.362z   M399.279,145.866l-15.465-38.277l38.277,15.465l15.465,38.277L399.279,145.866z" data-original="#000000" class="" style="fill:#000000"/><path d="M382.581,414.204c0-4.201-3.406-7.606-7.606-7.606h-26.62v-26.62c0-4.201-3.406-7.606-7.606-7.606  c-4.201,0-7.606,3.406-7.606,7.606v26.62h-26.621c-4.201,0-7.606,3.406-7.606,7.606c0,4.201,3.406,7.606,7.606,7.606h26.621v26.621  c0,4.201,3.406,7.606,7.606,7.606c4.201,0,7.606-3.406,7.606-7.606V421.81h26.62C379.176,421.81,382.581,418.405,382.581,414.204z" data-original="#000000" class="" style="fill:#000000"/><path d="M315.056,430.945c-3.449,0.734-6.02,3.731-6.111,7.277c-0.08,3.098,1.823,6.026,4.692,7.205  c6.274,2.579,12.659-4.056,9.806-10.218C321.99,432.072,318.454,430.263,315.056,430.945z" data-original="#000000" class="" style="fill:#000000"/><path d="M371.972,387.092c-1.176-2.785-3.918-4.66-6.951-4.692c-3.347-0.035-6.362,2.202-7.347,5.39  c-0.909,2.941,0.145,6.288,2.567,8.182c2.549,1.994,6.154,2.16,8.865,0.396C372.124,394.404,373.381,390.423,371.972,387.092z" data-original="#000000" class="" style="fill:#000000"/><path d="M313.636,397.021c6.338,2.677,12.729-4.231,9.74-10.356c-1.345-2.756-4.328-4.47-7.387-4.246  c-3.306,0.243-6.131,2.679-6.857,5.911C308.338,391.863,310.243,395.666,313.636,397.021z" data-original="#000000" class="" style="fill:#000000"/><path d="M371.272,434.18c-1.6-2.43-4.627-3.748-7.499-3.291c-3.454,0.552-6.15,3.47-6.403,6.958  c-0.497,6.861,8.083,10.813,12.958,5.936C372.876,441.237,373.246,437.179,371.272,434.18z" data-original="#000000" class="" style="fill:#000000"/></g> </svg>
