<svg xmlns="http://www.w3.org/2000/svg" viewBox="0 0 778 95"><title>plank</title><g id="bb053eeb-19cd-497f-b762-44d85eefba87" data-name="Layer 2"><g id="c237c35d-01cf-46b7-b661-8641003c96be" data-name="Layer 1"><g id="ad4caa8e-7947-4116-9879-612f700bc143" data-name="layer1"><path id="906b6bbd-6871-47f2-8c69-9cf5503722ac" data-name="path2160" d="M12.18,1.55c116-.85,229.94,10.16,348,6.74,59.23.49,127.85-7.15,180.93,4.27C575.78,20,765.83-3.5,767.38,15.62c-7.87,32,30.71,68.65-9.56,67.27s-89.68,12-166,10.49S484.54,83.47,418.65,85.8s-105.26-1.55-132,.09-85-3-152.18-.25S49.85,84.32,16.64,79.22C0,76.66,25.28,60.72,15.38,37.53,6.1,15.81-8.86,14.68,12.18,1.55Z" fill="#c69c6d" stroke="#2e3436" stroke-width="3"/><path id="d64ce920-16f1-474f-ba99-e93844e0b52e" data-name="path5360" d="M46.28,30.27c69-10.24,51.56.93,132.3.93,36.81,0,48.32-8.38,48.32-8.38" fill="#c69c6d" stroke="#2e3436" stroke-width="3"/><path id="a9205c4d-dc0a-4c4b-9a19-ea31081569f1" data-name="path6331" d="M271.32,56.8C284,57.73,255.61,85.33,333.45,68c146.11-32.58,132.3-7.45,132.3-7.45" fill="#c69c6d" stroke="#2e3436" stroke-width="3"/><path id="5cfe15e2-22a7-4984-800f-8741a48f7696" data-name="path8294" d="M302.23,38.66c-10.58-1.56-13.28-.16-17.49.82-9.1,2.13-2.13,3.32.1,17.61,1.61,10.28,4.24,12.41,10.68,10.37,7.29-2.31,17.9-4.11,16.57-6.09s.7-14.83.61-17.53C312.66,42.31,302.34,38.82,302.23,38.66Z" fill="#c69c6d" fill-opacity="0.75"/><path id="073bdfb9-c9b1-4cd8-848d-865937d4b1d8" data-name="path6339" d="M302.83,48.91c11.5,11.17-19.56,12.1-11.5,0s23-14,23,0c0,4.65-10.29,29.49-24.16,15.13-19.91-20.62,1.15-28.16,1.15-28.16" fill="#c69c6d" stroke="#2e3436" stroke-width="3"/><path id="6224c3f5-6c8b-4687-9512-0b84da097890" data-name="path7319" d="M325.52,48.24c33,2,48.65-18.07,69.66-22.94l21-4.88" fill="#c69c6d" stroke="#2e3436" stroke-width="3"/><path id="03ddaa2e-80ef-4ff6-bf62-4e9ee2a5203b" data-name="path8290" d="M623.68,66.23c31.23,8.94,52.8-7.14,74.65-7.4l21.86-.26" fill="#c69c6d" stroke="#2e3436" stroke-width="3"/><path id="ceff1254-a98d-4b5a-b853-2d5c00496448" data-name="path8297" d="M482.35,76.51c37-15.74,68.72-4.1,110.57-20.08,18.93-7.23,20.26-13.59,47.82-21.67,21.63-6.34,49.42-2.49,49.42-2.49" fill="#c69c6d" stroke="#2e3436" stroke-width="3"/><path id="cba06b68-2db5-49f9-baa6-a2ef37108b35" data-name="path9268" d="M118.75,54.47C152.12,48,159,61,185.48,61s43.72,4.65,43.72,4.65" fill="#c69c6d" stroke="#2e3436" stroke-width="3"/></g></g></g></svg>