<?xml version="1.0"?>
<svg xmlns="http://www.w3.org/2000/svg" xmlns:xlink="http://www.w3.org/1999/xlink" version="1.1" id="Layer_1" x="0px" y="0px" viewBox="0 0 509.53 509.53" style="enable-background:new 0 0 509.53 509.53;" xml:space="preserve" width="512px" height="512px" class=""><g><g>
	<path style="fill:#69380C" d="M157.305,498.751L157.305,498.751c-14.372,14.372-36.828,14.372-50.302,0L5.502,397.249   c-7.186-7.186-7.186-17.965,0-25.151l0,0c7.186-7.186,17.965-7.186,25.151,0L157.305,498.751z" data-original="#CE8D5B" class="active-path" data-old_color="#68370C"/>
	<path style="fill:#69380C" d="M498.639,157.418L498.639,157.418L371.986,30.765c-7.186-7.186-7.186-17.965,0-25.151l0.898-0.898   c6.288-6.288,17.067-6.288,23.354,0l102.4,102.4C513.01,120.589,513.01,143.944,498.639,157.418" data-original="#CE8D5B" class="active-path" data-old_color="#68370C"/>
</g><path style="fill:#E0E0E0" d="M68.379,409.825l88.926,88.926l18.863-18.863l-6.288-31.439l31.439,6.288l-6.288-31.439l31.439,6.288  l-6.288-31.439l31.439,6.288l-6.288-31.439l31.439,6.288l-6.288-31.439l31.439,6.288l-4.491-33.235l31.439,6.288l-6.288-31.439  l31.439,6.288l-6.288-31.439l31.439,6.288l-6.288-31.439l31.439,6.288l-6.288-31.439l31.439,6.288l-6.288-31.439l31.439,6.288  l-6.288-31.439l31.439,6.288l18.863-18.863l-88.926-88.926L68.379,409.825z" data-original="#E0E0E0" class=""/></g> </svg>
