<?xml version="1.0"?>
<svg xmlns="http://www.w3.org/2000/svg" xmlns:xlink="http://www.w3.org/1999/xlink" version="1.1" id="Capa_1" x="0px" y="0px" viewBox="0 0 512.002 512.002" style="enable-background:new 0 0 512.002 512.002;" xml:space="preserve" width="512px" height="512px" class=""><g><g>
	<g>
		<circle style="fill:#FFBA50;" cx="63.814" cy="33.05" r="23.05" data-original="#FFBA50"/>
		<path style="fill:#FFBA50;" d="M86.867,478.951c0-12.736-10.32-23.055-23.053-23.055s-23.053,10.318-23.053,23.055    c0,12.732,10.32,23.051,23.053,23.051S86.867,491.684,86.867,478.951z" data-original="#FFBA50"/>
		<path style="fill:#FFBA50;" d="M448.187,455.897c-12.73,0-23.053,10.318-23.053,23.055c0,12.732,10.322,23.051,23.053,23.051    c12.73,0,23.053-10.318,23.053-23.051C471.24,466.215,460.918,455.897,448.187,455.897z" data-original="#FFBA50"/>
		<circle style="fill:#FFBA50;" cx="448.19" cy="33.05" r="23.05" data-original="#FFBA50"/>
	</g>
	<g>
		<path style="fill:#947C6B;" d="M448.187,71.506c-29.717,0-53.814,17.217-53.814,38.441l0.004,230.611l-0.004,61.496    c0-21.229,24.098-38.443,53.814-38.443c29.715,0,53.813,17.215,53.813,38.443l-0.004-230.584L502,109.947    C502,88.723,477.902,71.506,448.187,71.506z" data-original="#947C6B" class=""/>
		<path style="fill:#947C6B;" d="M117.629,402.055l-0.004-215.203l0.004-76.904c0-21.225-24.096-38.441-53.815-38.441    c-29.715,0-53.813,17.217-53.813,38.441l0.002,245.992l-0.002,46.115c0-21.229,24.098-38.443,53.813-38.443    C93.533,363.611,117.629,380.826,117.629,402.055z" data-original="#947C6B" class=""/>
	</g>
	<g>
		<path style="fill:#C7A87E;" d="M117.629,402.055c0-21.229-24.096-38.443-53.815-38.443c-29.715,0-53.813,17.215-53.811,38.443    c0,21.225,24.096,38.436,53.811,38.443C93.533,440.498,117.629,423.283,117.629,402.055z" data-original="#C7A87E" class=""/>
		<path style="fill:#C7A87E;" d="M448.187,363.611c-29.717,0-53.814,17.215-53.81,38.443c0,21.225,24.096,38.436,53.81,38.436    c29.715,0,53.811-17.211,53.813-38.436C502,380.826,477.902,363.611,448.187,363.611z" data-original="#C7A87E" class=""/>
	</g>
	<path style="fill:#F1DFC4;" d="M394.372,109.947H117.629l-0.004,76.904l0.004,215.203c0,21.229-24.096,38.443-53.815,38.443   l384.373-0.008c-0.525,0-1.049-0.008-1.572-0.016c-5.234-0.094-9.807-0.639-13.803-1.58c-22.225-4.727-38.435-19.434-38.435-36.84   c-0.004-18.404-0.004-32.971-0.004,0l0.004-61.496L394.372,109.947z" data-original="#F1DFC4" class=""/>
</g><g>
	<path style="fill:#000001" d="M512,109.947c0-13.584-7.084-26.127-19.949-35.318c-8.291-5.922-18.41-9.973-29.371-11.877   c10.98-5.381,18.559-16.67,18.559-29.697C481.238,14.828,466.411,0,448.186,0c-18.225,0-33.053,14.828-33.053,33.055   c0,13.027,7.58,24.316,18.559,29.697c-10.959,1.904-21.078,5.955-29.367,11.877c-9.635,6.883-16.027,15.646-18.629,25.318H126.309   c-2.604-9.672-8.994-18.435-18.629-25.318c-8.291-5.922-18.41-9.973-29.371-11.877c10.98-5.381,18.559-16.67,18.559-29.697   C96.867,14.828,82.041,0,63.814,0c-18.224,0-33.05,14.828-33.05,33.055c0,13.027,7.58,24.316,18.557,29.697   c-10.959,1.904-21.078,5.955-29.367,11.877C7.088,83.82,0.002,96.363,0.002,109.947v292.107c0,0.074,0.01,0.146,0.012,0.219   c0.076,13.498,7.147,25.957,19.941,35.096c8.291,5.922,18.412,9.975,29.375,11.877c-10.982,5.379-18.566,16.672-18.566,29.705   c0,18.225,14.826,33.051,33.051,33.051c18.227,0,33.053-14.826,33.053-33.051c0-12.098-6.535-22.691-16.256-28.453h350.777   c-9.721,5.762-16.256,16.355-16.256,28.453c0,18.225,14.828,33.051,33.053,33.051c18.227,0,33.053-14.826,33.053-33.051   c0-13.033-7.584-24.326-18.566-29.705c10.961-1.902,21.084-5.955,29.375-11.877c12.795-9.139,19.867-21.598,19.943-35.096   c0-0.072,0.01-0.145,0.01-0.219L512,109.947L512,109.947z M448.186,20c7.197,0,13.053,5.855,13.053,13.055   c0,7.197-5.855,13.053-13.053,13.053s-13.053-5.855-13.053-13.053C435.133,25.855,440.988,20,448.186,20z M448.186,81.506   c23.75,0,43.814,13.025,43.814,28.441v26.178c-11.838-8.439-27.396-13.088-43.814-13.088c-0.51,0-1.018,0.006-1.525,0.014   c-5.522,0.082-9.932,4.627-9.85,10.148c0.082,5.471,4.541,9.852,9.996,9.852c0.051,0,0.102,0,0.15-0.002   c0.41-0.006,0.818-0.012,1.228-0.012c23.748,0,43.811,13.021,43.811,28.434c0,0.027,0.004,0.051,0.004,0.078v195.15   c-11.84-8.439-27.398-13.088-43.814-13.088s-31.971,4.647-43.813,13.088v-26.063c0-0.027,0.004-0.051,0.004-0.078   c0-9.557,7.938-18.771,20.715-24.043c5.105-2.107,7.537-7.955,5.43-13.059c-2.107-5.105-7.953-7.535-13.059-5.43   c-4.818,1.988-9.197,4.42-13.09,7.203V109.947C404.372,94.531,424.437,81.506,448.186,81.506z M63.814,20   c7.197,0,13.053,5.855,13.053,13.055c0,7.197-5.855,13.053-13.053,13.053c-7.195,0-13.051-5.855-13.051-13.053   C50.764,25.855,56.619,20,63.814,20z M63.814,81.506c23.75,0,43.815,13.025,43.815,28.441v41.559   c-11.84-8.441-27.396-13.09-43.815-13.09c-4.141,0-8.316,0.307-12.412,0.912c-5.463,0.805-9.238,5.889-8.432,11.352   c0.807,5.465,5.889,9.24,11.352,8.434c3.133-0.463,6.326-0.697,9.492-0.697c23.748,0,43.81,13.021,43.81,28.436   c0,0.027,0.004,0.051,0.004,0.078V366.7c-11.84-8.439-27.398-13.088-43.815-13.088S31.842,358.259,20,366.7v-10.682   c0-0.027,0.004-0.051,0.004-0.078c0-9.559,7.938-18.771,20.715-24.043c5.105-2.108,7.537-7.953,5.43-13.059   c-2.105-5.105-7.949-7.537-13.059-5.43c-4.818,1.988-9.197,4.42-13.09,7.201V109.947C20.002,94.531,40.066,81.506,63.814,81.506z    M20.006,402.055c0-15.414,20.063-28.436,43.809-28.436c23.748,0,43.81,13.021,43.81,28.436c0,13.189-14.691,24.619-33.81,27.646   v-27.646c0-5.521-4.477-10-10-10c-5.521,0-10,4.479-10,10v27.646C34.697,426.674,20.006,415.244,20.006,402.055z M63.814,492.002   c-7.195,0-13.051-5.855-13.051-13.051c0-7.199,5.855-13.055,13.051-13.055c7.197,0,13.053,5.855,13.053,13.055   C76.867,486.147,71.012,492.002,63.814,492.002z M115.652,430.498c0.154-0.162,0.299-0.33,0.451-0.494   c0.09-0.096,0.178-0.193,0.266-0.291c0.514-0.561,1.012-1.129,1.49-1.707c0.072-0.084,0.145-0.168,0.215-0.254   c1.086-1.322,2.082-2.68,2.988-4.072c0.065-0.102,0.127-0.203,0.192-0.303c0.381-0.596,0.742-1.195,1.09-1.801   c0.072-0.127,0.146-0.254,0.217-0.381c0.797-1.422,1.504-2.875,2.115-4.357c0.033-0.08,0.064-0.16,0.096-0.24   c0.264-0.648,0.506-1.301,0.734-1.957c0.051-0.152,0.104-0.305,0.154-0.457c0.217-0.654,0.416-1.313,0.598-1.975   c0.025-0.092,0.053-0.182,0.076-0.272c0.209-0.781,0.393-1.568,0.551-2.361c0.002-0.01,0.004-0.021,0.006-0.031   c0.148-0.744,0.268-1.494,0.371-2.246c0.023-0.16,0.041-0.322,0.063-0.482c0.08-0.647,0.143-1.295,0.191-1.949   c0.01-0.143,0.023-0.283,0.031-0.426c0.049-0.793,0.082-1.586,0.082-2.387V119.947h256.744v282.107   c0,0.801,0.033,1.594,0.082,2.387c0.01,0.143,0.022,0.283,0.033,0.426c0.047,0.654,0.111,1.303,0.191,1.949   c0.02,0.16,0.039,0.322,0.061,0.482c0.103,0.752,0.225,1.502,0.371,2.246c0.002,0.01,0.004,0.022,0.006,0.031   c0.158,0.793,0.344,1.58,0.551,2.361c0.023,0.09,0.053,0.18,0.078,0.272c0.18,0.662,0.381,1.32,0.598,1.975   c0.051,0.152,0.102,0.305,0.154,0.457c0.227,0.656,0.471,1.309,0.732,1.957c0.033,0.08,0.063,0.16,0.096,0.24   c0.611,1.482,1.32,2.936,2.115,4.357c0.072,0.127,0.145,0.254,0.217,0.381c0.348,0.605,0.711,1.205,1.09,1.801   c0.064,0.1,0.127,0.201,0.193,0.303c0.906,1.393,1.902,2.75,2.986,4.072c0.07,0.086,0.144,0.17,0.215,0.254   c0.48,0.578,0.977,1.147,1.49,1.707c0.088,0.098,0.176,0.195,0.266,0.291c0.152,0.164,0.297,0.332,0.453,0.494H115.652V430.498z    M448.186,492.002c-7.197,0-13.053-5.855-13.053-13.051c0-7.199,5.855-13.055,13.053-13.055s13.053,5.855,13.053,13.055   C461.238,486.147,455.383,492.002,448.186,492.002z M458.186,429.701v-27.646c0-5.521-4.477-10-10-10c-5.521,0-10,4.479-10,10   v27.646c-19.117-3.027-33.809-14.457-33.809-27.646c0-15.414,20.063-28.436,43.809-28.436c23.748,0,43.811,13.021,43.811,28.436   C491.996,415.244,477.303,426.674,458.186,429.701z" data-original="#000001" class="active-path"/>
	<path style="fill:#000001" d="M171.437,196.834h169.125c5.523,0,10-4.477,10-10c0-5.521-4.477-10-10-10H171.437   c-5.521,0-10,4.479-10,10C161.437,192.357,165.916,196.834,171.437,196.834z" data-original="#000001" class="active-path"/>
	<path style="fill:#000001" d="M343.747,292.107H168.246c-5.523,0-10,4.479-10,10c0,5.523,4.477,10,10,10h175.502   c5.523,0,10-4.477,10-10C353.747,296.586,349.271,292.107,343.747,292.107z" data-original="#000001" class="active-path"/>
	<path style="fill:#000001" d="M326.852,330.543H185.143c-5.521,0-10,4.479-10,10c0,5.523,4.479,10,10,10h141.709   c5.523,0,10-4.477,10-10C336.852,335.022,332.375,330.543,326.852,330.543z" data-original="#000001" class="active-path"/>
	<path style="fill:#000001" d="M216,253.699c-5.521,0-10,4.479-10,10c0,5.523,4.479,10,10,10h51.035c5.523,0,10-4.477,10-10   c0-5.521-4.477-10-10-10H216z" data-original="#000001" class="active-path"/>
	<path style="fill:#000001" d="M295.768,253.699c-5.523,0-10,4.479-10,10c0,5.523,4.477,10,10,10h0.234c5.523,0,10-4.477,10-10   c0-5.521-4.477-10-10-10H295.768z" data-original="#000001" class="active-path"/>
	<path style="fill:#000001" d="M295.993,368.975h-51.035c-5.521,0-10,4.478-10,10c0,5.523,4.479,10,10,10h51.035   c5.523,0,10-4.477,10-10C305.993,373.453,301.518,368.975,295.993,368.975z" data-original="#000001" class="active-path"/>
	<path style="fill:#000001" d="M216.229,368.975h-0.236c-5.523,0-10,4.478-10,10c0,5.523,4.477,10,10,10h0.236   c5.521,0,10-4.477,10-10C226.229,373.453,221.75,368.975,216.229,368.975z" data-original="#000001" class="active-path"/>
</g></g> </svg>
