<?xml version="1.0" encoding="iso-8859-1"?>
<!-- Generator: Adobe Illustrator 19.0.0, SVG Export Plug-In . SVG Version: 6.00 Build 0)  -->
<svg version="1.1" id="Layer_1" xmlns="http://www.w3.org/2000/svg" xmlns:xlink="http://www.w3.org/1999/xlink" x="0px" y="0px"
	 viewBox="0 0 512 512" style="enable-background:new 0 0 512 512;" xml:space="preserve">
<path style="fill:#FFC02C;" d="M382.349,105.095L382.349,105.095c0,11.906,9.651,21.558,21.557,21.558h32.336V460.8
	c0,23.812-19.303,43.116-43.114,43.116H134.444c-23.811,0-43.114-19.304-43.114-43.116V256H156c11.905,0,21.557-9.651,21.557-21.558
	l0,0c0-11.906-9.651-21.558-21.557-21.558H91.33v-75.453H48.216V8.084H91.33h301.798c23.811,0,43.114,19.304,43.114,43.116v32.337
	h-32.336C392,83.537,382.349,93.188,382.349,105.095z"/>
<path style="fill:#FFA800;" d="M382.349,105.095L382.349,105.095c0,11.906,9.651,21.558,21.557,21.558h32.336V460.8
	c0,23.812-19.303,43.116-43.114,43.116H134.444c-23.811,0-43.114-19.304-43.114-43.116V256H156c11.905,0,21.557-9.651,21.557-21.558
	l0,0c0-11.906-9.651-21.558-21.557-21.558H91.33v-75.453H48.216V8.084h21.557l0,0c23.811,0,43.114,19.304,43.114,43.116v86.232
	v53.895H156c24.119,0,43.675,19.908,43.102,44.155c-0.556,23.538-20.367,42.077-43.91,42.077h-42.305V460.8
	c0,11.906,9.651,21.558,21.557,21.558h258.684c11.905,0,21.557-9.651,21.557-21.558V148.211h-10.779
	c-24.118,0-43.675-19.908-43.102-44.155c0.556-23.538,20.367-42.077,43.91-42.077h9.969V51.2c0-10.046,6.881-18.462,16.179-20.854
	c3.423,6.181,5.378,13.288,5.378,20.854v32.337h-32.336C392,83.537,382.349,93.188,382.349,105.095z"/>
<path style="fill:#FF8B00;" d="M91.33,137.432H5.102V50.961c0-23.68,19.197-42.876,42.876-42.876h0.474
	c23.68,0,42.876,19.196,42.876,42.876v86.471H91.33z"/>
<path style="fill:#CC7400;" d="M91.33,51.2v86.232H58.994V51.2c0-18.092-11.149-33.572-26.946-39.969
	c4.994-2.023,10.448-3.146,16.167-3.146l0,0C72.027,8.084,91.33,27.388,91.33,51.2z"/>
<path style="fill:#CEA656;" d="M457.119,189.106L457.119,189.106c43.156,20.125,61.829,71.365,41.721,114.489l-59.254,127.076
	c-5.034,10.795-17.88,15.466-28.684,10.428l0,0c-43.156-20.125-61.828-71.365-41.721-114.489l59.254-127.076
	C433.469,188.738,446.315,184.068,457.119,189.106z"/>
<path style="fill:#BC9248;" d="M498.797,303.687l-59.217,126.998c-5.032,10.791-17.857,15.459-28.647,10.428l0,0
	c-12.416-5.79-22.792-14.17-30.815-24.185c3.851-2.13,7.099-5.434,9.102-9.728l59.217-126.998
	c14.336-30.746,8.972-65.614-10.893-90.411c5.827-3.222,13.05-3.728,19.547-0.7l0,0C500.25,209.22,518.923,260.525,498.797,303.687z
	"/>
<path d="M285.651,503.916c0,4.466-3.623,8.084-8.094,8.084H137.436c-28.237,0-51.209-22.969-51.209-51.2V256
	c0-4.466,3.623-8.084,8.094-8.084h64.67c7.423,0,13.463-6.044,13.463-13.474c0-7.43-6.038-13.474-13.463-13.474H94.322
	c-4.471,0-8.094-3.618-8.094-8.084V51.2c0-19.317-15.709-35.032-35.02-35.032S16.188,31.883,16.188,51.2v78.147h45.799
	c4.471,0,8.094,3.618,8.094,8.084c0,4.466-3.623,8.084-8.094,8.084H8.094c-4.471,0-8.094-3.618-8.094-8.084V51.2
	C0,22.969,22.972,0,51.209,0H396.12c28.237,0,51.209,22.969,51.209,51.2v32.337c0,4.466-3.623,8.084-8.094,8.084H406.9
	c-7.423,0-13.464,6.044-13.464,13.474s6.039,13.474,13.464,13.474h32.335c4.471,0,8.094,3.618,8.094,8.084v32.337
	c0,4.466-3.623,8.084-8.094,8.084c-4.471,0-8.094-3.618-8.094-8.084v-24.253H406.9c-16.351,0-29.652-13.298-29.652-29.642
	s13.3-29.642,29.651-29.642h24.241V51.2c0-19.317-15.709-35.032-35.02-35.032H88.503c8.618,9.166,13.913,21.489,13.913,35.032v153.6
	h56.577c16.35,0,29.651,13.298,29.651,29.642s-13.301,29.642-29.651,29.642h-56.577V460.8c0,19.317,15.709,35.032,35.02,35.032
	h140.121C282.028,495.832,285.651,499.45,285.651,503.916z M443.931,438.343c-3.348,7.18-9.296,12.626-16.747,15.335
	c-3.311,1.204-6.743,1.803-10.165,1.803c-4.279,0-8.541-0.937-12.533-2.798c-7.581-3.535-14.467-7.96-20.603-13.087l-26.222,56.235
	h60.015c4.471,0,8.094,3.618,8.094,8.084S422.148,512,417.677,512H309.892c-4.471,0-8.094-3.618-8.094-8.084
	s3.623-8.084,8.094-8.084h29.913l31.922-68.459c-22.451-27.179-28.726-65.919-12.874-99.917l59.254-127.076v-0.001
	c3.348-7.179,9.297-12.625,16.747-15.334c7.453-2.711,15.513-2.355,22.698,0.995c47.116,21.972,67.587,78.148,45.634,125.227
	L443.931,438.343z M488.51,304.441c18.188-39.006,1.228-85.547-37.808-103.751c-3.264-1.523-6.929-1.682-10.312-0.453
	c-3.386,1.232-6.089,3.706-7.61,6.969v-0.001l-59.254,127.076c-11.947,25.624-8.726,54.499,5.955,76.457l55.587-119.212
	c1.887-4.049,6.701-5.804,10.754-3.916c4.052,1.885,5.808,6.694,3.92,10.741l-58.728,125.948
	c5.862,5.484,12.658,10.16,20.318,13.733c3.265,1.523,6.928,1.682,10.313,0.453c3.387-1.232,6.088-3.706,7.609-6.967L488.51,304.441
	z M459.495,258.306c-4.048-1.886-8.866-0.139-10.757,3.908l-0.456,0.977c-1.89,4.045-0.138,8.856,3.913,10.744
	c1.107,0.516,2.27,0.76,3.417,0.76c3.047,0,5.966-1.728,7.34-4.668l0.456-0.977C465.297,265.005,463.545,260.194,459.495,258.306z
	 M451.089,495.832h-1.078c-4.471,0-8.094,3.618-8.094,8.084S445.54,512,450.011,512h1.078c4.471,0,8.094-3.618,8.094-8.084
	S455.56,495.832,451.089,495.832z M503.905,495.832h-1.078c-4.471,0-8.094,3.618-8.094,8.084s3.623,8.084,8.094,8.084h1.078
	c4.471,0,8.094-3.618,8.094-8.084S508.375,495.832,503.905,495.832z M285.65,105.095c0-4.466-3.623-8.084-8.094-8.084H148.215
	c-4.471,0-8.094,3.618-8.094,8.084s3.623,8.084,8.094,8.084h129.341C282.027,113.179,285.65,109.561,285.65,105.095z
	 M310.969,113.179c4.471,0,8.094-3.618,8.094-8.084s-3.623-8.084-8.094-8.084h-1.078c-4.471,0-8.094,3.618-8.094,8.084
	s3.623,8.084,8.094,8.084H310.969z M140.121,363.79c0,4.466,3.623,8.084,8.094,8.084h129.341c4.471,0,8.094-3.618,8.094-8.084
	s-3.623-8.084-8.094-8.084H148.215C143.744,355.705,140.121,359.324,140.121,363.79z M309.892,355.705
	c-4.471,0-8.094,3.618-8.094,8.084s3.623,8.084,8.094,8.084h1.078c4.471,0,8.094-3.618,8.094-8.084s-3.623-8.084-8.094-8.084
	H309.892z M361.1,234.442c0-4.466-3.623-8.084-8.094-8.084h-85.15c-4.471,0-8.094,3.618-8.094,8.084
	c0,4.466,3.623,8.084,8.094,8.084h85.15C357.476,242.526,361.1,238.908,361.1,234.442z M307.208,169.769
	c0-4.466-3.623-8.084-8.094-8.084h-85.15c-4.471,0-8.094,3.618-8.094,8.084c0,4.466,3.623,8.084,8.094,8.084h85.15
	C303.584,177.853,307.208,174.234,307.208,169.769z M307.208,299.116c0-4.466-3.623-8.084-8.094-8.084h-85.15
	c-4.471,0-8.094,3.618-8.094,8.084s3.623,8.084,8.094,8.084h85.15C303.584,307.2,307.208,303.582,307.208,299.116z M289.413,420.379
	h-65.749c-4.471,0-8.094,3.618-8.094,8.084c0,4.466,3.623,8.084,8.094,8.084h65.748c4.471,0,8.094-3.618,8.094-8.084
	C297.505,423.998,293.883,420.379,289.413,420.379z M234.442,226.358c-4.471,0-8.094,3.618-8.094,8.084
	c0,4.466,3.623,8.084,8.094,8.084h1.078c4.471,0,8.094-3.618,8.094-8.084c0-4.466-3.623-8.084-8.094-8.084H234.442z"/>
<g>
</g>
<g>
</g>
<g>
</g>
<g>
</g>
<g>
</g>
<g>
</g>
<g>
</g>
<g>
</g>
<g>
</g>
<g>
</g>
<g>
</g>
<g>
</g>
<g>
</g>
<g>
</g>
<g>
</g>
</svg>
