<?xml version="1.0" encoding="iso-8859-1"?>
<!-- Generator: Adobe Illustrator 19.0.0, SVG Export Plug-In . SVG Version: 6.00 Build 0)  -->
<svg version="1.1" id="Capa_1" xmlns="http://www.w3.org/2000/svg" xmlns:xlink="http://www.w3.org/1999/xlink" x="0px" y="0px"
	 viewBox="0 0 511.999 511.999" style="enable-background:new 0 0 511.999 511.999;" xml:space="preserve">
<path style="fill:#F3C74F;" d="M233.44,372.472c-5.458,1.931-11.748,0.103-15.249-4.862c-4.219-5.982-2.791-14.252,3.192-18.472
	c12.647-8.92,22.832-18.421,29.255-52.099c1.372-7.192,8.312-11.91,15.504-10.538c7.192,1.371,11.909,8.313,10.538,15.504
	c-7.445,39.037-20.831,55.266-40.017,68.797C235.645,371.521,234.56,372.075,233.44,372.472z"/>
<path style="fill:#FFFFFF;" d="M226.943,247.846L86.046,264.691c-10.412,1.245-18.25,10.076-18.25,20.563l0,0
	c0,8.048,6.524,14.571,14.571,14.571h144.577v-51.979H226.943z"/>
<path style="opacity:0.1;enable-background:new    ;" d="M226.943,247.846L86.046,264.691c-10.412,1.245-18.25,10.076-18.25,20.563
	l0,0c0,8.048,6.524,14.571,14.571,14.571h144.577v-51.979H226.943z"/>
<path style="opacity:0.05;enable-background:new    ;" d="M103.88,262.56c6.24,15.04,16.607,27.922,29.685,37.266h93.378v-51.978
	L103.88,262.56z"/>
<path style="fill:#F3C74F;" d="M169.31,372.472c-5.458,1.931-11.748,0.103-15.249-4.862c-4.219-5.982-2.791-14.252,3.192-18.472
	c12.647-8.92,22.832-18.421,29.255-52.099c1.372-7.192,8.312-11.91,15.505-10.538c7.191,1.371,11.909,8.313,10.538,15.504
	c-7.445,39.037-20.831,55.266-40.017,68.797C171.515,371.521,170.43,372.075,169.31,372.472z"/>
<path style="opacity:0.05;enable-background:new    ;" d="M202.012,286.501c-7.192-1.372-14.132,3.346-15.505,10.538
	c-2.166,11.357-4.761,19.957-7.733,26.72c4.756,0.811,9.637,1.257,14.624,1.257h13.255c2.261-6.68,4.228-14.269,5.896-23.01
	C213.921,294.814,209.204,287.872,202.012,286.501z"/>
<path style="opacity:0.05;enable-background:new    ;" d="M266.143,286.501c-7.192-1.372-14.132,3.346-15.504,10.538
	c-2.303,12.075-5.092,21.031-8.302,27.977h28.448c2.261-6.68,4.229-14.269,5.896-23.01
	C278.052,294.814,273.334,287.872,266.143,286.501z"/>
<path style="fill:#FFFFFF;" d="M325.94,138.777H200.739c-47.738,0-86.436,38.699-86.436,86.436l0,0
	c0,47.738,38.699,86.436,86.436,86.436H325.94c47.738,0,86.436-38.699,86.436-86.436l0,0
	C412.376,177.477,373.678,138.777,325.94,138.777z"/>
<path style="opacity:0.05;enable-background:new    ;" d="M176.281,218.532l-61.805,1.436c-0.104,1.737-0.173,3.484-0.173,5.247l0,0
	c0,19.032,6.165,36.615,16.586,50.894l45.392,1.054c16.457,0.383,30.004-12.854,30.004-29.315l0,0
	C206.285,231.385,192.738,218.149,176.281,218.532z"/>
<path style="fill:#F3C74F;" d="M463.294,203.073h-94.323c-17.618,0-31.901,14.282-31.901,31.901l0,0
	c0,17.618,14.282,31.9,31.901,31.9h112.027c12.729,0,23.049-10.319,23.049-23.049l0,0
	C504.048,221.317,485.802,203.073,463.294,203.073z"/>
<path style="fill:#F0B0B7;" d="M316.432,218.782h-27.131c-4.393,0-7.953-3.561-7.953-7.953c0-4.392,3.56-7.953,7.953-7.953h27.131
	c4.393,0,7.953,3.561,7.953,7.953C324.385,215.221,320.824,218.782,316.432,218.782z"/>
<path style="fill:#394049;" d="M182.219,267.448l-159.941-3.716c-7.964-0.185-14.324-6.695-14.324-14.661l0,0
	c0-19.635,15.675-35.678,35.305-36.135l138.961-3.228c16.207-0.376,29.548,12.658,29.548,28.869l0,0
	C211.767,254.79,198.426,267.826,182.219,267.448z"/>
<path style="opacity:0.08;enable-background:new    ;" d="M338.326,243.825c3.838,13.31,16.101,23.049,30.647,23.049h112.027
	c12.729,0,23.049-10.319,23.049-23.049H338.326z"/>
<path d="M340.04,185.954c0-9.14-7.437-16.576-16.577-16.576c-9.14,0-16.576,7.436-16.576,16.576c0,4.392,3.56,7.953,7.953,7.953
	s7.953-3.561,7.953-7.953c0-0.369,0.3-0.669,0.669-0.669c0.37,0,0.67,0.3,0.67,0.669c0,4.392,3.56,7.953,7.953,7.953
	S340.04,190.347,340.04,185.954z M463.295,195.119h-47.9c-12.805-38.147-48.731-64.294-89.455-64.294H200.739
	c-22.545,0-44.368,8.079-61.449,22.748c-15.194,13.05-25.809,30.577-30.378,49.885l-65.838,1.529
	C19.323,205.539,0,225.316,0,249.072c0,12.185,9.911,22.33,22.092,22.612l40.692,0.945c-1.88,3.832-2.942,8.119-2.942,12.623
	c0,12.42,10.104,22.525,22.524,22.525h72.601c5.85,3.244,12.053,5.856,18.504,7.8c-5.42,15.212-12.188,20.985-20.8,27.06
	c-4.63,3.265-7.71,8.138-8.675,13.721c-0.965,5.582,0.302,11.206,3.567,15.836c4.048,5.739,10.619,8.98,17.382,8.98
	c2.349,0,4.722-0.391,7.019-1.205c1.826-0.646,3.56-1.543,5.155-2.668c17.489-12.335,31.002-27.097,39.512-57.698h19.396
	c-5.216,12.328-11.651,17.692-19.227,23.036c-4.63,3.265-7.71,8.138-8.675,13.721c-0.965,5.582,0.303,11.207,3.568,15.836
	c4.048,5.739,10.618,8.98,17.382,8.98c2.349,0,4.722-0.391,7.02-1.205c1.826-0.646,3.56-1.544,5.154-2.668
	c17.489-12.335,31.001-27.097,39.512-57.698h45.18c32.796,0,63.125-17.044,80.285-44.777h74.773
	c17.094,0,31.002-13.908,31.002-31.002C512,216.969,490.152,195.119,463.295,195.119z M22.461,255.783
	c-3.614-0.084-6.555-3.093-6.555-6.709c0-15.188,12.353-27.831,27.536-28.183l138.961-3.228c5.679-0.136,11.046,1.982,15.108,5.952
	c4.064,3.97,6.301,9.285,6.301,14.967c0,5.681-2.238,10.997-6.301,14.966c-4.064,3.97-9.445,6.099-15.108,5.952L22.461,255.783z
	 M82.366,291.871c-3.649,0-6.617-2.969-6.617-6.618c0-5.58,3.594-10.436,8.842-12.118l35.325,0.821
	c3.979,6.592,8.688,12.591,13.997,17.915H82.366z M167.95,364.302c-0.404,0.285-0.839,0.511-1.294,0.671
	c-2.224,0.788-4.732-0.014-6.095-1.948c-0.817-1.157-1.133-2.563-0.892-3.959c0.242-1.396,1.012-2.613,2.169-3.429
	c10.352-7.301,20.23-15.71,27.313-36.757c3.591,0.442,7.228,0.685,10.9,0.712C192.79,342.855,182.197,354.254,167.95,364.302z
	 M232.081,364.302c-0.404,0.285-0.839,0.511-1.294,0.671c-2.226,0.788-4.732-0.014-6.096-1.948
	c-0.817-1.157-1.133-2.563-0.892-3.959c0.241-1.396,1.012-2.613,2.169-3.429c10.234-7.218,20.004-15.503,27.067-36.034h11.143
	C256.916,342.859,246.325,354.255,232.081,364.302z M325.94,303.696H200.739c-24.038,0-46.391-10.948-61.139-29.282l42.435,0.986
	c0.295,0.006,0.589,0.011,0.882,0.011c9.669,0,18.771-3.705,25.712-10.488c7.153-6.988,11.092-16.344,11.092-26.343
	c0-10-3.94-19.356-11.092-26.344c-7.153-6.988-16.598-10.721-26.595-10.477l-56.582,1.315c4.25-14.445,12.631-27.496,24.201-37.432
	c14.198-12.194,32.34-18.91,51.085-18.91h125.202c32.029,0,60.493,19.447,72.489,48.388h-29.457
	c-21.977,0-39.854,17.878-39.854,39.854c0,21.975,17.878,39.854,39.854,39.854h17.761C371.97,292.9,349.736,303.696,325.94,303.696z
	 M480.998,258.92H368.973c-6.662,0-12.695-2.737-17.04-7.142h141.872C491.137,256.057,486.402,258.92,480.998,258.92z
	 M345.048,235.872c-0.011-0.299-0.022-0.597-0.022-0.899c0-13.205,10.743-23.948,23.948-23.948h94.322
	c15.343,0,28.254,10.592,31.818,24.846H345.048V235.872z M364.668,193.907c4.393,0,7.953-3.561,7.953-7.953
	c0-0.369,0.3-0.669,0.67-0.669s0.67,0.3,0.67,0.669c0,4.392,3.56,7.953,7.953,7.953c4.393,0,7.953-3.561,7.953-7.953
	c0-9.14-7.437-16.576-16.577-16.576s-16.577,7.436-16.577,16.576C356.715,190.347,360.275,193.907,364.668,193.907z"/>
<g>
</g>
<g>
</g>
<g>
</g>
<g>
</g>
<g>
</g>
<g>
</g>
<g>
</g>
<g>
</g>
<g>
</g>
<g>
</g>
<g>
</g>
<g>
</g>
<g>
</g>
<g>
</g>
<g>
</g>
</svg>
