<?xml version="1.0" encoding="iso-8859-1"?>
<!-- Generator: Adobe Illustrator 19.0.0, SVG Export Plug-In . SVG Version: 6.00 Build 0)  -->
<svg version="1.1" id="Capa_1" xmlns="http://www.w3.org/2000/svg" xmlns:xlink="http://www.w3.org/1999/xlink" x="0px" y="0px"
	 viewBox="0 0 512.002 512.002" style="enable-background:new 0 0 512.002 512.002;" xml:space="preserve">
<g>
	<g>
		<polygon style="fill:#E4E5E5;" points="227.45,227.854 256.004,193.762 102.097,10.006 10.01,10.006 10.01,102.093 
			199.706,260.979 		"/>
		<polygon style="fill:#E4E5E5;" points="256.004,193.762 227.45,227.854 199.706,260.979 158.112,310.64 182.802,329.202 
			201.367,353.895 256.004,308.132 312.301,260.979 501.998,102.093 501.998,10.006 409.912,10.008 		"/>
		<polygon style="fill:#E4E5E5;" points="312.301,260.979 284.372,284.368 329.205,329.202 353.896,310.64 		"/>
		<polygon style="fill:#E4E5E5;" points="329.205,329.202 284.372,284.368 256.004,308.132 310.643,353.895 		"/>
	</g>
	<g>
		<polygon style="fill:#FFBA50;" points="225.639,386.184 201.367,353.895 182.802,329.202 158.112,310.64 125.822,286.366 
			93.121,319.066 117.701,351.761 135.956,376.048 160.246,394.306 192.939,418.883 		"/>
		<polygon style="fill:#FFBA50;" points="310.643,353.895 286.368,386.184 319.071,418.885 351.761,394.306 376.052,376.048 
			394.309,351.761 418.889,319.066 386.187,286.366 353.896,310.64 329.205,329.202 		"/>
	</g>
	<polygon style="fill:#947C6B;" points="160.246,394.306 135.956,376.048 117.701,351.761 80.95,388.511 129.525,425.027 	"/>
	<polygon style="fill:#C7A87E;" points="129.525,425.027 80.95,388.511 42.499,426.96 91.075,463.477 	"/>
	<g>
		<path style="fill:#947C6B;" d="M91.075,463.477L42.499,426.96l-26.655,26.655c-7.779,7.778-7.779,20.506-0.002,28.283
			l14.268,14.264c7.777,7.777,20.504,7.777,28.28,0L91.075,463.477z"/>
		<polygon style="fill:#947C6B;" points="351.761,394.306 382.486,425.027 431.063,388.511 394.309,351.761 376.052,376.048 		"/>
	</g>
	<polygon style="fill:#C7A87E;" points="431.063,388.511 382.486,425.027 420.934,463.477 469.509,426.96 	"/>
	<path style="fill:#947C6B;" d="M469.509,426.96l-48.575,36.517l32.687,32.685c7.777,7.777,20.502,7.777,28.28,0l14.266-14.264
		c7.777-7.778,7.777-20.506-0.002-28.283L469.509,426.96z"/>
</g>
<g>
	<path style="fill:#000001;" d="M340.557,181.454c2.559,0,5.117-0.976,7.07-2.929l0.168-0.167c3.904-3.905,3.904-10.237,0-14.143
		c-3.906-3.905-10.236-3.905-14.143,0l-0.168,0.167c-3.904,3.905-3.904,10.237,0,14.143
		C335.438,180.479,337.996,181.454,340.557,181.454z"/>
	<path style="fill:#000001;" d="M503.235,446.544L407.52,350.83l19.363-25.754c2.992-3.981,2.6-9.558-0.922-13.08l-32.702-32.7
		c-3.523-3.522-9.1-3.914-13.08-0.922l-24.706,18.574l-29.083-34.724L508.42,109.758c2.268-1.899,3.578-4.707,3.578-7.666V10.005
		c0-5.523-4.477-10-10-10h-92.086c-2.959,0-5.766,1.311-7.666,3.579L256.004,178.19L109.763,3.585
		c-1.898-2.269-4.707-3.579-7.666-3.579H10.01c-5.521,0-10,4.477-10,10v92.088c0,2.959,1.311,5.767,3.58,7.666L185.62,262.224
		l-29.083,34.724l-24.708-18.574c-3.979-2.991-9.557-2.599-13.08,0.923l-32.698,32.699c-3.521,3.523-3.916,9.099-0.922,13.08
		l19.359,25.754L8.774,446.544c-11.697,11.696-11.699,30.727-0.002,42.427l14.266,14.263c5.65,5.651,13.184,8.763,21.213,8.763
		c8.027,0,15.561-3.111,21.211-8.763l95.717-95.716l25.753,19.36c1.791,1.346,3.902,2.007,6.006,2.007
		c2.574,0,5.137-0.99,7.074-2.929l32.702-32.701c3.521-3.522,3.914-9.1,0.922-13.08l-18.574-24.705l40.944-34.294l40.946,34.293
		l-18.574,24.706c-2.994,3.982-2.6,9.558,0.922,13.08l32.7,32.701c1.94,1.938,4.5,2.929,7.074,2.929
		c2.103,0,4.217-0.661,6.006-2.007l25.753-19.36l95.717,95.716c5.65,5.651,13.184,8.763,21.213,8.763
		c8.027,0,15.561-3.111,21.211-8.763l14.266-14.264c5.65-5.651,8.764-13.185,8.764-21.214
		C511.998,459.728,508.887,452.194,503.235,446.544z M397.699,426.101l32.429-24.378l24.165,24.165l-32.429,24.378L397.699,426.101z
		 M330.137,315.991l-30.968-30.969l11.889-9.957l28.405,33.914L330.137,315.991z M20.009,97.426v-77.42h77.42l145.532,173.757
		l-16.164,19.298l-28.362-28.364c-3.906-3.905-10.236-3.905-14.142,0s-3.906,10.237,0,14.143l29.614,29.614l-5.875,7.013
		l-9.57,11.428L20.009,97.426z M207.37,267.403c0-0.002,0.002-0.003,0.002-0.004l22.895-27.337L414.582,20.005h77.416v77.42
		L278.392,276.337c-0.309,0.229-0.607,0.478-0.895,0.748l-74.471,62.376l-7.014-9.328l131.296-131.296
		c3.906-3.905,3.906-10.237,0-14.143c-3.906-3.905-10.236-3.905-14.143,0L181.87,315.99l-9.326-7.011L207.37,267.403z
		 M90.143,450.266l-32.429-24.378l24.167-24.166L114.31,426.1L90.143,450.266z M51.318,489.091
		c-1.871,1.873-4.383,2.904-7.068,2.904c-2.688,0-5.197-1.031-7.07-2.905l-14.266-14.262c-3.898-3.9-3.898-10.243,0.002-14.143
		l20.516-20.517l32.429,24.378L51.318,489.091z M128.593,411.816l-32.429-24.378l20.463-20.463l11.338,15.081
		c0.328,0.439,0.703,0.839,1.1,1.217c0.281,0.27,0.572,0.533,0.885,0.769l5.588,4.201l9.494,7.137L128.593,411.816z
		 M192.007,405.674l-25.706-19.324c-0.016-0.013-0.029-0.027-0.045-0.039l-23.157-17.405l-17.406-23.154
		c-0.004-0.005-0.008-0.01-0.012-0.015l-19.35-25.738l20.422-20.422l48.907,36.767l36.769,48.908L192.007,405.674z M283.777,297.915
		l32.218,32.219l-7.012,9.326l-37.405-31.328L283.777,297.915z M320.002,405.674l-20.424-20.423l19.053-25.343
		c0.002-0.002,0.004-0.004,0.006-0.006l17.711-23.559l48.907-36.767l20.424,20.422l-19.346,25.733
		c-0.006,0.007-0.012,0.013-0.018,0.02l-17.406,23.154l-23.155,17.406c-0.012,0.008-0.021,0.018-0.031,0.025L320.002,405.674z
		 M382.06,384.041c0.752-0.564,1.42-1.232,1.984-1.984l11.338-15.082l20.465,20.465l-32.429,24.378l-16.44-16.439L382.06,384.041z
		 M489.096,474.828l-14.266,14.264c-1.875,1.873-4.385,2.904-7.07,2.904c-2.688,0-5.197-1.031-7.07-2.904l-24.542-24.542
		l32.429-24.378l20.518,20.518c1.873,1.873,2.904,4.384,2.906,7.07C492,470.444,490.967,472.955,489.096,474.828z"/>
	<path style="fill:#000001;" d="M177.952,164.216c-3.906-3.905-10.236-3.905-14.143,0c-3.904,3.905-3.904,10.237,0,14.143
		l0.168,0.167c1.953,1.953,4.512,2.929,7.07,2.929c2.561,0,5.119-0.976,7.072-2.929c3.904-3.905,3.904-10.237,0-14.143
		L177.952,164.216z"/>
</g>
<g>
</g>
<g>
</g>
<g>
</g>
<g>
</g>
<g>
</g>
<g>
</g>
<g>
</g>
<g>
</g>
<g>
</g>
<g>
</g>
<g>
</g>
<g>
</g>
<g>
</g>
<g>
</g>
<g>
</g>
</svg>
