<?xml version="1.0" encoding="iso-8859-1"?>
<!-- Generator: Adobe Illustrator 19.0.0, SVG Export Plug-In . SVG Version: 6.00 Build 0)  -->
<svg version="1.1" id="Layer_1" xmlns="http://www.w3.org/2000/svg" xmlns:xlink="http://www.w3.org/1999/xlink" x="0px" y="0px"
	 viewBox="0 0 512 512" style="enable-background:new 0 0 512 512;" xml:space="preserve">
<g>
	<rect x="377.296" y="259.076" style="fill:#B4E1FA;" width="52.353" height="31.824"/>
	<rect x="220.656" y="259.076" style="fill:#B4E1FA;" width="70.687" height="31.824"/>
</g>
<g>
	<rect x="81.994" y="357.876" style="fill:#82B1E1;" width="51.934" height="31.824"/>
	<rect x="377.296" y="357.876" style="fill:#82B1E1;" width="52.353" height="31.824"/>
	<rect x="377.296" y="219.842" style="fill:#82B1E1;" width="52.353" height="31.836"/>
	<rect x="220.656" y="219.842" style="fill:#82B1E1;" width="70.687" height="31.836"/>
	<rect x="81.994" y="219.842" style="fill:#82B1E1;" width="51.934" height="31.836"/>
</g>
<g>
	<rect x="377.296" y="397.097" style="fill:#B4E1FA;" width="52.353" height="31.824"/>
	<rect x="81.994" y="397.097" style="fill:#B4E1FA;" width="51.934" height="31.824"/>
	<rect x="81.994" y="259.076" style="fill:#B4E1FA;" width="51.934" height="31.824"/>
</g>
<path style="fill:#C7CFE2;" d="M220.656,420.035l6.044,0.118c0.947,0.019,1.87,0.408,2.53,1.068c0.676,0.677,1.08,1.656,1.08,2.62
	c0,0.964-0.403,1.943-1.08,2.619c-0.661,0.661-1.583,1.05-2.53,1.069l-6.044,0.118v70.79h70.687V357.876h-70.687V420.035z"/>
<path style="fill:#91BEF0;" d="M180.584,87.025v411.412h32.674v-144.26c0-2.039,1.66-3.699,3.699-3.699h78.085
	c2.039,0,3.699,1.66,3.699,3.699v144.26h31.75V86.669l-74.496-33.135L180.584,87.025z M298.742,216.144v78.455
	c0,2.039-1.66,3.699-3.699,3.699h-78.085c-2.039,0-3.699-1.66-3.699-3.699v-78.455c0-2.039,1.66-3.699,3.699-3.699h78.085
	C297.082,212.445,298.742,214.104,298.742,216.144z M289.642,136.517c0,18.56-15.094,33.661-33.648,33.661
	s-33.648-15.1-33.648-33.661c0-18.554,15.094-33.648,33.648-33.648S289.642,117.963,289.642,136.517z"/>
<g>
	<path style="fill:#82B1E1;" d="M42.686,498.437h130.5V179.857h-130.5V498.437z M74.596,216.144c0-2.039,1.66-3.699,3.699-3.699
		h59.332c2.039,0,3.699,1.66,3.699,3.699v78.455c0,2.039-1.66,3.699-3.699,3.699H78.295c-2.039,0-3.699-1.66-3.699-3.699V216.144z
		 M74.596,354.177c0-2.039,1.66-3.699,3.699-3.699h59.332c2.039,0,3.699,1.66,3.699,3.699v78.443c0,2.039-1.66,3.699-3.699,3.699
		H78.295c-2.039,0-3.699-1.66-3.699-3.699V354.177z"/>
	<path style="fill:#82B1E1;" d="M337.889,179.857v318.581h131.412V186.983c0-0.163,0.018-0.324,0.031-0.487l0.512-6.638H337.889
		V179.857z M437.046,432.62c0,2.039-1.66,3.699-3.699,3.699h-59.751c-2.039,0-3.699-1.66-3.699-3.699v-78.443
		c0-2.039,1.66-3.699,3.699-3.699h59.751c2.039,0,3.699,1.66,3.699,3.699V432.62z M437.046,294.599c0,2.039-1.66,3.699-3.699,3.699
		h-59.751c-2.039,0-3.699-1.66-3.699-3.699v-78.455c0-2.039,1.66-3.699,3.699-3.699h59.751c2.039,0,3.699,1.66,3.699,3.699V294.599z
		"/>
</g>
<path style="fill:#5B5D6E;" d="M341.28,51.837l-85.285-37.931l-85.078,37.779v31.53l83.594-37.12
	c0.462-0.206,0.975-0.316,1.482-0.316c0.515,0,1.032,0.109,1.502,0.319L341.28,83.37V51.837z"/>
<g>
	<path style="fill:#8F96AC;" d="M165.21,92.021c-1.058-0.689-1.69-1.852-1.69-3.108V72.229H61.724l-28.428,100.23h139.89V92.71
		l-6.039-0.125C166.431,92.572,165.754,92.371,165.21,92.021z"/>
	<path style="fill:#8F96AC;" d="M450.486,72.229H348.678v16.83c0,1.256-0.633,2.419-1.662,3.09
		c-0.618,0.398-1.323,0.609-2.036,0.609c-0.144-0.002-0.289-0.018-0.434-0.03l-6.658-0.534v80.264h141.01L450.486,72.229z"/>
</g>
<path style="fill:#B4E1FA;" d="M255.994,116.431c11.085,0,20.085,9.013,20.085,20.085c0,11.085-9.001,20.098-20.085,20.098
	c-11.072,0-20.085-9.013-20.085-20.098C235.908,125.445,244.922,116.431,255.994,116.431z"/>
<path d="M493.148,492.272c5.438,0,9.864,4.414,9.864,9.864c0,5.45-4.426,9.864-9.864,9.864H18.852c-5.45,0-9.864-4.414-9.864-9.864
	c0-5.45,4.414-9.864,9.864-9.864h10.271V186.022h-0.678c-0.012,0-0.025,0.012-0.037,0.012c-0.037,0-0.074-0.012-0.111-0.012
	c-0.37,0-0.74-0.037-1.097-0.074c-0.111-0.012-0.222-0.037-0.333-0.049c-0.333-0.062-0.678-0.123-0.999-0.21
	c-0.049-0.012-0.099-0.025-0.148-0.037c-0.037-0.012-0.062-0.012-0.086-0.025c-0.222-0.062-0.432-0.136-0.641-0.222
	c-0.099-0.037-0.197-0.062-0.308-0.111c-0.185-0.074-0.358-0.16-0.53-0.247c-0.123-0.049-0.247-0.111-0.37-0.173
	c-0.136-0.074-0.271-0.16-0.407-0.234c-0.148-0.086-0.296-0.173-0.432-0.271c-0.111-0.062-0.197-0.136-0.296-0.21
	c-0.173-0.123-0.333-0.234-0.481-0.358c-0.086-0.062-0.16-0.136-0.234-0.21c-0.16-0.136-0.321-0.284-0.469-0.432
	c-0.086-0.074-0.16-0.16-0.234-0.247c-0.136-0.148-0.271-0.284-0.407-0.444c-0.099-0.111-0.185-0.234-0.271-0.358
	c-0.099-0.136-0.197-0.247-0.284-0.382c-0.111-0.16-0.21-0.333-0.308-0.493c-0.062-0.099-0.123-0.197-0.185-0.308
	c-0.099-0.173-0.197-0.37-0.284-0.567c-0.049-0.086-0.099-0.185-0.136-0.271c-0.074-0.185-0.148-0.37-0.21-0.567
	c-0.049-0.111-0.086-0.222-0.123-0.345c-0.062-0.16-0.099-0.321-0.136-0.481c-0.049-0.16-0.086-0.308-0.123-0.469
	c-0.025-0.123-0.049-0.259-0.074-0.395c-0.025-0.197-0.062-0.382-0.086-0.58c-0.012-0.111-0.012-0.222-0.025-0.333
	c-0.012-0.222-0.025-0.444-0.037-0.666c0-0.037,0-0.062,0-0.099c0-0.086,0.012-0.16,0.012-0.247c0.012-0.21,0.012-0.419,0.037-0.629
	c0.012-0.16,0.037-0.308,0.049-0.469c0.025-0.16,0.049-0.321,0.074-0.481c0.037-0.197,0.086-0.395,0.136-0.592
	c0.025-0.099,0.037-0.185,0.062-0.271L49.431,65.842c0.012-0.025,0.025-0.062,0.037-0.086c0.062-0.21,0.136-0.419,0.21-0.616
	c0.037-0.111,0.074-0.222,0.111-0.333c0.074-0.173,0.16-0.345,0.234-0.506c0.062-0.136,0.123-0.271,0.197-0.395
	c0.062-0.123,0.136-0.247,0.21-0.37c0.099-0.16,0.185-0.321,0.296-0.481c0.049-0.074,0.111-0.16,0.173-0.234
	c0.123-0.185,0.259-0.37,0.395-0.543c0.049-0.049,0.099-0.099,0.148-0.148c0.16-0.197,0.321-0.382,0.493-0.555
	c0.049-0.049,0.099-0.086,0.148-0.136c0.185-0.173,0.358-0.345,0.543-0.493c0.074-0.062,0.16-0.123,0.234-0.185
	c0.173-0.123,0.333-0.259,0.518-0.382c0.111-0.074,0.222-0.136,0.345-0.21c0.148-0.099,0.296-0.197,0.444-0.271
	c0.148-0.086,0.284-0.148,0.432-0.222c0.136-0.062,0.284-0.136,0.419-0.197c0.148-0.062,0.296-0.111,0.444-0.173
	c0.148-0.062,0.308-0.123,0.456-0.173c0.136-0.037,0.271-0.074,0.395-0.099c0.185-0.062,0.37-0.111,0.555-0.148
	c0.111-0.025,0.222-0.037,0.333-0.062c0.21-0.037,0.432-0.074,0.653-0.099c0.086-0.012,0.185-0.012,0.284-0.012
	c0.234-0.025,0.469-0.037,0.703-0.037c0.037,0,0.062-0.012,0.086-0.012h98.43v-9.383c0-3.896,2.306-7.423,5.869-9.013l88.775-39.419
	c2.552-1.134,5.462-1.134,8.002,0l88.985,39.567c3.563,1.591,5.857,5.117,5.857,9.013v9.235h98.43c0.037,0,0.062,0.012,0.099,0.012
	c0.222,0,0.432,0.012,0.641,0.025c0.123,0.012,0.247,0.012,0.358,0.025c0.185,0.025,0.37,0.062,0.555,0.086
	c0.148,0.025,0.284,0.049,0.432,0.074c0.148,0.037,0.284,0.074,0.432,0.111c0.173,0.049,0.345,0.099,0.518,0.148
	c0.099,0.037,0.197,0.074,0.308,0.111c0.197,0.074,0.395,0.148,0.592,0.234c0.086,0.037,0.16,0.074,0.247,0.111
	c0.197,0.099,0.407,0.197,0.604,0.296c0.086,0.062,0.173,0.111,0.271,0.173c0.173,0.099,0.345,0.21,0.518,0.321
	c0.123,0.086,0.234,0.185,0.358,0.271c0.123,0.099,0.259,0.185,0.382,0.296c0.148,0.123,0.284,0.247,0.419,0.382
	c0.099,0.086,0.185,0.16,0.271,0.247c0.148,0.148,0.284,0.308,0.432,0.469c0.062,0.074,0.136,0.16,0.21,0.234
	c0.123,0.16,0.234,0.321,0.358,0.481c0.074,0.099,0.148,0.197,0.21,0.296c0.099,0.136,0.185,0.296,0.271,0.444
	c0.074,0.123,0.16,0.259,0.234,0.395c0.062,0.123,0.123,0.259,0.173,0.382c0.086,0.173,0.173,0.345,0.247,0.518
	c0.037,0.111,0.074,0.222,0.123,0.333c0.074,0.197,0.148,0.407,0.21,0.617c0,0.025,0.012,0.062,0.025,0.086l30.517,107.628
	c1.492,5.24-1.554,10.702-6.794,12.182c-0.9,0.259-1.813,0.382-2.7,0.382c-0.099,0-0.197-0.025-0.296-0.025
	c-0.136,0-0.271,0.012-0.419,0.012h-0.259c0.037,0.321,0.049,0.641,0.049,0.962v305.289H493.148z M470.744,166.294l-24.919-87.9
	h-90.983v10.665c0,3.341-1.689,6.449-4.488,8.273c-1.628,1.048-3.502,1.591-5.376,1.591c-0.308,0-0.616-0.025-0.925-0.049v67.42
	H470.744z M463.186,186.022H344.054v306.251h119.082V186.983C463.137,186.663,463.161,186.342,463.186,186.022z M335.115,73.881
	V55.842l-79.121-35.19l-78.911,35.042v18.039l74.917-33.266c1.27-0.567,2.639-0.851,3.995-0.851c1.369,0,2.737,0.284,4.007,0.851
	L335.115,73.881z M324.326,492.272V90.674l-68.332-30.393l-69.245,30.751v401.24h20.344V354.177c0-5.45,4.414-9.864,9.864-9.864
	h78.085c5.45,0,9.864,4.414,9.864,9.864v138.095H324.326z M285.179,492.272V364.041h-58.358v49.949
	c2.528,0.049,4.981,1.085,6.769,2.873c1.837,1.837,2.885,4.377,2.885,6.979c0,2.602-1.048,5.142-2.885,6.979
	c-1.788,1.788-4.241,2.824-6.769,2.873v58.579H285.179z M167.021,492.272V186.022H48.851v306.251H167.021z M167.021,166.294V98.75
	c-1.813-0.037-3.613-0.555-5.179-1.566c-2.799-1.825-4.488-4.932-4.488-8.273V78.394h-90.97l-24.931,87.9H167.021z"/>
<path d="M443.211,354.177v78.443c0,5.45-4.426,9.864-9.864,9.864h-59.751c-5.45,0-9.864-4.414-9.864-9.864v-78.443
	c0-5.45,4.414-9.864,9.864-9.864h59.751C438.785,344.313,443.211,348.727,443.211,354.177z M423.483,422.756v-19.494h-40.023v19.494
	H423.483z M423.483,383.535v-19.494h-40.023v19.494H423.483z"/>
<path d="M443.211,216.144v78.455c0,5.45-4.426,9.864-9.864,9.864h-59.751c-5.45,0-9.864-4.414-9.864-9.864v-78.455
	c0-5.438,4.414-9.864,9.864-9.864h59.751C438.785,206.28,443.211,210.706,443.211,216.144z M423.483,284.735v-19.494h-40.023v19.494
	H423.483z M423.483,245.513v-19.506h-40.023v19.506H423.483z"/>
<path d="M304.907,216.144v78.455c0,5.45-4.414,9.864-9.864,9.864h-78.085c-5.45,0-9.864-4.414-9.864-9.864v-78.455
	c0-5.438,4.414-9.864,9.864-9.864h78.085C300.493,206.28,304.907,210.706,304.907,216.144z M285.179,284.735v-19.494h-58.358v19.494
	H285.179z M285.179,245.513v-19.506h-58.358v19.506H285.179z"/>
<path d="M255.994,96.704c21.96,0,39.813,17.866,39.813,39.813c0,21.96-17.854,39.826-39.813,39.826
	c-21.947,0-39.813-17.866-39.813-39.826C216.181,114.57,234.047,96.704,255.994,96.704z M276.079,136.517
	c0-11.072-9.001-20.085-20.085-20.085c-11.072,0-20.085,9.013-20.085,20.085c0,11.085,9.013,20.098,20.085,20.098
	C267.078,156.615,276.079,147.601,276.079,136.517z"/>
<path d="M147.491,354.177v78.443c0,5.45-4.414,9.864-9.864,9.864H78.295c-5.45,0-9.864-4.414-9.864-9.864v-78.443
	c0-5.45,4.414-9.864,9.864-9.864h59.332C143.076,344.313,147.491,348.727,147.491,354.177z M127.763,422.756v-19.494H88.159v19.494
	H127.763z M127.763,383.535v-19.494H88.159v19.494H127.763z"/>
<path d="M147.491,216.144v78.455c0,5.45-4.414,9.864-9.864,9.864H78.295c-5.45,0-9.864-4.414-9.864-9.864v-78.455
	c0-5.438,4.414-9.864,9.864-9.864h59.332C143.076,206.28,147.491,210.706,147.491,216.144z M127.763,284.735v-19.494H88.159v19.494
	H127.763z M127.763,245.513v-19.506H88.159v19.506H127.763z"/>
<g>
</g>
<g>
</g>
<g>
</g>
<g>
</g>
<g>
</g>
<g>
</g>
<g>
</g>
<g>
</g>
<g>
</g>
<g>
</g>
<g>
</g>
<g>
</g>
<g>
</g>
<g>
</g>
<g>
</g>
</svg>
