<?xml version="1.0" encoding="iso-8859-1"?>
<!-- Generator: Adobe Illustrator 19.0.0, SVG Export Plug-In . SVG Version: 6.00 Build 0)  -->
<svg version="1.1" id="Capa_1" xmlns="http://www.w3.org/2000/svg" xmlns:xlink="http://www.w3.org/1999/xlink" x="0px" y="0px"
	 viewBox="0 0 512 512" style="enable-background:new 0 0 512 512;" xml:space="preserve">
<g>
	<g transform="translate(2 1)">
		<path style="fill:#475962;" d="M49.2,408.6h375.467v76.8c0,9.426-7.641,17.067-17.067,17.067H66.267
			c-9.426,0-17.067-7.641-17.067-17.067V408.6z"/>
		<path style="fill:#728F9C;" d="M49.2,408.6h349.867v76.8c0,9.426-7.641,17.067-17.067,17.067H66.267
			c-9.426,0-17.067-7.641-17.067-17.067V408.6z"/>
		<g>
			<rect x="66.267" y="87.772" style="fill:#8B685A;" width="34.133" height="283.221"/>
			<rect x="373.467" y="94.172" style="fill:#8B685A;" width="34.133" height="270.131"/>
		</g>
		<path style="fill:#728F9C;" d="M40.667,348.867H433.2c4.713,0,8.533,3.82,8.533,8.533v59.733c0,4.713-3.821,8.533-8.533,8.533
			H40.667c-4.713,0-8.533-3.821-8.533-8.533V357.4C32.133,352.687,35.954,348.867,40.667,348.867z"/>
		<path style="fill:#D7DEE2;" d="M416.133,357.4v59.733c0.129,4.559-3.443,8.368-8,8.533h-368c-4.557-0.165-8.129-3.975-8-8.533
			V357.4c-0.129-4.559,3.442-8.368,8-8.533h368C412.691,349.032,416.262,352.841,416.133,357.4L416.133,357.4z"/>
		<path style="fill:#61443C;" d="M430.811,109.933H43.056c-2.626,0.006-5.107-1.199-6.725-3.267
			c-1.618-2.068-2.191-4.767-1.552-7.314l19.712-78.933c1.892-7.595,8.728-12.915,16.555-12.885h331.776
			c7.827-0.03,14.662,5.29,16.555,12.885l19.712,78.933c0.638,2.547,0.065,5.246-1.552,7.314
			C435.918,108.734,433.436,109.94,430.811,109.933z"/>
		<path style="fill:#8B685A;" d="M402.821,109.933H43.056c-2.626,0.006-5.107-1.199-6.725-3.267
			c-1.618-2.068-2.191-4.767-1.552-7.314l19.712-78.933c1.892-7.595,8.728-12.915,16.555-12.885h303.787
			c7.827-0.03,14.662,5.29,16.555,12.885l19.712,78.933c0.639,2.547,0.066,5.246-1.552,7.314
			C407.929,108.734,405.447,109.94,402.821,109.933L402.821,109.933z"/>
		<path style="fill:#FFBE00;" d="M151.6,144.067h170.667c9.426,0,17.067,7.641,17.067,17.067V178.2
			c0,9.426-7.641,17.067-17.067,17.067H151.6c-9.426,0-17.067-7.641-17.067-17.067v-17.067
			C134.533,151.708,142.174,144.067,151.6,144.067z"/>
		<path style="fill:#FFC900;" d="M313.733,161.133V178.2c0.522,8.814-6.128,16.414-14.933,17.067H149.467
			c-8.805-0.652-15.456-8.253-14.933-17.067v-17.067c-0.522-8.814,6.128-16.414,14.933-17.067H298.8
			C307.605,144.719,314.256,152.319,313.733,161.133L313.733,161.133z"/>
		<path style="fill:#475962;" d="M263.344,314.733h-52.821c-4.384,0-8.054-3.322-8.491-7.684l-6.827-68.267
			c-0.24-2.399,0.546-4.787,2.164-6.575c1.618-1.788,3.916-2.807,6.327-2.808h66.475c2.411,0,4.709,1.02,6.327,2.808
			c1.618,1.788,2.404,4.176,2.164,6.575l-6.827,68.267C271.398,311.411,267.728,314.733,263.344,314.733L263.344,314.733z"/>
		<g>
			<path style="fill:#728F9C;" d="M243.017,314.733H205.25c-3.135,0-5.759-3.322-6.071-7.684l-4.881-68.267
				c-0.359-5.023,2.461-9.382,6.071-9.382h47.529c3.61,0,6.43,4.359,6.071,9.382l-4.881,68.267
				C248.776,311.411,246.152,314.733,243.017,314.733z"/>
			<path style="fill:#728F9C;" d="M278.661,238.787L277.04,255h-80.213l-1.621-16.213c-0.251-2.394,0.525-4.783,2.136-6.572
				c1.611-1.79,3.904-2.812,6.312-2.814h66.56c2.408,0.002,4.701,1.025,6.312,2.814
				C278.136,234.004,278.912,236.392,278.661,238.787z"/>
		</g>
		<path style="fill:#D7DEE2;" d="M253.968,238.787L252.809,255h-57.351l-1.159-16.213c-0.366-5.035,2.441-9.387,6.04-9.387h47.589
			C251.527,229.4,254.334,233.752,253.968,238.787z"/>
	</g>
	<g>
		<path d="M25.6,179.2h34.133v162.133H42.667c-9.421,0.011-17.056,7.645-17.067,17.067v59.733
			c0.011,9.421,7.645,17.056,17.067,17.067v51.2c0.015,14.132,11.468,25.585,25.6,25.6H409.6c14.132-0.015,25.585-11.468,25.6-25.6
			v-51.2c9.421-0.011,17.056-7.645,17.067-17.067V358.4c-0.011-9.421-7.645-17.056-17.067-17.067h-17.067V179.2H435.2v34.133
			c-0.001,2.263,0.898,4.434,2.499,6.035c1.6,1.6,3.771,2.499,6.035,2.499H486.4c4.713,0,8.533-3.821,8.533-8.533
			s-3.821-8.533-8.533-8.533h-34.133v-34.133c0.001-2.263-0.898-4.434-2.499-6.035c-1.6-1.6-3.771-2.499-6.035-2.499h-25.6v-42.667
			H432.8c5.256,0.001,10.219-2.421,13.454-6.564c3.235-4.143,4.38-9.545,3.104-14.644l-19.717-78.867
			C426.806,7.988,416.56-0.013,404.808,0H73.058C61.307-0.013,51.061,7.988,48.225,19.392L28.5,98.267
			c-1.27,5.099-0.121,10.499,3.115,14.639s8.197,6.56,13.452,6.561h14.667v42.667H25.6c-4.713,0-8.533,3.821-8.533,8.533
			C17.067,175.38,20.887,179.2,25.6,179.2z M418.133,486.4c-0.005,4.711-3.822,8.529-8.533,8.533H68.267
			c-4.711-0.005-8.529-3.822-8.533-8.533v-51.2h358.4V486.4z M435.209,418.133H42.667V358.4H435.2L435.209,418.133z
			 M366.933,119.467v42.667h-17.067c-0.015-14.132-11.468-25.585-25.6-25.6H153.6c-14.132,0.015-25.585,11.468-25.6,25.6h-17.067
			v-42.667H366.933z M247.467,187.733V153.6H281.6v34.133H247.467z M153.6,187.733c-4.711-0.005-8.529-3.822-8.533-8.533v-17.067
			c0.005-4.711,3.822-8.529,8.533-8.533h25.6v34.133H153.6z M196.267,153.6H230.4v34.133h-34.133V153.6z M298.667,153.6h25.6
			c4.711,0.005,8.529,3.822,8.533,8.533V179.2c-0.005,4.711-3.822,8.529-8.533,8.533h-25.6V153.6z M110.933,179.2H128
			c0.015,14.132,11.468,25.585,25.6,25.6h76.8v17.067h-24.7c-4.823-0.001-9.421,2.038-12.657,5.614
			c-3.236,3.576-4.808,8.354-4.327,13.153l6.825,68.258c0.843,8.741,8.202,15.404,16.983,15.375h52.817
			c8.779,0.029,16.137-6.629,16.984-15.367l6.825-68.258c0.483-4.8-1.087-9.58-4.324-13.158c-3.236-3.578-7.836-5.618-12.66-5.617
			h-24.7V204.8h76.8c14.132-0.015,25.585-11.468,25.6-25.6h17.067v162.133h-256V179.2z M265.35,307.2l-0.009,8.533V307.2h-52.816
			l-4.266-42.667h61.348l-4.266,42.667H265.35z M271.314,247.467h-64.76l-0.853-8.533h66.467L271.314,247.467z M401.067,341.333H384
			V119.467h17.067V341.333z M45.058,102.4l19.717-78.867c0.948-3.802,4.365-6.47,8.283-6.467h331.75
			c3.919-0.003,7.335,2.664,8.283,6.467l19.733,78.867H45.058z M93.867,119.467v221.867H76.8V119.467H93.867z"/>
		<path d="M93.867,85.333h17.067c3.005-0.017,5.951-0.837,8.533-2.374c2.582,1.537,5.528,2.357,8.533,2.374h34.133
			c3.005-0.017,5.951-0.837,8.533-2.374c2.582,1.537,5.528,2.357,8.533,2.374h34.133c3.005-0.017,5.951-0.837,8.533-2.374
			c2.582,1.537,5.528,2.357,8.533,2.374h34.133c3.005-0.017,5.951-0.837,8.533-2.374c2.582,1.537,5.528,2.357,8.533,2.374h34.133
			c3.005-0.017,5.951-0.837,8.533-2.374c2.582,1.537,5.528,2.357,8.533,2.374h34.133c3.005-0.017,5.951-0.837,8.533-2.374
			c2.582,1.537,5.528,2.357,8.533,2.374h17.067c4.713,0,8.533-3.82,8.533-8.533c0-4.713-3.821-8.533-8.533-8.533H384V51.2
			c0-4.713-3.82-8.533-8.533-8.533s-8.533,3.821-8.533,8.533v17.067H332.8V51.2c0-4.713-3.82-8.533-8.533-8.533
			s-8.533,3.821-8.533,8.533v17.067H281.6V51.2c0-4.713-3.821-8.533-8.533-8.533s-8.533,3.821-8.533,8.533v17.067H230.4V51.2
			c0-4.713-3.821-8.533-8.533-8.533s-8.533,3.821-8.533,8.533v17.067H179.2V51.2c0-4.713-3.82-8.533-8.533-8.533
			s-8.533,3.821-8.533,8.533v17.067H128V51.2c0-4.713-3.821-8.533-8.533-8.533c-4.713,0-8.533,3.821-8.533,8.533v17.067H93.867
			c-4.713,0-8.533,3.821-8.533,8.533C85.333,81.513,89.154,85.333,93.867,85.333z"/>
		<path d="M76.8,375.467c-2.263-0.001-4.434,0.898-6.035,2.499c-1.6,1.6-2.499,3.771-2.499,6.035v17.067
			c0,4.713,3.821,8.533,8.533,8.533s8.533-3.82,8.533-8.533V384c0.001-2.263-0.898-4.434-2.499-6.035
			C81.234,376.365,79.063,375.466,76.8,375.467L76.8,375.467z"/>
		<path d="M119.467,375.467c-2.263-0.001-4.434,0.898-6.035,2.499c-1.6,1.6-2.499,3.771-2.499,6.035v17.067
			c0,4.713,3.821,8.533,8.533,8.533c4.713,0,8.533-3.82,8.533-8.533V384c0.001-2.263-0.898-4.434-2.499-6.035
			C123.901,376.365,121.73,375.466,119.467,375.467L119.467,375.467z"/>
		<path d="M162.133,375.467c-2.263-0.001-4.434,0.898-6.035,2.499c-1.6,1.6-2.499,3.771-2.499,6.035v17.067
			c0,4.713,3.82,8.533,8.533,8.533s8.533-3.82,8.533-8.533V384c0.001-2.263-0.898-4.434-2.499-6.035
			C166.568,376.365,164.397,375.466,162.133,375.467L162.133,375.467z"/>
		<path d="M204.8,375.467c-2.263-0.001-4.434,0.898-6.035,2.499c-1.6,1.6-2.499,3.771-2.499,6.035v17.067
			c0,4.713,3.821,8.533,8.533,8.533s8.533-3.82,8.533-8.533V384c0.001-2.263-0.898-4.434-2.499-6.035
			C209.234,376.365,207.063,375.466,204.8,375.467L204.8,375.467z"/>
		<path d="M247.467,375.467c-2.263-0.001-4.434,0.898-6.035,2.499c-1.6,1.6-2.499,3.771-2.499,6.035v17.067
			c0,4.713,3.821,8.533,8.533,8.533s8.533-3.82,8.533-8.533V384c0.001-2.263-0.898-4.434-2.499-6.035
			C251.901,376.365,249.73,375.466,247.467,375.467L247.467,375.467z"/>
		<path d="M290.133,375.467c-2.263-0.001-4.434,0.898-6.035,2.499c-1.6,1.6-2.499,3.771-2.499,6.035v17.067
			c0,4.713,3.82,8.533,8.533,8.533s8.533-3.82,8.533-8.533V384c0.001-2.263-0.898-4.434-2.499-6.035
			C294.568,376.365,292.397,375.466,290.133,375.467L290.133,375.467z"/>
		<path d="M332.8,375.467c-2.263-0.001-4.434,0.898-6.035,2.499c-1.6,1.6-2.499,3.771-2.499,6.035v17.067
			c0,4.713,3.82,8.533,8.533,8.533s8.533-3.82,8.533-8.533V384c0.001-2.263-0.898-4.434-2.499-6.035
			C337.234,376.365,335.063,375.466,332.8,375.467L332.8,375.467z"/>
		<path d="M375.467,375.467c-2.263-0.001-4.434,0.898-6.035,2.499c-1.6,1.6-2.499,3.771-2.499,6.035v17.067
			c0,4.713,3.821,8.533,8.533,8.533s8.533-3.82,8.533-8.533V384c0.001-2.263-0.898-4.434-2.499-6.035
			C379.901,376.365,377.73,375.466,375.467,375.467L375.467,375.467z"/>
		<path d="M85.333,477.867H358.4c4.713,0,8.533-3.82,8.533-8.533s-3.82-8.533-8.533-8.533h-34.133v-8.533
			c0-4.713-3.82-8.533-8.533-8.533s-8.533,3.821-8.533,8.533v8.533H256v-8.533c0-4.713-3.821-8.533-8.533-8.533
			s-8.533,3.821-8.533,8.533v8.533h-51.2v-8.533c0-4.713-3.821-8.533-8.533-8.533c-4.713,0-8.533,3.821-8.533,8.533v8.533h-51.2
			v-8.533c0-4.713-3.821-8.533-8.533-8.533c-4.713,0-8.533,3.821-8.533,8.533v8.533H85.333c-4.713,0-8.533,3.82-8.533,8.533
			S80.621,477.867,85.333,477.867z"/>
	</g>
</g>
<g>
</g>
<g>
</g>
<g>
</g>
<g>
</g>
<g>
</g>
<g>
</g>
<g>
</g>
<g>
</g>
<g>
</g>
<g>
</g>
<g>
</g>
<g>
</g>
<g>
</g>
<g>
</g>
<g>
</g>
</svg>
