<?xml version="1.0" encoding="iso-8859-1"?>
<!-- Generator: Adobe Illustrator 19.0.0, SVG Export Plug-In . SVG Version: 6.00 Build 0)  -->
<svg version="1.1" id="Capa_1" xmlns="http://www.w3.org/2000/svg" xmlns:xlink="http://www.w3.org/1999/xlink" x="0px" y="0px"
	 viewBox="0 0 512 512" style="enable-background:new 0 0 512 512;" xml:space="preserve">
<g>
	<rect x="32" y="104" style="fill:#8C5F50;" width="32" height="384"/>
	<rect x="400" y="104" style="fill:#8C5F50;" width="32" height="384"/>
</g>
<path style="fill:#784B41;" d="M336.001,184H128c-4.418,0-8-3.582-8-8v-16c0-4.418,3.582-8,8-8h208c4.418,0,8,3.582,8,8v16
	C344.001,180.418,340.419,184,336.001,184z"/>
<path style="fill:#9B735A;" d="M420.423,32.844c-2.71-5.42-8.25-8.844-14.31-8.844H57.889c-6.061,0-11.601,3.424-14.311,8.845L8,104
	h448L420.423,32.844z"/>
<rect x="144" y="368" style="fill:#7F8499;" width="176" height="120"/>
<path style="fill:#707487;" d="M208.001,400h112v-32h-176v120h48v-72C192.001,407.163,199.164,400,208.001,400z"/>
<path style="fill:#959CB5;" d="M320.001,344H144c-4.418,0-8,3.582-8,8v16c0,4.418,3.582,8,8,8h176.001c4.418,0,8-3.582,8-8v-16
	C328.001,347.582,324.419,344,320.001,344z"/>
<path style="fill:#7F8499;" d="M144,344c-4.418,0-8,3.582-8,8v16c0,4.418,3.582,8,8,8h48v-32H144z"/>
<g>
	<rect x="400" y="104" style="fill:#784B41;" width="32" height="32"/>
	<rect x="32" y="104" style="fill:#784B41;" width="32" height="32"/>
</g>
<path style="fill:#8C5F50;" d="M66.723,92.422l29.788-59.578c2.71-5.421,8.251-8.845,14.312-8.845H57.889
	c-6.061,0-11.603,3.425-14.313,8.846L8,104h65.878C67.931,104,64.063,97.741,66.723,92.422z"/>
<path d="M504.5,192.387h-24.048c-0.285,0-0.516-0.232-0.516-0.516v-16.032c0-8.556-6.96-15.516-15.516-15.516h-24.564v-49.129
	h16.548c2.599,0,5.013-1.346,6.38-3.557s1.491-4.972,0.328-7.297l-35.649-71.299c-4.012-8.024-12.077-13.008-21.048-13.008H57.489
	c-8.971,0-17.036,4.985-21.048,13.008L0.792,100.34c-1.163,2.325-1.039,5.086,0.328,7.297s3.781,3.557,6.38,3.557h16.548v49.129
	h-8.532c-4.142,0-7.5,3.358-7.5,7.5s3.358,7.5,7.5,7.5h8.532v305.645H7.5c-4.142,0-7.5,3.358-7.5,7.5s3.358,7.5,7.5,7.5h448.904
	c4.142,0,7.5-3.358,7.5-7.5s-3.358-7.5-7.5-7.5h-16.548V175.323h24.564c0.285,0,0.516,0.231,0.516,0.516v16.032
	c0,8.556,6.96,15.516,15.516,15.516H504.5c4.142,0,7.5-3.358,7.5-7.5S508.642,192.387,504.5,192.387z M49.857,35.749
	c1.455-2.909,4.379-4.717,7.632-4.717h348.925c3.252,0,6.177,1.807,7.632,4.717l30.222,60.445H119.727c-4.142,0-7.5,3.358-7.5,7.5
	s3.358,7.5,7.5,7.5h273.064v49.129h-41.113v-0.516c0-8.556-6.96-15.516-15.516-15.516h-208.42c-8.556,0-15.516,6.96-15.516,15.516
	v0.516H71.113v-49.129h16.545c4.142,0,7.5-3.358,7.5-7.5s-3.358-7.5-7.5-7.5H19.635L49.857,35.749z M71.113,175.323h41.113v0.516
	c0,8.556,6.96,15.516,15.516,15.516h136.791v145.323H143.774c-8.556,0-15.516,6.96-15.516,15.516v16.032
	c0,5.836,3.242,10.925,8.016,13.573v99.168H71.113V175.323z M224.452,159.29v17.064h-25.081V159.29H224.452z M264.532,159.29v17.064
	h-25.081V159.29H264.532z M336.162,159.29c0.285,0,0.516,0.231,0.516,0.516v16.032c0,0.285-0.231,0.516-0.516,0.516h-56.629V159.29
	H336.162z M184.371,176.355h-56.629c-0.285,0-0.516-0.231-0.516-0.516v-16.032c0-0.285,0.231-0.516,0.516-0.516h56.629V176.355z
	 M151.274,383.742h112.742c4.142,0,7.5-3.358,7.5-7.5s-3.358-7.5-7.5-7.5H143.774c-0.285,0-0.516-0.231-0.516-0.516v-16.032
	c0-0.285,0.231-0.516,0.516-0.516h176.355c0.285,0,0.516,0.231,0.516,0.516v16.032c0,0.285-0.231,0.516-0.516,0.516h-24.047
	c-4.142,0-7.5,3.358-7.5,7.5s3.358,7.5,7.5,7.5h16.547v97.226H151.274V383.742z M327.629,381.799
	c4.774-2.648,8.016-7.738,8.016-13.573v-16.032c0-8.556-6.96-15.516-15.516-15.516h-40.597V191.355h56.629
	c8.556,0,15.516-6.96,15.516-15.516v-0.516h41.113v305.645h-65.162v-99.169H327.629z M39.048,111.194h17.064v369.774H39.048V111.194
	z M407.791,480.968V111.194h17.064v369.774H407.791z"/>
<g>
</g>
<g>
</g>
<g>
</g>
<g>
</g>
<g>
</g>
<g>
</g>
<g>
</g>
<g>
</g>
<g>
</g>
<g>
</g>
<g>
</g>
<g>
</g>
<g>
</g>
<g>
</g>
<g>
</g>
</svg>
